<?xml version="1.0" encoding="utf-8" standalone="no"?>
<!DOCTYPE svg PUBLIC "-//W3C//DTD SVG 1.1//EN"
  "http://www.w3.org/Graphics/SVG/1.1/DTD/svg11.dtd">
<svg xmlns:xlink="http://www.w3.org/1999/xlink" width="648pt" height="648pt" viewBox="0 0 648 648" xmlns="http://www.w3.org/2000/svg" version="1.1">
 <metadata>
  <rdf:RDF xmlns:dc="http://purl.org/dc/elements/1.1/" xmlns:cc="http://creativecommons.org/ns#" xmlns:rdf="http://www.w3.org/1999/02/22-rdf-syntax-ns#">
   <cc:Work>
    <dc:type rdf:resource="http://purl.org/dc/dcmitype/StillImage"/>
    <dc:date>2023-05-03T23:36:42.745127</dc:date>
    <dc:format>image/svg+xml</dc:format>
    <dc:creator>
     <cc:Agent>
      <dc:title>Matplotlib v3.7.1, https://matplotlib.org/</dc:title>
     </cc:Agent>
    </dc:creator>
   </cc:Work>
  </rdf:RDF>
 </metadata>
 <defs>
  <style type="text/css">*{stroke-linejoin: round; stroke-linecap: butt}</style>
 </defs>
 <g id="figure_1">
  <g id="patch_1">
   <path d="M 0 648 
L 648 648 
L 648 0 
L 0 0 
z
" style="fill: #ffffff"/>
  </g>
  <g id="axes_1">
   <g id="patch_2">
    <path d="M 531.684 327.24 
C 531.684 276.288496 512.172999 227.222283 477.184166 190.183961 
C 442.195333 153.145639 394.317957 130.876168 343.448892 127.978926 
L 332.1 327.24 
z
" style="fill: #8000ff"/>
   </g>
   <g id="patch_3">
    <path d="M 343.448892 127.978926 
C 304.28159 125.748157 265.312469 135.114383 231.437038 154.900971 
C 197.561607 174.687558 170.260402 204.029727 152.963148 239.241356 
L 332.1 327.24 
z
" style="fill: #4e4dfc"/>
   </g>
   <g id="patch_4">
    <path d="M 152.963148 239.241356 
C 138.756413 268.161686 131.762192 300.096813 132.580351 332.307796 
C 133.398509 364.518779 142.004969 396.057649 157.661589 424.21945 
L 332.1 327.24 
z
" style="fill: #1996f3"/>
   </g>
   <g id="patch_5">
    <path d="M 157.661589 424.21945 
C 171.990572 449.99321 191.855271 472.273774 215.822847 489.454046 
C 239.790423 506.634319 267.270421 518.291054 296.280712 523.583453 
L 332.1 327.24 
z
" style="fill: #18cde4"/>
   </g>
   <g id="patch_6">
    <path d="M 296.280712 523.583453 
C 312.506023 526.543466 329.035859 527.480871 345.491791 526.374209 
C 361.947722 525.267546 378.203204 522.125325 393.886085 517.019484 
L 332.1 327.24 
z
" style="fill: #4df3ce"/>
   </g>
   <g id="patch_7">
    <path d="M 393.886085 517.019484 
C 408.483846 512.266924 422.484636 505.845913 435.610497 497.883928 
C 448.736358 489.921943 460.89985 480.472024 471.859491 469.721781 
L 332.1 327.24 
z
" style="fill: #80ffb4"/>
   </g>
   <g id="patch_8">
    <path d="M 471.859491 469.721781 
C 478.774331 462.939057 485.186244 455.661943 491.044379 447.948149 
C 496.902515 440.234356 502.191344 432.104331 506.868924 423.622551 
L 332.1 327.24 
z
" style="fill: #b2f396"/>
   </g>
   <g id="patch_9">
    <path d="M 506.868924 423.622551 
C 510.902489 416.308553 514.472948 408.748558 517.559233 400.987175 
C 520.645518 393.225793 523.241547 385.278319 525.332 377.19165 
L 332.1 327.24 
z
" style="fill: #e6cd73"/>
   </g>
   <g id="patch_10">
    <path d="M 525.332 377.19165 
C 526.080119 374.297639 526.76313 371.387186 527.380514 368.462494 
C 527.997898 365.537803 528.5495 362.599611 529.034902 359.650142 
L 332.1 327.24 
z
" style="fill: #ff964f"/>
   </g>
   <g id="patch_11">
    <path d="M 529.034902 359.650142 
C 529.404224 357.40602 529.73516 355.155749 530.027566 352.900316 
C 530.319971 350.644883 530.573804 348.384616 530.788952 346.120507 
L 332.1 327.24 
z
" style="fill: #ff4d27"/>
   </g>
   <g id="patch_12">
    <path d="M 530.788952 346.120507 
C 531.087092 342.983028 531.310875 339.838927 531.460113 336.69085 
C 531.60935 333.542773 531.684 330.391602 531.684 327.239989 
L 332.1 327.24 
z
" style="fill: #ff0000"/>
   </g>
   <g id="matplotlib.axis_1"/>
   <g id="matplotlib.axis_2"/>
   <g id="text_1">
    <!-- 3室2厅1厨2卫 -->
    <g transform="translate(491.692582 180.439294) scale(0.12 -0.12)">
     <defs>
      <path id="SimHei-33" d="M 250 1225 
L 700 1300 
Q 800 975 1025 762 
Q 1250 550 1587 562 
Q 1925 575 2125 837 
Q 2325 1100 2300 1437 
Q 2275 1775 2037 1962 
Q 1800 2150 1275 2225 
L 1275 2550 
Q 1800 2600 2037 2825 
Q 2275 3050 2250 3412 
Q 2225 3775 1925 3937 
Q 1625 4100 1287 3975 
Q 950 3850 750 3275 
L 300 3350 
Q 450 3800 712 4100 
Q 975 4400 1425 4450 
Q 1875 4500 2212 4337 
Q 2550 4175 2687 3837 
Q 2825 3500 2725 3100 
Q 2625 2700 2150 2400 
Q 2500 2250 2687 1950 
Q 2875 1650 2812 1162 
Q 2750 675 2375 375 
Q 2000 75 1525 87 
Q 1050 100 700 387 
Q 350 675 250 1225 
z
" transform="scale(0.015625)"/>
      <path id="SimHei-5ba4" d="M 4325 3350 
Q 4600 3350 5075 3375 
L 5075 2900 
Q 4625 2925 4325 2925 
L 3025 2925 
Q 2775 2700 2587 2500 
Q 2400 2300 2275 2175 
Q 2650 2175 3125 2187 
Q 3600 2200 4425 2200 
Q 4250 2400 4050 2600 
Q 4250 2700 4450 2850 
Q 4675 2650 4950 2312 
Q 5225 1975 5450 1750 
Q 5200 1600 5000 1450 
Q 4800 1675 4725 1825 
Q 4200 1800 4000 1800 
Q 3800 1800 3425 1775 
L 3425 1125 
L 4425 1125 
Q 4800 1125 5275 1150 
L 5275 700 
Q 4800 725 4425 725 
L 3425 725 
L 3425 50 
L 5000 50 
Q 5500 50 5950 75 
L 5950 -375 
Q 5500 -350 5000 -350 
L 1350 -350 
Q 925 -350 400 -375 
L 400 75 
Q 925 50 1350 50 
L 2900 50 
L 2900 725 
L 2025 725 
Q 1525 725 1075 700 
L 1075 1150 
Q 1525 1125 2050 1125 
L 2900 1125 
L 2900 1750 
Q 2425 1725 2000 1700 
Q 1575 1675 1375 1600 
Q 1300 1825 1225 2125 
Q 1450 2150 1687 2250 
Q 1925 2350 2375 2925 
L 2125 2925 
Q 1700 2925 1275 2900 
L 1275 3375 
Q 1700 3350 2125 3350 
L 4325 3350 
z
M 3200 5225 
Q 3425 4775 3550 4400 
L 5800 4400 
Q 5775 4075 5775 3825 
Q 5775 3600 5800 3325 
L 5250 3325 
L 5250 4000 
L 1075 4000 
L 1075 3300 
L 525 3300 
Q 550 3550 550 3800 
Q 550 4075 525 4400 
L 2950 4400 
Q 2875 4725 2675 5050 
Q 2900 5100 3200 5225 
z
" transform="scale(0.015625)"/>
      <path id="SimHei-32" d="M 300 250 
Q 325 625 650 925 
Q 975 1225 1475 1862 
Q 1975 2500 2125 2850 
Q 2275 3200 2237 3450 
Q 2200 3700 2000 3862 
Q 1800 4025 1537 4000 
Q 1275 3975 1037 3800 
Q 800 3625 675 3275 
L 200 3350 
Q 400 3925 712 4187 
Q 1025 4450 1450 4475 
Q 1700 4500 1900 4462 
Q 2100 4425 2312 4287 
Q 2525 4150 2662 3875 
Q 2800 3600 2762 3212 
Q 2725 2825 2375 2287 
Q 2025 1750 1025 600 
L 2825 600 
L 2825 150 
L 300 150 
L 300 250 
z
" transform="scale(0.015625)"/>
      <path id="SimHei-5385" d="M 5025 4800 
Q 5575 4800 5850 4825 
L 5850 4325 
Q 5525 4350 5025 4350 
L 1500 4350 
L 1500 2275 
Q 1475 1225 1237 537 
Q 1000 -150 775 -550 
Q 600 -375 300 -250 
Q 700 450 825 1062 
Q 950 1675 975 2250 
L 975 3950 
Q 975 4350 950 4800 
L 5025 4800 
z
M 5050 3325 
Q 5600 3325 5875 3350 
L 5875 2875 
Q 5625 2900 5050 2900 
L 4100 2900 
L 4100 125 
Q 4100 -300 3850 -412 
Q 3600 -525 2950 -575 
Q 2925 -250 2750 -25 
Q 3300 -25 3462 25 
Q 3625 75 3625 300 
L 3625 2900 
L 2650 2900 
Q 2050 2900 1725 2875 
L 1725 3350 
Q 2100 3325 2625 3325 
L 5050 3325 
z
" transform="scale(0.015625)"/>
      <path id="SimHei-31" d="M 1400 3600 
Q 1075 3275 575 2975 
L 575 3450 
Q 1200 3875 1600 4450 
L 1900 4450 
L 1900 150 
L 1400 150 
L 1400 3600 
z
" transform="scale(0.015625)"/>
      <path id="SimHei-53a8" d="M 625 -575 
Q 425 -375 225 -300 
Q 575 400 675 1125 
Q 775 1850 775 2400 
L 775 3800 
Q 775 4675 750 4950 
L 5025 4950 
Q 5575 4950 5975 4975 
L 5975 4525 
Q 5675 4550 5025 4550 
L 1225 4550 
Q 1225 3000 1212 2250 
Q 1200 1500 1075 750 
Q 950 0 625 -575 
z
M 5000 3125 
Q 5000 3925 4975 4275 
L 5475 4275 
Q 5450 4000 5450 3125 
Q 5800 3125 6075 3150 
L 6075 2725 
Q 5750 2750 5450 2750 
L 5450 0 
Q 5450 -375 5187 -462 
Q 4925 -550 4525 -600 
Q 4475 -275 4300 -50 
Q 4750 -50 4875 -12 
Q 5000 25 5000 200 
L 5000 2750 
L 4600 2750 
Q 4000 2750 3800 2700 
L 3800 3150 
Q 4025 3125 4600 3125 
L 5000 3125 
z
M 3600 3025 
Q 3575 2725 3575 2225 
Q 3575 1750 3600 1500 
L 1675 1500 
Q 1700 1775 1700 2275 
Q 1700 2775 1675 3025 
L 3600 3025 
z
M 3550 1200 
Q 3475 1100 3387 825 
Q 3300 550 3200 275 
Q 3650 350 4000 425 
Q 3950 250 3925 -25 
Q 3575 -75 3212 -137 
Q 2850 -200 2550 -250 
Q 2250 -300 1450 -500 
Q 1350 -175 1250 0 
Q 1825 50 2125 100 
Q 2425 150 2775 225 
Q 2875 525 2937 800 
Q 3000 1075 3050 1325 
Q 3250 1250 3550 1200 
z
M 3100 4000 
Q 3325 4000 3700 4025 
L 3700 3600 
Q 3325 3625 3100 3625 
L 2275 3625 
Q 1750 3625 1500 3575 
L 1500 4025 
Q 1750 4000 2225 4000 
L 3100 4000 
z
M 3150 1900 
L 3150 2625 
L 2150 2625 
L 2150 1900 
L 3150 1900 
z
M 4375 2250 
Q 4450 1975 4537 1687 
Q 4625 1400 4675 1075 
Q 4450 1025 4250 925 
Q 4150 1400 4087 1625 
Q 4025 1850 3925 2125 
Q 4175 2200 4375 2250 
z
M 2150 1300 
Q 2225 1100 2312 862 
Q 2400 625 2475 400 
Q 2250 325 2050 225 
Q 1975 500 1887 725 
Q 1800 950 1725 1125 
Q 1950 1225 2150 1300 
z
" transform="scale(0.015625)"/>
      <path id="SimHei-536b" d="M 5425 4700 
Q 5400 4350 5400 3775 
L 5350 2075 
Q 5300 1375 4937 1287 
Q 4575 1200 4025 1175 
Q 4000 1450 3825 1750 
Q 4525 1725 4662 1775 
Q 4800 1825 4825 2225 
L 4850 4225 
L 3000 4225 
L 3000 150 
L 5200 150 
Q 5700 150 6075 175 
L 6075 -375 
Q 5700 -350 5200 -350 
L 1150 -350 
Q 625 -350 250 -400 
L 250 175 
Q 625 150 1150 150 
L 2475 150 
L 2475 4225 
L 1825 4225 
Q 1200 4225 750 4200 
L 750 4725 
Q 1200 4700 1825 4700 
L 5425 4700 
z
" transform="scale(0.015625)"/>
     </defs>
     <use xlink:href="#SimHei-33"/>
     <use xlink:href="#SimHei-5ba4" x="50"/>
     <use xlink:href="#SimHei-32" x="150"/>
     <use xlink:href="#SimHei-5385" x="200"/>
     <use xlink:href="#SimHei-31" x="300"/>
     <use xlink:href="#SimHei-53a8" x="350"/>
     <use xlink:href="#SimHei-32" x="450"/>
     <use xlink:href="#SimHei-536b" x="500"/>
    </g>
   </g>
   <g id="text_2">
    <!-- 24.1% -->
    <g transform="translate(404.150499 248.381376) scale(0.12 -0.12)">
     <defs>
      <path id="SimHei-34" d="M 2000 1100 
L 75 1100 
L 75 1525 
L 2100 4450 
L 2475 4450 
L 2475 1525 
L 3075 1525 
L 3075 1100 
L 2475 1100 
L 2475 150 
L 2000 150 
L 2000 1100 
z
M 2000 1525 
L 2000 3500 
L 600 1525 
L 2000 1525 
z
" transform="scale(0.015625)"/>
      <path id="SimHei-2e" d="M 1075 125 
L 500 125 
L 500 675 
L 1075 675 
L 1075 125 
z
" transform="scale(0.015625)"/>
      <path id="SimHei-25" d="M 1400 3325 
Q 1400 2600 1187 2400 
Q 975 2200 775 2200 
Q 575 2200 362 2400 
Q 150 2600 150 3325 
Q 150 4050 362 4250 
Q 575 4450 775 4450 
Q 975 4450 1187 4250 
Q 1400 4050 1400 3325 
z
M 2625 4375 
L 700 75 
L 500 150 
L 2425 4450 
L 2625 4375 
z
M 2975 1200 
Q 2975 475 2762 275 
Q 2550 75 2350 75 
Q 2150 75 1937 275 
Q 1725 475 1725 1200 
Q 1725 1925 1937 2125 
Q 2150 2325 2350 2325 
Q 2550 2325 2762 2125 
Q 2975 1925 2975 1200 
z
M 1000 3325 
Q 1000 3775 950 3925 
Q 900 4075 775 4075 
Q 650 4075 600 3925 
Q 550 3775 550 3325 
Q 550 2875 600 2725 
Q 650 2575 775 2575 
Q 900 2575 950 2725 
Q 1000 2875 1000 3325 
z
M 2575 1200 
Q 2575 1650 2525 1800 
Q 2475 1950 2350 1950 
Q 2225 1950 2175 1800 
Q 2125 1650 2125 1200 
Q 2125 750 2175 600 
Q 2225 450 2350 450 
Q 2475 450 2525 600 
Q 2575 750 2575 1200 
z
" transform="scale(0.015625)"/>
     </defs>
     <use xlink:href="#SimHei-32"/>
     <use xlink:href="#SimHei-34" x="50"/>
     <use xlink:href="#SimHei-2e" x="100"/>
     <use xlink:href="#SimHei-31" x="150"/>
     <use xlink:href="#SimHei-25" x="200"/>
    </g>
   </g>
   <g id="text_3">
    <!-- 3室2厅1厨1卫 -->
    <g transform="translate(149.370741 141.628005) scale(0.12 -0.12)">
     <use xlink:href="#SimHei-33"/>
     <use xlink:href="#SimHei-5ba4" x="50"/>
     <use xlink:href="#SimHei-32" x="150"/>
     <use xlink:href="#SimHei-5385" x="200"/>
     <use xlink:href="#SimHei-31" x="300"/>
     <use xlink:href="#SimHei-53a8" x="350"/>
     <use xlink:href="#SimHei-31" x="450"/>
     <use xlink:href="#SimHei-536b" x="500"/>
    </g>
   </g>
   <g id="text_4">
    <!-- 18.6% -->
    <g transform="translate(256.702223 227.211582) scale(0.12 -0.12)">
     <defs>
      <path id="SimHei-38" d="M 175 1375 
Q 175 1675 325 1962 
Q 475 2250 825 2425 
Q 525 2600 425 2812 
Q 325 3025 312 3300 
Q 300 3575 387 3775 
Q 475 3975 650 4150 
Q 825 4325 1037 4387 
Q 1250 4450 1500 4450 
Q 1750 4450 1950 4400 
Q 2150 4350 2375 4187 
Q 2600 4025 2700 3725 
Q 2800 3425 2687 3025 
Q 2575 2625 2100 2400 
Q 2525 2275 2700 2012 
Q 2875 1750 2875 1375 
Q 2875 1000 2762 775 
Q 2650 550 2512 400 
Q 2375 250 2137 162 
Q 1900 75 1537 75 
Q 1175 75 912 162 
Q 650 250 475 425 
Q 300 600 237 837 
Q 175 1075 175 1375 
z
M 687 1400 
Q 675 1100 787 875 
Q 900 650 1200 587 
Q 1500 525 1825 600 
Q 2150 675 2275 950 
Q 2400 1225 2362 1500 
Q 2325 1775 2050 1962 
Q 1775 2150 1450 2125 
Q 1125 2100 912 1900 
Q 700 1700 687 1400 
z
M 775 3350 
Q 775 3100 950 2875 
Q 1125 2650 1500 2650 
Q 1875 2650 2062 2875 
Q 2250 3100 2237 3412 
Q 2225 3725 2012 3875 
Q 1800 4025 1437 4000 
Q 1075 3975 925 3787 
Q 775 3600 775 3350 
z
" transform="scale(0.015625)"/>
      <path id="SimHei-36" d="M 250 1612 
Q 275 1975 387 2225 
Q 500 2475 725 2850 
L 1750 4450 
L 2325 4450 
L 1275 2800 
Q 1950 2975 2350 2750 
Q 2750 2525 2887 2237 
Q 3025 1950 3037 1612 
Q 3050 1275 2937 950 
Q 2825 625 2537 362 
Q 2250 100 1737 75 
Q 1225 50 862 262 
Q 500 475 362 862 
Q 225 1250 250 1612 
z
M 1025 787 
Q 1250 550 1625 525 
Q 2000 500 2250 775 
Q 2500 1050 2500 1575 
Q 2500 2100 2187 2300 
Q 1875 2500 1487 2450 
Q 1100 2400 925 2075 
Q 750 1750 775 1387 
Q 800 1025 1025 787 
z
" transform="scale(0.015625)"/>
     </defs>
     <use xlink:href="#SimHei-31"/>
     <use xlink:href="#SimHei-38" x="50"/>
     <use xlink:href="#SimHei-2e" x="100"/>
     <use xlink:href="#SimHei-36" x="150"/>
     <use xlink:href="#SimHei-25" x="200"/>
    </g>
   </g>
   <g id="text_5">
    <!-- 2室2厅1厨1卫 -->
    <g transform="translate(40.628386 336.775513) scale(0.12 -0.12)">
     <use xlink:href="#SimHei-32"/>
     <use xlink:href="#SimHei-5ba4" x="50"/>
     <use xlink:href="#SimHei-32" x="150"/>
     <use xlink:href="#SimHei-5385" x="200"/>
     <use xlink:href="#SimHei-31" x="300"/>
     <use xlink:href="#SimHei-53a8" x="350"/>
     <use xlink:href="#SimHei-31" x="450"/>
     <use xlink:href="#SimHei-536b" x="500"/>
    </g>
   </g>
   <g id="text_6">
    <!-- 15.3% -->
    <g transform="translate(197.38821 333.655678) scale(0.12 -0.12)">
     <defs>
      <path id="SimHei-35" d="M 550 1325 
Q 725 650 1150 575 
Q 1575 500 1837 662 
Q 2100 825 2212 1087 
Q 2325 1350 2312 1675 
Q 2300 2000 2137 2225 
Q 1975 2450 1725 2525 
Q 1475 2600 1162 2525 
Q 850 2450 650 2175 
L 225 2225 
Q 275 2375 700 4375 
L 2675 4375 
L 2675 3925 
L 1075 3925 
Q 950 3250 825 2850 
Q 1200 3025 1525 3012 
Q 1850 3000 2150 2862 
Q 2450 2725 2587 2487 
Q 2725 2250 2787 2012 
Q 2850 1775 2837 1500 
Q 2825 1225 2725 937 
Q 2625 650 2425 462 
Q 2225 275 1937 162 
Q 1650 50 1275 75 
Q 900 100 562 350 
Q 225 600 100 1200 
L 550 1325 
z
" transform="scale(0.015625)"/>
     </defs>
     <use xlink:href="#SimHei-31"/>
     <use xlink:href="#SimHei-35" x="50"/>
     <use xlink:href="#SimHei-2e" x="100"/>
     <use xlink:href="#SimHei-33" x="150"/>
     <use xlink:href="#SimHei-25" x="200"/>
    </g>
   </g>
   <g id="text_7">
    <!-- 2室1厅1厨1卫 -->
    <g transform="translate(132.195132 509.636388) scale(0.12 -0.12)">
     <use xlink:href="#SimHei-32"/>
     <use xlink:href="#SimHei-5ba4" x="50"/>
     <use xlink:href="#SimHei-31" x="150"/>
     <use xlink:href="#SimHei-5385" x="200"/>
     <use xlink:href="#SimHei-31" x="300"/>
     <use xlink:href="#SimHei-53a8" x="350"/>
     <use xlink:href="#SimHei-31" x="450"/>
     <use xlink:href="#SimHei-536b" x="500"/>
    </g>
   </g>
   <g id="text_8">
    <!-- 14.1% -->
    <g transform="translate(247.333708 427.943428) scale(0.12 -0.12)">
     <use xlink:href="#SimHei-31"/>
     <use xlink:href="#SimHei-34" x="50"/>
     <use xlink:href="#SimHei-2e" x="100"/>
     <use xlink:href="#SimHei-31" x="150"/>
     <use xlink:href="#SimHei-25" x="200"/>
    </g>
   </g>
   <g id="text_9">
    <!-- 4室2厅1厨2卫 -->
    <g transform="translate(346.83097 550.248567) scale(0.12 -0.12)">
     <use xlink:href="#SimHei-34"/>
     <use xlink:href="#SimHei-5ba4" x="50"/>
     <use xlink:href="#SimHei-32" x="150"/>
     <use xlink:href="#SimHei-5385" x="200"/>
     <use xlink:href="#SimHei-31" x="300"/>
     <use xlink:href="#SimHei-53a8" x="350"/>
     <use xlink:href="#SimHei-32" x="450"/>
     <use xlink:href="#SimHei-536b" x="500"/>
    </g>
   </g>
   <g id="text_10">
    <!-- 7.9% -->
    <g transform="translate(328.135074 450.095525) scale(0.12 -0.12)">
     <defs>
      <path id="SimHei-37" d="M 850 150 
Q 1300 2050 2425 3925 
L 275 3925 
L 275 4375 
L 2950 4375 
L 2950 3950 
Q 1775 2050 1400 150 
L 850 150 
z
" transform="scale(0.015625)"/>
      <path id="SimHei-39" d="M 800 75 
Q 1350 1000 1700 1750 
Q 1075 1650 662 1912 
Q 250 2175 162 2625 
Q 75 3075 175 3437 
Q 275 3800 487 4037 
Q 700 4275 1000 4375 
Q 1300 4475 1537 4475 
Q 1775 4475 2025 4375 
Q 2275 4275 2475 4075 
Q 2675 3875 2750 3662 
Q 2825 3450 2825 3112 
Q 2825 2775 2575 2250 
Q 2325 1725 1350 75 
L 800 75 
z
M 662 2875 
Q 700 2550 937 2337 
Q 1175 2125 1450 2150 
Q 1725 2175 1887 2300 
Q 2050 2425 2200 2725 
Q 2300 3100 2250 3362 
Q 2200 3625 1987 3800 
Q 1775 3975 1525 3975 
Q 1375 4000 1137 3900 
Q 900 3800 762 3500 
Q 625 3200 662 2875 
z
" transform="scale(0.015625)"/>
     </defs>
     <use xlink:href="#SimHei-37"/>
     <use xlink:href="#SimHei-2e" x="50"/>
     <use xlink:href="#SimHei-39" x="100"/>
     <use xlink:href="#SimHei-25" x="150"/>
    </g>
   </g>
   <g id="text_11">
    <!-- 3室1厅1厨1卫 -->
    <g transform="translate(445.961547 518.909258) scale(0.12 -0.12)">
     <use xlink:href="#SimHei-33"/>
     <use xlink:href="#SimHei-5ba4" x="50"/>
     <use xlink:href="#SimHei-31" x="150"/>
     <use xlink:href="#SimHei-5385" x="200"/>
     <use xlink:href="#SimHei-31" x="300"/>
     <use xlink:href="#SimHei-53a8" x="350"/>
     <use xlink:href="#SimHei-31" x="450"/>
     <use xlink:href="#SimHei-536b" x="500"/>
    </g>
   </g>
   <g id="text_12">
    <!-- 7.3% -->
    <g transform="translate(382.206298 433.001357) scale(0.12 -0.12)">
     <use xlink:href="#SimHei-37"/>
     <use xlink:href="#SimHei-2e" x="50"/>
     <use xlink:href="#SimHei-33" x="100"/>
     <use xlink:href="#SimHei-25" x="150"/>
    </g>
   </g>
   <g id="text_13">
    <!-- 1室1厅1厨1卫 -->
    <g transform="translate(506.938817 463.979902) scale(0.12 -0.12)">
     <use xlink:href="#SimHei-31"/>
     <use xlink:href="#SimHei-5ba4" x="50"/>
     <use xlink:href="#SimHei-31" x="150"/>
     <use xlink:href="#SimHei-5385" x="200"/>
     <use xlink:href="#SimHei-31" x="300"/>
     <use xlink:href="#SimHei-53a8" x="350"/>
     <use xlink:href="#SimHei-31" x="450"/>
     <use xlink:href="#SimHei-536b" x="500"/>
    </g>
   </g>
   <g id="text_14">
    <!-- 4.6% -->
    <g transform="translate(415.466628 403.03989) scale(0.12 -0.12)">
     <use xlink:href="#SimHei-34"/>
     <use xlink:href="#SimHei-2e" x="50"/>
     <use xlink:href="#SimHei-36" x="100"/>
     <use xlink:href="#SimHei-25" x="150"/>
    </g>
   </g>
   <g id="text_15">
    <!-- 3室1厅1厨2卫 -->
    <g transform="translate(536.105157 412.32283) scale(0.12 -0.12)">
     <use xlink:href="#SimHei-33"/>
     <use xlink:href="#SimHei-5ba4" x="50"/>
     <use xlink:href="#SimHei-31" x="150"/>
     <use xlink:href="#SimHei-5385" x="200"/>
     <use xlink:href="#SimHei-31" x="300"/>
     <use xlink:href="#SimHei-53a8" x="350"/>
     <use xlink:href="#SimHei-32" x="450"/>
     <use xlink:href="#SimHei-536b" x="500"/>
    </g>
   </g>
   <g id="text_16">
    <!-- 4.0% -->
    <g transform="translate(431.37554 374.863305) scale(0.12 -0.12)">
     <defs>
      <path id="SimHei-30" d="M 225 2537 
Q 250 3200 412 3587 
Q 575 3975 875 4225 
Q 1175 4475 1612 4475 
Q 2050 4475 2375 4112 
Q 2700 3750 2800 3200 
Q 2900 2650 2862 1937 
Q 2825 1225 2612 775 
Q 2400 325 1975 150 
Q 1550 -25 1125 187 
Q 700 400 525 750 
Q 350 1100 275 1487 
Q 200 1875 225 2537 
z
M 750 2687 
Q 675 2000 800 1462 
Q 925 925 1212 700 
Q 1500 475 1800 612 
Q 2100 750 2237 1162 
Q 2375 1575 2375 2062 
Q 2375 2550 2337 2950 
Q 2300 3350 2112 3675 
Q 1925 4000 1612 4012 
Q 1300 4025 1062 3700 
Q 825 3375 750 2687 
z
" transform="scale(0.015625)"/>
     </defs>
     <use xlink:href="#SimHei-34"/>
     <use xlink:href="#SimHei-2e" x="50"/>
     <use xlink:href="#SimHei-30" x="100"/>
     <use xlink:href="#SimHei-25" x="150"/>
    </g>
   </g>
   <g id="text_17">
    <!-- 4室2厅1厨3卫 -->
    <g transform="translate(546.908565 376.545681) scale(0.12 -0.12)">
     <use xlink:href="#SimHei-34"/>
     <use xlink:href="#SimHei-5ba4" x="50"/>
     <use xlink:href="#SimHei-32" x="150"/>
     <use xlink:href="#SimHei-5385" x="200"/>
     <use xlink:href="#SimHei-31" x="300"/>
     <use xlink:href="#SimHei-53a8" x="350"/>
     <use xlink:href="#SimHei-33" x="450"/>
     <use xlink:href="#SimHei-536b" x="500"/>
    </g>
   </g>
   <g id="text_18">
    <!-- 1.4% -->
    <g transform="translate(437.268308 355.348497) scale(0.12 -0.12)">
     <use xlink:href="#SimHei-31"/>
     <use xlink:href="#SimHei-2e" x="50"/>
     <use xlink:href="#SimHei-34" x="100"/>
     <use xlink:href="#SimHei-25" x="150"/>
    </g>
   </g>
   <g id="text_19">
    <!-- 5室2厅1厨2卫 -->
    <g transform="translate(549.820322 359.427285) scale(0.12 -0.12)">
     <use xlink:href="#SimHei-35"/>
     <use xlink:href="#SimHei-5ba4" x="50"/>
     <use xlink:href="#SimHei-32" x="150"/>
     <use xlink:href="#SimHei-5385" x="200"/>
     <use xlink:href="#SimHei-31" x="300"/>
     <use xlink:href="#SimHei-53a8" x="350"/>
     <use xlink:href="#SimHei-32" x="450"/>
     <use xlink:href="#SimHei-536b" x="500"/>
    </g>
   </g>
   <g id="text_20">
    <!-- 1.1% -->
    <g transform="translate(438.856539 346.01119) scale(0.12 -0.12)">
     <use xlink:href="#SimHei-31"/>
     <use xlink:href="#SimHei-2e" x="50"/>
     <use xlink:href="#SimHei-31" x="100"/>
     <use xlink:href="#SimHei-25" x="150"/>
    </g>
   </g>
   <g id="text_21">
    <!-- 其他 -->
    <g transform="translate(551.396124 341.596872) scale(0.12 -0.12)">
     <defs>
      <path id="SimHei-5176" d="M 4725 1375 
Q 5550 1375 6025 1400 
L 6025 1000 
Q 5575 1025 5250 1025 
L 1225 1025 
Q 675 1025 325 1000 
L 325 1400 
Q 525 1375 1650 1375 
L 1650 3950 
Q 1050 3950 675 3925 
L 675 4350 
Q 875 4325 1650 4325 
Q 1650 4875 1625 5125 
L 2225 5125 
Q 2175 4850 2175 4325 
L 4200 4325 
Q 4200 4775 4175 5100 
L 4750 5100 
Q 4725 4775 4725 4325 
Q 5275 4325 5675 4350 
L 5675 3925 
Q 5250 3950 4725 3950 
L 4725 1375 
z
M 4200 1375 
L 4200 2000 
L 2175 2000 
L 2175 1375 
L 4200 1375 
z
M 4200 2375 
L 4200 3000 
L 2175 3000 
L 2175 2375 
L 4200 2375 
z
M 4200 3350 
L 4200 3950 
L 2175 3950 
L 2175 3350 
L 4200 3350 
z
M 4175 875 
Q 5200 225 5750 -225 
Q 5500 -400 5325 -625 
Q 5025 -250 3825 500 
Q 4075 700 4175 875 
z
M 525 -275 
Q 800 -125 1275 212 
Q 1750 550 2075 875 
Q 2275 675 2475 500 
Q 2200 300 900 -650 
Q 750 -425 525 -275 
z
" transform="scale(0.015625)"/>
      <path id="SimHei-4ed6" d="M 2500 2875 
Q 2500 3850 2475 4225 
L 3000 4225 
Q 2975 3900 2975 3025 
L 3775 3275 
L 3775 4300 
Q 3775 4800 3725 5150 
L 4250 5150 
Q 4225 4800 4225 4275 
L 4225 3450 
L 5575 3925 
Q 5550 2600 5550 2075 
Q 5550 1550 5275 1425 
Q 5000 1300 4575 1225 
Q 4525 1475 4375 1750 
Q 4850 1750 4950 1787 
Q 5050 1825 5050 2025 
L 5075 3275 
L 4225 2975 
L 4225 1375 
Q 4225 950 4250 650 
L 3750 650 
Q 3775 950 3775 1375 
L 3775 2850 
L 2975 2575 
L 2975 425 
Q 2975 75 3325 100 
L 5100 100 
Q 5300 100 5400 212 
Q 5500 325 5550 925 
Q 5850 700 6125 650 
Q 5950 0 5750 -175 
Q 5550 -350 5175 -325 
L 3225 -325 
Q 2550 -350 2500 275 
L 2500 2425 
Q 2125 2300 1900 2175 
L 1700 2650 
Q 2025 2700 2500 2875 
z
M 2250 4925 
Q 2025 4625 1650 3775 
L 1650 475 
Q 1650 -150 1700 -575 
L 1175 -575 
Q 1200 -150 1200 475 
L 1200 2925 
Q 875 2325 700 2050 
Q 525 2275 300 2400 
Q 625 2750 1062 3637 
Q 1500 4525 1650 5175 
Q 2050 5000 2250 4925 
z
" transform="scale(0.015625)"/>
     </defs>
     <use xlink:href="#SimHei-5176"/>
     <use xlink:href="#SimHei-4ed6" x="100"/>
    </g>
   </g>
   <g id="text_22">
    <!-- 1.5% -->
    <g transform="translate(439.716068 336.28551) scale(0.12 -0.12)">
     <use xlink:href="#SimHei-31"/>
     <use xlink:href="#SimHei-2e" x="50"/>
     <use xlink:href="#SimHei-35" x="100"/>
     <use xlink:href="#SimHei-25" x="150"/>
    </g>
   </g>
   <g id="text_23">
    <!-- 武汉二手房房屋户型占比情况 -->
    <g transform="translate(215.1 71.76) scale(0.18 -0.18)">
     <defs>
      <path id="SimHei-6b66" d="M 3700 3375 
Q 3675 3825 3662 4187 
Q 3650 4550 3625 5125 
L 4225 5125 
Q 4150 4725 4150 4275 
Q 4150 3825 4175 3375 
L 4925 3375 
Q 5400 3375 5875 3400 
L 5875 2950 
Q 5400 2975 4925 2975 
L 4175 2975 
Q 4250 1975 4500 1362 
Q 4750 750 5037 375 
Q 5325 0 5462 162 
Q 5600 325 5625 775 
Q 5850 525 6125 400 
Q 5900 -375 5700 -537 
Q 5500 -700 5137 -412 
Q 4775 -125 4525 237 
Q 4275 600 4125 962 
Q 3975 1325 3875 1787 
Q 3775 2250 3725 2975 
L 2550 2975 
L 2550 2025 
Q 3075 2025 3475 2050 
L 3475 1575 
Q 3025 1600 2550 1600 
L 2550 475 
Q 3300 600 3700 650 
Q 3675 475 3675 175 
Q 2825 75 1887 -100 
Q 950 -275 475 -425 
Q 450 -150 325 200 
Q 600 200 925 250 
L 925 1575 
Q 925 1975 900 2350 
L 1450 2350 
Q 1425 1975 1425 1600 
L 1425 300 
L 2075 400 
L 2075 2975 
L 1425 2975 
Q 900 2975 375 2950 
L 375 3400 
Q 900 3375 1425 3375 
L 3700 3375 
z
M 3125 4100 
Q 2575 4125 2000 4125 
Q 1450 4125 875 4100 
L 875 4575 
Q 1475 4550 2025 4550 
Q 2600 4550 3125 4575 
L 3125 4100 
z
M 4900 4700 
Q 5375 4300 5650 4025 
Q 5425 3850 5250 3675 
Q 5075 3900 4575 4350 
Q 4750 4475 4900 4700 
z
" transform="scale(0.015625)"/>
      <path id="SimHei-6c49" d="M 2650 4300 
Q 2400 4275 2175 4275 
L 2175 4750 
Q 2775 4725 3225 4725 
L 5625 4725 
Q 5400 3700 5087 2800 
Q 4775 1900 4325 1225 
Q 4675 825 5162 462 
Q 5650 100 6150 -150 
Q 5925 -275 5725 -600 
Q 5375 -375 4875 50 
Q 4375 475 4025 900 
Q 3625 450 3100 62 
Q 2575 -325 1975 -675 
Q 1900 -475 1625 -225 
Q 2075 -75 2662 300 
Q 3250 675 3750 1250 
Q 3350 1850 3100 2587 
Q 2850 3325 2650 4300 
z
M 3125 4300 
Q 3225 3600 3500 2812 
Q 3775 2025 4050 1650 
Q 4300 2025 4562 2712 
Q 4825 3400 5025 4300 
L 3325 4300 
L 3125 4300 
z
M 1925 1600 
Q 1325 475 875 -425 
Q 700 -250 400 -100 
Q 750 375 1050 937 
Q 1350 1500 1525 1950 
Q 1725 1725 1925 1600 
z
M 625 3600 
Q 1075 3350 1825 2850 
Q 1650 2650 1500 2400 
Q 950 2850 350 3175 
Q 525 3400 625 3600 
z
M 925 5125 
Q 1475 4750 2000 4350 
Q 1800 4125 1675 3925 
Q 1175 4400 625 4750 
Q 850 4975 925 5125 
z
" transform="scale(0.015625)"/>
      <path id="SimHei-4e8c" d="M 5050 625 
Q 5650 625 6025 675 
L 6025 50 
Q 5625 75 5050 75 
L 1425 75 
Q 775 75 350 50 
L 350 650 
Q 800 625 1400 625 
L 5050 625 
z
M 4350 4150 
Q 4900 4175 5350 4200 
L 5350 3575 
Q 4900 3600 4375 3600 
L 2050 3600 
Q 1450 3600 1000 3575 
L 1000 4175 
Q 1450 4150 2025 4150 
L 4350 4150 
z
" transform="scale(0.015625)"/>
      <path id="SimHei-624b" d="M 5525 4425 
Q 5175 4400 3550 4250 
L 3550 3250 
L 4675 3250 
Q 5100 3250 5525 3275 
L 5525 2800 
Q 5100 2800 4675 2825 
L 3550 2825 
L 3550 1900 
L 5325 1900 
Q 5700 1900 6100 1925 
L 6100 1450 
Q 5700 1475 5325 1475 
L 3550 1475 
L 3550 125 
Q 3575 -250 3312 -400 
Q 3050 -550 2425 -600 
Q 2400 -300 2175 -25 
Q 2650 -25 2850 37 
Q 3050 100 3025 350 
L 3025 1475 
L 1225 1475 
Q 775 1450 375 1450 
L 375 1925 
Q 800 1900 1225 1900 
L 3025 1900 
L 3025 2825 
L 1925 2825 
Q 1475 2825 1000 2800 
L 1000 3275 
Q 1450 3250 1925 3250 
L 3025 3250 
L 3025 4200 
Q 1725 4125 1050 4100 
Q 975 4375 825 4575 
Q 1725 4550 3162 4662 
Q 4600 4775 5200 5000 
Q 5350 4650 5525 4425 
z
" transform="scale(0.015625)"/>
      <path id="SimHei-623f" d="M 3175 2800 
Q 3500 2850 3700 2975 
Q 3925 2475 3975 2300 
L 5100 2300 
Q 5525 2300 6025 2325 
L 6025 1875 
Q 5525 1900 5100 1900 
L 3225 1900 
Q 3200 1550 3175 1325 
L 5525 1325 
Q 5475 950 5412 537 
Q 5350 125 5287 -112 
Q 5225 -350 5050 -437 
Q 4875 -525 4000 -600 
Q 3925 -275 3800 -50 
Q 4550 -100 4687 -25 
Q 4825 50 4875 250 
Q 4925 500 4975 900 
L 3100 900 
Q 2975 425 2612 0 
Q 2250 -425 1750 -725 
Q 1625 -500 1350 -325 
Q 1675 -200 1925 0 
Q 2175 200 2375 487 
Q 2575 775 2650 1137 
Q 2725 1500 2725 1900 
L 1500 1900 
Q 1475 1250 1262 562 
Q 1050 -125 750 -600 
Q 550 -375 275 -275 
Q 475 -50 687 387 
Q 900 825 975 1400 
Q 1050 1975 1050 2850 
Q 1050 3750 1025 4500 
L 3100 4500 
Q 3025 4750 2875 5100 
Q 3150 5175 3400 5275 
Q 3625 4700 3650 4500 
L 5575 4500 
Q 5550 4100 5550 3700 
Q 5550 3300 5575 3000 
L 1525 3000 
L 1525 2300 
L 3425 2300 
Q 3350 2600 3175 2800 
z
M 5100 3375 
L 5100 4100 
L 1525 4100 
L 1525 3375 
L 5100 3375 
z
" transform="scale(0.015625)"/>
      <path id="SimHei-5c4b" d="M 5525 4925 
Q 5500 4600 5500 4225 
Q 5500 3875 5525 3550 
L 1550 3550 
Q 1550 2700 1512 2137 
Q 1475 1575 1312 875 
Q 1150 175 725 -550 
Q 550 -400 275 -275 
Q 775 400 937 1250 
Q 1100 2100 1100 3075 
Q 1100 4050 1075 4925 
L 5525 4925 
z
M 5050 3100 
Q 5350 3100 5775 3125 
L 5775 2725 
Q 5350 2750 5050 2750 
L 3700 2750 
Q 3500 2550 2825 1950 
Q 3225 1950 3650 1962 
Q 4075 1975 4675 1975 
Q 4500 2150 4225 2375 
Q 4400 2525 4550 2675 
Q 5125 2175 5675 1625 
Q 5450 1500 5275 1325 
Q 5125 1525 4950 1650 
Q 4475 1650 3900 1625 
L 3900 1025 
L 4825 1025 
Q 5125 1025 5600 1050 
L 5600 625 
Q 5150 650 4825 650 
L 3900 650 
L 3900 0 
L 5275 0 
Q 5600 0 6050 25 
L 6050 -375 
Q 5600 -350 5275 -350 
L 2200 -350 
Q 1775 -350 1475 -375 
L 1475 25 
Q 1775 0 2175 0 
L 3450 0 
L 3450 650 
L 2675 650 
Q 2275 650 1875 625 
L 1875 1050 
Q 2275 1025 2650 1025 
L 3450 1025 
L 3450 1625 
Q 3150 1625 2850 1612 
Q 2550 1600 2150 1525 
Q 2125 1675 2000 1925 
Q 2250 1975 2500 2162 
Q 2750 2350 3150 2750 
L 2475 2750 
Q 2150 2750 1650 2725 
L 1650 3125 
Q 2125 3100 2450 3100 
L 5050 3100 
z
M 5075 3900 
L 5075 4550 
L 1550 4550 
L 1550 3900 
L 5075 3900 
z
" transform="scale(0.015625)"/>
      <path id="SimHei-6237" d="M 5775 4050 
Q 5750 3450 5750 2675 
Q 5750 1925 5775 1500 
L 5225 1500 
L 5225 1875 
L 1750 1875 
Q 1650 1075 1500 675 
Q 1350 275 1175 -37 
Q 1000 -350 800 -625 
Q 550 -425 250 -325 
Q 750 200 937 662 
Q 1125 1125 1187 1537 
Q 1250 1950 1250 2425 
Q 1250 2900 1225 4050 
L 5775 4050 
z
M 5200 2325 
L 5200 3600 
L 1725 3600 
L 1725 2325 
L 5200 2325 
z
M 3400 5275 
Q 3700 4675 3825 4325 
Q 3500 4250 3325 4150 
Q 3150 4675 2925 5075 
Q 3175 5150 3400 5275 
z
" transform="scale(0.015625)"/>
      <path id="SimHei-578b" d="M 2625 1775 
Q 2650 2325 2650 2700 
L 2650 3000 
L 1825 3000 
Q 1725 2375 1425 2000 
Q 1125 1625 775 1425 
Q 650 1650 375 1900 
Q 850 2075 1062 2362 
Q 1275 2650 1350 3000 
Q 900 3000 375 2975 
L 375 3450 
Q 925 3425 1400 3425 
Q 1425 3950 1425 4475 
Q 1075 4475 700 4450 
L 700 4900 
Q 1050 4875 1525 4875 
L 3000 4875 
Q 3275 4875 3650 4900 
L 3650 4450 
Q 3325 4475 3125 4475 
L 3125 3425 
Q 3450 3425 3825 3450 
L 3825 2975 
Q 3450 3000 3125 3000 
L 3125 2675 
Q 3125 2225 3150 1775 
L 2625 1775 
z
M 3000 1175 
Q 3000 1375 2975 1725 
L 3500 1725 
Q 3475 1375 3475 1175 
L 4550 1175 
Q 5050 1175 5450 1200 
L 5450 725 
Q 4975 750 4550 750 
L 3475 750 
L 3475 -50 
L 5275 -50 
Q 5700 -50 6100 -25 
L 6100 -500 
Q 5725 -475 5300 -475 
L 1250 -475 
Q 775 -475 400 -500 
L 400 -25 
Q 775 -50 1250 -50 
L 3000 -50 
L 3000 750 
L 2025 750 
Q 1500 750 975 725 
L 1050 1200 
Q 1500 1175 2025 1175 
L 3000 1175 
z
M 5775 5200 
Q 5750 4775 5750 4325 
L 5750 2400 
Q 5775 1950 5612 1775 
Q 5450 1600 4900 1525 
Q 4825 1775 4675 2100 
Q 5175 2075 5237 2150 
Q 5300 2225 5300 2525 
L 5300 4325 
Q 5300 4775 5275 5200 
L 5775 5200 
z
M 4600 4750 
Q 4575 4450 4575 3975 
L 4575 3200 
Q 4575 2825 4600 2425 
L 4100 2425 
Q 4125 2825 4125 3200 
L 4125 3975 
Q 4125 4450 4100 4750 
L 4600 4750 
z
M 2650 3425 
L 2650 4475 
L 1875 4475 
Q 1850 3750 1850 3425 
L 2650 3425 
z
" transform="scale(0.015625)"/>
      <path id="SimHei-5360" d="M 2725 4400 
Q 2725 4800 2700 5075 
L 3375 5075 
Q 3350 4775 3350 4400 
L 3350 4000 
L 5250 4000 
Q 5900 4000 6150 4025 
L 6150 3525 
Q 5900 3550 5300 3550 
L 3350 3550 
L 3350 2325 
L 5450 2325 
Q 5400 2000 5400 1525 
L 5400 325 
Q 5400 -250 5450 -550 
L 4850 -550 
L 4850 -25 
L 1475 -25 
L 1475 -550 
L 875 -550 
Q 900 -150 900 175 
L 900 1550 
Q 900 2000 875 2325 
L 2725 2325 
L 2725 4400 
z
M 4850 425 
L 4850 1875 
L 1475 1875 
L 1475 425 
L 4850 425 
z
" transform="scale(0.015625)"/>
      <path id="SimHei-6bd4" d="M 3775 5100 
Q 3750 4575 3750 4100 
L 3750 3050 
Q 4925 3600 5475 4175 
Q 5675 3900 5900 3675 
Q 5600 3500 5037 3187 
Q 4475 2875 3750 2550 
L 3750 450 
Q 3750 100 4050 100 
L 5000 100 
Q 5175 100 5262 250 
Q 5350 400 5450 900 
Q 5650 775 6025 675 
Q 5850 0 5650 -175 
Q 5450 -350 5225 -350 
L 3900 -350 
Q 3250 -350 3250 275 
L 3250 4000 
Q 3250 4550 3225 5100 
L 3775 5100 
z
M 1275 4975 
Q 1250 4575 1250 4000 
L 1250 3150 
L 1850 3150 
Q 2325 3150 2875 3175 
L 2875 2650 
Q 2325 2675 1850 2675 
L 1250 2675 
L 1250 475 
Q 1650 650 1962 812 
Q 2275 975 2850 1275 
Q 2900 950 2950 750 
Q 2375 475 1762 175 
Q 1150 -125 925 -325 
Q 750 -100 575 200 
Q 700 300 750 600 
L 750 3950 
Q 750 4550 725 4975 
L 1275 4975 
z
" transform="scale(0.015625)"/>
      <path id="SimHei-60c5" d="M 2775 1475 
Q 2775 2050 2750 2525 
L 5600 2525 
Q 5575 2100 5575 1725 
L 5575 -150 
Q 5575 -425 5375 -500 
Q 5175 -575 4875 -625 
Q 4850 -400 4700 -150 
Q 5050 -150 5100 -75 
Q 5150 0 5150 475 
L 3225 475 
L 3225 -625 
L 2750 -625 
Q 2775 -50 2775 375 
L 2775 1475 
z
M 2375 3250 
Q 2975 3225 3475 3225 
L 3975 3225 
L 3975 3625 
L 3500 3625 
Q 3075 3625 2625 3600 
L 2625 4025 
Q 3075 4000 3500 4000 
L 3975 4000 
L 3975 4350 
L 3450 4350 
Q 3050 4350 2475 4325 
L 2475 4750 
Q 3075 4725 3450 4725 
L 3975 4725 
Q 3975 4975 3950 5225 
L 4475 5225 
Q 4450 4975 4450 4725 
L 5125 4725 
Q 5550 4725 5925 4750 
L 5925 4325 
Q 5550 4350 5125 4350 
L 4450 4350 
L 4450 4000 
L 4925 4000 
Q 5325 4000 5750 4025 
L 5750 3600 
Q 5300 3625 4925 3625 
L 4450 3625 
L 4450 3225 
L 5175 3225 
Q 5775 3225 6150 3250 
L 6150 2825 
Q 5775 2850 5150 2850 
L 3500 2850 
Q 2850 2850 2375 2825 
L 2375 3250 
z
M 1675 5225 
Q 1650 4800 1650 4400 
L 1650 425 
Q 1650 -100 1675 -600 
L 1150 -600 
Q 1200 -100 1200 425 
L 1200 4325 
Q 1200 4825 1150 5225 
L 1675 5225 
z
M 5125 850 
L 5125 1325 
L 3225 1325 
L 3225 850 
L 5125 850 
z
M 5125 1700 
L 5125 2150 
L 3225 2150 
L 3225 1700 
L 5125 1700 
z
M 1050 3900 
Q 1000 3675 725 2275 
Q 500 2350 250 2375 
Q 425 2750 575 3975 
Q 800 3925 1050 3900 
z
M 1975 3125 
Q 1925 3425 1775 3975 
Q 1950 4000 2200 4075 
Q 2350 3550 2450 3275 
Q 2175 3200 1975 3125 
z
" transform="scale(0.015625)"/>
      <path id="SimHei-51b5" d="M 5450 4875 
Q 5425 4500 5425 3675 
Q 5425 2850 5450 2375 
L 4575 2375 
L 4575 400 
Q 4575 50 4762 25 
Q 4950 0 5200 12 
Q 5450 25 5500 187 
Q 5550 350 5575 825 
Q 5850 675 6150 600 
Q 5975 -175 5775 -287 
Q 5575 -400 5175 -412 
Q 4775 -425 4437 -362 
Q 4100 -300 4100 200 
L 4100 2375 
L 3475 2375 
Q 3500 150 1600 -625 
Q 1525 -375 1275 -150 
Q 3000 375 3000 2375 
L 2325 2375 
Q 2350 2850 2350 3675 
Q 2350 4525 2325 4875 
L 5450 4875 
z
M 4900 2775 
L 4900 4475 
L 2850 4475 
L 2850 2775 
L 4900 2775 
z
M 2025 2200 
Q 1750 1725 1350 1000 
Q 950 275 775 0 
Q 525 175 300 300 
Q 800 975 1600 2500 
Q 1850 2300 2025 2200 
z
M 950 4950 
Q 1100 4775 1350 4462 
Q 1600 4150 1850 3800 
Q 1575 3625 1375 3450 
Q 1075 4025 525 4600 
Q 775 4825 950 4950 
z
" transform="scale(0.015625)"/>
     </defs>
     <use xlink:href="#SimHei-6b66"/>
     <use xlink:href="#SimHei-6c49" x="100"/>
     <use xlink:href="#SimHei-4e8c" x="200"/>
     <use xlink:href="#SimHei-624b" x="300"/>
     <use xlink:href="#SimHei-623f" x="400"/>
     <use xlink:href="#SimHei-623f" x="500"/>
     <use xlink:href="#SimHei-5c4b" x="600"/>
     <use xlink:href="#SimHei-6237" x="700"/>
     <use xlink:href="#SimHei-578b" x="800"/>
     <use xlink:href="#SimHei-5360" x="900"/>
     <use xlink:href="#SimHei-6bd4" x="1000"/>
     <use xlink:href="#SimHei-60c5" x="1100"/>
     <use xlink:href="#SimHei-51b5" x="1200"/>
    </g>
   </g>
  </g>
 </g>
</svg>
