<?xml version="1.0" encoding="utf-8" standalone="no"?>
<!DOCTYPE svg PUBLIC "-//W3C//DTD SVG 1.1//EN"
  "http://www.w3.org/Graphics/SVG/1.1/DTD/svg11.dtd">
<svg xmlns:xlink="http://www.w3.org/1999/xlink" width="864pt" height="504pt" viewBox="0 0 864 504" xmlns="http://www.w3.org/2000/svg" version="1.1">
 <metadata>
  <rdf:RDF xmlns:dc="http://purl.org/dc/elements/1.1/" xmlns:cc="http://creativecommons.org/ns#" xmlns:rdf="http://www.w3.org/1999/02/22-rdf-syntax-ns#">
   <cc:Work>
    <dc:type rdf:resource="http://purl.org/dc/dcmitype/StillImage"/>
    <dc:date>2023-05-03T22:49:58.502874</dc:date>
    <dc:format>image/svg+xml</dc:format>
    <dc:creator>
     <cc:Agent>
      <dc:title>Matplotlib v3.7.1, https://matplotlib.org/</dc:title>
     </cc:Agent>
    </dc:creator>
   </cc:Work>
  </rdf:RDF>
 </metadata>
 <defs>
  <style type="text/css">*{stroke-linejoin: round; stroke-linecap: butt}</style>
 </defs>
 <g id="figure_1">
  <g id="patch_1">
   <path d="M 0 504 
L 864 504 
L 864 0 
L 0 0 
z
" style="fill: #ffffff"/>
  </g>
  <g id="axes_1">
   <g id="patch_2">
    <path d="M 108 448.56 
L 777.6 448.56 
L 777.6 60.48 
L 108 60.48 
z
" style="fill: #ffffff"/>
   </g>
   <g id="patch_3">
    <path d="M 119.16 448.56 
L 141.48 448.56 
L 141.48 78.96 
L 119.16 78.96 
z
" clip-path="url(#p6593e535a4)" style="fill: #1f77b4"/>
   </g>
   <g id="patch_4">
    <path d="M 163.8 448.56 
L 186.12 448.56 
L 186.12 80.245317 
L 163.8 80.245317 
z
" clip-path="url(#p6593e535a4)" style="fill: #1f77b4"/>
   </g>
   <g id="patch_5">
    <path d="M 208.44 448.56 
L 230.76 448.56 
L 230.76 90.654239 
L 208.44 90.654239 
z
" clip-path="url(#p6593e535a4)" style="fill: #1f77b4"/>
   </g>
   <g id="patch_6">
    <path d="M 253.08 448.56 
L 275.4 448.56 
L 275.4 93.909632 
L 253.08 93.909632 
z
" clip-path="url(#p6593e535a4)" style="fill: #1f77b4"/>
   </g>
   <g id="patch_7">
    <path d="M 297.72 448.56 
L 320.04 448.56 
L 320.04 95.389301 
L 297.72 95.389301 
z
" clip-path="url(#p6593e535a4)" style="fill: #1f77b4"/>
   </g>
   <g id="patch_8">
    <path d="M 342.36 448.56 
L 364.68 448.56 
L 364.68 104.532396 
L 342.36 104.532396 
z
" clip-path="url(#p6593e535a4)" style="fill: #1f77b4"/>
   </g>
   <g id="patch_9">
    <path d="M 387 448.56 
L 409.32 448.56 
L 409.32 111.930391 
L 387 111.930391 
z
" clip-path="url(#p6593e535a4)" style="fill: #1f77b4"/>
   </g>
   <g id="patch_10">
    <path d="M 431.64 448.56 
L 453.96 448.56 
L 453.96 113.408899 
L 431.64 113.408899 
z
" clip-path="url(#p6593e535a4)" style="fill: #1f77b4"/>
   </g>
   <g id="patch_11">
    <path d="M 476.28 448.56 
L 498.6 448.56 
L 498.6 114.588845 
L 476.28 114.588845 
z
" clip-path="url(#p6593e535a4)" style="fill: #1f77b4"/>
   </g>
   <g id="patch_12">
    <path d="M 520.92 448.56 
L 543.24 448.56 
L 543.24 119.372418 
L 520.92 119.372418 
z
" clip-path="url(#p6593e535a4)" style="fill: #1f77b4"/>
   </g>
   <g id="patch_13">
    <path d="M 565.56 448.56 
L 587.88 448.56 
L 587.88 124.570723 
L 565.56 124.570723 
z
" clip-path="url(#p6593e535a4)" style="fill: #1f77b4"/>
   </g>
   <g id="patch_14">
    <path d="M 610.2 448.56 
L 632.52 448.56 
L 632.52 139.369406 
L 610.2 139.369406 
z
" clip-path="url(#p6593e535a4)" style="fill: #1f77b4"/>
   </g>
   <g id="patch_15">
    <path d="M 654.84 448.56 
L 677.16 448.56 
L 677.16 139.825777 
L 654.84 139.825777 
z
" clip-path="url(#p6593e535a4)" style="fill: #1f77b4"/>
   </g>
   <g id="patch_16">
    <path d="M 699.48 448.56 
L 721.8 448.56 
L 721.8 147.521083 
L 699.48 147.521083 
z
" clip-path="url(#p6593e535a4)" style="fill: #1f77b4"/>
   </g>
   <g id="patch_17">
    <path d="M 744.12 448.56 
L 766.44 448.56 
L 766.44 148.122956 
L 744.12 148.122956 
z
" clip-path="url(#p6593e535a4)" style="fill: #1f77b4"/>
   </g>
   <g id="matplotlib.axis_1">
    <g id="xtick_1">
     <g id="line2d_1">
      <defs>
       <path id="m8862e5cb71" d="M 0 0 
L 0 3.5 
" style="stroke: #000000; stroke-width: 0.8"/>
      </defs>
      <g>
       <use xlink:href="#m8862e5cb71" x="130.32" y="448.56" style="stroke: #000000; stroke-width: 0.8"/>
      </g>
     </g>
     <g id="text_1">
      <!-- 汉南 -->
      <g transform="translate(134.398125 479.56) rotate(-90) scale(0.12 -0.12)">
       <defs>
        <path id="SimHei-6c49" d="M 2650 4300 
Q 2400 4275 2175 4275 
L 2175 4750 
Q 2775 4725 3225 4725 
L 5625 4725 
Q 5400 3700 5087 2800 
Q 4775 1900 4325 1225 
Q 4675 825 5162 462 
Q 5650 100 6150 -150 
Q 5925 -275 5725 -600 
Q 5375 -375 4875 50 
Q 4375 475 4025 900 
Q 3625 450 3100 62 
Q 2575 -325 1975 -675 
Q 1900 -475 1625 -225 
Q 2075 -75 2662 300 
Q 3250 675 3750 1250 
Q 3350 1850 3100 2587 
Q 2850 3325 2650 4300 
z
M 3125 4300 
Q 3225 3600 3500 2812 
Q 3775 2025 4050 1650 
Q 4300 2025 4562 2712 
Q 4825 3400 5025 4300 
L 3325 4300 
L 3125 4300 
z
M 1925 1600 
Q 1325 475 875 -425 
Q 700 -250 400 -100 
Q 750 375 1050 937 
Q 1350 1500 1525 1950 
Q 1725 1725 1925 1600 
z
M 625 3600 
Q 1075 3350 1825 2850 
Q 1650 2650 1500 2400 
Q 950 2850 350 3175 
Q 525 3400 625 3600 
z
M 925 5125 
Q 1475 4750 2000 4350 
Q 1800 4125 1675 3925 
Q 1175 4400 625 4750 
Q 850 4975 925 5125 
z
" transform="scale(0.015625)"/>
        <path id="SimHei-5357" d="M 4550 -100 
Q 4925 -100 5100 -87 
Q 5275 -75 5225 175 
L 5225 3075 
L 1125 3075 
L 1125 -600 
L 575 -600 
Q 625 25 625 675 
L 625 2200 
Q 625 2800 575 3450 
L 2750 3450 
L 2875 4150 
L 1875 4150 
Q 1250 4150 425 4100 
L 425 4575 
Q 1000 4525 1700 4525 
L 2925 4525 
Q 3000 5000 3000 5275 
Q 3325 5200 3575 5175 
Q 3475 4900 3425 4525 
L 5100 4525 
Q 5525 4525 6025 4550 
L 6025 4125 
Q 5550 4150 5100 4150 
L 3375 4150 
L 3250 3450 
L 5775 3450 
Q 5725 2875 5725 2425 
L 5725 -75 
Q 5700 -425 5425 -487 
Q 5150 -550 4800 -625 
Q 4725 -350 4550 -100 
z
M 1625 2025 
Q 1975 1975 2500 1975 
L 3350 1975 
Q 3500 2175 3600 2375 
Q 3700 2575 3875 2900 
Q 4125 2775 4450 2650 
Q 4250 2575 4137 2375 
Q 4025 2175 3875 1975 
L 4175 1975 
Q 4425 1975 4775 2000 
L 4775 1575 
Q 4450 1600 4025 1600 
L 3450 1600 
L 3450 1100 
L 4175 1100 
Q 4700 1100 4950 1125 
L 4950 675 
Q 4700 700 4175 700 
L 3450 700 
L 3450 275 
Q 3450 -50 3475 -375 
L 2925 -375 
Q 2950 -100 2950 275 
L 2950 700 
L 2275 700 
Q 1725 700 1425 675 
L 1425 1150 
Q 1800 1100 2225 1100 
L 2950 1100 
L 2950 1600 
L 2500 1600 
Q 2000 1600 1625 1575 
L 1625 2025 
z
M 2850 2325 
Q 2650 2200 2450 2050 
Q 2350 2250 2225 2412 
Q 2100 2575 1975 2700 
Q 2125 2775 2325 2950 
Q 2475 2775 2587 2650 
Q 2700 2525 2850 2325 
z
" transform="scale(0.015625)"/>
       </defs>
       <use xlink:href="#SimHei-6c49"/>
       <use xlink:href="#SimHei-5357" x="100"/>
      </g>
     </g>
    </g>
    <g id="xtick_2">
     <g id="line2d_2">
      <g>
       <use xlink:href="#m8862e5cb71" x="174.96" y="448.56" style="stroke: #000000; stroke-width: 0.8"/>
      </g>
     </g>
     <g id="text_2">
      <!-- 江汉 -->
      <g transform="translate(178.8975 479.56) rotate(-90) scale(0.12 -0.12)">
       <defs>
        <path id="SimHei-6c5f" d="M 4600 4575 
Q 5150 4575 5725 4625 
L 5725 4075 
Q 5150 4100 4650 4100 
L 4225 4100 
L 4225 250 
L 4800 250 
Q 5375 250 6050 275 
L 6050 -250 
Q 5375 -225 4800 -225 
L 3225 -225 
Q 2650 -225 1925 -250 
L 1925 275 
Q 2650 250 3225 250 
L 3700 250 
L 3700 4100 
L 3425 4100 
Q 2875 4100 2275 4075 
L 2275 4600 
Q 2900 4575 3425 4575 
L 4600 4575 
z
M 2075 1575 
Q 1825 1325 1525 600 
Q 1225 -125 1050 -625 
Q 750 -450 350 -300 
Q 625 -25 987 712 
Q 1350 1450 1475 1875 
Q 1775 1675 2075 1575 
z
M 475 3375 
Q 1100 3125 1650 2800 
Q 1450 2600 1350 2275 
Q 825 2650 225 2900 
Q 375 3150 475 3375 
z
M 975 5025 
Q 1550 4700 2050 4350 
Q 1850 4125 1700 3875 
Q 1175 4325 700 4600 
Q 825 4750 975 5025 
z
" transform="scale(0.015625)"/>
       </defs>
       <use xlink:href="#SimHei-6c5f"/>
       <use xlink:href="#SimHei-6c49" x="100"/>
      </g>
     </g>
    </g>
    <g id="xtick_3">
     <g id="line2d_3">
      <g>
       <use xlink:href="#m8862e5cb71" x="219.6" y="448.56" style="stroke: #000000; stroke-width: 0.8"/>
      </g>
     </g>
     <g id="text_3">
      <!-- 蔡甸 -->
      <g transform="translate(223.701562 479.56) rotate(-90) scale(0.12 -0.12)">
       <defs>
        <path id="SimHei-8521" d="M 2025 3825 
Q 1850 3700 1725 3525 
L 3300 3525 
Q 3125 3050 2925 2737 
Q 2725 2425 2525 2175 
L 4100 2175 
Q 3900 2425 3700 2812 
Q 3500 3200 3350 3875 
L 3825 3875 
Q 3825 3775 3900 3625 
L 5725 3625 
Q 5625 3375 5400 2950 
Q 5175 2525 4900 2075 
Q 5100 1925 5362 1800 
Q 5625 1675 6150 1525 
Q 5900 1325 5750 1050 
Q 5450 1175 5000 1437 
Q 4550 1700 4200 2100 
L 4200 1800 
L 2350 1800 
L 2350 2000 
Q 1925 1600 1525 1325 
Q 1975 1300 2675 1300 
L 3850 1300 
Q 4475 1300 5100 1325 
L 5100 900 
Q 4400 925 3850 925 
L 3525 925 
L 3525 25 
Q 3525 -350 3350 -450 
Q 3175 -550 2550 -650 
Q 2475 -350 2350 -125 
Q 2850 -125 2950 -87 
Q 3050 -50 3050 175 
L 3050 925 
L 2675 925 
Q 2000 925 1400 900 
L 1400 1250 
Q 975 975 625 800 
Q 475 1025 250 1200 
Q 600 1300 837 1412 
Q 1075 1525 1375 1725 
Q 1125 2000 900 2125 
Q 1075 2275 1200 2425 
Q 1450 2225 1700 1975 
Q 1850 2100 2025 2275 
Q 1850 2450 1525 2675 
Q 1700 2850 1800 2975 
Q 2025 2800 2325 2575 
Q 2500 2825 2650 3150 
L 1425 3150 
Q 1125 2775 650 2350 
Q 500 2525 325 2650 
Q 700 2950 1000 3325 
Q 1300 3700 1475 4075 
Q 1725 3925 2025 3825 
z
M 2050 4725 
Q 2050 5000 2025 5275 
L 2525 5275 
Q 2500 4925 2500 4725 
L 3850 4725 
Q 3850 4975 3825 5275 
L 4325 5275 
Q 4300 5000 4300 4725 
L 5375 4725 
Q 5750 4725 6050 4750 
L 6050 4325 
Q 5675 4350 5375 4350 
L 4300 4350 
Q 4300 4200 4325 4000 
L 3850 4000 
L 3850 4350 
L 2500 4350 
L 2500 3975 
L 2025 3975 
Q 2050 4150 2050 4350 
L 1100 4350 
Q 725 4350 350 4300 
L 350 4750 
Q 725 4725 1100 4725 
L 2050 4725 
z
M 2325 325 
Q 2100 250 1675 -37 
Q 1250 -325 900 -525 
Q 700 -275 500 -100 
Q 875 25 1250 250 
Q 1625 475 1875 750 
Q 2075 525 2325 325 
z
M 4400 675 
Q 4700 500 5050 312 
Q 5400 125 5775 -100 
Q 5575 -275 5375 -525 
Q 5025 -250 4712 -62 
Q 4400 125 4050 300 
Q 4225 475 4400 675 
z
M 4550 2350 
Q 4875 2800 5050 3250 
L 3975 3250 
Q 4150 2700 4550 2350 
z
" transform="scale(0.015625)"/>
        <path id="SimHei-7538" d="M 4500 3275 
Q 4475 2925 4475 1725 
Q 4475 550 4500 175 
L 4000 175 
L 4000 550 
L 1750 550 
L 1750 0 
L 1250 0 
Q 1275 525 1275 850 
L 1275 3275 
L 4500 3275 
z
M 5675 300 
Q 5675 -300 5400 -450 
Q 5125 -600 4475 -700 
Q 4400 -350 4250 -50 
Q 4700 -50 4925 0 
Q 5150 50 5175 400 
L 5250 4000 
L 1725 4000 
Q 1475 3625 1262 3350 
Q 1050 3075 675 2650 
Q 475 2875 200 2975 
Q 575 3325 800 3612 
Q 1025 3900 1275 4300 
Q 1525 4700 1725 5275 
Q 2075 5125 2325 5075 
Q 2050 4675 1950 4425 
L 5775 4425 
Q 5775 4075 5750 3650 
L 5675 300 
z
M 2625 950 
L 2625 1725 
L 1750 1725 
L 1750 950 
L 2625 950 
z
M 4000 950 
L 4000 1725 
L 3125 1725 
L 3125 950 
L 4000 950 
z
M 4000 2125 
L 4000 2850 
L 3125 2850 
L 3125 2125 
L 4000 2125 
z
M 2625 2125 
L 2625 2850 
L 1750 2850 
L 1750 2125 
L 2625 2125 
z
" transform="scale(0.015625)"/>
       </defs>
       <use xlink:href="#SimHei-8521"/>
       <use xlink:href="#SimHei-7538" x="100"/>
      </g>
     </g>
    </g>
    <g id="xtick_4">
     <g id="line2d_4">
      <g>
       <use xlink:href="#m8862e5cb71" x="264.24" y="448.56" style="stroke: #000000; stroke-width: 0.8"/>
      </g>
     </g>
     <g id="text_4">
      <!-- 武昌 -->
      <g transform="translate(268.200938 479.56) rotate(-90) scale(0.12 -0.12)">
       <defs>
        <path id="SimHei-6b66" d="M 3700 3375 
Q 3675 3825 3662 4187 
Q 3650 4550 3625 5125 
L 4225 5125 
Q 4150 4725 4150 4275 
Q 4150 3825 4175 3375 
L 4925 3375 
Q 5400 3375 5875 3400 
L 5875 2950 
Q 5400 2975 4925 2975 
L 4175 2975 
Q 4250 1975 4500 1362 
Q 4750 750 5037 375 
Q 5325 0 5462 162 
Q 5600 325 5625 775 
Q 5850 525 6125 400 
Q 5900 -375 5700 -537 
Q 5500 -700 5137 -412 
Q 4775 -125 4525 237 
Q 4275 600 4125 962 
Q 3975 1325 3875 1787 
Q 3775 2250 3725 2975 
L 2550 2975 
L 2550 2025 
Q 3075 2025 3475 2050 
L 3475 1575 
Q 3025 1600 2550 1600 
L 2550 475 
Q 3300 600 3700 650 
Q 3675 475 3675 175 
Q 2825 75 1887 -100 
Q 950 -275 475 -425 
Q 450 -150 325 200 
Q 600 200 925 250 
L 925 1575 
Q 925 1975 900 2350 
L 1450 2350 
Q 1425 1975 1425 1600 
L 1425 300 
L 2075 400 
L 2075 2975 
L 1425 2975 
Q 900 2975 375 2950 
L 375 3400 
Q 900 3375 1425 3375 
L 3700 3375 
z
M 3125 4100 
Q 2575 4125 2000 4125 
Q 1450 4125 875 4100 
L 875 4575 
Q 1475 4550 2025 4550 
Q 2600 4550 3125 4575 
L 3125 4100 
z
M 4900 4700 
Q 5375 4300 5650 4025 
Q 5425 3850 5250 3675 
Q 5075 3900 4575 4350 
Q 4750 4475 4900 4700 
z
" transform="scale(0.015625)"/>
        <path id="SimHei-660c" d="M 5700 875 
Q 5700 -25 5725 -575 
L 5200 -575 
L 5200 -175 
L 1250 -175 
L 1250 -550 
L 725 -550 
Q 750 -75 750 850 
Q 750 1775 725 2250 
L 5700 2250 
L 5700 875 
z
M 5275 5050 
Q 5250 4575 5250 3925 
Q 5250 3275 5275 2775 
L 1275 2775 
Q 1300 3275 1300 3925 
Q 1300 4575 1275 5050 
L 5275 5050 
z
M 5200 1225 
L 5200 1850 
L 1250 1850 
L 1250 1225 
L 5200 1225 
z
M 5200 250 
L 5200 825 
L 1250 825 
L 1250 250 
L 5200 250 
z
M 4800 4075 
L 4800 4625 
L 1775 4625 
L 1775 4075 
L 4800 4075 
z
M 4800 3200 
L 4800 3675 
L 1775 3675 
L 1775 3200 
L 4800 3200 
z
" transform="scale(0.015625)"/>
       </defs>
       <use xlink:href="#SimHei-6b66"/>
       <use xlink:href="#SimHei-660c" x="100"/>
      </g>
     </g>
    </g>
    <g id="xtick_5">
     <g id="line2d_5">
      <g>
       <use xlink:href="#m8862e5cb71" x="308.88" y="448.56" style="stroke: #000000; stroke-width: 0.8"/>
      </g>
     </g>
     <g id="text_5">
      <!-- 沌口 -->
      <g transform="translate(312.583125 479.56) rotate(-90) scale(0.12 -0.12)">
       <defs>
        <path id="SimHei-6c8c" d="M 2200 4225 
Q 2725 4200 3200 4200 
L 3825 4200 
Q 3825 4700 3800 5050 
L 4325 5050 
Q 4275 4775 4275 4200 
L 5175 4200 
Q 5725 4200 6150 4225 
L 6150 3725 
Q 5725 3750 5175 3750 
L 4275 3750 
L 4275 1800 
L 5275 1850 
L 5275 2475 
Q 5275 2850 5225 3175 
L 5750 3175 
Q 5725 2850 5725 2150 
Q 5725 1450 5750 1100 
L 5275 1100 
L 5275 1425 
L 4275 1375 
L 4275 300 
Q 4275 50 4650 50 
L 5150 50 
Q 5400 50 5487 112 
Q 5575 175 5650 625 
Q 5900 450 6200 375 
Q 5975 -125 5837 -237 
Q 5700 -350 5375 -350 
L 4350 -350 
Q 3825 -350 3825 75 
L 3825 1350 
L 2400 1275 
Q 2425 1625 2425 2150 
Q 2425 2675 2400 3000 
L 2925 3000 
Q 2900 2725 2900 2350 
L 2900 1725 
L 3825 1775 
L 3825 3750 
L 3175 3750 
Q 2725 3750 2200 3725 
L 2200 4225 
z
M 2025 1625 
Q 1725 1125 1462 512 
Q 1200 -100 1000 -500 
Q 700 -300 375 -175 
Q 625 75 950 700 
Q 1275 1325 1475 1900 
Q 1700 1725 2025 1625 
z
M 1000 5000 
Q 1550 4550 1875 4225 
Q 1625 4025 1475 3800 
Q 1025 4325 600 4650 
Q 825 4825 1000 5000 
z
M 650 3450 
Q 1175 3150 1700 2775 
Q 1525 2600 1375 2350 
Q 900 2725 350 3075 
Q 525 3250 650 3450 
z
" transform="scale(0.015625)"/>
        <path id="SimHei-53e3" d="M 5425 4300 
Q 5400 3775 5400 3175 
L 5400 550 
Q 5400 100 5425 -425 
L 4900 -425 
L 4900 100 
L 1525 100 
L 1525 -425 
L 1000 -425 
Q 1025 0 1025 550 
L 1025 3175 
Q 1025 3775 1000 4300 
L 5425 4300 
z
M 4900 525 
L 4900 3875 
L 1525 3875 
L 1525 525 
L 4900 525 
z
" transform="scale(0.015625)"/>
       </defs>
       <use xlink:href="#SimHei-6c8c"/>
       <use xlink:href="#SimHei-53e3" x="100"/>
      </g>
     </g>
    </g>
    <g id="xtick_6">
     <g id="line2d_6">
      <g>
       <use xlink:href="#m8862e5cb71" x="353.52" y="448.56" style="stroke: #000000; stroke-width: 0.8"/>
      </g>
     </g>
     <g id="text_6">
      <!-- 黄陂 -->
      <g transform="translate(357.574687 479.56) rotate(-90) scale(0.12 -0.12)">
       <defs>
        <path id="SimHei-9ec4" d="M 2700 350 
Q 2425 225 1837 -125 
Q 1250 -475 900 -675 
L 525 -300 
Q 1100 -75 1475 162 
Q 1850 400 2200 675 
L 1100 675 
Q 1125 900 1150 1400 
L 1150 2175 
Q 1150 2450 1125 2800 
L 3000 2800 
L 3000 3250 
L 1250 3250 
Q 675 3250 275 3225 
L 275 3650 
Q 650 3625 1225 3625 
L 2125 3625 
L 2125 4300 
L 1525 4300 
Q 1050 4300 725 4275 
L 725 4700 
Q 1000 4675 1475 4675 
L 2125 4675 
Q 2125 4975 2100 5250 
L 2650 5250 
Q 2600 4975 2600 4675 
L 3975 4675 
Q 3975 4975 3950 5250 
L 4475 5250 
Q 4450 4950 4450 4675 
L 4950 4675 
Q 5425 4675 5800 4700 
L 5800 4275 
Q 5450 4300 4975 4300 
L 4450 4300 
L 4450 3625 
L 5225 3625 
Q 5750 3625 6175 3650 
L 6175 3225 
Q 5775 3250 5250 3250 
L 3475 3250 
L 3475 2800 
L 5350 2800 
Q 5325 2425 5325 2200 
L 5325 1400 
Q 5325 950 5350 675 
L 4350 675 
Q 4650 500 5125 225 
Q 5625 -50 6025 -275 
Q 5825 -475 5675 -675 
Q 5150 -325 4787 -112 
Q 4425 100 4000 300 
Q 4125 425 4275 675 
L 2300 675 
Q 2525 475 2700 350 
z
M 3975 3625 
L 3975 4300 
L 2600 4300 
L 2600 3625 
L 3975 3625 
z
M 4875 1050 
L 4875 1550 
L 3475 1550 
L 3475 1050 
L 4875 1050 
z
M 3000 1050 
L 3000 1550 
L 1625 1550 
L 1625 1050 
L 3000 1050 
z
M 4875 1925 
L 4875 2400 
L 3475 2400 
L 3475 1925 
L 4875 1925 
z
M 3000 1925 
L 3000 2400 
L 1625 2400 
L 1625 1925 
L 3000 1925 
z
" transform="scale(0.015625)"/>
        <path id="SimHei-9642" d="M 4025 4575 
Q 4025 4800 4000 5175 
L 4500 5175 
Q 4475 4850 4475 4625 
L 4475 4175 
L 6025 4175 
Q 5825 3525 5775 3250 
Q 5500 3275 5275 3275 
Q 5350 3525 5425 3825 
L 4475 3825 
L 4475 2650 
L 5675 2650 
Q 5475 1850 5262 1362 
Q 5050 875 4775 575 
Q 5100 300 5400 162 
Q 5700 25 6175 -75 
L 5825 -575 
Q 5400 -425 5050 -200 
Q 4700 25 4475 250 
Q 3875 -300 3225 -625 
Q 3050 -400 2750 -250 
Q 3150 -100 3487 87 
Q 3825 275 4100 575 
Q 3950 725 3725 1162 
Q 3500 1600 3375 2300 
L 3175 2300 
Q 3150 1875 3087 1437 
Q 3025 1000 2900 662 
Q 2775 325 2612 37 
Q 2450 -250 2175 -575 
Q 2000 -425 1725 -300 
Q 2025 0 2237 375 
Q 2450 750 2550 1162 
Q 2650 1575 2687 2037 
Q 2725 2500 2712 2962 
Q 2700 3425 2675 4175 
L 4025 4175 
L 4025 4575 
z
M 2450 4900 
Q 2275 4425 2062 3812 
Q 1850 3200 1725 2850 
Q 2150 2300 2275 1975 
Q 2400 1650 2350 1375 
Q 2300 1100 2025 875 
Q 1750 650 1350 575 
Q 1275 825 1125 1100 
Q 1675 1125 1812 1325 
Q 1950 1525 1875 1762 
Q 1800 2000 1650 2237 
Q 1500 2475 1225 2775 
Q 1425 3300 1575 3725 
Q 1725 4150 1825 4550 
L 950 4550 
L 950 -525 
L 475 -525 
Q 500 400 500 1075 
L 500 3900 
Q 500 4425 475 4900 
L 2450 4900 
z
M 3850 2300 
Q 4050 1400 4450 925 
Q 4825 1450 5075 2300 
L 3850 2300 
z
M 4025 2650 
L 4025 3825 
L 3175 3825 
L 3175 2650 
L 4025 2650 
z
" transform="scale(0.015625)"/>
       </defs>
       <use xlink:href="#SimHei-9ec4"/>
       <use xlink:href="#SimHei-9642" x="100"/>
      </g>
     </g>
    </g>
    <g id="xtick_7">
     <g id="line2d_7">
      <g>
       <use xlink:href="#m8862e5cb71" x="398.16" y="448.56" style="stroke: #000000; stroke-width: 0.8"/>
      </g>
     </g>
     <g id="text_7">
      <!-- 江夏 -->
      <g transform="translate(402.074063 479.56) rotate(-90) scale(0.12 -0.12)">
       <defs>
        <path id="SimHei-590f" d="M 4925 5075 
Q 5475 5075 5950 5100 
L 5950 4675 
Q 5475 4700 4950 4700 
L 3375 4700 
L 3200 4325 
L 5300 4325 
Q 5275 3800 5275 3050 
Q 5275 2300 5300 1900 
L 2650 1900 
Q 2525 1750 2325 1550 
L 5125 1550 
Q 4900 1250 4562 912 
Q 4225 575 3750 225 
Q 4200 75 4850 -25 
Q 5500 -125 6150 -125 
Q 5925 -375 5825 -625 
Q 5000 -525 4462 -400 
Q 3925 -275 3300 -25 
Q 2675 -300 2137 -425 
Q 1600 -550 625 -675 
Q 525 -400 375 -175 
Q 800 -175 1487 -87 
Q 2175 0 2825 225 
Q 2325 525 1825 1025 
Q 1400 700 975 450 
Q 825 650 575 825 
Q 950 950 1400 1275 
Q 1850 1600 2075 1900 
L 1200 1900 
Q 1225 2275 1225 3025 
Q 1225 3800 1200 4325 
L 2650 4325 
L 2825 4700 
L 1425 4700 
Q 875 4700 425 4675 
L 425 5100 
Q 875 5075 1400 5075 
L 4925 5075 
z
M 4775 3600 
L 4775 3975 
L 1725 3975 
L 1725 3600 
L 4775 3600 
z
M 4775 2925 
L 4775 3250 
L 1725 3250 
L 1725 2925 
L 4775 2925 
z
M 4775 2250 
L 4775 2575 
L 1725 2575 
L 1725 2250 
L 4775 2250 
z
M 3300 450 
Q 3800 725 4225 1200 
L 2250 1200 
Q 2775 675 3300 450 
z
" transform="scale(0.015625)"/>
       </defs>
       <use xlink:href="#SimHei-6c5f"/>
       <use xlink:href="#SimHei-590f" x="100"/>
      </g>
     </g>
    </g>
    <g id="xtick_8">
     <g id="line2d_8">
      <g>
       <use xlink:href="#m8862e5cb71" x="442.8" y="448.56" style="stroke: #000000; stroke-width: 0.8"/>
      </g>
     </g>
     <g id="text_8">
      <!-- 新洲 -->
      <g transform="translate(446.901563 479.56) rotate(-90) scale(0.12 -0.12)">
       <defs>
        <path id="SimHei-65b0" d="M 6125 4650 
Q 5750 4650 4275 4500 
L 4275 3225 
L 5575 3225 
Q 5850 3225 6150 3250 
L 6150 2775 
Q 5800 2800 5550 2800 
L 5550 225 
Q 5550 -200 5575 -675 
L 5050 -675 
Q 5075 -200 5075 200 
L 5075 2800 
L 4275 2800 
Q 4275 2175 4225 1600 
Q 4175 1025 4012 462 
Q 3850 -100 3525 -700 
Q 3275 -550 3025 -450 
Q 3425 125 3587 762 
Q 3750 1400 3775 1875 
Q 3800 2350 3800 3300 
Q 3800 4275 3775 4850 
Q 4900 4900 5800 5200 
Q 6000 4800 6125 4650 
z
M 2975 3825 
Q 2800 3725 2575 3050 
Q 3000 3050 3450 3075 
L 3450 2575 
Q 3025 2600 2175 2600 
L 2175 1975 
Q 2950 1975 3400 2000 
L 3400 1500 
Q 2950 1525 2175 1525 
L 2175 0 
Q 2175 -375 1937 -500 
Q 1700 -625 1325 -625 
Q 1225 -325 1075 -75 
Q 1425 -100 1562 -75 
Q 1700 -50 1700 150 
L 1700 1525 
Q 900 1525 450 1500 
L 450 2000 
Q 925 1975 1700 1975 
L 1700 2600 
Q 775 2600 325 2575 
L 325 3075 
Q 775 3050 1175 3050 
L 2125 3050 
Q 2325 3650 2425 3975 
Q 2625 3925 2975 3825 
z
M 2125 5275 
Q 2250 4750 2275 4550 
Q 2850 4550 3350 4575 
L 3350 4075 
Q 2825 4100 2500 4100 
L 1300 4100 
Q 875 4100 475 4075 
L 475 4575 
Q 900 4550 1300 4550 
L 1750 4550 
Q 1700 4825 1600 5125 
Q 1850 5200 2125 5275 
z
M 1525 1050 
Q 1375 875 1175 612 
Q 975 350 600 -125 
Q 425 50 225 175 
Q 750 750 1050 1375 
Q 1300 1175 1525 1050 
z
M 2725 1300 
Q 3025 900 3275 475 
Q 3025 350 2875 150 
Q 2675 600 2350 1025 
Q 2525 1175 2725 1300 
z
M 1275 3950 
Q 1450 3600 1575 3250 
Q 1350 3200 1150 3100 
Q 1025 3475 875 3775 
Q 1050 3875 1275 3950 
z
" transform="scale(0.015625)"/>
        <path id="SimHei-6d32" d="M 3050 4775 
Q 3025 4275 3025 3575 
Q 3025 2875 3000 2087 
Q 2975 1300 2812 762 
Q 2650 225 2225 -475 
Q 2050 -325 1725 -225 
Q 2100 175 2275 637 
Q 2450 1100 2525 1462 
Q 2600 1825 2612 2775 
Q 2625 3725 2612 4137 
Q 2600 4550 2575 4775 
L 3050 4775 
z
M 5750 4850 
Q 5725 4425 5725 4075 
L 5725 700 
Q 5725 175 5750 -425 
L 5275 -425 
Q 5300 175 5300 700 
L 5300 4075 
Q 5300 4500 5275 4850 
L 5750 4850 
z
M 4400 4575 
Q 4375 4175 4375 3850 
L 4375 1050 
Q 4375 525 4400 -125 
L 3900 -125 
Q 3950 400 3950 1025 
L 3950 3850 
Q 3950 4150 3900 4575 
L 4400 4575 
z
M 350 -175 
Q 575 75 850 612 
Q 1125 1150 1325 1675 
Q 1525 1550 1750 1450 
Q 1625 1250 1362 662 
Q 1100 75 825 -425 
Q 600 -250 350 -175 
z
M 4725 1650 
Q 4675 2300 4425 3425 
Q 4650 3450 4825 3500 
Q 4950 2950 5150 1725 
Q 4900 1700 4725 1650 
z
M 1700 1775 
Q 1800 2125 1850 2512 
Q 1900 2900 1925 3350 
Q 2200 3325 2400 3300 
Q 2325 2975 2275 2575 
Q 2225 2175 2125 1675 
Q 1925 1725 1700 1775 
z
M 3550 3400 
Q 3725 2375 3800 1750 
Q 3600 1725 3400 1675 
Q 3350 2300 3150 3300 
L 3550 3400 
z
M 625 3375 
Q 1100 3125 1650 2750 
Q 1450 2575 1350 2375 
Q 925 2700 375 3000 
Q 525 3200 625 3375 
z
M 975 4900 
Q 1550 4550 1925 4200 
Q 1750 4000 1650 3825 
Q 1150 4300 725 4550 
L 975 4900 
z
" transform="scale(0.015625)"/>
       </defs>
       <use xlink:href="#SimHei-65b0"/>
       <use xlink:href="#SimHei-6d32" x="100"/>
      </g>
     </g>
    </g>
    <g id="xtick_9">
     <g id="line2d_9">
      <g>
       <use xlink:href="#m8862e5cb71" x="487.44" y="448.56" style="stroke: #000000; stroke-width: 0.8"/>
      </g>
     </g>
     <g id="text_9">
      <!-- 硚口 -->
      <g transform="translate(491.494687 479.56) rotate(-90) scale(0.12 -0.12)">
       <defs>
        <path id="SimHei-785a" d="M 5600 4750 
Q 5350 4750 5000 4725 
Q 4650 4700 4350 4650 
Q 4325 4150 4250 3725 
L 5250 3725 
Q 5550 3725 6025 3750 
L 6025 3300 
Q 5550 3325 5250 3325 
L 4950 3325 
Q 5100 2925 5375 2700 
Q 5650 2475 6175 2325 
Q 5950 2025 5875 1775 
Q 5525 1950 5225 2200 
Q 5200 1925 5200 1550 
L 5200 500 
Q 5200 -25 5225 -575 
L 4700 -575 
Q 4725 -25 4725 500 
L 4725 1450 
Q 4725 1875 4700 2225 
L 5175 2225 
Q 4725 2600 4500 3325 
L 4150 3325 
Q 3900 2750 3550 2275 
L 4050 2175 
Q 3950 1975 3937 1675 
Q 3925 1375 3875 987 
Q 3825 600 3650 187 
Q 3475 -225 3100 -650 
Q 2925 -400 2525 -300 
Q 2925 -75 3087 212 
Q 3250 500 3337 812 
Q 3425 1125 3437 1462 
Q 3450 1800 3450 2125 
Q 3250 1900 2950 1625 
Q 2775 1900 2575 2000 
Q 2900 2225 3187 2550 
Q 3475 2875 3625 3325 
L 3400 3325 
Q 2975 3325 2500 3300 
L 2500 3750 
Q 2975 3725 3400 3725 
L 3775 3725 
Q 3850 4150 3875 4600 
Q 3450 4550 2950 4475 
Q 2875 4675 2750 4900 
Q 3075 4925 3512 4962 
Q 3950 5000 4500 5100 
Q 5050 5200 5250 5275 
Q 5375 5000 5600 4750 
z
M 2025 4700 
Q 2325 4700 2725 4750 
L 2725 4275 
Q 2325 4325 2025 4325 
L 1800 4325 
Q 1650 3550 1450 2950 
L 2500 2950 
Q 2450 2650 2450 2200 
L 2450 750 
Q 2450 375 2475 -25 
L 2000 -25 
L 2000 500 
L 1375 500 
L 1375 -350 
L 900 -350 
Q 925 200 925 575 
L 925 2050 
Q 775 1775 550 1475 
Q 375 1775 200 1975 
Q 500 2200 750 2650 
Q 1000 3100 1137 3575 
Q 1275 4050 1325 4325 
L 975 4325 
Q 700 4325 450 4275 
L 450 4750 
Q 825 4700 1125 4700 
L 2025 4700 
z
M 2000 925 
L 2000 2550 
L 1375 2550 
L 1375 925 
L 2000 925 
z
" transform="scale(0.015625)"/>
       </defs>
       <use xlink:href="#SimHei-785a"/>
       <use xlink:href="#SimHei-53e3" x="100"/>
      </g>
     </g>
    </g>
    <g id="xtick_10">
     <g id="line2d_10">
      <g>
       <use xlink:href="#m8862e5cb71" x="532.08" y="448.56" style="stroke: #000000; stroke-width: 0.8"/>
      </g>
     </g>
     <g id="text_10">
      <!-- 东西湖 -->
      <g transform="translate(536.158125 491.56) rotate(-90) scale(0.12 -0.12)">
       <defs>
        <path id="SimHei-4e1c" d="M 2250 4100 
Q 2650 4825 2775 5250 
L 3350 5000 
Q 3150 4750 2800 4100 
L 4550 4100 
Q 5100 4100 5625 4125 
L 5625 3650 
Q 5275 3675 4900 3675 
L 2625 3675 
Q 2275 3125 1675 2300 
L 3150 2300 
Q 3150 2800 3125 3250 
L 3700 3250 
Q 3675 2975 3675 2300 
L 4650 2300 
Q 5075 2300 5550 2325 
L 5550 1875 
Q 5150 1900 4675 1900 
L 3675 1900 
L 3675 75 
Q 3675 -325 3375 -437 
Q 3075 -550 2600 -625 
Q 2525 -300 2325 -50 
Q 2875 -50 3012 0 
Q 3150 50 3150 350 
L 3150 1900 
L 2050 1900 
Q 1450 1900 1050 1825 
Q 975 2075 850 2325 
Q 1125 2425 1400 2762 
Q 1675 3100 2025 3675 
L 1325 3675 
Q 900 3675 675 3650 
L 675 4125 
Q 875 4100 1250 4100 
L 2250 4100 
z
M 1725 425 
Q 1300 0 900 -425 
Q 750 -225 500 -50 
Q 1475 800 1850 1450 
Q 2025 1250 2350 1050 
L 1725 425 
z
M 4625 1400 
Q 4875 1175 5275 800 
Q 5675 425 5975 100 
Q 5875 25 5525 -300 
Q 5150 175 4250 1025 
Q 4525 1250 4625 1400 
z
" transform="scale(0.015625)"/>
        <path id="SimHei-897f" d="M 5150 4750 
Q 5525 4750 5950 4775 
L 5950 4350 
Q 5675 4375 5150 4375 
L 4025 4375 
L 4025 3350 
L 5450 3350 
Q 5425 2950 5425 2375 
L 5425 425 
Q 5425 0 5450 -550 
L 5000 -550 
L 5000 -50 
L 1450 -50 
L 1450 -575 
L 975 -575 
Q 1000 175 1000 550 
L 1000 2375 
Q 1000 2875 975 3350 
L 2375 3350 
L 2375 4375 
L 1425 4375 
Q 975 4375 450 4350 
L 450 4775 
Q 975 4750 1400 4750 
L 5150 4750 
z
M 5000 325 
L 5000 2950 
L 4025 2950 
L 4025 1975 
Q 4000 1675 4100 1625 
Q 4200 1575 4875 1650 
Q 4825 1375 4800 1125 
Q 3975 1075 3775 1187 
Q 3575 1300 3600 1700 
L 3600 2950 
L 2800 2950 
Q 2750 2125 2525 1650 
Q 2300 1175 2000 875 
Q 1850 1050 1575 1175 
Q 1950 1475 2150 1912 
Q 2350 2350 2375 2950 
L 1450 2950 
L 1450 325 
L 5000 325 
z
M 3600 3350 
L 3600 4375 
L 2800 4375 
L 2800 3350 
L 3600 3350 
z
" transform="scale(0.015625)"/>
        <path id="SimHei-6e56" d="M 5975 4900 
Q 5950 4350 5950 4000 
L 5950 50 
Q 5950 -300 5700 -400 
Q 5450 -500 5000 -575 
Q 4950 -325 4750 -50 
Q 5200 -75 5337 -37 
Q 5475 0 5500 300 
L 5500 1525 
L 4525 1525 
Q 4450 1000 4337 650 
Q 4225 300 4012 -25 
Q 3800 -350 3450 -700 
Q 3275 -525 2975 -400 
Q 3425 -75 3675 337 
Q 3925 750 4012 1200 
Q 4100 1650 4125 2300 
Q 4150 2950 4150 3675 
Q 4150 4425 4125 4900 
L 5975 4900 
z
M 3150 350 
L 3150 750 
L 2375 750 
L 2375 100 
L 1900 100 
Q 1925 425 1925 1250 
Q 1925 2075 1900 2475 
L 2575 2475 
L 2575 3475 
Q 2000 3475 1725 3450 
L 1725 3900 
Q 2000 3875 2575 3875 
L 2575 4475 
Q 2575 4775 2550 5225 
L 3050 5225 
Q 3025 4825 3025 4475 
L 3025 3875 
Q 3500 3875 3825 3900 
L 3825 3450 
Q 3475 3475 3025 3475 
L 3025 2475 
L 3625 2475 
Q 3600 2100 3600 1550 
Q 3600 1000 3625 350 
L 3150 350 
z
M 1650 1525 
Q 1375 1050 1237 712 
Q 1100 375 950 50 
Q 800 -275 700 -500 
Q 425 -300 200 -225 
Q 475 175 762 787 
Q 1050 1400 1200 1875 
Q 1375 1650 1650 1525 
z
M 5500 3375 
L 5500 4500 
L 4575 4500 
L 4575 3375 
L 5500 3375 
z
M 5500 1925 
L 5500 3000 
L 4575 3000 
Q 4550 2200 4550 1925 
L 5500 1925 
z
M 3150 1125 
L 3150 2100 
L 2375 2100 
L 2375 1125 
L 3150 1125 
z
M 500 3500 
Q 775 3325 975 3200 
L 1625 2825 
Q 1400 2600 1300 2400 
Q 1000 2625 787 2775 
Q 575 2925 250 3125 
Q 400 3300 500 3500 
z
M 800 5050 
Q 1050 4875 1275 4700 
Q 1500 4525 1800 4350 
L 1425 3975 
Q 1175 4200 975 4350 
Q 775 4500 525 4650 
Q 675 4875 800 5050 
z
" transform="scale(0.015625)"/>
       </defs>
       <use xlink:href="#SimHei-4e1c"/>
       <use xlink:href="#SimHei-897f" x="100"/>
       <use xlink:href="#SimHei-6e56" x="200"/>
      </g>
     </g>
    </g>
    <g id="xtick_11">
     <g id="line2d_11">
      <g>
       <use xlink:href="#m8862e5cb71" x="576.72" y="448.56" style="stroke: #000000; stroke-width: 0.8"/>
      </g>
     </g>
     <g id="text_11">
      <!-- 江岸 -->
      <g transform="translate(580.680938 479.56) rotate(-90) scale(0.12 -0.12)">
       <defs>
        <path id="SimHei-5cb8" d="M 4425 2200 
Q 5100 2200 5525 2225 
L 5525 1800 
L 4975 1825 
L 3800 1825 
L 3800 1075 
L 5150 1075 
Q 5450 1075 5975 1100 
L 5975 675 
Q 5425 700 5125 700 
L 3800 700 
L 3800 325 
Q 3800 -125 3825 -625 
L 3300 -625 
Q 3350 -125 3350 325 
L 3350 700 
L 2450 700 
Q 1850 700 1375 675 
L 1375 1100 
Q 1850 1075 2275 1075 
L 3350 1075 
L 3350 1825 
L 2700 1825 
Q 2175 1825 1750 1800 
L 1750 2225 
Q 2100 2200 2700 2200 
L 4425 2200 
z
M 4875 3100 
Q 5250 3100 5775 3125 
L 5775 2700 
Q 5400 2725 4875 2725 
L 1350 2725 
Q 1375 1375 1250 712 
Q 1125 50 700 -675 
Q 500 -475 250 -400 
Q 600 75 775 700 
Q 875 1150 900 1675 
Q 925 2200 875 3100 
L 4875 3100 
z
M 1500 4825 
Q 1475 4275 1475 3950 
L 3075 3950 
L 3075 4600 
Q 3075 4875 3050 5150 
L 3575 5150 
Q 3550 4875 3550 4600 
L 3550 3950 
L 5125 3950 
L 5125 4300 
Q 5125 4550 5075 4850 
L 5600 4850 
Q 5575 4425 5575 4100 
L 5575 3575 
L 1000 3575 
L 1025 4200 
Q 1025 4475 1000 4825 
L 1500 4825 
z
" transform="scale(0.015625)"/>
       </defs>
       <use xlink:href="#SimHei-6c5f"/>
       <use xlink:href="#SimHei-5cb8" x="100"/>
      </g>
     </g>
    </g>
    <g id="xtick_12">
     <g id="line2d_12">
      <g>
       <use xlink:href="#m8862e5cb71" x="621.36" y="448.56" style="stroke: #000000; stroke-width: 0.8"/>
      </g>
     </g>
     <g id="text_12">
      <!-- 东湖高新 -->
      <g transform="translate(625.461563 503.56) rotate(-90) scale(0.12 -0.12)">
       <defs>
        <path id="SimHei-9ad8" d="M 5825 -25 
Q 5850 -400 5550 -500 
Q 5250 -600 4975 -625 
Q 4875 -325 4725 -100 
Q 4975 -100 5175 -87 
Q 5375 -75 5350 250 
L 5350 1825 
L 1100 1825 
L 1100 -575 
L 600 -575 
Q 625 -225 625 850 
Q 625 1950 600 2200 
L 5850 2200 
Q 5825 1850 5825 1425 
L 5825 -25 
z
M 4925 3800 
Q 4900 3475 4900 3175 
Q 4900 2900 4925 2600 
L 1400 2600 
Q 1425 2825 1425 3175 
Q 1425 3525 1400 3800 
L 4925 3800 
z
M 4500 1400 
Q 4475 1125 4475 800 
Q 4475 500 4500 200 
L 1950 200 
Q 2000 500 2000 800 
Q 2000 1125 1950 1400 
L 4500 1400 
z
M 425 4600 
Q 750 4575 1125 4575 
L 2925 4575 
Q 2850 4875 2750 5100 
Q 3050 5125 3350 5200 
Q 3400 4950 3525 4575 
L 5250 4575 
Q 5600 4575 5975 4600 
L 5975 4150 
Q 5600 4175 5050 4175 
L 1150 4175 
Q 750 4175 425 4150 
L 425 4600 
z
M 4450 2975 
L 4450 3425 
L 1900 3425 
L 1900 2975 
L 4450 2975 
z
M 4025 550 
L 4025 1050 
L 2400 1050 
L 2400 550 
L 4025 550 
z
" transform="scale(0.015625)"/>
       </defs>
       <use xlink:href="#SimHei-4e1c"/>
       <use xlink:href="#SimHei-6e56" x="100"/>
       <use xlink:href="#SimHei-9ad8" x="200"/>
       <use xlink:href="#SimHei-65b0" x="300"/>
      </g>
     </g>
    </g>
    <g id="xtick_13">
     <g id="line2d_13">
      <g>
       <use xlink:href="#m8862e5cb71" x="666" y="448.56" style="stroke: #000000; stroke-width: 0.8"/>
      </g>
     </g>
     <g id="text_13">
      <!-- 洪山 -->
      <g transform="translate(669.960938 479.56) rotate(-90) scale(0.12 -0.12)">
       <defs>
        <path id="SimHei-6d2a" d="M 3000 4350 
Q 3000 4725 2950 5175 
L 3500 5175 
Q 3475 4750 3475 4350 
L 3475 3675 
L 4525 3675 
L 4525 4400 
Q 4525 4750 4500 5175 
L 5050 5175 
Q 5000 4750 5000 4375 
L 5000 3675 
Q 5625 3675 6000 3700 
L 6000 3200 
Q 5550 3225 5000 3225 
L 5000 1650 
Q 5775 1650 6150 1700 
L 6150 1175 
Q 5700 1200 5425 1200 
L 2750 1200 
Q 2325 1200 1875 1150 
L 1875 1700 
Q 2350 1650 3000 1650 
L 3000 3225 
Q 2525 3225 2050 3200 
L 2050 3700 
Q 2575 3675 3000 3675 
L 3000 4350 
z
M 4525 1650 
L 4525 3225 
L 3475 3225 
L 3475 1650 
L 4525 1650 
z
M 1750 1450 
Q 1450 950 1225 337 
Q 1000 -275 950 -575 
Q 650 -425 250 -275 
Q 475 -25 800 662 
Q 1125 1350 1250 1775 
Q 1525 1575 1750 1450 
z
M 3750 725 
Q 3475 550 3075 137 
Q 2675 -275 2200 -650 
Q 2025 -425 1775 -300 
Q 2200 -25 2562 325 
Q 2925 675 3225 1075 
Q 3450 875 3750 725 
z
M 4850 1075 
Q 5475 475 6075 -250 
Q 5775 -375 5625 -575 
Q 5200 25 4425 750 
Q 4625 875 4850 1075 
z
M 975 4925 
Q 1550 4525 2050 4125 
Q 1850 3975 1675 3725 
Q 1225 4150 575 4525 
Q 800 4725 975 4925 
z
M 500 3325 
Q 1100 3025 1700 2675 
Q 1525 2475 1425 2250 
Q 900 2600 225 2875 
Q 350 3100 500 3325 
z
" transform="scale(0.015625)"/>
        <path id="SimHei-5c71" d="M 1225 3725 
Q 1200 3125 1200 2725 
L 1200 425 
L 2950 425 
L 2950 4175 
Q 2950 4625 2925 5075 
L 3475 5075 
Q 3450 4725 3450 4175 
L 3450 425 
L 5200 425 
L 5200 2775 
Q 5200 3325 5175 3700 
L 5750 3700 
Q 5725 3400 5725 2775 
L 5725 750 
Q 5725 150 5750 -525 
L 5200 -525 
L 5200 0 
L 650 0 
Q 675 550 675 1075 
L 675 2700 
Q 675 3275 650 3725 
L 1225 3725 
z
" transform="scale(0.015625)"/>
       </defs>
       <use xlink:href="#SimHei-6d2a"/>
       <use xlink:href="#SimHei-5c71" x="100"/>
      </g>
     </g>
    </g>
    <g id="xtick_14">
     <g id="line2d_14">
      <g>
       <use xlink:href="#m8862e5cb71" x="710.64" y="448.56" style="stroke: #000000; stroke-width: 0.8"/>
      </g>
     </g>
     <g id="text_14">
      <!-- 青山 -->
      <g transform="translate(714.600938 479.56) rotate(-90) scale(0.12 -0.12)">
       <defs>
        <path id="SimHei-9752" d="M 4075 -100 
Q 4600 -100 4700 -37 
Q 4800 25 4775 325 
L 1725 325 
L 1725 -600 
L 1250 -600 
Q 1275 -200 1275 425 
L 1275 1400 
Q 1275 1950 1250 2400 
L 5275 2400 
Q 5225 1925 5225 1375 
L 5225 -50 
Q 5225 -350 5025 -450 
Q 4825 -550 4350 -625 
Q 4300 -375 4075 -100 
z
M 3475 5200 
Q 3450 4950 3450 4675 
L 4825 4675 
Q 5275 4675 5650 4700 
L 5650 4250 
Q 5275 4275 4850 4275 
L 3450 4275 
L 3450 3900 
L 4650 3900 
Q 4975 3900 5350 3925 
L 5350 3475 
Q 4975 3500 4650 3500 
L 3450 3500 
L 3450 3150 
L 5125 3150 
Q 5600 3150 6000 3175 
L 6000 2725 
Q 5625 2750 5125 2750 
L 1225 2750 
Q 825 2750 425 2725 
L 425 3175 
Q 850 3150 1225 3150 
L 2950 3150 
L 2950 3500 
L 1800 3500 
Q 1400 3500 1050 3475 
L 1050 3925 
Q 1400 3900 1800 3900 
L 2950 3900 
L 2950 4275 
L 1525 4275 
Q 1100 4275 750 4250 
L 750 4700 
Q 1150 4675 1525 4675 
L 2950 4675 
Q 2950 4975 2925 5200 
L 3475 5200 
z
M 4775 1550 
L 4775 2000 
L 1725 2000 
L 1725 1550 
L 4775 1550 
z
M 4775 725 
L 4775 1150 
L 1725 1150 
L 1725 725 
L 4775 725 
z
" transform="scale(0.015625)"/>
       </defs>
       <use xlink:href="#SimHei-9752"/>
       <use xlink:href="#SimHei-5c71" x="100"/>
      </g>
     </g>
    </g>
    <g id="xtick_15">
     <g id="line2d_15">
      <g>
       <use xlink:href="#m8862e5cb71" x="755.28" y="448.56" style="stroke: #000000; stroke-width: 0.8"/>
      </g>
     </g>
     <g id="text_15">
      <!-- 汉阳 -->
      <g transform="translate(759.2175 479.56) rotate(-90) scale(0.12 -0.12)">
       <defs>
        <path id="SimHei-9633" d="M 5850 4775 
Q 5825 4325 5825 3925 
L 5825 550 
Q 5825 150 5850 -400 
L 5350 -400 
L 5350 300 
L 3550 300 
L 3550 -450 
L 3050 -450 
Q 3075 100 3075 475 
L 3075 3925 
Q 3075 4325 3050 4775 
L 5850 4775 
z
M 2675 4925 
Q 2525 4450 2387 4037 
Q 2250 3625 2050 2850 
Q 2375 2425 2525 2062 
Q 2675 1700 2650 1300 
Q 2625 900 2337 737 
Q 2050 575 1550 525 
Q 1500 900 1350 1025 
Q 1850 1025 2025 1162 
Q 2200 1300 2175 1575 
Q 2150 1850 1975 2162 
Q 1800 2475 1525 2775 
Q 1925 4075 2050 4550 
L 1100 4550 
L 1100 -600 
L 625 -600 
Q 650 -50 650 500 
L 650 3775 
Q 650 4475 625 4925 
L 2675 4925 
z
M 5350 2700 
L 5350 4375 
L 3550 4375 
L 3550 2700 
L 5350 2700 
z
M 5350 675 
L 5350 2300 
L 3550 2300 
L 3550 675 
L 5350 675 
z
" transform="scale(0.015625)"/>
       </defs>
       <use xlink:href="#SimHei-6c49"/>
       <use xlink:href="#SimHei-9633" x="100"/>
      </g>
     </g>
    </g>
   </g>
   <g id="matplotlib.axis_2">
    <g id="ytick_1">
     <g id="line2d_16">
      <defs>
       <path id="m5cd98ca7a5" d="M 0 0 
L -3.5 0 
" style="stroke: #000000; stroke-width: 0.8"/>
      </defs>
      <g>
       <use xlink:href="#m5cd98ca7a5" x="108" y="448.56" style="stroke: #000000; stroke-width: 0.8"/>
      </g>
     </g>
     <g id="text_16">
      <!-- 0 -->
      <g transform="translate(95 452.685) scale(0.12 -0.12)">
       <defs>
        <path id="SimHei-30" d="M 225 2537 
Q 250 3200 412 3587 
Q 575 3975 875 4225 
Q 1175 4475 1612 4475 
Q 2050 4475 2375 4112 
Q 2700 3750 2800 3200 
Q 2900 2650 2862 1937 
Q 2825 1225 2612 775 
Q 2400 325 1975 150 
Q 1550 -25 1125 187 
Q 700 400 525 750 
Q 350 1100 275 1487 
Q 200 1875 225 2537 
z
M 750 2687 
Q 675 2000 800 1462 
Q 925 925 1212 700 
Q 1500 475 1800 612 
Q 2100 750 2237 1162 
Q 2375 1575 2375 2062 
Q 2375 2550 2337 2950 
Q 2300 3350 2112 3675 
Q 1925 4000 1612 4012 
Q 1300 4025 1062 3700 
Q 825 3375 750 2687 
z
" transform="scale(0.015625)"/>
       </defs>
       <use xlink:href="#SimHei-30"/>
      </g>
     </g>
    </g>
    <g id="ytick_2">
     <g id="line2d_17">
      <g>
       <use xlink:href="#m5cd98ca7a5" x="108" y="386.397196" style="stroke: #000000; stroke-width: 0.8"/>
      </g>
     </g>
     <g id="text_17">
      <!-- 20 -->
      <g transform="translate(89 390.522196) scale(0.12 -0.12)">
       <defs>
        <path id="SimHei-32" d="M 300 250 
Q 325 625 650 925 
Q 975 1225 1475 1862 
Q 1975 2500 2125 2850 
Q 2275 3200 2237 3450 
Q 2200 3700 2000 3862 
Q 1800 4025 1537 4000 
Q 1275 3975 1037 3800 
Q 800 3625 675 3275 
L 200 3350 
Q 400 3925 712 4187 
Q 1025 4450 1450 4475 
Q 1700 4500 1900 4462 
Q 2100 4425 2312 4287 
Q 2525 4150 2662 3875 
Q 2800 3600 2762 3212 
Q 2725 2825 2375 2287 
Q 2025 1750 1025 600 
L 2825 600 
L 2825 150 
L 300 150 
L 300 250 
z
" transform="scale(0.015625)"/>
       </defs>
       <use xlink:href="#SimHei-32"/>
       <use xlink:href="#SimHei-30" x="50"/>
      </g>
     </g>
    </g>
    <g id="ytick_3">
     <g id="line2d_18">
      <g>
       <use xlink:href="#m5cd98ca7a5" x="108" y="324.234393" style="stroke: #000000; stroke-width: 0.8"/>
      </g>
     </g>
     <g id="text_18">
      <!-- 40 -->
      <g transform="translate(89 328.359393) scale(0.12 -0.12)">
       <defs>
        <path id="SimHei-34" d="M 2000 1100 
L 75 1100 
L 75 1525 
L 2100 4450 
L 2475 4450 
L 2475 1525 
L 3075 1525 
L 3075 1100 
L 2475 1100 
L 2475 150 
L 2000 150 
L 2000 1100 
z
M 2000 1525 
L 2000 3500 
L 600 1525 
L 2000 1525 
z
" transform="scale(0.015625)"/>
       </defs>
       <use xlink:href="#SimHei-34"/>
       <use xlink:href="#SimHei-30" x="50"/>
      </g>
     </g>
    </g>
    <g id="ytick_4">
     <g id="line2d_19">
      <g>
       <use xlink:href="#m5cd98ca7a5" x="108" y="262.071589" style="stroke: #000000; stroke-width: 0.8"/>
      </g>
     </g>
     <g id="text_19">
      <!-- 60 -->
      <g transform="translate(89 266.196589) scale(0.12 -0.12)">
       <defs>
        <path id="SimHei-36" d="M 250 1612 
Q 275 1975 387 2225 
Q 500 2475 725 2850 
L 1750 4450 
L 2325 4450 
L 1275 2800 
Q 1950 2975 2350 2750 
Q 2750 2525 2887 2237 
Q 3025 1950 3037 1612 
Q 3050 1275 2937 950 
Q 2825 625 2537 362 
Q 2250 100 1737 75 
Q 1225 50 862 262 
Q 500 475 362 862 
Q 225 1250 250 1612 
z
M 1025 787 
Q 1250 550 1625 525 
Q 2000 500 2250 775 
Q 2500 1050 2500 1575 
Q 2500 2100 2187 2300 
Q 1875 2500 1487 2450 
Q 1100 2400 925 2075 
Q 750 1750 775 1387 
Q 800 1025 1025 787 
z
" transform="scale(0.015625)"/>
       </defs>
       <use xlink:href="#SimHei-36"/>
       <use xlink:href="#SimHei-30" x="50"/>
      </g>
     </g>
    </g>
    <g id="ytick_5">
     <g id="line2d_20">
      <g>
       <use xlink:href="#m5cd98ca7a5" x="108" y="199.908786" style="stroke: #000000; stroke-width: 0.8"/>
      </g>
     </g>
     <g id="text_20">
      <!-- 80 -->
      <g transform="translate(89 204.033786) scale(0.12 -0.12)">
       <defs>
        <path id="SimHei-38" d="M 175 1375 
Q 175 1675 325 1962 
Q 475 2250 825 2425 
Q 525 2600 425 2812 
Q 325 3025 312 3300 
Q 300 3575 387 3775 
Q 475 3975 650 4150 
Q 825 4325 1037 4387 
Q 1250 4450 1500 4450 
Q 1750 4450 1950 4400 
Q 2150 4350 2375 4187 
Q 2600 4025 2700 3725 
Q 2800 3425 2687 3025 
Q 2575 2625 2100 2400 
Q 2525 2275 2700 2012 
Q 2875 1750 2875 1375 
Q 2875 1000 2762 775 
Q 2650 550 2512 400 
Q 2375 250 2137 162 
Q 1900 75 1537 75 
Q 1175 75 912 162 
Q 650 250 475 425 
Q 300 600 237 837 
Q 175 1075 175 1375 
z
M 687 1400 
Q 675 1100 787 875 
Q 900 650 1200 587 
Q 1500 525 1825 600 
Q 2150 675 2275 950 
Q 2400 1225 2362 1500 
Q 2325 1775 2050 1962 
Q 1775 2150 1450 2125 
Q 1125 2100 912 1900 
Q 700 1700 687 1400 
z
M 775 3350 
Q 775 3100 950 2875 
Q 1125 2650 1500 2650 
Q 1875 2650 2062 2875 
Q 2250 3100 2237 3412 
Q 2225 3725 2012 3875 
Q 1800 4025 1437 4000 
Q 1075 3975 925 3787 
Q 775 3600 775 3350 
z
" transform="scale(0.015625)"/>
       </defs>
       <use xlink:href="#SimHei-38"/>
       <use xlink:href="#SimHei-30" x="50"/>
      </g>
     </g>
    </g>
    <g id="ytick_6">
     <g id="line2d_21">
      <g>
       <use xlink:href="#m5cd98ca7a5" x="108" y="137.745982" style="stroke: #000000; stroke-width: 0.8"/>
      </g>
     </g>
     <g id="text_21">
      <!-- 100 -->
      <g transform="translate(83 141.870982) scale(0.12 -0.12)">
       <defs>
        <path id="SimHei-31" d="M 1400 3600 
Q 1075 3275 575 2975 
L 575 3450 
Q 1200 3875 1600 4450 
L 1900 4450 
L 1900 150 
L 1400 150 
L 1400 3600 
z
" transform="scale(0.015625)"/>
       </defs>
       <use xlink:href="#SimHei-31"/>
       <use xlink:href="#SimHei-30" x="50"/>
       <use xlink:href="#SimHei-30" x="100"/>
      </g>
     </g>
    </g>
    <g id="ytick_7">
     <g id="line2d_22">
      <g>
       <use xlink:href="#m5cd98ca7a5" x="108" y="75.583178" style="stroke: #000000; stroke-width: 0.8"/>
      </g>
     </g>
     <g id="text_22">
      <!-- 120 -->
      <g transform="translate(83 79.708178) scale(0.12 -0.12)">
       <use xlink:href="#SimHei-31"/>
       <use xlink:href="#SimHei-32" x="50"/>
       <use xlink:href="#SimHei-30" x="100"/>
      </g>
     </g>
    </g>
    <g id="text_23">
     <!-- 建筑面积(㎡) -->
     <g transform="translate(77.25 296.52) rotate(-90) scale(0.14 -0.14)">
      <defs>
       <path id="SimHei-5efa" d="M 3650 4700 
Q 3650 5025 3625 5250 
L 4125 5250 
Q 4100 5025 4100 4700 
L 5450 4700 
Q 5425 4400 5425 3850 
Q 5775 3850 6050 3875 
L 6050 3450 
Q 5800 3475 5425 3475 
Q 5425 2925 5450 2625 
L 4100 2625 
L 4100 2125 
Q 5075 2125 5400 2150 
L 5400 1725 
Q 5100 1750 4100 1750 
L 4100 1250 
L 4850 1250 
Q 5325 1250 5725 1275 
L 5725 825 
Q 5325 850 4850 850 
L 4100 850 
Q 4100 425 4125 125 
L 3625 125 
Q 3650 425 3650 850 
L 3075 850 
Q 2700 850 2250 825 
L 2250 1275 
Q 2675 1250 3100 1250 
L 3650 1250 
L 3650 1750 
Q 2950 1750 2425 1725 
L 2425 2150 
Q 2975 2125 3650 2125 
L 3650 2625 
Q 3000 2625 2550 2600 
L 2550 3025 
Q 3000 3000 3650 3000 
L 3650 3475 
L 3200 3475 
Q 2750 3475 2200 3450 
L 2200 3875 
Q 2750 3850 3200 3850 
L 3650 3850 
L 3650 4325 
Q 2975 4325 2525 4300 
L 2525 4725 
Q 2975 4700 3650 4700 
z
M 2050 4625 
Q 1975 4425 1300 2850 
L 2125 2850 
Q 2000 1875 1887 1475 
Q 1775 1075 1650 750 
Q 2000 425 2450 262 
Q 2900 100 3500 37 
Q 4100 -25 4775 -12 
Q 5450 0 6125 75 
Q 5950 -175 5925 -475 
Q 4775 -500 4037 -462 
Q 3300 -425 2812 -312 
Q 2325 -200 2012 -25 
Q 1700 150 1425 375 
Q 1125 -75 650 -550 
Q 475 -350 250 -200 
Q 750 150 1100 700 
Q 875 1000 737 1250 
Q 600 1500 475 1825 
Q 600 1850 900 2000 
Q 975 1700 1325 1125 
Q 1500 1650 1600 2450 
Q 1050 2450 725 2325 
L 600 2775 
Q 900 2875 1100 3362 
Q 1300 3850 1450 4250 
Q 950 4250 525 4225 
L 525 4650 
Q 1025 4625 2050 4625 
z
M 4975 3000 
L 4975 3475 
L 4100 3475 
L 4100 3000 
L 4975 3000 
z
M 4975 3850 
L 4975 4325 
L 4100 4325 
L 4100 3850 
L 4975 3850 
z
" transform="scale(0.015625)"/>
       <path id="SimHei-7b51" d="M 5200 3125 
Q 5175 2675 5175 2250 
L 5175 500 
Q 5150 -50 5400 -50 
L 5500 -50 
Q 5675 -50 5700 600 
Q 5950 450 6200 425 
Q 6100 -225 5987 -350 
Q 5875 -475 5650 -475 
L 5125 -475 
Q 4725 -475 4725 0 
L 4725 2725 
L 3425 2725 
Q 3425 2100 3387 1600 
Q 3350 1100 3262 700 
Q 3175 300 3025 -25 
Q 2875 -350 2625 -675 
Q 2400 -525 2125 -450 
Q 2425 -175 2650 350 
Q 2875 875 2912 1425 
Q 2950 1975 2962 2362 
Q 2975 2750 2950 3125 
L 5200 3125 
z
M 1900 2950 
Q 2250 2950 2625 2975 
L 2625 2525 
Q 2200 2550 1850 2550 
L 1850 900 
L 2600 1050 
Q 2575 750 2600 600 
Q 2250 525 1662 400 
Q 1075 275 550 100 
Q 475 350 300 625 
Q 725 675 1375 800 
L 1375 2550 
Q 900 2550 500 2525 
L 500 2975 
Q 900 2950 1275 2950 
L 1900 2950 
z
M 1750 5025 
Q 1625 4850 1475 4625 
L 2350 4625 
Q 2875 4625 3175 4650 
L 3175 4225 
Q 2925 4250 2500 4250 
L 2200 4250 
Q 2450 3700 2550 3475 
Q 2275 3375 2050 3275 
Q 2000 3500 1725 4250 
L 1325 4250 
Q 1175 3975 1037 3762 
Q 900 3550 725 3325 
Q 500 3475 250 3625 
Q 600 3925 837 4387 
Q 1075 4850 1250 5275 
Q 1575 5100 1750 5025 
z
M 3500 3350 
Q 3275 3475 3075 3550 
Q 3325 3925 3550 4387 
Q 3775 4850 3900 5250 
Q 4150 5125 4475 5025 
Q 4350 4950 4175 4625 
L 5075 4625 
Q 5500 4625 5950 4650 
L 5950 4225 
Q 5575 4250 5100 4250 
Q 5350 3725 5450 3475 
Q 5175 3375 4950 3275 
Q 4900 3575 4650 4250 
L 4025 4250 
Q 3800 3800 3500 3350 
z
M 4500 800 
Q 4225 725 4025 625 
Q 3975 975 3650 1850 
Q 3850 1925 4100 2000 
L 4500 800 
z
" transform="scale(0.015625)"/>
       <path id="SimHei-9762" d="M 5275 4850 
Q 5650 4850 5950 4875 
L 5950 4400 
Q 5600 4425 5275 4425 
L 3275 4425 
Q 3175 4200 2950 3575 
L 5525 3575 
Q 5500 3100 5500 2600 
L 5500 450 
Q 5500 -100 5525 -525 
L 5025 -525 
L 5025 -175 
L 1350 -175 
L 1350 -525 
L 850 -525 
Q 875 -200 875 425 
L 875 2650 
Q 875 3125 850 3575 
L 2475 3575 
Q 2700 4150 2750 4425 
L 1175 4425 
Q 800 4425 425 4400 
L 425 4875 
Q 825 4850 1175 4850 
L 5275 4850 
z
M 2200 225 
L 2200 3175 
L 1350 3175 
L 1350 225 
L 2200 225 
z
M 5025 225 
L 5025 3175 
L 4175 3175 
L 4175 225 
L 5025 225 
z
M 3750 225 
L 3750 1050 
L 2625 1050 
L 2625 225 
L 3750 225 
z
M 3750 2475 
L 3750 3175 
L 2625 3175 
L 2625 2475 
L 3750 2475 
z
M 3750 1425 
L 3750 2100 
L 2625 2100 
L 2625 1425 
L 3750 1425 
z
" transform="scale(0.015625)"/>
       <path id="SimHei-79ef" d="M 5675 4700 
Q 5650 4275 5650 3575 
L 5650 2750 
Q 5650 2225 5675 1750 
L 3100 1750 
Q 3125 2225 3125 2750 
L 3125 3600 
Q 3125 4275 3100 4700 
L 5675 4700 
z
M 2850 4625 
Q 2600 4575 2400 4525 
Q 2200 4475 1925 4425 
L 1925 3275 
Q 2525 3275 2875 3300 
L 2875 2825 
Q 2525 2850 1925 2850 
L 1925 2075 
Q 2125 2225 2250 2350 
Q 2650 1775 2875 1450 
Q 2750 1375 2450 1150 
Q 2250 1575 1925 2000 
L 1925 300 
Q 1925 -75 1950 -675 
L 1425 -675 
Q 1475 -75 1475 300 
L 1475 1925 
Q 1275 1475 1125 1225 
Q 975 975 650 525 
Q 450 700 200 825 
Q 575 1200 900 1750 
Q 1225 2300 1375 2850 
Q 1025 2850 300 2825 
L 300 3300 
Q 1025 3275 1475 3275 
L 1475 4325 
Q 975 4250 525 4175 
Q 450 4400 350 4625 
Q 675 4600 1462 4750 
Q 2250 4900 2550 5075 
Q 2725 4775 2850 4625 
z
M 5175 2175 
L 5175 4300 
L 3575 4300 
L 3575 2175 
L 5175 2175 
z
M 4025 1075 
Q 3875 850 3512 350 
Q 3150 -150 2700 -650 
Q 2525 -475 2300 -300 
Q 2625 -50 2950 375 
Q 3275 800 3575 1400 
Q 3825 1200 4025 1075 
z
M 5050 1325 
Q 5275 1025 5587 625 
Q 5900 225 6200 -225 
Q 5900 -400 5725 -550 
Q 5550 -225 5200 287 
Q 4850 800 4650 1025 
Q 4850 1150 5050 1325 
z
" transform="scale(0.015625)"/>
       <path id="SimHei-28" d="M 2975 -200 
L 2700 -475 
Q 2075 125 1762 775 
Q 1450 1425 1450 2250 
Q 1450 3075 1762 3725 
Q 2075 4375 2700 5000 
L 2975 4725 
Q 2400 4175 2112 3587 
Q 1825 3000 1825 2250 
Q 1825 1500 2112 912 
Q 2400 325 2975 -200 
z
" transform="scale(0.015625)"/>
       <path id="SimHei-33a1" d="M 5400 3725 
Q 5750 3725 5875 3400 
Q 5925 2950 5250 2575 
L 5925 2575 
L 5925 2375 
L 4950 2375 
L 4950 2625 
Q 5225 2750 5600 3100 
Q 5675 3250 5650 3375 
Q 5625 3475 5400 3525 
Q 5150 3525 5125 3225 
L 4900 3225 
L 4900 3250 
Q 4925 3650 5350 3725 
L 5400 3725 
z
M 1825 3200 
Q 2250 3225 2675 2775 
Q 3225 3475 4025 3175 
Q 4650 2900 4625 2025 
L 4625 225 
L 4200 225 
L 4200 2425 
Q 4200 2850 3475 2825 
Q 2900 2825 2775 2150 
L 2775 225 
L 2350 225 
L 2350 2400 
Q 2300 2850 1725 2825 
Q 1175 2850 925 2200 
L 925 225 
L 500 225 
L 500 3125 
L 925 3125 
L 925 2825 
Q 1250 3175 1775 3200 
L 1825 3200 
z
" transform="scale(0.015625)"/>
       <path id="SimHei-29" d="M 1675 2250 
Q 1675 1425 1362 775 
Q 1050 125 425 -475 
L 150 -200 
Q 725 325 1012 912 
Q 1300 1500 1300 2250 
Q 1300 3000 1012 3587 
Q 725 4175 150 4725 
L 425 5000 
Q 1050 4375 1362 3725 
Q 1675 3075 1675 2250 
z
" transform="scale(0.015625)"/>
      </defs>
      <use xlink:href="#SimHei-5efa"/>
      <use xlink:href="#SimHei-7b51" x="100"/>
      <use xlink:href="#SimHei-9762" x="200"/>
      <use xlink:href="#SimHei-79ef" x="300"/>
      <use xlink:href="#SimHei-28" x="400"/>
      <use xlink:href="#SimHei-33a1" x="450"/>
      <use xlink:href="#SimHei-29" x="550"/>
     </g>
    </g>
   </g>
   <g id="patch_18">
    <path d="M 108 448.56 
L 108 60.48 
" style="fill: none; stroke: #000000; stroke-width: 0.8; stroke-linejoin: miter; stroke-linecap: square"/>
   </g>
   <g id="patch_19">
    <path d="M 777.6 448.56 
L 777.6 60.48 
" style="fill: none; stroke: #000000; stroke-width: 0.8; stroke-linejoin: miter; stroke-linecap: square"/>
   </g>
   <g id="patch_20">
    <path d="M 108 448.56 
L 777.6 448.56 
" style="fill: none; stroke: #000000; stroke-width: 0.8; stroke-linejoin: miter; stroke-linecap: square"/>
   </g>
   <g id="patch_21">
    <path d="M 108 60.48 
L 777.6 60.48 
" style="fill: none; stroke: #000000; stroke-width: 0.8; stroke-linejoin: miter; stroke-linecap: square"/>
   </g>
   <g id="text_24">
    <!-- 武汉各区域二手房平均建筑面积 -->
    <g transform="translate(316.8 54.48) scale(0.18 -0.18)">
     <defs>
      <path id="SimHei-5404" d="M 5100 4425 
Q 4850 4000 4525 3600 
Q 4200 3200 3675 2750 
Q 4050 2500 4750 2325 
Q 5450 2150 6050 2125 
Q 5825 1825 5775 1600 
Q 5050 1750 4412 1962 
Q 3775 2175 3300 2475 
Q 2750 2150 2000 1875 
Q 1250 1600 550 1425 
Q 475 1625 275 1850 
Q 900 1950 1662 2200 
Q 2425 2450 2950 2750 
Q 2525 3150 2100 3900 
Q 1900 3575 1675 3300 
Q 1450 3025 1250 2800 
Q 1050 3000 850 3100 
Q 1200 3400 1587 3950 
Q 1975 4500 2175 5225 
Q 2450 5075 2725 5000 
Q 2600 4850 2375 4425 
L 5100 4425 
z
M 4975 1675 
Q 4950 1125 4950 400 
Q 4950 -325 4975 -575 
L 4475 -575 
L 4475 -225 
L 2050 -225 
L 2050 -625 
L 1550 -625 
Q 1575 -275 1575 400 
Q 1575 1075 1550 1675 
L 4975 1675 
z
M 4475 200 
L 4475 1250 
L 2050 1250 
L 2050 200 
L 4475 200 
z
M 3325 3000 
Q 3875 3450 4300 4025 
L 2500 4025 
Q 2975 3275 3325 3000 
z
" transform="scale(0.015625)"/>
      <path id="SimHei-533a" d="M 5850 4525 
Q 5475 4550 4850 4550 
L 1150 4550 
L 1150 -75 
L 5225 -75 
Q 5725 -75 6025 -50 
L 6025 -500 
Q 5700 -475 5175 -475 
L 625 -475 
Q 650 125 650 400 
L 650 4200 
Q 650 4625 625 4975 
L 5850 4975 
L 5850 4525 
z
M 2275 3875 
Q 3150 3275 3800 2700 
Q 4375 3375 4650 4050 
Q 4925 3875 5300 3700 
Q 5025 3525 4825 3225 
Q 4625 2925 4225 2375 
Q 5075 1675 5600 1000 
Q 5300 800 5175 575 
Q 4775 1175 3850 1950 
Q 3475 1525 3087 1175 
Q 2700 825 2125 400 
Q 1900 625 1625 775 
Q 2125 1000 2525 1312 
Q 2925 1625 3475 2300 
Q 2850 2875 1925 3450 
Q 2175 3650 2275 3875 
z
" transform="scale(0.015625)"/>
      <path id="SimHei-57df" d="M 4550 5100 
Q 4475 4775 4500 4150 
L 5025 4150 
Q 5450 4150 5950 4175 
L 5950 3700 
Q 5475 3725 5025 3725 
L 4525 3725 
Q 4550 3050 4600 2462 
Q 4650 1875 4775 1275 
Q 4975 1850 5050 2275 
Q 5125 2700 5175 3200 
Q 5425 3075 5750 3000 
Q 5675 2875 5537 2337 
Q 5400 1800 5287 1450 
Q 5175 1100 5025 700 
Q 5125 450 5312 237 
Q 5500 25 5587 212 
Q 5675 400 5750 700 
Q 5900 525 6200 400 
Q 6000 -100 5800 -337 
Q 5600 -575 5250 -325 
Q 4900 -75 4725 300 
Q 4575 75 4362 -175 
Q 4150 -425 3875 -650 
Q 3750 -525 3400 -325 
Q 3750 -150 4037 162 
Q 4325 475 4475 775 
Q 4350 1175 4287 1512 
Q 4225 1850 4162 2450 
Q 4100 3050 4075 3725 
L 3150 3725 
Q 2525 3725 1975 3700 
L 1975 4175 
Q 2525 4150 3150 4150 
L 4050 4150 
Q 4025 4600 3950 5175 
Q 4250 5125 4550 5100 
z
M 975 4250 
Q 975 4800 950 5100 
L 1450 5100 
Q 1425 4750 1425 4250 
L 1425 3325 
Q 1625 3325 2000 3350 
L 2000 2900 
Q 1625 2925 1425 2925 
L 1425 1000 
Q 1550 1075 2000 1275 
Q 1975 1075 2000 775 
Q 1675 625 1200 425 
Q 725 225 500 50 
Q 375 325 250 575 
Q 475 625 662 687 
Q 850 750 975 825 
L 975 2925 
Q 625 2925 300 2900 
L 300 3350 
Q 600 3325 975 3325 
L 975 4250 
z
M 3800 1750 
Q 3800 1425 3825 1150 
L 2225 1150 
Q 2250 1375 2250 1575 
L 2250 2525 
Q 2250 2825 2225 3075 
L 3825 3075 
Q 3800 2875 3800 2675 
L 3800 1750 
z
M 1900 225 
Q 2300 300 2850 462 
Q 3400 625 3825 800 
Q 3800 600 3800 350 
Q 3500 250 3012 75 
Q 2525 -100 2125 -275 
Q 2025 -25 1900 225 
z
M 3350 1525 
L 3350 2700 
L 2725 2700 
L 2725 1525 
L 3350 1525 
z
M 5300 4325 
Q 5150 4625 4900 4925 
Q 5050 5050 5250 5150 
Q 5450 4900 5700 4575 
Q 5475 4475 5300 4325 
z
" transform="scale(0.015625)"/>
      <path id="SimHei-4e8c" d="M 5050 625 
Q 5650 625 6025 675 
L 6025 50 
Q 5625 75 5050 75 
L 1425 75 
Q 775 75 350 50 
L 350 650 
Q 800 625 1400 625 
L 5050 625 
z
M 4350 4150 
Q 4900 4175 5350 4200 
L 5350 3575 
Q 4900 3600 4375 3600 
L 2050 3600 
Q 1450 3600 1000 3575 
L 1000 4175 
Q 1450 4150 2025 4150 
L 4350 4150 
z
" transform="scale(0.015625)"/>
      <path id="SimHei-624b" d="M 5525 4425 
Q 5175 4400 3550 4250 
L 3550 3250 
L 4675 3250 
Q 5100 3250 5525 3275 
L 5525 2800 
Q 5100 2800 4675 2825 
L 3550 2825 
L 3550 1900 
L 5325 1900 
Q 5700 1900 6100 1925 
L 6100 1450 
Q 5700 1475 5325 1475 
L 3550 1475 
L 3550 125 
Q 3575 -250 3312 -400 
Q 3050 -550 2425 -600 
Q 2400 -300 2175 -25 
Q 2650 -25 2850 37 
Q 3050 100 3025 350 
L 3025 1475 
L 1225 1475 
Q 775 1450 375 1450 
L 375 1925 
Q 800 1900 1225 1900 
L 3025 1900 
L 3025 2825 
L 1925 2825 
Q 1475 2825 1000 2800 
L 1000 3275 
Q 1450 3250 1925 3250 
L 3025 3250 
L 3025 4200 
Q 1725 4125 1050 4100 
Q 975 4375 825 4575 
Q 1725 4550 3162 4662 
Q 4600 4775 5200 5000 
Q 5350 4650 5525 4425 
z
" transform="scale(0.015625)"/>
      <path id="SimHei-623f" d="M 3175 2800 
Q 3500 2850 3700 2975 
Q 3925 2475 3975 2300 
L 5100 2300 
Q 5525 2300 6025 2325 
L 6025 1875 
Q 5525 1900 5100 1900 
L 3225 1900 
Q 3200 1550 3175 1325 
L 5525 1325 
Q 5475 950 5412 537 
Q 5350 125 5287 -112 
Q 5225 -350 5050 -437 
Q 4875 -525 4000 -600 
Q 3925 -275 3800 -50 
Q 4550 -100 4687 -25 
Q 4825 50 4875 250 
Q 4925 500 4975 900 
L 3100 900 
Q 2975 425 2612 0 
Q 2250 -425 1750 -725 
Q 1625 -500 1350 -325 
Q 1675 -200 1925 0 
Q 2175 200 2375 487 
Q 2575 775 2650 1137 
Q 2725 1500 2725 1900 
L 1500 1900 
Q 1475 1250 1262 562 
Q 1050 -125 750 -600 
Q 550 -375 275 -275 
Q 475 -50 687 387 
Q 900 825 975 1400 
Q 1050 1975 1050 2850 
Q 1050 3750 1025 4500 
L 3100 4500 
Q 3025 4750 2875 5100 
Q 3150 5175 3400 5275 
Q 3625 4700 3650 4500 
L 5575 4500 
Q 5550 4100 5550 3700 
Q 5550 3300 5575 3000 
L 1525 3000 
L 1525 2300 
L 3425 2300 
Q 3350 2600 3175 2800 
z
M 5100 3375 
L 5100 4100 
L 1525 4100 
L 1525 3375 
L 5100 3375 
z
" transform="scale(0.015625)"/>
      <path id="SimHei-5e73" d="M 4525 4825 
Q 4900 4825 5450 4850 
L 5450 4375 
Q 4925 4400 4525 4400 
L 3475 4400 
L 3475 2025 
L 5000 2025 
Q 5550 2025 6025 2050 
L 6025 1575 
Q 5550 1600 5000 1600 
L 3475 1600 
L 3475 450 
Q 3475 -100 3500 -600 
L 2925 -600 
Q 2950 -100 2950 450 
L 2950 1600 
L 1125 1600 
Q 775 1600 375 1575 
L 375 2050 
Q 775 2025 1175 2025 
L 2950 2025 
L 2950 4400 
L 1775 4400 
Q 1400 4400 875 4375 
L 875 4850 
Q 1400 4825 1750 4825 
L 4525 4825 
z
M 3925 2600 
Q 4500 3300 4900 4125 
Q 5150 3950 5400 3825 
Q 4775 2850 4350 2300 
Q 4150 2475 3925 2600 
z
M 1975 2350 
Q 1600 3100 1050 3725 
Q 1250 3875 1450 4050 
Q 2075 3300 2450 2725 
Q 2150 2500 1975 2350 
z
" transform="scale(0.015625)"/>
      <path id="SimHei-5747" d="M 5775 275 
Q 5775 -325 5362 -450 
Q 4950 -575 4425 -600 
Q 4375 -275 4250 25 
Q 4950 -25 5125 62 
Q 5300 150 5300 500 
L 5375 3700 
L 3550 3700 
Q 3425 3375 3262 3037 
Q 3100 2700 2925 2400 
Q 2675 2550 2475 2625 
Q 3150 3625 3500 5200 
Q 3800 5100 4075 5025 
Q 3975 4875 3875 4650 
Q 3775 4425 3675 4125 
L 5900 4125 
L 5775 275 
z
M 1250 3625 
L 1250 4375 
Q 1250 4775 1225 5100 
L 1775 5100 
Q 1750 4725 1750 4375 
L 1750 3625 
L 1900 3625 
Q 2200 3625 2525 3650 
L 2525 3150 
Q 2200 3175 1900 3175 
L 1750 3175 
L 1750 1100 
L 2500 1375 
Q 2475 1125 2525 900 
Q 1225 475 962 362 
Q 700 250 475 150 
Q 375 475 250 750 
Q 575 800 800 850 
Q 1025 900 1250 975 
L 1250 3175 
L 1125 3175 
Q 850 3175 400 3150 
L 400 3650 
Q 850 3625 1100 3625 
L 1250 3625 
z
M 4950 1625 
Q 4675 1425 4137 1050 
Q 3600 675 3175 300 
Q 3000 575 2850 775 
Q 3350 1050 3762 1325 
Q 4175 1600 4775 2075 
Q 4825 1850 4950 1625 
z
M 3775 3150 
Q 4125 2800 4475 2300 
Q 4250 2125 4100 1975 
Q 3900 2325 3450 2825 
Q 3600 3000 3775 3150 
z
" transform="scale(0.015625)"/>
     </defs>
     <use xlink:href="#SimHei-6b66"/>
     <use xlink:href="#SimHei-6c49" x="100"/>
     <use xlink:href="#SimHei-5404" x="200"/>
     <use xlink:href="#SimHei-533a" x="300"/>
     <use xlink:href="#SimHei-57df" x="400"/>
     <use xlink:href="#SimHei-4e8c" x="500"/>
     <use xlink:href="#SimHei-624b" x="600"/>
     <use xlink:href="#SimHei-623f" x="700"/>
     <use xlink:href="#SimHei-5e73" x="800"/>
     <use xlink:href="#SimHei-5747" x="900"/>
     <use xlink:href="#SimHei-5efa" x="1000"/>
     <use xlink:href="#SimHei-7b51" x="1100"/>
     <use xlink:href="#SimHei-9762" x="1200"/>
     <use xlink:href="#SimHei-79ef" x="1300"/>
    </g>
   </g>
  </g>
 </g>
 <defs>
  <clipPath id="p6593e535a4">
   <rect x="108" y="60.48" width="669.6" height="388.08"/>
  </clipPath>
 </defs>
</svg>
