<?xml version="1.0" encoding="utf-8" standalone="no"?>
<!DOCTYPE svg PUBLIC "-//W3C//DTD SVG 1.1//EN"
  "http://www.w3.org/Graphics/SVG/1.1/DTD/svg11.dtd">
<svg xmlns:xlink="http://www.w3.org/1999/xlink" width="864pt" height="504pt" viewBox="0 0 864 504" xmlns="http://www.w3.org/2000/svg" version="1.1">
 <metadata>
  <rdf:RDF xmlns:dc="http://purl.org/dc/elements/1.1/" xmlns:cc="http://creativecommons.org/ns#" xmlns:rdf="http://www.w3.org/1999/02/22-rdf-syntax-ns#">
   <cc:Work>
    <dc:type rdf:resource="http://purl.org/dc/dcmitype/StillImage"/>
    <dc:date>2023-05-03T21:16:04.038177</dc:date>
    <dc:format>image/svg+xml</dc:format>
    <dc:creator>
     <cc:Agent>
      <dc:title>Matplotlib v3.7.1, https://matplotlib.org/</dc:title>
     </cc:Agent>
    </dc:creator>
   </cc:Work>
  </rdf:RDF>
 </metadata>
 <defs>
  <style type="text/css">*{stroke-linejoin: round; stroke-linecap: butt}</style>
 </defs>
 <g id="figure_1">
  <g id="patch_1">
   <path d="M 0 504 
L 864 504 
L 864 0 
L 0 0 
z
" style="fill: #ffffff"/>
  </g>
  <g id="axes_1">
   <g id="patch_2">
    <path d="M 108 448.56 
L 777.6 448.56 
L 777.6 60.48 
L 108 60.48 
z
" style="fill: #ffffff"/>
   </g>
   <g id="patch_3">
    <path d="M 108 429.156 
L 108.187233 429.156 
L 108.187233 390.348 
L 108 390.348 
z
" clip-path="url(#p1183eb32c9)" style="fill: #1f77b4"/>
   </g>
   <g id="patch_4">
    <path d="M 108 351.54 
L 108.187233 351.54 
L 108.187233 312.732 
L 108 312.732 
z
" clip-path="url(#p1183eb32c9)" style="fill: #1f77b4"/>
   </g>
   <g id="patch_5">
    <path d="M 108 273.924 
L 109.77871 273.924 
L 109.77871 235.116 
L 108 235.116 
z
" clip-path="url(#p1183eb32c9)" style="fill: #1f77b4"/>
   </g>
   <g id="patch_6">
    <path d="M 108 196.308 
L 114.83399 196.308 
L 114.83399 157.5 
L 108 157.5 
z
" clip-path="url(#p1183eb32c9)" style="fill: #1f77b4"/>
   </g>
   <g id="patch_7">
    <path d="M 108 118.692 
L 745.714286 118.692 
L 745.714286 79.884 
L 108 79.884 
z
" clip-path="url(#p1183eb32c9)" style="fill: #1f77b4"/>
   </g>
   <g id="matplotlib.axis_1">
    <g id="xtick_1">
     <g id="line2d_1">
      <defs>
       <path id="m4d969532c0" d="M 0 0 
L 0 3.5 
" style="stroke: #000000; stroke-width: 0.8"/>
      </defs>
      <g>
       <use xlink:href="#m4d969532c0" x="108" y="448.56" style="stroke: #000000; stroke-width: 0.8"/>
      </g>
     </g>
     <g id="text_1">
      <!-- 0 -->
      <g transform="translate(105 463.81) scale(0.12 -0.12)">
       <defs>
        <path id="SimHei-30" d="M 225 2537 
Q 250 3200 412 3587 
Q 575 3975 875 4225 
Q 1175 4475 1612 4475 
Q 2050 4475 2375 4112 
Q 2700 3750 2800 3200 
Q 2900 2650 2862 1937 
Q 2825 1225 2612 775 
Q 2400 325 1975 150 
Q 1550 -25 1125 187 
Q 700 400 525 750 
Q 350 1100 275 1487 
Q 200 1875 225 2537 
z
M 750 2687 
Q 675 2000 800 1462 
Q 925 925 1212 700 
Q 1500 475 1800 612 
Q 2100 750 2237 1162 
Q 2375 1575 2375 2062 
Q 2375 2550 2337 2950 
Q 2300 3350 2112 3675 
Q 1925 4000 1612 4012 
Q 1300 4025 1062 3700 
Q 825 3375 750 2687 
z
" transform="scale(0.015625)"/>
       </defs>
       <use xlink:href="#SimHei-30"/>
      </g>
     </g>
    </g>
    <g id="xtick_2">
     <g id="line2d_2">
      <g>
       <use xlink:href="#m4d969532c0" x="201.616307" y="448.56" style="stroke: #000000; stroke-width: 0.8"/>
      </g>
     </g>
     <g id="text_2">
      <!-- 1000 -->
      <g transform="translate(189.616307 463.81) scale(0.12 -0.12)">
       <defs>
        <path id="SimHei-31" d="M 1400 3600 
Q 1075 3275 575 2975 
L 575 3450 
Q 1200 3875 1600 4450 
L 1900 4450 
L 1900 150 
L 1400 150 
L 1400 3600 
z
" transform="scale(0.015625)"/>
       </defs>
       <use xlink:href="#SimHei-31"/>
       <use xlink:href="#SimHei-30" x="50"/>
       <use xlink:href="#SimHei-30" x="100"/>
       <use xlink:href="#SimHei-30" x="150"/>
      </g>
     </g>
    </g>
    <g id="xtick_3">
     <g id="line2d_3">
      <g>
       <use xlink:href="#m4d969532c0" x="295.232615" y="448.56" style="stroke: #000000; stroke-width: 0.8"/>
      </g>
     </g>
     <g id="text_3">
      <!-- 2000 -->
      <g transform="translate(283.232615 463.81) scale(0.12 -0.12)">
       <defs>
        <path id="SimHei-32" d="M 300 250 
Q 325 625 650 925 
Q 975 1225 1475 1862 
Q 1975 2500 2125 2850 
Q 2275 3200 2237 3450 
Q 2200 3700 2000 3862 
Q 1800 4025 1537 4000 
Q 1275 3975 1037 3800 
Q 800 3625 675 3275 
L 200 3350 
Q 400 3925 712 4187 
Q 1025 4450 1450 4475 
Q 1700 4500 1900 4462 
Q 2100 4425 2312 4287 
Q 2525 4150 2662 3875 
Q 2800 3600 2762 3212 
Q 2725 2825 2375 2287 
Q 2025 1750 1025 600 
L 2825 600 
L 2825 150 
L 300 150 
L 300 250 
z
" transform="scale(0.015625)"/>
       </defs>
       <use xlink:href="#SimHei-32"/>
       <use xlink:href="#SimHei-30" x="50"/>
       <use xlink:href="#SimHei-30" x="100"/>
       <use xlink:href="#SimHei-30" x="150"/>
      </g>
     </g>
    </g>
    <g id="xtick_4">
     <g id="line2d_4">
      <g>
       <use xlink:href="#m4d969532c0" x="388.848922" y="448.56" style="stroke: #000000; stroke-width: 0.8"/>
      </g>
     </g>
     <g id="text_4">
      <!-- 3000 -->
      <g transform="translate(376.848922 463.81) scale(0.12 -0.12)">
       <defs>
        <path id="SimHei-33" d="M 250 1225 
L 700 1300 
Q 800 975 1025 762 
Q 1250 550 1587 562 
Q 1925 575 2125 837 
Q 2325 1100 2300 1437 
Q 2275 1775 2037 1962 
Q 1800 2150 1275 2225 
L 1275 2550 
Q 1800 2600 2037 2825 
Q 2275 3050 2250 3412 
Q 2225 3775 1925 3937 
Q 1625 4100 1287 3975 
Q 950 3850 750 3275 
L 300 3350 
Q 450 3800 712 4100 
Q 975 4400 1425 4450 
Q 1875 4500 2212 4337 
Q 2550 4175 2687 3837 
Q 2825 3500 2725 3100 
Q 2625 2700 2150 2400 
Q 2500 2250 2687 1950 
Q 2875 1650 2812 1162 
Q 2750 675 2375 375 
Q 2000 75 1525 87 
Q 1050 100 700 387 
Q 350 675 250 1225 
z
" transform="scale(0.015625)"/>
       </defs>
       <use xlink:href="#SimHei-33"/>
       <use xlink:href="#SimHei-30" x="50"/>
       <use xlink:href="#SimHei-30" x="100"/>
       <use xlink:href="#SimHei-30" x="150"/>
      </g>
     </g>
    </g>
    <g id="xtick_5">
     <g id="line2d_5">
      <g>
       <use xlink:href="#m4d969532c0" x="482.465229" y="448.56" style="stroke: #000000; stroke-width: 0.8"/>
      </g>
     </g>
     <g id="text_5">
      <!-- 4000 -->
      <g transform="translate(470.465229 463.81) scale(0.12 -0.12)">
       <defs>
        <path id="SimHei-34" d="M 2000 1100 
L 75 1100 
L 75 1525 
L 2100 4450 
L 2475 4450 
L 2475 1525 
L 3075 1525 
L 3075 1100 
L 2475 1100 
L 2475 150 
L 2000 150 
L 2000 1100 
z
M 2000 1525 
L 2000 3500 
L 600 1525 
L 2000 1525 
z
" transform="scale(0.015625)"/>
       </defs>
       <use xlink:href="#SimHei-34"/>
       <use xlink:href="#SimHei-30" x="50"/>
       <use xlink:href="#SimHei-30" x="100"/>
       <use xlink:href="#SimHei-30" x="150"/>
      </g>
     </g>
    </g>
    <g id="xtick_6">
     <g id="line2d_6">
      <g>
       <use xlink:href="#m4d969532c0" x="576.081537" y="448.56" style="stroke: #000000; stroke-width: 0.8"/>
      </g>
     </g>
     <g id="text_6">
      <!-- 5000 -->
      <g transform="translate(564.081537 463.81) scale(0.12 -0.12)">
       <defs>
        <path id="SimHei-35" d="M 550 1325 
Q 725 650 1150 575 
Q 1575 500 1837 662 
Q 2100 825 2212 1087 
Q 2325 1350 2312 1675 
Q 2300 2000 2137 2225 
Q 1975 2450 1725 2525 
Q 1475 2600 1162 2525 
Q 850 2450 650 2175 
L 225 2225 
Q 275 2375 700 4375 
L 2675 4375 
L 2675 3925 
L 1075 3925 
Q 950 3250 825 2850 
Q 1200 3025 1525 3012 
Q 1850 3000 2150 2862 
Q 2450 2725 2587 2487 
Q 2725 2250 2787 2012 
Q 2850 1775 2837 1500 
Q 2825 1225 2725 937 
Q 2625 650 2425 462 
Q 2225 275 1937 162 
Q 1650 50 1275 75 
Q 900 100 562 350 
Q 225 600 100 1200 
L 550 1325 
z
" transform="scale(0.015625)"/>
       </defs>
       <use xlink:href="#SimHei-35"/>
       <use xlink:href="#SimHei-30" x="50"/>
       <use xlink:href="#SimHei-30" x="100"/>
       <use xlink:href="#SimHei-30" x="150"/>
      </g>
     </g>
    </g>
    <g id="xtick_7">
     <g id="line2d_7">
      <g>
       <use xlink:href="#m4d969532c0" x="669.697844" y="448.56" style="stroke: #000000; stroke-width: 0.8"/>
      </g>
     </g>
     <g id="text_7">
      <!-- 6000 -->
      <g transform="translate(657.697844 463.81) scale(0.12 -0.12)">
       <defs>
        <path id="SimHei-36" d="M 250 1612 
Q 275 1975 387 2225 
Q 500 2475 725 2850 
L 1750 4450 
L 2325 4450 
L 1275 2800 
Q 1950 2975 2350 2750 
Q 2750 2525 2887 2237 
Q 3025 1950 3037 1612 
Q 3050 1275 2937 950 
Q 2825 625 2537 362 
Q 2250 100 1737 75 
Q 1225 50 862 262 
Q 500 475 362 862 
Q 225 1250 250 1612 
z
M 1025 787 
Q 1250 550 1625 525 
Q 2000 500 2250 775 
Q 2500 1050 2500 1575 
Q 2500 2100 2187 2300 
Q 1875 2500 1487 2450 
Q 1100 2400 925 2075 
Q 750 1750 775 1387 
Q 800 1025 1025 787 
z
" transform="scale(0.015625)"/>
       </defs>
       <use xlink:href="#SimHei-36"/>
       <use xlink:href="#SimHei-30" x="50"/>
       <use xlink:href="#SimHei-30" x="100"/>
       <use xlink:href="#SimHei-30" x="150"/>
      </g>
     </g>
    </g>
    <g id="xtick_8">
     <g id="line2d_8">
      <g>
       <use xlink:href="#m4d969532c0" x="763.314151" y="448.56" style="stroke: #000000; stroke-width: 0.8"/>
      </g>
     </g>
     <g id="text_8">
      <!-- 7000 -->
      <g transform="translate(751.314151 463.81) scale(0.12 -0.12)">
       <defs>
        <path id="SimHei-37" d="M 850 150 
Q 1300 2050 2425 3925 
L 275 3925 
L 275 4375 
L 2950 4375 
L 2950 3950 
Q 1775 2050 1400 150 
L 850 150 
z
" transform="scale(0.015625)"/>
       </defs>
       <use xlink:href="#SimHei-37"/>
       <use xlink:href="#SimHei-30" x="50"/>
       <use xlink:href="#SimHei-30" x="100"/>
       <use xlink:href="#SimHei-30" x="150"/>
      </g>
     </g>
    </g>
   </g>
   <g id="matplotlib.axis_2">
    <g id="ytick_1">
     <g id="line2d_9">
      <defs>
       <path id="mb193d963a0" d="M 0 0 
L -3.5 0 
" style="stroke: #000000; stroke-width: 0.8"/>
      </defs>
      <g>
       <use xlink:href="#mb193d963a0" x="108" y="409.752" style="stroke: #000000; stroke-width: 0.8"/>
      </g>
     </g>
     <g id="text_9">
      <!-- 商业 -->
      <g transform="translate(77 414.53325) scale(0.12 -0.12)">
       <defs>
        <path id="SimHei-5546" d="M 3150 5225 
Q 3475 4725 3550 4525 
L 4975 4525 
Q 5475 4525 5975 4550 
L 5975 4100 
Q 5475 4125 4975 4125 
L 2100 4125 
Q 2575 3625 2675 3475 
Q 2500 3400 2300 3250 
L 3650 3250 
Q 3800 3650 3950 4100 
Q 4200 4000 4525 3925 
Q 4350 3700 4125 3250 
L 5525 3250 
Q 5500 2950 5500 2425 
L 5500 -50 
Q 5500 -350 5225 -475 
Q 4950 -600 4475 -675 
Q 4450 -375 4275 -125 
Q 4775 -150 4900 -75 
Q 5025 0 5025 175 
L 5025 2900 
L 1375 2900 
L 1375 -600 
L 875 -600 
Q 900 50 900 325 
L 900 2475 
Q 900 2725 875 3250 
L 2250 3250 
Q 2075 3550 1675 3875 
Q 1875 3975 2050 4125 
L 1475 4125 
Q 900 4125 475 4100 
L 475 4550 
Q 900 4525 1450 4525 
L 3000 4525 
Q 2925 4775 2675 5050 
Q 2925 5125 3150 5225 
z
M 2600 2650 
Q 2850 2475 3075 2350 
Q 2825 2225 2350 1675 
L 4250 1675 
Q 4225 1350 4225 975 
Q 4225 600 4250 225 
L 2300 225 
Q 2325 600 2325 950 
Q 2325 1325 2300 1625 
Q 2125 1475 1950 1350 
Q 1825 1525 1575 1625 
Q 2350 2225 2600 2650 
z
M 3750 600 
L 3750 1300 
L 2775 1300 
L 2775 600 
L 3750 600 
z
M 3775 2675 
Q 4475 2225 4900 1850 
Q 4675 1725 4525 1525 
Q 4275 1825 3475 2350 
Q 3650 2475 3775 2675 
z
" transform="scale(0.015625)"/>
        <path id="SimHei-4e1a" d="M 2825 5025 
Q 2775 4325 2775 3825 
L 2775 150 
L 3600 150 
L 3600 4125 
Q 3600 4525 3550 5025 
L 4175 5025 
Q 4125 4625 4125 4175 
L 4125 150 
L 5100 150 
Q 5500 150 6075 200 
L 6075 -350 
Q 5500 -300 5125 -300 
L 1325 -300 
Q 975 -300 325 -350 
L 325 200 
Q 975 150 1300 150 
L 2225 150 
L 2225 3850 
Q 2225 4375 2150 5025 
L 2825 5025 
z
M 1025 3775 
Q 1325 3000 1850 1500 
Q 1575 1450 1275 1300 
Q 825 2750 475 3550 
Q 725 3650 1025 3775 
z
M 5850 3625 
Q 5525 2775 4950 1250 
Q 4700 1400 4425 1475 
Q 4950 2450 5225 3825 
Q 5500 3725 5850 3625 
z
" transform="scale(0.015625)"/>
       </defs>
       <use xlink:href="#SimHei-5546"/>
       <use xlink:href="#SimHei-4e1a" x="100"/>
      </g>
     </g>
    </g>
    <g id="ytick_2">
     <g id="line2d_10">
      <g>
       <use xlink:href="#mb193d963a0" x="108" y="332.136" style="stroke: #000000; stroke-width: 0.8"/>
      </g>
     </g>
     <g id="text_10">
      <!-- 车库 -->
      <g transform="translate(77 336.91725) scale(0.12 -0.12)">
       <defs>
        <path id="SimHei-8f66" d="M 1125 1950 
Q 1000 2300 900 2525 
Q 1225 2650 1562 3062 
Q 1900 3475 2125 3850 
Q 1200 3850 625 3825 
L 625 4325 
Q 1150 4300 2375 4300 
Q 2675 4900 2775 5275 
Q 3075 5125 3350 5025 
Q 3100 4675 2900 4300 
L 4600 4300 
Q 4900 4300 5525 4325 
L 5525 3825 
Q 5025 3850 4600 3850 
L 2675 3850 
Q 2400 3425 1725 2550 
L 3125 2550 
Q 3125 3025 3100 3525 
L 3650 3525 
Q 3625 3100 3625 2550 
L 4475 2550 
Q 4975 2550 5450 2575 
L 5450 2075 
Q 4975 2100 4475 2100 
L 3625 2100 
L 3625 1150 
L 5025 1150 
Q 5500 1150 6075 1175 
L 6075 650 
Q 5500 675 5025 675 
L 3625 675 
Q 3625 -125 3650 -600 
L 3100 -600 
Q 3125 -100 3125 675 
L 1400 675 
Q 850 675 350 650 
L 350 1175 
Q 850 1150 1400 1150 
L 3125 1150 
L 3125 2100 
Q 2225 2100 1875 2075 
Q 1525 2050 1125 1950 
z
" transform="scale(0.015625)"/>
        <path id="SimHei-5e93" d="M 2825 3300 
Q 3050 3750 3125 4025 
Q 3425 3875 3675 3800 
Q 3500 3600 3325 3300 
L 4875 3300 
Q 5300 3300 5725 3325 
L 5725 2900 
Q 5325 2925 4850 2925 
L 3150 2925 
Q 2775 2325 2525 1975 
L 3575 1975 
Q 3575 2250 3550 2600 
L 4075 2600 
Q 4050 2275 4050 1975 
L 4850 1975 
Q 5250 1975 5525 2000 
L 5525 1550 
Q 5300 1575 4825 1575 
L 4050 1575 
L 4050 850 
L 5200 850 
Q 5600 850 6025 875 
L 6025 425 
Q 5625 450 5200 450 
L 4050 450 
L 4050 -25 
Q 4050 -375 4075 -625 
L 3550 -625 
Q 3575 -375 3575 -25 
L 3575 450 
L 2300 450 
Q 1900 450 1375 425 
L 1375 875 
Q 1850 850 2300 850 
L 3575 850 
L 3575 1575 
L 2750 1575 
Q 2200 1550 2000 1475 
L 1825 1925 
Q 2050 2000 2250 2300 
Q 2450 2600 2650 2925 
Q 2025 2925 1575 2900 
L 1575 3325 
Q 2025 3300 2825 3300 
z
M 6000 4075 
Q 5350 4100 4975 4100 
L 1350 4100 
Q 1350 2675 1300 1925 
Q 1250 1175 1137 550 
Q 1025 -75 750 -625 
Q 550 -475 250 -350 
Q 525 125 625 487 
Q 725 850 787 1350 
Q 850 1850 862 2475 
Q 875 3100 850 4475 
L 3250 4475 
Q 3175 4750 3000 5100 
Q 3275 5175 3525 5275 
Q 3725 4825 3825 4475 
L 4975 4475 
Q 5375 4475 6000 4500 
L 6000 4075 
z
" transform="scale(0.015625)"/>
       </defs>
       <use xlink:href="#SimHei-8f66"/>
       <use xlink:href="#SimHei-5e93" x="100"/>
      </g>
     </g>
    </g>
    <g id="ytick_3">
     <g id="line2d_11">
      <g>
       <use xlink:href="#mb193d963a0" x="108" y="254.52" style="stroke: #000000; stroke-width: 0.8"/>
      </g>
     </g>
     <g id="text_11">
      <!-- 别墅 -->
      <g transform="translate(77 259.2075) scale(0.12 -0.12)">
       <defs>
        <path id="SimHei-522b" d="M 3275 4950 
Q 3250 4600 3250 3925 
Q 3250 3250 3275 2975 
L 800 2975 
Q 825 3275 825 3975 
Q 825 4700 800 4950 
L 3275 4950 
z
M 1650 2125 
Q 1650 2400 1625 2925 
Q 1950 2875 2225 2850 
Q 2150 2625 2125 2125 
L 3600 2125 
Q 3575 1850 3575 1375 
L 3525 125 
Q 3500 -275 3200 -400 
Q 2900 -525 2475 -600 
Q 2375 -275 2250 -25 
Q 2725 -25 2900 25 
Q 3075 75 3075 325 
L 3125 1675 
L 2100 1675 
Q 2025 875 1737 400 
Q 1450 -75 650 -675 
Q 475 -400 250 -225 
Q 900 125 1237 575 
Q 1575 1025 1600 1675 
L 1125 1675 
Q 825 1675 450 1650 
L 450 2150 
Q 800 2125 1125 2125 
L 1650 2125 
z
M 5800 5125 
Q 5775 4875 5775 4375 
L 5775 175 
Q 5775 -350 5525 -450 
Q 5275 -550 4700 -650 
Q 4625 -350 4475 -75 
Q 5000 -75 5150 -12 
Q 5300 50 5300 325 
L 5300 4375 
Q 5300 4825 5275 5125 
L 5800 5125 
z
M 4600 4400 
Q 4575 4100 4575 3700 
L 4575 1600 
Q 4575 1125 4600 725 
L 4075 725 
Q 4100 1125 4100 1600 
L 4100 3700 
Q 4100 4100 4075 4400 
L 4600 4400 
z
M 2775 3425 
L 2775 4500 
L 1300 4500 
L 1300 3425 
L 2775 3425 
z
" transform="scale(0.015625)"/>
        <path id="SimHei-5885" d="M 400 1800 
Q 750 1800 1700 1875 
L 1700 2325 
L 1325 2325 
Q 975 2325 625 2300 
L 625 2700 
Q 925 2675 1275 2675 
L 1700 2675 
L 1700 3075 
L 675 3075 
Q 700 3400 700 4050 
Q 700 4700 675 5025 
L 3200 5025 
Q 3175 4550 3175 4050 
Q 3175 3575 3200 3075 
L 2125 3075 
L 2125 2675 
L 2475 2675 
Q 2825 2675 3200 2700 
L 3200 2300 
Q 2825 2325 2475 2325 
L 2125 2325 
L 2125 1900 
Q 2900 1975 3325 2050 
Q 3300 1900 3325 1675 
Q 1500 1475 1162 1425 
Q 825 1375 550 1300 
L 400 1800 
z
M 2975 925 
Q 2975 1125 2950 1475 
L 3450 1475 
Q 3425 1125 3425 925 
L 4550 925 
Q 4950 925 5350 950 
L 5350 525 
Q 4950 550 4550 550 
L 3425 550 
L 3425 -50 
L 5175 -50 
Q 5625 -50 6000 -25 
L 6000 -475 
Q 5650 -425 5200 -425 
L 1250 -425 
Q 775 -425 400 -475 
L 400 -25 
Q 775 -50 1250 -50 
L 2975 -50 
L 2975 550 
L 1975 550 
Q 1500 550 1075 525 
L 1075 950 
Q 1500 925 1975 925 
L 2975 925 
z
M 6000 3575 
Q 5925 3175 5750 2600 
Q 5550 2650 5275 2675 
Q 5375 2975 5475 3225 
L 4950 3225 
L 4950 1875 
Q 4950 1450 4687 1362 
Q 4425 1275 4050 1250 
Q 4025 1475 3850 1800 
Q 4375 1800 4437 1837 
Q 4500 1875 4500 2000 
L 4500 3225 
L 4225 3225 
Q 3850 3225 3450 3175 
L 3450 3600 
Q 3850 3575 4425 3575 
Q 4125 4000 3850 4250 
Q 4025 4350 4175 4500 
L 4550 4125 
Q 5000 4500 5200 4675 
L 4250 4675 
Q 3875 4675 3525 4650 
L 3525 5050 
Q 3875 5025 4250 5025 
L 5900 5025 
L 5900 4650 
Q 5625 4500 5375 4287 
Q 5125 4075 4825 3825 
L 4975 3575 
L 6000 3575 
z
M 2750 3450 
L 2750 3875 
L 2125 3875 
L 2125 3450 
L 2750 3450 
z
M 2750 4250 
L 2750 4675 
L 2125 4675 
L 2125 4250 
L 2750 4250 
z
M 1700 3450 
L 1700 3875 
L 1125 3875 
L 1125 3450 
L 1700 3450 
z
M 1700 4250 
L 1700 4675 
L 1125 4675 
L 1125 4250 
L 1700 4250 
z
" transform="scale(0.015625)"/>
       </defs>
       <use xlink:href="#SimHei-522b"/>
       <use xlink:href="#SimHei-5885" x="100"/>
      </g>
     </g>
    </g>
    <g id="ytick_4">
     <g id="line2d_12">
      <g>
       <use xlink:href="#mb193d963a0" x="108" y="176.904" style="stroke: #000000; stroke-width: 0.8"/>
      </g>
     </g>
     <g id="text_12">
      <!-- 商住两用 -->
      <g transform="translate(53 181.732125) scale(0.12 -0.12)">
       <defs>
        <path id="SimHei-4f4f" d="M 4675 4100 
Q 5200 4100 5875 4125 
L 5875 3625 
Q 5225 3650 4675 3650 
L 4200 3650 
L 4200 2300 
L 4575 2300 
Q 4900 2300 5525 2325 
L 5525 1825 
Q 5025 1850 4575 1850 
L 4200 1850 
L 4200 75 
L 4750 75 
Q 5400 75 6075 100 
L 6075 -400 
Q 5400 -375 4750 -375 
L 3025 -375 
Q 2400 -375 2100 -400 
L 2100 100 
Q 2525 75 3050 75 
L 3675 75 
L 3675 1850 
L 3425 1850 
Q 2875 1850 2400 1825 
L 2400 2325 
Q 2875 2300 3425 2300 
L 3675 2300 
L 3675 3650 
L 3300 3650 
Q 2725 3650 2150 3625 
L 2150 4125 
Q 2725 4100 3300 4100 
L 4675 4100 
z
M 2225 5000 
Q 2050 4750 1675 3900 
L 1675 550 
Q 1675 -275 1700 -650 
L 1150 -650 
Q 1175 -275 1175 525 
L 1175 3100 
Q 725 2375 550 2175 
Q 375 2425 200 2650 
Q 750 3200 1137 4075 
Q 1525 4950 1550 5275 
Q 1800 5150 2225 5000 
z
M 3775 4250 
Q 3650 4500 3375 4975 
Q 3625 5100 3875 5250 
Q 3950 5125 4062 4925 
Q 4175 4725 4275 4500 
Q 4050 4375 3775 4250 
z
" transform="scale(0.015625)"/>
        <path id="SimHei-4e24" d="M 1700 825 
Q 1575 975 1325 1175 
Q 2025 1850 2250 3075 
L 1175 3075 
L 1175 -500 
L 675 -500 
Q 700 175 700 675 
L 700 2650 
Q 700 2975 675 3500 
L 2300 3500 
Q 2325 3925 2350 4475 
L 1125 4475 
Q 825 4475 525 4450 
L 525 4900 
Q 825 4875 1100 4875 
L 5250 4875 
Q 5500 4875 5975 4900 
L 5975 4450 
Q 5625 4475 5275 4475 
L 4300 4475 
Q 4300 4100 4250 3500 
L 5750 3500 
Q 5725 3050 5725 2725 
L 5725 250 
Q 5725 -175 5462 -300 
Q 5200 -425 4475 -500 
Q 4400 -150 4225 75 
Q 4975 50 5112 125 
Q 5250 200 5250 500 
L 5250 3075 
L 4200 3075 
Q 4150 2650 4050 2275 
Q 4750 1725 5125 1400 
Q 4900 1200 4750 1000 
Q 4500 1325 3950 1800 
Q 3625 1000 3250 475 
Q 3000 650 2775 725 
Q 3075 1050 3350 1637 
Q 3625 2225 3725 3075 
L 2725 3075 
Q 2650 2700 2575 2425 
Q 3075 2000 3275 1750 
Q 3100 1600 2900 1400 
Q 2625 1800 2425 2000 
Q 2150 1350 1700 825 
z
M 3775 3500 
Q 3800 4100 3800 4475 
L 2825 4475 
Q 2825 4100 2775 3500 
L 3775 3500 
z
" transform="scale(0.015625)"/>
        <path id="SimHei-7528" d="M 350 -300 
Q 650 125 812 600 
Q 975 1075 1012 1550 
Q 1050 2025 1050 3150 
Q 1050 4275 1025 4950 
L 5500 4950 
Q 5475 4225 5475 3650 
L 5475 375 
Q 5475 -150 5175 -275 
Q 4875 -400 4475 -450 
Q 4425 -75 4300 125 
Q 4800 100 4887 162 
Q 4975 225 4975 400 
L 4975 1650 
L 3450 1650 
L 3450 675 
Q 3450 125 3475 -325 
L 2925 -325 
Q 2950 100 2950 650 
L 2950 1650 
L 1525 1650 
Q 1425 575 850 -525 
Q 575 -350 350 -300 
z
M 4975 3475 
L 4975 4550 
L 3450 4550 
L 3450 3475 
L 4975 3475 
z
M 4975 2050 
L 4975 3100 
L 3450 3100 
L 3450 2050 
L 4975 2050 
z
M 2950 3475 
L 2950 4550 
L 1525 4550 
L 1525 3475 
L 2950 3475 
z
M 2950 2050 
L 2950 3100 
L 1525 3100 
L 1525 2050 
L 2950 2050 
z
" transform="scale(0.015625)"/>
       </defs>
       <use xlink:href="#SimHei-5546"/>
       <use xlink:href="#SimHei-4f4f" x="100"/>
       <use xlink:href="#SimHei-4e24" x="200"/>
       <use xlink:href="#SimHei-7528" x="300"/>
      </g>
     </g>
    </g>
    <g id="ytick_5">
     <g id="line2d_13">
      <g>
       <use xlink:href="#mb193d963a0" x="108" y="99.288" style="stroke: #000000; stroke-width: 0.8"/>
      </g>
     </g>
     <g id="text_13">
      <!-- 普通住宅 -->
      <g transform="translate(53 104.116125) scale(0.12 -0.12)">
       <defs>
        <path id="SimHei-666e" d="M 5200 1875 
Q 5175 1375 5175 625 
Q 5175 -100 5200 -650 
L 4700 -650 
L 4700 -350 
L 1700 -350 
L 1700 -650 
L 1200 -650 
Q 1225 -100 1225 550 
Q 1225 1225 1200 1875 
L 5200 1875 
z
M 325 2750 
Q 750 2725 2350 2725 
L 2350 4050 
Q 1300 4050 675 4025 
L 675 4450 
Q 1300 4425 2200 4425 
Q 2050 4750 1775 5025 
Q 1950 5150 2125 5300 
Q 2425 5000 2675 4675 
Q 2450 4525 2275 4425 
L 3750 4425 
Q 4050 4950 4125 5300 
L 4700 5050 
Q 4525 4875 4250 4425 
Q 5325 4425 5700 4450 
L 5700 4000 
Q 5325 4025 4000 4025 
L 4000 2725 
Q 5725 2725 6100 2750 
L 6100 2325 
Q 5750 2350 5225 2350 
L 1200 2350 
Q 775 2350 325 2325 
L 325 2750 
z
M 4700 50 
L 4700 550 
L 1700 550 
L 1700 50 
L 4700 50 
z
M 4700 975 
L 4700 1475 
L 1700 1475 
L 1700 975 
L 4700 975 
z
M 3575 2725 
L 3575 4025 
L 2775 4025 
L 2775 2725 
L 3575 2725 
z
M 5350 3675 
Q 5300 3625 5137 3362 
Q 4975 3100 4775 2750 
Q 4600 2875 4400 2975 
Q 4725 3500 4875 3950 
Q 5100 3775 5350 3675 
z
M 1575 2800 
Q 1350 3325 1075 3625 
Q 1275 3725 1450 3875 
Q 1700 3550 2000 3075 
Q 1750 2950 1575 2800 
z
" transform="scale(0.015625)"/>
        <path id="SimHei-901a" d="M 5675 5050 
Q 5325 4650 4937 4300 
Q 4550 3950 4250 3650 
L 5700 3650 
Q 5675 3100 5675 2575 
L 5675 850 
Q 5700 525 5500 425 
Q 5300 325 4900 250 
Q 4850 475 4650 775 
Q 5025 800 5150 850 
Q 5275 900 5250 1325 
L 4125 1325 
L 4125 300 
L 3675 300 
L 3675 1325 
L 2575 1325 
L 2575 300 
L 2125 300 
Q 2150 1125 2150 1950 
Q 2150 2775 2125 3650 
L 3600 3650 
Q 3475 3850 3050 4200 
Q 3225 4350 3375 4525 
Q 3825 4175 4000 4000 
Q 4400 4425 4625 4650 
L 3025 4650 
Q 2525 4650 2150 4625 
L 2150 5075 
Q 2525 5050 2975 5050 
L 5675 5050 
z
M 1425 3000 
Q 1400 2500 1400 2100 
L 1400 600 
Q 2025 -25 3700 -25 
Q 5375 -25 6150 125 
Q 6000 -175 5975 -500 
Q 3975 -525 3137 -450 
Q 2300 -375 1775 -112 
Q 1250 150 1075 -37 
Q 900 -225 650 -650 
Q 425 -400 200 -225 
Q 600 125 975 425 
L 975 2575 
Q 775 2575 350 2550 
L 350 3025 
Q 750 3000 1425 3000 
z
M 5250 1725 
L 5250 2325 
L 4125 2325 
L 4125 1725 
L 5250 1725 
z
M 3675 1725 
L 3675 2325 
L 2575 2325 
L 2575 1725 
L 3675 1725 
z
M 5250 2725 
L 5250 3275 
L 4125 3275 
L 4125 2725 
L 5250 2725 
z
M 3675 2725 
L 3675 3275 
L 2575 3275 
L 2575 2725 
L 3675 2725 
z
M 1025 5025 
Q 1450 4425 1700 4075 
Q 1425 3925 1250 3725 
Q 1075 4100 600 4725 
Q 800 4875 1025 5025 
z
" transform="scale(0.015625)"/>
        <path id="SimHei-5b85" d="M 450 1525 
Q 2075 1600 2725 1650 
L 2725 2550 
Q 1825 2425 1225 2375 
Q 1200 2550 1025 2875 
Q 1650 2875 2712 3025 
Q 3775 3175 4525 3475 
Q 4625 3175 4875 2950 
Q 4550 2900 4175 2837 
Q 3800 2775 3200 2650 
L 3200 1700 
Q 4850 1850 5650 1975 
L 5650 1475 
Q 5200 1425 4612 1375 
Q 4025 1325 3200 1250 
L 3200 350 
Q 3175 -100 3550 -100 
L 4675 -100 
Q 4900 -100 5050 -50 
Q 5200 0 5225 600 
Q 5525 425 5775 350 
Q 5650 -200 5462 -362 
Q 5275 -525 4950 -500 
L 3300 -500 
Q 2700 -525 2725 -25 
L 2725 1200 
Q 1325 1100 575 1050 
Q 525 1275 450 1525 
z
M 5675 4275 
Q 5650 3875 5650 3675 
Q 5650 3500 5675 3150 
L 5175 3150 
L 5175 3825 
L 1150 3825 
L 1150 3100 
L 600 3100 
Q 625 3475 625 3650 
Q 625 3850 600 4275 
L 5675 4275 
z
M 2600 5000 
Q 2775 5100 3050 5275 
Q 3350 4875 3525 4575 
Q 3150 4400 3025 4300 
Q 2950 4525 2600 5000 
z
" transform="scale(0.015625)"/>
       </defs>
       <use xlink:href="#SimHei-666e"/>
       <use xlink:href="#SimHei-901a" x="100"/>
       <use xlink:href="#SimHei-4f4f" x="200"/>
       <use xlink:href="#SimHei-5b85" x="300"/>
      </g>
     </g>
    </g>
   </g>
   <g id="patch_8">
    <path d="M 108 448.56 
L 108 60.48 
" style="fill: none; stroke: #000000; stroke-width: 0.8; stroke-linejoin: miter; stroke-linecap: square"/>
   </g>
   <g id="patch_9">
    <path d="M 777.6 448.56 
L 777.6 60.48 
" style="fill: none; stroke: #000000; stroke-width: 0.8; stroke-linejoin: miter; stroke-linecap: square"/>
   </g>
   <g id="patch_10">
    <path d="M 108 448.56 
L 777.6 448.56 
" style="fill: none; stroke: #000000; stroke-width: 0.8; stroke-linejoin: miter; stroke-linecap: square"/>
   </g>
   <g id="patch_11">
    <path d="M 108 60.48 
L 777.6 60.48 
" style="fill: none; stroke: #000000; stroke-width: 0.8; stroke-linejoin: miter; stroke-linecap: square"/>
   </g>
   <g id="text_14">
    <!-- 武汉二手房房屋用途水平柱状图 -->
    <g transform="translate(316.8 54.48) scale(0.18 -0.18)">
     <defs>
      <path id="SimHei-6b66" d="M 3700 3375 
Q 3675 3825 3662 4187 
Q 3650 4550 3625 5125 
L 4225 5125 
Q 4150 4725 4150 4275 
Q 4150 3825 4175 3375 
L 4925 3375 
Q 5400 3375 5875 3400 
L 5875 2950 
Q 5400 2975 4925 2975 
L 4175 2975 
Q 4250 1975 4500 1362 
Q 4750 750 5037 375 
Q 5325 0 5462 162 
Q 5600 325 5625 775 
Q 5850 525 6125 400 
Q 5900 -375 5700 -537 
Q 5500 -700 5137 -412 
Q 4775 -125 4525 237 
Q 4275 600 4125 962 
Q 3975 1325 3875 1787 
Q 3775 2250 3725 2975 
L 2550 2975 
L 2550 2025 
Q 3075 2025 3475 2050 
L 3475 1575 
Q 3025 1600 2550 1600 
L 2550 475 
Q 3300 600 3700 650 
Q 3675 475 3675 175 
Q 2825 75 1887 -100 
Q 950 -275 475 -425 
Q 450 -150 325 200 
Q 600 200 925 250 
L 925 1575 
Q 925 1975 900 2350 
L 1450 2350 
Q 1425 1975 1425 1600 
L 1425 300 
L 2075 400 
L 2075 2975 
L 1425 2975 
Q 900 2975 375 2950 
L 375 3400 
Q 900 3375 1425 3375 
L 3700 3375 
z
M 3125 4100 
Q 2575 4125 2000 4125 
Q 1450 4125 875 4100 
L 875 4575 
Q 1475 4550 2025 4550 
Q 2600 4550 3125 4575 
L 3125 4100 
z
M 4900 4700 
Q 5375 4300 5650 4025 
Q 5425 3850 5250 3675 
Q 5075 3900 4575 4350 
Q 4750 4475 4900 4700 
z
" transform="scale(0.015625)"/>
      <path id="SimHei-6c49" d="M 2650 4300 
Q 2400 4275 2175 4275 
L 2175 4750 
Q 2775 4725 3225 4725 
L 5625 4725 
Q 5400 3700 5087 2800 
Q 4775 1900 4325 1225 
Q 4675 825 5162 462 
Q 5650 100 6150 -150 
Q 5925 -275 5725 -600 
Q 5375 -375 4875 50 
Q 4375 475 4025 900 
Q 3625 450 3100 62 
Q 2575 -325 1975 -675 
Q 1900 -475 1625 -225 
Q 2075 -75 2662 300 
Q 3250 675 3750 1250 
Q 3350 1850 3100 2587 
Q 2850 3325 2650 4300 
z
M 3125 4300 
Q 3225 3600 3500 2812 
Q 3775 2025 4050 1650 
Q 4300 2025 4562 2712 
Q 4825 3400 5025 4300 
L 3325 4300 
L 3125 4300 
z
M 1925 1600 
Q 1325 475 875 -425 
Q 700 -250 400 -100 
Q 750 375 1050 937 
Q 1350 1500 1525 1950 
Q 1725 1725 1925 1600 
z
M 625 3600 
Q 1075 3350 1825 2850 
Q 1650 2650 1500 2400 
Q 950 2850 350 3175 
Q 525 3400 625 3600 
z
M 925 5125 
Q 1475 4750 2000 4350 
Q 1800 4125 1675 3925 
Q 1175 4400 625 4750 
Q 850 4975 925 5125 
z
" transform="scale(0.015625)"/>
      <path id="SimHei-4e8c" d="M 5050 625 
Q 5650 625 6025 675 
L 6025 50 
Q 5625 75 5050 75 
L 1425 75 
Q 775 75 350 50 
L 350 650 
Q 800 625 1400 625 
L 5050 625 
z
M 4350 4150 
Q 4900 4175 5350 4200 
L 5350 3575 
Q 4900 3600 4375 3600 
L 2050 3600 
Q 1450 3600 1000 3575 
L 1000 4175 
Q 1450 4150 2025 4150 
L 4350 4150 
z
" transform="scale(0.015625)"/>
      <path id="SimHei-624b" d="M 5525 4425 
Q 5175 4400 3550 4250 
L 3550 3250 
L 4675 3250 
Q 5100 3250 5525 3275 
L 5525 2800 
Q 5100 2800 4675 2825 
L 3550 2825 
L 3550 1900 
L 5325 1900 
Q 5700 1900 6100 1925 
L 6100 1450 
Q 5700 1475 5325 1475 
L 3550 1475 
L 3550 125 
Q 3575 -250 3312 -400 
Q 3050 -550 2425 -600 
Q 2400 -300 2175 -25 
Q 2650 -25 2850 37 
Q 3050 100 3025 350 
L 3025 1475 
L 1225 1475 
Q 775 1450 375 1450 
L 375 1925 
Q 800 1900 1225 1900 
L 3025 1900 
L 3025 2825 
L 1925 2825 
Q 1475 2825 1000 2800 
L 1000 3275 
Q 1450 3250 1925 3250 
L 3025 3250 
L 3025 4200 
Q 1725 4125 1050 4100 
Q 975 4375 825 4575 
Q 1725 4550 3162 4662 
Q 4600 4775 5200 5000 
Q 5350 4650 5525 4425 
z
" transform="scale(0.015625)"/>
      <path id="SimHei-623f" d="M 3175 2800 
Q 3500 2850 3700 2975 
Q 3925 2475 3975 2300 
L 5100 2300 
Q 5525 2300 6025 2325 
L 6025 1875 
Q 5525 1900 5100 1900 
L 3225 1900 
Q 3200 1550 3175 1325 
L 5525 1325 
Q 5475 950 5412 537 
Q 5350 125 5287 -112 
Q 5225 -350 5050 -437 
Q 4875 -525 4000 -600 
Q 3925 -275 3800 -50 
Q 4550 -100 4687 -25 
Q 4825 50 4875 250 
Q 4925 500 4975 900 
L 3100 900 
Q 2975 425 2612 0 
Q 2250 -425 1750 -725 
Q 1625 -500 1350 -325 
Q 1675 -200 1925 0 
Q 2175 200 2375 487 
Q 2575 775 2650 1137 
Q 2725 1500 2725 1900 
L 1500 1900 
Q 1475 1250 1262 562 
Q 1050 -125 750 -600 
Q 550 -375 275 -275 
Q 475 -50 687 387 
Q 900 825 975 1400 
Q 1050 1975 1050 2850 
Q 1050 3750 1025 4500 
L 3100 4500 
Q 3025 4750 2875 5100 
Q 3150 5175 3400 5275 
Q 3625 4700 3650 4500 
L 5575 4500 
Q 5550 4100 5550 3700 
Q 5550 3300 5575 3000 
L 1525 3000 
L 1525 2300 
L 3425 2300 
Q 3350 2600 3175 2800 
z
M 5100 3375 
L 5100 4100 
L 1525 4100 
L 1525 3375 
L 5100 3375 
z
" transform="scale(0.015625)"/>
      <path id="SimHei-5c4b" d="M 5525 4925 
Q 5500 4600 5500 4225 
Q 5500 3875 5525 3550 
L 1550 3550 
Q 1550 2700 1512 2137 
Q 1475 1575 1312 875 
Q 1150 175 725 -550 
Q 550 -400 275 -275 
Q 775 400 937 1250 
Q 1100 2100 1100 3075 
Q 1100 4050 1075 4925 
L 5525 4925 
z
M 5050 3100 
Q 5350 3100 5775 3125 
L 5775 2725 
Q 5350 2750 5050 2750 
L 3700 2750 
Q 3500 2550 2825 1950 
Q 3225 1950 3650 1962 
Q 4075 1975 4675 1975 
Q 4500 2150 4225 2375 
Q 4400 2525 4550 2675 
Q 5125 2175 5675 1625 
Q 5450 1500 5275 1325 
Q 5125 1525 4950 1650 
Q 4475 1650 3900 1625 
L 3900 1025 
L 4825 1025 
Q 5125 1025 5600 1050 
L 5600 625 
Q 5150 650 4825 650 
L 3900 650 
L 3900 0 
L 5275 0 
Q 5600 0 6050 25 
L 6050 -375 
Q 5600 -350 5275 -350 
L 2200 -350 
Q 1775 -350 1475 -375 
L 1475 25 
Q 1775 0 2175 0 
L 3450 0 
L 3450 650 
L 2675 650 
Q 2275 650 1875 625 
L 1875 1050 
Q 2275 1025 2650 1025 
L 3450 1025 
L 3450 1625 
Q 3150 1625 2850 1612 
Q 2550 1600 2150 1525 
Q 2125 1675 2000 1925 
Q 2250 1975 2500 2162 
Q 2750 2350 3150 2750 
L 2475 2750 
Q 2150 2750 1650 2725 
L 1650 3125 
Q 2125 3100 2450 3100 
L 5050 3100 
z
M 5075 3900 
L 5075 4550 
L 1550 4550 
L 1550 3900 
L 5075 3900 
z
" transform="scale(0.015625)"/>
      <path id="SimHei-9014" d="M 3950 4900 
Q 4375 4425 4925 4100 
Q 5475 3775 6100 3625 
Q 5850 3375 5750 3125 
Q 5400 3275 5000 3500 
L 5000 3100 
Q 4550 3125 4125 3125 
L 4125 2500 
Q 5300 2500 5725 2525 
L 5725 2075 
Q 5325 2100 4125 2100 
L 4125 800 
Q 4100 475 3887 375 
Q 3675 275 3250 200 
Q 3200 450 3050 775 
Q 3525 750 3600 812 
Q 3675 875 3675 1050 
L 3675 2100 
Q 2525 2100 2075 2075 
L 2075 2525 
Q 2525 2500 3675 2500 
L 3675 3125 
Q 3075 3125 2625 3100 
L 2625 3425 
Q 2425 3200 2150 3000 
Q 1925 3225 1675 3350 
Q 2300 3700 2800 4237 
Q 3300 4775 3525 5300 
L 4075 5050 
L 3950 4900 
z
M 1450 2975 
Q 1425 2500 1425 2100 
L 1425 550 
Q 2075 25 3712 12 
Q 5350 0 6200 125 
Q 5975 -175 5950 -450 
Q 4375 -475 3675 -450 
Q 2975 -425 2400 -300 
Q 1825 -175 1525 0 
Q 1225 175 1037 -25 
Q 850 -225 700 -550 
Q 475 -325 225 -225 
Q 550 100 950 475 
L 950 2575 
Q 625 2575 275 2550 
L 275 3000 
Q 725 2975 1450 2975 
z
M 2725 3550 
Q 3300 3525 3825 3525 
Q 4350 3525 4925 3550 
Q 4250 4000 3750 4650 
Q 2950 3750 2725 3550 
z
M 4875 1725 
Q 5525 1150 5900 775 
Q 5675 625 5525 400 
Q 5175 825 4500 1400 
Q 4725 1550 4875 1725 
z
M 1200 4925 
Q 1425 4325 1575 3825 
Q 1300 3750 1025 3650 
Q 975 4100 650 4775 
Q 900 4850 1200 4925 
z
M 3100 1550 
Q 2500 775 2250 425 
Q 2050 575 1825 650 
Q 2200 1000 2650 1775 
Q 2875 1650 3100 1550 
z
" transform="scale(0.015625)"/>
      <path id="SimHei-6c34" d="M 3450 5175 
Q 3450 4800 3437 4500 
Q 3425 4200 3487 3762 
Q 3550 3325 3950 2725 
Q 4975 3575 5175 4050 
Q 5450 3800 5675 3575 
Q 5350 3350 5037 3075 
Q 4725 2800 4175 2325 
Q 4375 1900 4900 1375 
Q 5425 850 6175 625 
Q 5750 425 5675 125 
Q 4725 700 4212 1400 
Q 3700 2100 3425 2800 
L 3425 25 
Q 3450 -325 3162 -475 
Q 2875 -625 2400 -675 
Q 2375 -400 2175 -75 
Q 2575 -150 2750 -100 
Q 2925 -50 2925 225 
L 2925 4175 
Q 2925 4800 2875 5175 
L 3450 5175 
z
M 2550 3575 
Q 2425 2900 2237 2362 
Q 2050 1825 1737 1300 
Q 1425 775 750 100 
Q 575 325 225 450 
Q 925 950 1337 1600 
Q 1750 2250 1950 3125 
L 1275 3125 
Q 900 3125 425 3075 
L 425 3600 
Q 875 3575 1250 3575 
L 2550 3575 
z
" transform="scale(0.015625)"/>
      <path id="SimHei-5e73" d="M 4525 4825 
Q 4900 4825 5450 4850 
L 5450 4375 
Q 4925 4400 4525 4400 
L 3475 4400 
L 3475 2025 
L 5000 2025 
Q 5550 2025 6025 2050 
L 6025 1575 
Q 5550 1600 5000 1600 
L 3475 1600 
L 3475 450 
Q 3475 -100 3500 -600 
L 2925 -600 
Q 2950 -100 2950 450 
L 2950 1600 
L 1125 1600 
Q 775 1600 375 1575 
L 375 2050 
Q 775 2025 1175 2025 
L 2950 2025 
L 2950 4400 
L 1775 4400 
Q 1400 4400 875 4375 
L 875 4850 
Q 1400 4825 1750 4825 
L 4525 4825 
z
M 3925 2600 
Q 4500 3300 4900 4125 
Q 5150 3950 5400 3825 
Q 4775 2850 4350 2300 
Q 4150 2475 3925 2600 
z
M 1975 2350 
Q 1600 3100 1050 3725 
Q 1250 3875 1450 4050 
Q 2075 3300 2450 2725 
Q 2150 2500 1975 2350 
z
" transform="scale(0.015625)"/>
      <path id="SimHei-67f1" d="M 5125 4050 
Q 5550 4050 5950 4075 
L 5950 3625 
Q 5575 3650 5125 3650 
L 4600 3650 
L 4600 2325 
L 5025 2325 
Q 5425 2325 5800 2350 
L 5800 1900 
Q 5425 1925 5025 1925 
L 4600 1925 
L 4600 175 
L 5200 175 
Q 5725 175 6100 200 
L 6100 -250 
Q 5725 -225 5200 -225 
L 3475 -225 
Q 2950 -225 2550 -250 
L 2550 200 
Q 2950 175 3500 175 
L 4125 175 
L 4125 1925 
L 3875 1925 
Q 3375 1925 3050 1900 
L 3050 2350 
Q 3375 2325 3875 2325 
L 4125 2325 
L 4125 3650 
L 3750 3650 
Q 3225 3650 2850 3625 
L 2850 4075 
Q 3225 4050 3750 4050 
L 5125 4050 
z
M 2200 2825 
Q 2375 2525 2775 1825 
Q 2525 1675 2300 1525 
Q 2175 1825 1825 2500 
L 1825 500 
Q 1825 -25 1850 -550 
L 1300 -550 
Q 1325 0 1325 500 
L 1325 2250 
Q 1050 1550 550 800 
Q 275 1275 200 1350 
Q 575 1775 737 2062 
Q 900 2350 1037 2687 
Q 1175 3025 1250 3425 
Q 825 3425 375 3400 
L 375 3850 
Q 825 3825 1325 3825 
L 1325 4425 
Q 1300 4800 1300 5125 
L 1850 5125 
Q 1825 4825 1825 4425 
L 1825 3825 
Q 2200 3825 2625 3850 
L 2625 3400 
Q 2200 3425 1825 3425 
L 1825 2575 
L 2200 2825 
z
M 4425 5175 
Q 4500 5000 4575 4812 
Q 4650 4625 4725 4400 
Q 4450 4325 4200 4250 
Q 4125 4450 4050 4662 
Q 3975 4875 3900 5025 
Q 4150 5125 4425 5175 
z
" transform="scale(0.015625)"/>
      <path id="SimHei-72b6" d="M 2225 -275 
Q 2675 25 2975 475 
Q 3275 925 3450 1350 
Q 3625 1775 3700 2175 
Q 3775 2575 3800 2875 
L 3225 2875 
Q 2850 2875 2500 2850 
L 2500 3325 
Q 2850 3300 3200 3300 
L 3825 3300 
Q 3825 3975 3812 4375 
Q 3800 4775 3775 5075 
L 4425 5075 
Q 4350 4750 4337 4412 
Q 4325 4075 4325 3300 
L 5350 3300 
Q 5625 3300 5975 3325 
L 5975 2850 
Q 5625 2875 5350 2875 
L 4375 2875 
Q 4675 1450 5012 962 
Q 5350 475 5625 262 
Q 5900 50 6125 -75 
Q 5775 -225 5625 -525 
Q 5225 -200 4987 112 
Q 4750 425 4587 725 
Q 4425 1025 4312 1337 
Q 4200 1650 4125 2000 
Q 4000 1400 3812 975 
Q 3625 550 3425 237 
Q 3225 -75 2750 -625 
Q 2525 -400 2225 -275 
z
M 2225 5200 
Q 2200 4825 2200 4250 
L 2200 775 
Q 2200 50 2225 -625 
L 1675 -625 
Q 1700 75 1700 775 
L 1700 1950 
Q 1525 1750 1200 1350 
Q 875 950 700 750 
Q 500 1000 275 1150 
Q 575 1375 912 1712 
Q 1250 2050 1700 2600 
L 1700 4250 
Q 1700 4825 1675 5200 
L 2225 5200 
z
M 625 4325 
Q 800 4125 1000 3875 
Q 1200 3625 1375 3375 
Q 1175 3225 1050 3075 
Q 850 3350 250 4050 
Q 400 4175 625 4325 
z
M 5475 3650 
Q 5250 3975 4700 4475 
Q 4900 4625 5025 4750 
Q 5250 4575 5425 4387 
Q 5600 4200 5825 3975 
Q 5625 3800 5475 3650 
z
" transform="scale(0.015625)"/>
      <path id="SimHei-56fe" d="M 5800 4975 
Q 5775 4350 5775 3600 
L 5775 925 
Q 5775 150 5800 -600 
L 5300 -600 
L 5300 -275 
L 1125 -275 
L 1125 -650 
L 625 -650 
Q 650 125 650 950 
L 650 3600 
Q 650 4325 625 4975 
L 5800 4975 
z
M 5300 150 
L 5300 4575 
L 1125 4575 
L 1125 150 
L 5300 150 
z
M 3225 4250 
Q 3075 4100 2950 3925 
L 4625 3925 
Q 4525 3700 4300 3375 
Q 4075 3050 3600 2600 
Q 4350 2225 5075 2150 
Q 4900 1925 4775 1675 
Q 3850 1950 3225 2350 
Q 2500 1875 1675 1650 
Q 1600 1875 1400 2075 
Q 2200 2200 2875 2600 
Q 2525 2925 2375 3150 
Q 2150 2900 1900 2650 
Q 1725 2850 1525 2950 
Q 1950 3300 2250 3737 
Q 2550 4175 2675 4475 
Q 2925 4350 3225 4250 
z
M 2450 1275 
Q 3550 950 4100 725 
Q 3975 525 3850 300 
Q 2825 725 2275 850 
Q 2375 1050 2450 1275 
z
M 2925 2050 
Q 3775 1700 4075 1600 
Q 3950 1400 3850 1150 
Q 3000 1550 2700 1650 
Q 2825 1825 2925 2050 
z
M 2625 3450 
Q 3000 3025 3275 2850 
Q 3600 3100 3875 3525 
L 2675 3525 
L 2625 3450 
z
" transform="scale(0.015625)"/>
     </defs>
     <use xlink:href="#SimHei-6b66"/>
     <use xlink:href="#SimHei-6c49" x="100"/>
     <use xlink:href="#SimHei-4e8c" x="200"/>
     <use xlink:href="#SimHei-624b" x="300"/>
     <use xlink:href="#SimHei-623f" x="400"/>
     <use xlink:href="#SimHei-623f" x="500"/>
     <use xlink:href="#SimHei-5c4b" x="600"/>
     <use xlink:href="#SimHei-7528" x="700"/>
     <use xlink:href="#SimHei-9014" x="800"/>
     <use xlink:href="#SimHei-6c34" x="900"/>
     <use xlink:href="#SimHei-5e73" x="1000"/>
     <use xlink:href="#SimHei-67f1" x="1100"/>
     <use xlink:href="#SimHei-72b6" x="1200"/>
     <use xlink:href="#SimHei-56fe" x="1300"/>
    </g>
   </g>
  </g>
 </g>
 <defs>
  <clipPath id="p1183eb32c9">
   <rect x="108" y="60.48" width="669.6" height="388.08"/>
  </clipPath>
 </defs>
</svg>
