<?xml version="1.0" encoding="utf-8" standalone="no"?>
<!DOCTYPE svg PUBLIC "-//W3C//DTD SVG 1.1//EN"
  "http://www.w3.org/Graphics/SVG/1.1/DTD/svg11.dtd">
<svg xmlns:xlink="http://www.w3.org/1999/xlink" width="864pt" height="648pt" viewBox="0 0 864 648" xmlns="http://www.w3.org/2000/svg" version="1.1">
 <metadata>
  <rdf:RDF xmlns:dc="http://purl.org/dc/elements/1.1/" xmlns:cc="http://creativecommons.org/ns#" xmlns:rdf="http://www.w3.org/1999/02/22-rdf-syntax-ns#">
   <cc:Work>
    <dc:type rdf:resource="http://purl.org/dc/dcmitype/StillImage"/>
    <dc:date>2023-05-03T22:49:59.041324</dc:date>
    <dc:format>image/svg+xml</dc:format>
    <dc:creator>
     <cc:Agent>
      <dc:title>Matplotlib v3.7.1, https://matplotlib.org/</dc:title>
     </cc:Agent>
    </dc:creator>
   </cc:Work>
  </rdf:RDF>
 </metadata>
 <defs>
  <style type="text/css">*{stroke-linejoin: round; stroke-linecap: butt}</style>
 </defs>
 <g id="figure_1">
  <g id="patch_1">
   <path d="M 0 648 
L 864 648 
L 864 0 
L 0 0 
z
" style="fill: #ffffff"/>
  </g>
  <g id="axes_1">
   <g id="patch_2">
    <path d="M 108 576.72 
L 777.6 576.72 
L 777.6 77.76 
L 108 77.76 
z
" style="fill: #ffffff"/>
   </g>
   <g id="patch_3">
    <path d="M 108 570.483 
L 595.685827 570.483 
L 595.685827 558.009 
L 108 558.009 
z
" clip-path="url(#pdc3780a2af)" style="fill: #1f77b4"/>
   </g>
   <g id="patch_4">
    <path d="M 108 545.535 
L 598.743641 545.535 
L 598.743641 533.061 
L 108 533.061 
z
" clip-path="url(#pdc3780a2af)" style="fill: #1f77b4"/>
   </g>
   <g id="patch_5">
    <path d="M 108 520.587 
L 598.965866 520.587 
L 598.965866 508.113 
L 108 508.113 
z
" clip-path="url(#pdc3780a2af)" style="fill: #1f77b4"/>
   </g>
   <g id="patch_6">
    <path d="M 108 495.639 
L 601.010335 495.639 
L 601.010335 483.165 
L 108 483.165 
z
" clip-path="url(#pdc3780a2af)" style="fill: #1f77b4"/>
   </g>
   <g id="patch_7">
    <path d="M 108 470.691 
L 602.272572 470.691 
L 602.272572 458.217 
L 108 458.217 
z
" clip-path="url(#pdc3780a2af)" style="fill: #1f77b4"/>
   </g>
   <g id="patch_8">
    <path d="M 108 445.743 
L 604.050371 445.743 
L 604.050371 433.269 
L 108 433.269 
z
" clip-path="url(#pdc3780a2af)" style="fill: #1f77b4"/>
   </g>
   <g id="patch_9">
    <path d="M 108 420.795 
L 613.063812 420.795 
L 613.063812 408.321 
L 108 408.321 
z
" clip-path="url(#pdc3780a2af)" style="fill: #1f77b4"/>
   </g>
   <g id="patch_10">
    <path d="M 108 395.847 
L 617.41942 395.847 
L 617.41942 383.373 
L 108 383.373 
z
" clip-path="url(#pdc3780a2af)" style="fill: #1f77b4"/>
   </g>
   <g id="patch_11">
    <path d="M 108 370.899 
L 618.03276 370.899 
L 618.03276 358.425 
L 108 358.425 
z
" clip-path="url(#pdc3780a2af)" style="fill: #1f77b4"/>
   </g>
   <g id="patch_12">
    <path d="M 108 345.951 
L 622.095031 345.951 
L 622.095031 333.477 
L 108 333.477 
z
" clip-path="url(#pdc3780a2af)" style="fill: #1f77b4"/>
   </g>
   <g id="patch_13">
    <path d="M 108 321.003 
L 624.112833 321.003 
L 624.112833 308.529 
L 108 308.529 
z
" clip-path="url(#pdc3780a2af)" style="fill: #1f77b4"/>
   </g>
   <g id="patch_14">
    <path d="M 108 296.055 
L 633.055162 296.055 
L 633.055162 283.581 
L 108 283.581 
z
" clip-path="url(#pdc3780a2af)" style="fill: #1f77b4"/>
   </g>
   <g id="patch_15">
    <path d="M 108 271.107 
L 636.770762 271.107 
L 636.770762 258.633 
L 108 258.633 
z
" clip-path="url(#pdc3780a2af)" style="fill: #1f77b4"/>
   </g>
   <g id="patch_16">
    <path d="M 108 246.159 
L 688.513602 246.159 
L 688.513602 233.685 
L 108 233.685 
z
" clip-path="url(#pdc3780a2af)" style="fill: #1f77b4"/>
   </g>
   <g id="patch_17">
    <path d="M 108 221.211 
L 705.69603 221.211 
L 705.69603 208.737 
L 108 208.737 
z
" clip-path="url(#pdc3780a2af)" style="fill: #1f77b4"/>
   </g>
   <g id="patch_18">
    <path d="M 108 196.263 
L 706.887155 196.263 
L 706.887155 183.789 
L 108 183.789 
z
" clip-path="url(#pdc3780a2af)" style="fill: #1f77b4"/>
   </g>
   <g id="patch_19">
    <path d="M 108 171.315 
L 707.358272 171.315 
L 707.358272 158.841 
L 108 158.841 
z
" clip-path="url(#pdc3780a2af)" style="fill: #1f77b4"/>
   </g>
   <g id="patch_20">
    <path d="M 108 146.367 
L 711.393876 146.367 
L 711.393876 133.893 
L 108 133.893 
z
" clip-path="url(#pdc3780a2af)" style="fill: #1f77b4"/>
   </g>
   <g id="patch_21">
    <path d="M 108 121.419 
L 719.705086 121.419 
L 719.705086 108.945 
L 108 108.945 
z
" clip-path="url(#pdc3780a2af)" style="fill: #1f77b4"/>
   </g>
   <g id="patch_22">
    <path d="M 108 96.471 
L 745.714286 96.471 
L 745.714286 83.997 
L 108 83.997 
z
" clip-path="url(#pdc3780a2af)" style="fill: #1f77b4"/>
   </g>
   <g id="matplotlib.axis_1">
    <g id="xtick_1">
     <g id="line2d_1">
      <defs>
       <path id="mf6562c7e19" d="M 0 0 
L 0 3.5 
" style="stroke: #000000; stroke-width: 0.8"/>
      </defs>
      <g>
       <use xlink:href="#mf6562c7e19" x="108" y="576.72" style="stroke: #000000; stroke-width: 0.8"/>
      </g>
     </g>
     <g id="text_1">
      <!-- 0 -->
      <g transform="translate(105.5 590.595) scale(0.1 -0.1)">
       <defs>
        <path id="SimHei-30" d="M 225 2537 
Q 250 3200 412 3587 
Q 575 3975 875 4225 
Q 1175 4475 1612 4475 
Q 2050 4475 2375 4112 
Q 2700 3750 2800 3200 
Q 2900 2650 2862 1937 
Q 2825 1225 2612 775 
Q 2400 325 1975 150 
Q 1550 -25 1125 187 
Q 700 400 525 750 
Q 350 1100 275 1487 
Q 200 1875 225 2537 
z
M 750 2687 
Q 675 2000 800 1462 
Q 925 925 1212 700 
Q 1500 475 1800 612 
Q 2100 750 2237 1162 
Q 2375 1575 2375 2062 
Q 2375 2550 2337 2950 
Q 2300 3350 2112 3675 
Q 1925 4000 1612 4012 
Q 1300 4025 1062 3700 
Q 825 3375 750 2687 
z
" transform="scale(0.015625)"/>
       </defs>
       <use xlink:href="#SimHei-30"/>
      </g>
     </g>
    </g>
    <g id="xtick_2">
     <g id="line2d_2">
      <g>
       <use xlink:href="#mf6562c7e19" x="196.889951" y="576.72" style="stroke: #000000; stroke-width: 0.8"/>
      </g>
     </g>
     <g id="text_2">
      <!-- 10000 -->
      <g transform="translate(184.389951 590.595) scale(0.1 -0.1)">
       <defs>
        <path id="SimHei-31" d="M 1400 3600 
Q 1075 3275 575 2975 
L 575 3450 
Q 1200 3875 1600 4450 
L 1900 4450 
L 1900 150 
L 1400 150 
L 1400 3600 
z
" transform="scale(0.015625)"/>
       </defs>
       <use xlink:href="#SimHei-31"/>
       <use xlink:href="#SimHei-30" x="50"/>
       <use xlink:href="#SimHei-30" x="100"/>
       <use xlink:href="#SimHei-30" x="150"/>
       <use xlink:href="#SimHei-30" x="200"/>
      </g>
     </g>
    </g>
    <g id="xtick_3">
     <g id="line2d_3">
      <g>
       <use xlink:href="#mf6562c7e19" x="285.779902" y="576.72" style="stroke: #000000; stroke-width: 0.8"/>
      </g>
     </g>
     <g id="text_3">
      <!-- 20000 -->
      <g transform="translate(273.279902 590.595) scale(0.1 -0.1)">
       <defs>
        <path id="SimHei-32" d="M 300 250 
Q 325 625 650 925 
Q 975 1225 1475 1862 
Q 1975 2500 2125 2850 
Q 2275 3200 2237 3450 
Q 2200 3700 2000 3862 
Q 1800 4025 1537 4000 
Q 1275 3975 1037 3800 
Q 800 3625 675 3275 
L 200 3350 
Q 400 3925 712 4187 
Q 1025 4450 1450 4475 
Q 1700 4500 1900 4462 
Q 2100 4425 2312 4287 
Q 2525 4150 2662 3875 
Q 2800 3600 2762 3212 
Q 2725 2825 2375 2287 
Q 2025 1750 1025 600 
L 2825 600 
L 2825 150 
L 300 150 
L 300 250 
z
" transform="scale(0.015625)"/>
       </defs>
       <use xlink:href="#SimHei-32"/>
       <use xlink:href="#SimHei-30" x="50"/>
       <use xlink:href="#SimHei-30" x="100"/>
       <use xlink:href="#SimHei-30" x="150"/>
       <use xlink:href="#SimHei-30" x="200"/>
      </g>
     </g>
    </g>
    <g id="xtick_4">
     <g id="line2d_4">
      <g>
       <use xlink:href="#mf6562c7e19" x="374.669853" y="576.72" style="stroke: #000000; stroke-width: 0.8"/>
      </g>
     </g>
     <g id="text_4">
      <!-- 30000 -->
      <g transform="translate(362.169853 590.595) scale(0.1 -0.1)">
       <defs>
        <path id="SimHei-33" d="M 250 1225 
L 700 1300 
Q 800 975 1025 762 
Q 1250 550 1587 562 
Q 1925 575 2125 837 
Q 2325 1100 2300 1437 
Q 2275 1775 2037 1962 
Q 1800 2150 1275 2225 
L 1275 2550 
Q 1800 2600 2037 2825 
Q 2275 3050 2250 3412 
Q 2225 3775 1925 3937 
Q 1625 4100 1287 3975 
Q 950 3850 750 3275 
L 300 3350 
Q 450 3800 712 4100 
Q 975 4400 1425 4450 
Q 1875 4500 2212 4337 
Q 2550 4175 2687 3837 
Q 2825 3500 2725 3100 
Q 2625 2700 2150 2400 
Q 2500 2250 2687 1950 
Q 2875 1650 2812 1162 
Q 2750 675 2375 375 
Q 2000 75 1525 87 
Q 1050 100 700 387 
Q 350 675 250 1225 
z
" transform="scale(0.015625)"/>
       </defs>
       <use xlink:href="#SimHei-33"/>
       <use xlink:href="#SimHei-30" x="50"/>
       <use xlink:href="#SimHei-30" x="100"/>
       <use xlink:href="#SimHei-30" x="150"/>
       <use xlink:href="#SimHei-30" x="200"/>
      </g>
     </g>
    </g>
    <g id="xtick_5">
     <g id="line2d_5">
      <g>
       <use xlink:href="#mf6562c7e19" x="463.559804" y="576.72" style="stroke: #000000; stroke-width: 0.8"/>
      </g>
     </g>
     <g id="text_5">
      <!-- 40000 -->
      <g transform="translate(451.059804 590.595) scale(0.1 -0.1)">
       <defs>
        <path id="SimHei-34" d="M 2000 1100 
L 75 1100 
L 75 1525 
L 2100 4450 
L 2475 4450 
L 2475 1525 
L 3075 1525 
L 3075 1100 
L 2475 1100 
L 2475 150 
L 2000 150 
L 2000 1100 
z
M 2000 1525 
L 2000 3500 
L 600 1525 
L 2000 1525 
z
" transform="scale(0.015625)"/>
       </defs>
       <use xlink:href="#SimHei-34"/>
       <use xlink:href="#SimHei-30" x="50"/>
       <use xlink:href="#SimHei-30" x="100"/>
       <use xlink:href="#SimHei-30" x="150"/>
       <use xlink:href="#SimHei-30" x="200"/>
      </g>
     </g>
    </g>
    <g id="xtick_6">
     <g id="line2d_6">
      <g>
       <use xlink:href="#mf6562c7e19" x="552.449754" y="576.72" style="stroke: #000000; stroke-width: 0.8"/>
      </g>
     </g>
     <g id="text_6">
      <!-- 50000 -->
      <g transform="translate(539.949754 590.595) scale(0.1 -0.1)">
       <defs>
        <path id="SimHei-35" d="M 550 1325 
Q 725 650 1150 575 
Q 1575 500 1837 662 
Q 2100 825 2212 1087 
Q 2325 1350 2312 1675 
Q 2300 2000 2137 2225 
Q 1975 2450 1725 2525 
Q 1475 2600 1162 2525 
Q 850 2450 650 2175 
L 225 2225 
Q 275 2375 700 4375 
L 2675 4375 
L 2675 3925 
L 1075 3925 
Q 950 3250 825 2850 
Q 1200 3025 1525 3012 
Q 1850 3000 2150 2862 
Q 2450 2725 2587 2487 
Q 2725 2250 2787 2012 
Q 2850 1775 2837 1500 
Q 2825 1225 2725 937 
Q 2625 650 2425 462 
Q 2225 275 1937 162 
Q 1650 50 1275 75 
Q 900 100 562 350 
Q 225 600 100 1200 
L 550 1325 
z
" transform="scale(0.015625)"/>
       </defs>
       <use xlink:href="#SimHei-35"/>
       <use xlink:href="#SimHei-30" x="50"/>
       <use xlink:href="#SimHei-30" x="100"/>
       <use xlink:href="#SimHei-30" x="150"/>
       <use xlink:href="#SimHei-30" x="200"/>
      </g>
     </g>
    </g>
    <g id="xtick_7">
     <g id="line2d_7">
      <g>
       <use xlink:href="#mf6562c7e19" x="641.339705" y="576.72" style="stroke: #000000; stroke-width: 0.8"/>
      </g>
     </g>
     <g id="text_7">
      <!-- 60000 -->
      <g transform="translate(628.839705 590.595) scale(0.1 -0.1)">
       <defs>
        <path id="SimHei-36" d="M 250 1612 
Q 275 1975 387 2225 
Q 500 2475 725 2850 
L 1750 4450 
L 2325 4450 
L 1275 2800 
Q 1950 2975 2350 2750 
Q 2750 2525 2887 2237 
Q 3025 1950 3037 1612 
Q 3050 1275 2937 950 
Q 2825 625 2537 362 
Q 2250 100 1737 75 
Q 1225 50 862 262 
Q 500 475 362 862 
Q 225 1250 250 1612 
z
M 1025 787 
Q 1250 550 1625 525 
Q 2000 500 2250 775 
Q 2500 1050 2500 1575 
Q 2500 2100 2187 2300 
Q 1875 2500 1487 2450 
Q 1100 2400 925 2075 
Q 750 1750 775 1387 
Q 800 1025 1025 787 
z
" transform="scale(0.015625)"/>
       </defs>
       <use xlink:href="#SimHei-36"/>
       <use xlink:href="#SimHei-30" x="50"/>
       <use xlink:href="#SimHei-30" x="100"/>
       <use xlink:href="#SimHei-30" x="150"/>
       <use xlink:href="#SimHei-30" x="200"/>
      </g>
     </g>
    </g>
    <g id="xtick_8">
     <g id="line2d_8">
      <g>
       <use xlink:href="#mf6562c7e19" x="730.229656" y="576.72" style="stroke: #000000; stroke-width: 0.8"/>
      </g>
     </g>
     <g id="text_8">
      <!-- 70000 -->
      <g transform="translate(717.729656 590.595) scale(0.1 -0.1)">
       <defs>
        <path id="SimHei-37" d="M 850 150 
Q 1300 2050 2425 3925 
L 275 3925 
L 275 4375 
L 2950 4375 
L 2950 3950 
Q 1775 2050 1400 150 
L 850 150 
z
" transform="scale(0.015625)"/>
       </defs>
       <use xlink:href="#SimHei-37"/>
       <use xlink:href="#SimHei-30" x="50"/>
       <use xlink:href="#SimHei-30" x="100"/>
       <use xlink:href="#SimHei-30" x="150"/>
       <use xlink:href="#SimHei-30" x="200"/>
      </g>
     </g>
    </g>
   </g>
   <g id="matplotlib.axis_2">
    <g id="ytick_1">
     <g id="line2d_9">
      <defs>
       <path id="mdab043e431" d="M 0 0 
L -3.5 0 
" style="stroke: #000000; stroke-width: 0.8"/>
      </defs>
      <g>
       <use xlink:href="#mdab043e431" x="108" y="564.246" style="stroke: #000000; stroke-width: 0.8"/>
      </g>
     </g>
     <g id="text_9">
      <!-- 武汉天地一期A7 -->
      <g transform="translate(31 568.249906) scale(0.1 -0.1)">
       <defs>
        <path id="SimHei-6b66" d="M 3700 3375 
Q 3675 3825 3662 4187 
Q 3650 4550 3625 5125 
L 4225 5125 
Q 4150 4725 4150 4275 
Q 4150 3825 4175 3375 
L 4925 3375 
Q 5400 3375 5875 3400 
L 5875 2950 
Q 5400 2975 4925 2975 
L 4175 2975 
Q 4250 1975 4500 1362 
Q 4750 750 5037 375 
Q 5325 0 5462 162 
Q 5600 325 5625 775 
Q 5850 525 6125 400 
Q 5900 -375 5700 -537 
Q 5500 -700 5137 -412 
Q 4775 -125 4525 237 
Q 4275 600 4125 962 
Q 3975 1325 3875 1787 
Q 3775 2250 3725 2975 
L 2550 2975 
L 2550 2025 
Q 3075 2025 3475 2050 
L 3475 1575 
Q 3025 1600 2550 1600 
L 2550 475 
Q 3300 600 3700 650 
Q 3675 475 3675 175 
Q 2825 75 1887 -100 
Q 950 -275 475 -425 
Q 450 -150 325 200 
Q 600 200 925 250 
L 925 1575 
Q 925 1975 900 2350 
L 1450 2350 
Q 1425 1975 1425 1600 
L 1425 300 
L 2075 400 
L 2075 2975 
L 1425 2975 
Q 900 2975 375 2950 
L 375 3400 
Q 900 3375 1425 3375 
L 3700 3375 
z
M 3125 4100 
Q 2575 4125 2000 4125 
Q 1450 4125 875 4100 
L 875 4575 
Q 1475 4550 2025 4550 
Q 2600 4550 3125 4575 
L 3125 4100 
z
M 4900 4700 
Q 5375 4300 5650 4025 
Q 5425 3850 5250 3675 
Q 5075 3900 4575 4350 
Q 4750 4475 4900 4700 
z
" transform="scale(0.015625)"/>
        <path id="SimHei-6c49" d="M 2650 4300 
Q 2400 4275 2175 4275 
L 2175 4750 
Q 2775 4725 3225 4725 
L 5625 4725 
Q 5400 3700 5087 2800 
Q 4775 1900 4325 1225 
Q 4675 825 5162 462 
Q 5650 100 6150 -150 
Q 5925 -275 5725 -600 
Q 5375 -375 4875 50 
Q 4375 475 4025 900 
Q 3625 450 3100 62 
Q 2575 -325 1975 -675 
Q 1900 -475 1625 -225 
Q 2075 -75 2662 300 
Q 3250 675 3750 1250 
Q 3350 1850 3100 2587 
Q 2850 3325 2650 4300 
z
M 3125 4300 
Q 3225 3600 3500 2812 
Q 3775 2025 4050 1650 
Q 4300 2025 4562 2712 
Q 4825 3400 5025 4300 
L 3325 4300 
L 3125 4300 
z
M 1925 1600 
Q 1325 475 875 -425 
Q 700 -250 400 -100 
Q 750 375 1050 937 
Q 1350 1500 1525 1950 
Q 1725 1725 1925 1600 
z
M 625 3600 
Q 1075 3350 1825 2850 
Q 1650 2650 1500 2400 
Q 950 2850 350 3175 
Q 525 3400 625 3600 
z
M 925 5125 
Q 1475 4750 2000 4350 
Q 1800 4125 1675 3925 
Q 1175 4400 625 4750 
Q 850 4975 925 5125 
z
" transform="scale(0.015625)"/>
        <path id="SimHei-5929" d="M 4475 4900 
Q 4925 4900 5375 4925 
L 5375 4400 
Q 4925 4425 4475 4425 
L 3450 4425 
L 3450 3075 
L 5050 3075 
Q 5525 3075 5900 3100 
L 5900 2575 
Q 5550 2600 5075 2600 
L 3525 2600 
Q 3875 1650 4525 975 
Q 5175 300 6200 50 
Q 5850 -225 5775 -450 
Q 5000 -175 4350 412 
Q 3700 1000 3225 2100 
Q 2925 1075 2275 462 
Q 1625 -150 650 -575 
Q 550 -325 225 -100 
Q 950 100 1750 737 
Q 2550 1375 2875 2600 
L 1500 2600 
Q 950 2600 575 2575 
L 575 3100 
Q 975 3075 1500 3075 
L 2950 3075 
L 2950 4425 
L 1900 4425 
Q 1375 4425 1000 4400 
L 1000 4925 
Q 1400 4900 1900 4900 
L 4475 4900 
z
" transform="scale(0.015625)"/>
        <path id="SimHei-5730" d="M 2300 2275 
Q 2175 2575 2075 2750 
Q 2350 2800 2750 2950 
L 2750 3525 
Q 2750 3975 2725 4550 
L 3225 4550 
Q 3200 4025 3200 3550 
L 3200 3100 
L 3950 3375 
L 3950 4375 
Q 3950 4800 3925 5225 
L 4450 5225 
Q 4425 4925 4425 4350 
L 4425 3525 
Q 4800 3625 5725 3950 
Q 5700 3650 5700 3075 
L 5700 2100 
Q 5725 1450 5462 1275 
Q 5200 1100 4800 1000 
Q 4725 1250 4575 1525 
Q 5025 1575 5137 1662 
Q 5250 1750 5225 2225 
L 5225 3300 
Q 4800 3175 4425 3050 
L 4425 1375 
Q 4425 925 4450 625 
L 3925 625 
Q 3950 1075 3950 1375 
L 3950 2900 
L 3200 2625 
L 3200 550 
Q 3200 50 3550 50 
L 5150 50 
Q 5400 50 5475 212 
Q 5550 375 5625 775 
Q 5875 600 6175 550 
Q 6025 0 5850 -187 
Q 5675 -375 5300 -375 
L 3325 -375 
Q 2775 -375 2750 300 
L 2750 2475 
Q 2450 2375 2300 2275 
z
M 1625 925 
Q 1975 1025 2425 1225 
Q 2400 950 2400 725 
Q 1975 575 1437 400 
Q 900 225 525 25 
Q 450 275 275 550 
Q 650 650 1125 800 
L 1125 3000 
Q 650 3000 350 2975 
L 350 3450 
Q 650 3425 1125 3425 
L 1125 4225 
Q 1125 4650 1100 5075 
L 1650 5075 
Q 1625 4750 1625 4225 
L 1625 3425 
Q 2075 3425 2350 3450 
L 2350 2975 
Q 2075 3000 1625 3000 
L 1625 925 
z
" transform="scale(0.015625)"/>
        <path id="SimHei-4e00" d="M 4875 2675 
Q 5525 2675 6050 2700 
L 6050 2050 
Q 5525 2075 4900 2075 
L 1600 2075 
Q 950 2075 350 2050 
L 350 2700 
Q 950 2675 1600 2675 
L 4875 2675 
z
" transform="scale(0.015625)"/>
        <path id="SimHei-671f" d="M 4900 -25 
Q 5475 -100 5425 175 
L 5425 1575 
L 4325 1575 
Q 4275 975 4050 425 
Q 3825 -125 3400 -600 
Q 3225 -375 2925 -275 
Q 3350 150 3562 625 
Q 3775 1100 3812 1575 
Q 3850 2050 3850 3125 
Q 3850 4225 3825 4875 
L 5950 4875 
Q 5925 4400 5925 3725 
L 5925 50 
Q 5925 -300 5700 -425 
Q 5475 -550 5100 -600 
Q 5100 -325 4900 -25 
z
M 950 4300 
Q 950 4675 925 5125 
L 1450 5125 
Q 1425 4625 1425 4300 
L 2550 4300 
Q 2550 4775 2525 5125 
L 3075 5125 
Q 3050 4700 3050 4300 
Q 3225 4300 3500 4325 
L 3500 3900 
Q 3250 3925 3050 3925 
L 3050 1550 
Q 3250 1550 3500 1575 
L 3500 1150 
Q 3025 1175 2575 1175 
L 1225 1175 
Q 675 1175 275 1150 
L 275 1575 
Q 650 1550 950 1550 
L 950 3925 
Q 725 3925 425 3900 
L 425 4325 
Q 700 4300 950 4300 
z
M 5425 3375 
L 5425 4500 
L 4350 4500 
L 4350 3375 
L 5425 3375 
z
M 5425 1950 
L 5425 3000 
L 4350 3000 
L 4350 1950 
L 5425 1950 
z
M 1600 725 
Q 1425 650 1162 287 
Q 900 -75 650 -350 
Q 400 -175 225 -75 
Q 450 100 700 412 
Q 950 725 1100 1025 
L 1600 725 
z
M 2550 3375 
L 2550 3925 
L 1425 3925 
L 1425 3375 
L 2550 3375 
z
M 2550 1550 
L 2550 2100 
L 1425 2100 
L 1425 1550 
L 2550 1550 
z
M 2550 2475 
L 2550 3000 
L 1425 3000 
L 1425 2475 
L 2550 2475 
z
M 2850 -75 
Q 2450 525 2225 725 
Q 2375 825 2550 1025 
Q 2850 725 3250 275 
Q 3050 125 2850 -75 
z
" transform="scale(0.015625)"/>
        <path id="SimHei-41" d="M 3075 125 
L 2475 125 
L 2125 1450 
L 1025 1450 
L 675 125 
L 75 125 
L 1325 4450 
L 1825 4450 
L 3075 125 
z
M 2000 1925 
L 1600 3450 
L 1550 3450 
L 1150 1925 
L 2000 1925 
z
" transform="scale(0.015625)"/>
       </defs>
       <use xlink:href="#SimHei-6b66"/>
       <use xlink:href="#SimHei-6c49" x="100"/>
       <use xlink:href="#SimHei-5929" x="200"/>
       <use xlink:href="#SimHei-5730" x="300"/>
       <use xlink:href="#SimHei-4e00" x="400"/>
       <use xlink:href="#SimHei-671f" x="500"/>
       <use xlink:href="#SimHei-41" x="600"/>
       <use xlink:href="#SimHei-37" x="650"/>
      </g>
     </g>
    </g>
    <g id="ytick_2">
     <g id="line2d_10">
      <g>
       <use xlink:href="#mdab043e431" x="108" y="539.298" style="stroke: #000000; stroke-width: 0.8"/>
      </g>
     </g>
     <g id="text_10">
      <!-- 华发外滩首府 -->
      <g transform="translate(41 543.340969) scale(0.1 -0.1)">
       <defs>
        <path id="SimHei-534e" d="M 3950 5175 
Q 3900 4875 3900 4450 
L 3900 3850 
Q 4275 4025 4612 4225 
Q 4950 4425 5350 4800 
Q 5500 4600 5775 4325 
Q 5450 4200 4900 3900 
Q 4350 3600 3900 3375 
L 3900 2725 
Q 3900 2400 4250 2400 
L 5125 2400 
Q 5450 2400 5500 2550 
Q 5550 2700 5600 3050 
Q 5900 2875 6175 2800 
Q 6050 2325 5900 2150 
Q 5750 1975 5475 1975 
L 3950 1975 
Q 3425 1975 3400 2500 
L 3400 3175 
Q 2875 2925 2600 2825 
Q 2525 3050 2325 3250 
Q 2800 3350 3400 3625 
L 3400 4400 
Q 3400 4875 3375 5175 
L 3950 5175 
z
M 2875 1225 
Q 2875 1650 2850 1925 
L 3375 1925 
Q 3350 1700 3350 1225 
L 5150 1225 
Q 5525 1225 6025 1250 
L 6025 750 
Q 5550 775 5175 775 
L 3350 775 
Q 3350 -250 3375 -575 
L 2850 -575 
Q 2875 -225 2875 775 
L 1050 775 
Q 725 775 325 750 
L 325 1250 
Q 725 1225 1075 1225 
L 2875 1225 
z
M 2425 4925 
Q 2250 4775 2150 4600 
Q 2050 4425 1900 4225 
L 1900 2600 
Q 1900 2200 1925 1750 
L 1375 1750 
Q 1400 2225 1400 2600 
L 1400 3675 
Q 1300 3500 1100 3287 
Q 900 3075 700 2850 
Q 475 3075 275 3225 
Q 625 3475 912 3800 
Q 1200 4125 1375 4362 
Q 1550 4600 1662 4837 
Q 1775 5075 1825 5225 
Q 2075 5075 2425 4925 
z
" transform="scale(0.015625)"/>
        <path id="SimHei-53d1" d="M 3475 4925 
Q 3350 4650 3275 4362 
Q 3200 4075 3075 3575 
L 5075 3575 
Q 5325 3575 5825 3600 
L 5825 3125 
Q 5325 3150 5075 3150 
L 2975 3150 
Q 2825 2775 2650 2400 
L 5300 2400 
Q 4825 1250 3975 475 
Q 4650 0 5950 -150 
Q 5775 -350 5650 -650 
Q 5150 -550 4625 -362 
Q 4100 -175 3600 175 
Q 3200 -75 2625 -312 
Q 2050 -550 1450 -700 
Q 1400 -450 1200 -225 
Q 1750 -150 2300 37 
Q 2850 225 3275 500 
Q 2850 925 2325 1725 
Q 2050 1275 1625 850 
Q 1200 425 700 75 
Q 600 250 300 450 
Q 675 650 1037 975 
Q 1400 1300 1800 1837 
Q 2200 2375 2475 3150 
Q 1825 3150 1475 3125 
Q 1125 3100 950 3025 
Q 875 3250 750 3500 
Q 1000 3550 1112 3875 
Q 1225 4200 1350 4875 
Q 1550 4775 1900 4675 
Q 1775 4425 1675 4162 
Q 1575 3900 1450 3575 
L 2600 3575 
Q 2800 4375 2900 5100 
Q 3175 4950 3475 4925 
z
M 2675 2000 
Q 3025 1375 3650 750 
Q 4200 1200 4625 2000 
L 2675 2000 
z
M 4400 5075 
Q 4825 4600 5250 4100 
Q 5075 4000 4825 3775 
Q 4425 4350 4050 4750 
Q 4225 4875 4400 5075 
z
" transform="scale(0.015625)"/>
        <path id="SimHei-5916" d="M 2150 4875 
Q 2000 4650 1912 4425 
Q 1825 4200 1725 3975 
L 3275 3975 
Q 3150 3075 2937 2450 
Q 2725 1825 2412 1350 
Q 2100 875 1675 437 
Q 1250 0 650 -375 
Q 475 -100 200 0 
Q 775 250 1275 712 
Q 1775 1175 2000 1600 
Q 1675 1950 1150 2325 
Q 1325 2475 1475 2675 
Q 1975 2275 2250 2050 
Q 2425 2400 2525 2775 
Q 2625 3150 2700 3550 
L 1575 3550 
Q 1425 3225 1187 2825 
Q 950 2425 575 2025 
Q 450 2200 200 2375 
Q 625 2775 862 3187 
Q 1100 3600 1250 4025 
Q 1400 4450 1550 5075 
Q 1825 4950 2150 4875 
z
M 4225 5125 
Q 4200 4725 4200 4325 
L 4200 475 
Q 4200 0 4225 -500 
L 3675 -500 
Q 3700 0 3700 475 
L 3700 4325 
Q 3700 4725 3675 5125 
L 4225 5125 
z
M 4675 3450 
Q 4900 3200 5337 2687 
Q 5775 2175 6075 1725 
Q 5825 1575 5650 1400 
Q 5425 1800 5025 2300 
Q 4625 2800 4300 3150 
Q 4450 3300 4675 3450 
z
" transform="scale(0.015625)"/>
        <path id="SimHei-6ee9" d="M 4475 5000 
Q 4325 4825 4250 4625 
Q 4175 4425 4100 4200 
L 5325 4200 
Q 5700 4200 6075 4225 
L 6075 3750 
Q 5750 3775 5275 3775 
L 5275 2950 
Q 5500 2950 5850 2975 
L 5850 2525 
Q 5500 2550 5275 2550 
L 5275 1700 
Q 5625 1700 5900 1725 
L 5900 1275 
Q 5650 1325 5275 1325 
L 5275 375 
Q 5700 375 6075 400 
L 6075 -75 
Q 5725 -50 5475 -50 
L 4100 -50 
L 4100 -575 
L 3600 -575 
Q 3625 -200 3625 325 
L 3625 3025 
Q 3500 2700 3300 2275 
Q 3150 2400 2900 2525 
Q 3150 2950 3475 3750 
Q 3800 4550 3875 5200 
Q 4175 5075 4475 5000 
z
M 3150 4500 
Q 3050 3850 2925 3212 
Q 2800 2575 2625 2100 
Q 3100 1175 3350 600 
Q 3075 525 2900 375 
Q 2700 950 2400 1600 
Q 2300 1250 2137 875 
Q 1975 500 1750 25 
Q 1525 175 1250 225 
Q 1550 625 1762 1112 
Q 1975 1600 2125 2050 
Q 1700 3150 1400 3525 
Q 1625 3600 1825 3725 
Q 2050 3350 2350 2575 
Q 2525 3275 2625 4100 
Q 2150 4100 1500 4075 
L 1500 4525 
Q 2150 4500 2500 4500 
L 3150 4500 
z
M 1275 1550 
Q 1125 975 987 337 
Q 850 -300 800 -650 
Q 550 -525 250 -450 
Q 425 -100 562 425 
Q 700 950 825 1750 
Q 1050 1625 1275 1550 
z
M 4850 375 
L 4850 1325 
L 4100 1325 
L 4100 375 
L 4850 375 
z
M 4850 1700 
L 4850 2550 
L 4100 2550 
L 4100 1700 
L 4850 1700 
z
M 4850 2950 
L 4850 3775 
L 4100 3775 
L 4100 2950 
L 4850 2950 
z
M 425 3325 
Q 1025 3025 1400 2775 
Q 1250 2600 1150 2325 
Q 850 2600 200 2900 
Q 325 3075 425 3325 
z
M 600 5000 
Q 1100 4725 1450 4450 
Q 1300 4250 1175 4025 
Q 875 4300 300 4600 
Q 500 4825 600 5000 
z
M 5400 4450 
Q 5200 4375 4950 4275 
Q 4850 4700 4650 5050 
Q 4900 5125 5100 5200 
L 5400 4450 
z
" transform="scale(0.015625)"/>
        <path id="SimHei-9996" d="M 4700 4975 
Q 4575 4800 4412 4537 
Q 4250 4275 4150 4075 
L 4850 4075 
Q 5550 4075 6000 4100 
L 6000 3650 
Q 5550 3675 4900 3675 
L 3375 3675 
Q 3225 3275 3150 3025 
L 5025 3025 
Q 5000 2575 5000 2225 
L 5000 425 
Q 5000 -75 5025 -575 
L 4525 -575 
L 4525 -225 
L 1850 -225 
L 1850 -650 
L 1350 -650 
Q 1375 -75 1375 350 
L 1375 2175 
Q 1375 2525 1350 3025 
L 2625 3025 
Q 2750 3350 2850 3675 
L 1325 3675 
Q 900 3675 400 3650 
L 400 4100 
Q 925 4075 1350 4075 
L 3675 4075 
Q 4075 4875 4150 5275 
Q 4375 5100 4700 4975 
z
M 4525 175 
L 4525 750 
L 1850 750 
L 1850 175 
L 4525 175 
z
M 4525 2050 
L 4525 2600 
L 1850 2600 
L 1850 2050 
L 4525 2050 
z
M 4525 1125 
L 4525 1625 
L 1850 1625 
L 1850 1125 
L 4525 1125 
z
M 1950 5250 
Q 2400 4725 2600 4375 
Q 2375 4275 2150 4100 
Q 2000 4475 1550 5000 
Q 1725 5100 1950 5250 
z
" transform="scale(0.015625)"/>
        <path id="SimHei-5e9c" d="M 3150 4500 
Q 3075 4825 2975 5125 
Q 3225 5200 3525 5275 
Q 3650 4850 3725 4500 
L 4750 4500 
Q 5350 4500 5875 4525 
L 5875 4075 
Q 5400 4100 4750 4100 
L 1375 4100 
Q 1375 2650 1325 2000 
Q 1275 1350 1125 737 
Q 975 125 750 -400 
Q 500 -250 225 -150 
Q 550 325 675 962 
Q 800 1600 837 2537 
Q 875 3475 850 4500 
L 3150 4500 
z
M 2900 2975 
Q 3450 2950 3775 2950 
L 4725 2950 
Q 4725 3525 4700 3875 
L 5200 3875 
Q 5175 3525 5175 2950 
Q 5650 2950 6025 2975 
L 6025 2500 
Q 5675 2525 5175 2525 
L 5175 225 
Q 5200 -275 4900 -400 
Q 4600 -525 4125 -575 
Q 4050 -250 3950 -25 
Q 4400 -25 4575 25 
Q 4750 75 4725 375 
L 4725 2525 
L 3775 2525 
Q 3425 2525 2900 2500 
L 2900 2975 
z
M 1750 1775 
Q 1550 1975 1350 2125 
Q 1700 2450 2012 2950 
Q 2325 3450 2475 3950 
Q 2775 3800 3075 3700 
Q 2700 3200 2600 2975 
L 2600 525 
Q 2600 50 2625 -525 
L 2125 -525 
Q 2150 25 2150 550 
L 2150 2275 
Q 1975 2075 1750 1775 
z
M 3675 925 
Q 3550 1175 3200 1825 
Q 3475 2025 3575 2075 
Q 3925 1475 4050 1175 
Q 3950 1100 3675 925 
z
" transform="scale(0.015625)"/>
       </defs>
       <use xlink:href="#SimHei-534e"/>
       <use xlink:href="#SimHei-53d1" x="100"/>
       <use xlink:href="#SimHei-5916" x="200"/>
       <use xlink:href="#SimHei-6ee9" x="300"/>
       <use xlink:href="#SimHei-9996" x="400"/>
       <use xlink:href="#SimHei-5e9c" x="500"/>
      </g>
     </g>
    </g>
    <g id="ytick_3">
     <g id="line2d_11">
      <g>
       <use xlink:href="#mdab043e431" x="108" y="514.35" style="stroke: #000000; stroke-width: 0.8"/>
      </g>
     </g>
     <g id="text_11">
      <!-- 武汉天地四期B13 -->
      <g transform="translate(26 518.353906) scale(0.1 -0.1)">
       <defs>
        <path id="SimHei-56db" d="M 5750 4750 
Q 5725 4125 5725 3425 
L 5725 950 
Q 5725 300 5750 -450 
L 5225 -450 
L 5225 25 
L 1150 25 
L 1150 -500 
L 625 -500 
Q 650 300 650 1000 
L 650 3425 
Q 650 4050 625 4750 
L 5750 4750 
z
M 5225 450 
L 5225 4350 
L 3975 4350 
L 3975 2225 
Q 3975 1950 4225 1950 
Q 4475 1950 5025 1975 
Q 4900 1700 4875 1500 
Q 4225 1500 3887 1512 
Q 3550 1525 3500 1975 
L 3500 4350 
L 2850 4350 
Q 2850 3050 2562 2412 
Q 2275 1775 1700 1200 
Q 1575 1375 1275 1525 
Q 1650 1800 1900 2175 
Q 2150 2550 2262 3000 
Q 2375 3450 2375 4350 
L 1150 4350 
L 1150 450 
L 5225 450 
z
" transform="scale(0.015625)"/>
        <path id="SimHei-42" d="M 2950 1400 
Q 2950 675 2550 400 
Q 2150 125 1525 125 
L 275 125 
L 275 4400 
L 1575 4400 
Q 2200 4400 2512 4075 
Q 2825 3750 2825 3300 
Q 2825 2850 2612 2637 
Q 2400 2425 2175 2350 
Q 2475 2275 2712 2037 
Q 2950 1800 2950 1400 
z
M 2250 3300 
Q 2250 3625 2062 3775 
Q 1875 3925 1600 3925 
L 850 3925 
L 850 2600 
L 1575 2600 
Q 1850 2600 2050 2762 
Q 2250 2925 2250 3300 
z
M 2350 1400 
Q 2350 1800 2087 1962 
Q 1825 2125 1500 2125 
L 850 2125 
L 850 600 
L 1425 600 
Q 1875 600 2112 775 
Q 2350 950 2350 1400 
z
" transform="scale(0.015625)"/>
       </defs>
       <use xlink:href="#SimHei-6b66"/>
       <use xlink:href="#SimHei-6c49" x="100"/>
       <use xlink:href="#SimHei-5929" x="200"/>
       <use xlink:href="#SimHei-5730" x="300"/>
       <use xlink:href="#SimHei-56db" x="400"/>
       <use xlink:href="#SimHei-671f" x="500"/>
       <use xlink:href="#SimHei-42" x="600"/>
       <use xlink:href="#SimHei-31" x="650"/>
       <use xlink:href="#SimHei-33" x="700"/>
      </g>
     </g>
    </g>
    <g id="ytick_4">
     <g id="line2d_12">
      <g>
       <use xlink:href="#mdab043e431" x="108" y="489.402" style="stroke: #000000; stroke-width: 0.8"/>
      </g>
     </g>
     <g id="text_12">
      <!-- 帝斯曼国际中心 -->
      <g transform="translate(31 493.386375) scale(0.1 -0.1)">
       <defs>
        <path id="SimHei-5e1d" d="M 1300 4150 
Q 900 4150 525 4125 
L 525 4575 
Q 950 4550 1375 4550 
L 2975 4550 
Q 2875 4825 2750 5100 
Q 3225 5200 3275 5250 
Q 3425 4875 3525 4550 
L 4825 4550 
Q 5400 4550 5850 4575 
L 5850 4125 
Q 5400 4150 4825 4150 
L 4075 4150 
Q 4275 4025 4600 3900 
Q 4275 3475 4100 3150 
L 5950 3150 
Q 5925 2950 5925 2650 
Q 5925 2375 5950 2100 
L 5450 2100 
L 5450 2750 
L 975 2750 
L 975 2100 
L 450 2100 
Q 475 2425 475 2600 
Q 475 2800 450 3150 
L 3600 3150 
Q 3875 3675 4025 4150 
L 2200 4150 
Q 2425 3750 2575 3400 
L 2100 3175 
Q 2000 3525 1750 3950 
Q 2000 4050 2150 4150 
L 1300 4150 
z
M 3450 2500 
Q 3425 2225 3425 1950 
L 5300 1950 
Q 5275 1600 5275 1250 
L 5275 625 
Q 5275 225 5037 100 
Q 4800 -25 4275 -125 
Q 4225 175 4075 425 
Q 4475 425 4637 487 
Q 4800 550 4800 825 
L 4800 1550 
L 3425 1550 
L 3425 225 
Q 3425 -200 3450 -650 
L 2900 -650 
Q 2925 -225 2925 225 
L 2925 1550 
L 1700 1550 
L 1700 0 
L 1175 0 
Q 1200 325 1200 950 
Q 1200 1575 1175 1950 
L 2925 1950 
Q 2925 2200 2900 2500 
L 3450 2500 
z
" transform="scale(0.015625)"/>
        <path id="SimHei-65af" d="M 950 4350 
Q 950 4825 925 5100 
L 1450 5100 
Q 1400 4925 1400 4350 
L 2525 4350 
Q 2525 4850 2500 5125 
L 3025 5125 
Q 3000 4900 3000 4350 
Q 3050 4350 3375 4375 
L 3375 3925 
Q 3050 3950 3000 3950 
L 3000 1625 
Q 3025 1625 3450 1650 
L 3450 1200 
Q 2950 1225 2650 1225 
L 1050 1225 
Q 700 1225 275 1200 
L 275 1650 
Q 650 1625 950 1625 
L 950 3950 
Q 675 3950 325 3925 
L 325 4375 
Q 700 4350 950 4350 
z
M 6075 4550 
Q 5750 4500 5237 4450 
Q 4725 4400 4200 4375 
L 4200 3000 
L 5425 3000 
Q 5775 3000 6125 3025 
L 6125 2575 
Q 5750 2600 5425 2600 
L 5425 575 
Q 5425 100 5450 -525 
L 4950 -525 
Q 4975 -50 4975 550 
L 4975 2600 
L 4200 2600 
Q 4175 1450 4000 912 
Q 3825 375 3700 125 
Q 3575 -125 3125 -650 
Q 2900 -475 2650 -350 
Q 3125 75 3350 512 
Q 3575 950 3650 1600 
Q 3725 2250 3725 3175 
Q 3725 4125 3700 4775 
Q 4250 4775 4862 4837 
Q 5475 4900 5800 5025 
Q 5875 4800 6075 4550 
z
M 1625 700 
Q 1425 575 1125 250 
Q 825 -75 600 -325 
Q 425 -150 225 0 
Q 350 100 625 387 
Q 900 675 1125 1075 
Q 1350 900 1625 700 
z
M 2525 2525 
L 2525 3050 
L 1400 3050 
L 1400 2525 
L 2525 2525 
z
M 2525 1625 
L 2525 2125 
L 1400 2125 
L 1400 1625 
L 2525 1625 
z
M 2525 3450 
L 2525 3950 
L 1400 3950 
L 1400 3450 
L 2525 3450 
z
M 2475 1050 
Q 2700 850 3150 350 
Q 2900 175 2725 25 
Q 2500 375 2125 750 
Q 2325 900 2475 1050 
z
" transform="scale(0.015625)"/>
        <path id="SimHei-66fc" d="M 1225 4575 
Q 1200 4850 1200 5075 
L 5225 5075 
Q 5200 4800 5200 4525 
L 5200 3325 
L 1200 3325 
Q 1225 3675 1225 3975 
L 1225 4575 
z
M 675 2625 
Q 675 2825 650 3025 
L 5750 3025 
Q 5725 2775 5725 2575 
L 5725 2200 
Q 5725 2050 5750 1800 
L 650 1800 
Q 675 2050 675 2200 
L 675 2625 
z
M 1700 1125 
Q 1475 1125 1100 1100 
L 1100 1550 
Q 1475 1525 1975 1500 
L 5225 1500 
Q 4800 1000 4487 750 
Q 4175 500 3650 200 
Q 4125 25 4750 -50 
Q 5375 -125 6175 -75 
Q 6000 -300 5950 -600 
Q 5375 -550 4737 -475 
Q 4100 -400 3175 -50 
Q 2300 -350 1750 -462 
Q 1200 -575 575 -650 
Q 525 -325 375 -150 
Q 750 -150 1350 -75 
Q 1950 0 2750 225 
Q 2525 350 2300 550 
Q 2075 750 1700 1125 
z
M 4725 4375 
L 4725 4725 
L 1700 4725 
L 1700 4375 
L 4725 4375 
z
M 4725 3675 
L 4725 4025 
L 1700 4025 
L 1700 3675 
L 4725 3675 
z
M 2300 1125 
Q 2675 675 3200 400 
Q 3550 550 3837 750 
Q 4125 950 4300 1125 
L 2300 1125 
z
M 5275 2150 
L 5275 2675 
L 4175 2675 
L 4175 2150 
L 5275 2150 
z
M 2250 2150 
L 2250 2675 
L 1150 2675 
L 1150 2150 
L 2250 2150 
z
M 3750 2150 
L 3750 2675 
L 2675 2675 
L 2675 2150 
L 3750 2150 
z
" transform="scale(0.015625)"/>
        <path id="SimHei-56fd" d="M 5775 4975 
Q 5750 4350 5750 3575 
L 5750 900 
Q 5750 125 5775 -625 
L 5275 -625 
L 5275 -275 
L 1125 -275 
L 1125 -650 
L 625 -650 
Q 650 125 650 950 
L 650 3575 
Q 650 4325 625 4975 
L 5775 4975 
z
M 5275 100 
L 5275 4600 
L 1125 4600 
L 1125 100 
L 5275 100 
z
M 3975 3925 
Q 4350 3925 4775 3950 
L 4775 3500 
Q 4400 3525 3975 3525 
L 3350 3525 
L 3350 2700 
L 3800 2700 
Q 4250 2700 4650 2725 
L 4650 2275 
Q 4250 2300 3800 2300 
L 3350 2300 
L 3350 1175 
L 4050 1175 
Q 4500 1175 4900 1200 
L 4900 750 
Q 4525 775 4050 775 
L 2350 775 
Q 1925 775 1500 750 
L 1500 1200 
Q 1925 1175 2350 1175 
L 2900 1175 
L 2900 2300 
L 2550 2300 
Q 2125 2300 1750 2275 
L 1750 2725 
Q 2125 2700 2550 2700 
L 2900 2700 
L 2900 3525 
L 2525 3525 
Q 2075 3525 1650 3500 
L 1650 3950 
Q 2075 3925 2525 3925 
L 3975 3925 
z
M 4050 2125 
Q 4175 2000 4550 1600 
Q 4300 1450 4125 1325 
Q 4050 1425 3700 1850 
Q 3900 2000 4050 2125 
z
" transform="scale(0.015625)"/>
        <path id="SimHei-9645" d="M 2500 4900 
Q 2425 4700 2250 4100 
Q 2075 3500 1875 2900 
Q 2200 2400 2312 2050 
Q 2425 1700 2362 1412 
Q 2300 1125 2012 912 
Q 1725 700 1350 650 
Q 1225 1050 1125 1225 
Q 1675 1225 1787 1412 
Q 1900 1600 1837 1862 
Q 1775 2125 1662 2375 
Q 1550 2625 1350 2875 
Q 1475 3225 1600 3650 
Q 1725 4075 1850 4475 
L 1025 4475 
L 1025 -525 
L 500 -525 
Q 525 175 525 850 
L 525 3825 
Q 525 4375 500 4900 
L 2500 4900 
z
M 5250 3300 
Q 5650 3300 6050 3325 
L 6050 2850 
Q 5725 2875 5325 2875 
L 4500 2875 
L 4500 75 
Q 4500 -325 4225 -387 
Q 3950 -450 3475 -525 
Q 3450 -225 3275 75 
Q 3775 75 3887 100 
Q 4000 125 4000 275 
L 4000 2875 
L 3375 2875 
Q 2825 2875 2475 2850 
L 2475 3325 
Q 3025 3300 3375 3300 
L 5250 3300 
z
M 4975 4775 
Q 5375 4775 5675 4825 
L 5675 4350 
Q 5375 4375 4975 4375 
L 3650 4375 
Q 3225 4375 2900 4350 
L 2900 4825 
Q 3200 4775 3700 4775 
L 4975 4775 
z
M 2150 200 
Q 2450 700 2662 1187 
Q 2875 1675 3050 2175 
Q 3250 2100 3575 1950 
Q 3325 1500 3112 1000 
Q 2900 500 2650 -25 
Q 2450 75 2150 200 
z
M 5275 2200 
Q 5900 975 6200 350 
Q 5950 250 5675 100 
Q 5300 1025 4800 1925 
Q 4950 2000 5275 2200 
z
" transform="scale(0.015625)"/>
        <path id="SimHei-4e2d" d="M 3475 5200 
Q 3450 4500 3450 3875 
L 5625 3875 
Q 5600 3375 5600 2500 
Q 5600 1650 5625 1225 
L 5075 1225 
L 5075 1600 
L 3450 1600 
L 3450 525 
Q 3450 225 3475 -600 
L 2875 -600 
Q 2925 -150 2925 450 
L 2925 1600 
L 1300 1600 
L 1300 1225 
L 750 1225 
Q 775 1600 775 2500 
Q 775 3425 750 3875 
L 2925 3875 
Q 2925 4550 2900 5200 
L 3475 5200 
z
M 5075 2000 
L 5075 3475 
L 3450 3475 
L 3450 2000 
L 5075 2000 
z
M 2925 2000 
L 2925 3475 
L 1300 3475 
L 1300 2000 
L 2925 2000 
z
" transform="scale(0.015625)"/>
        <path id="SimHei-5fc3" d="M 2700 3425 
Q 2675 3125 2675 2525 
L 2675 375 
Q 2675 75 2975 75 
L 4150 75 
Q 4425 50 4512 212 
Q 4600 375 4650 950 
Q 4900 750 5225 675 
Q 5050 -125 4875 -287 
Q 4700 -450 4450 -425 
L 2625 -425 
Q 2175 -425 2125 125 
L 2125 2500 
Q 2125 3000 2100 3425 
L 2700 3425 
z
M 1475 3075 
Q 1400 2925 1275 2287 
Q 1150 1650 925 750 
Q 625 850 325 900 
Q 675 1900 850 3200 
Q 1075 3150 1475 3075 
z
M 5075 3300 
Q 5650 2500 6175 1700 
Q 5900 1575 5650 1350 
Q 5125 2350 4625 3000 
Q 4850 3125 5075 3300 
z
M 3050 5250 
Q 3325 4775 3925 3925 
Q 3625 3775 3375 3600 
Q 2975 4425 2600 4950 
Q 2825 5075 3050 5250 
z
" transform="scale(0.015625)"/>
       </defs>
       <use xlink:href="#SimHei-5e1d"/>
       <use xlink:href="#SimHei-65af" x="100"/>
       <use xlink:href="#SimHei-66fc" x="200"/>
       <use xlink:href="#SimHei-56fd" x="300"/>
       <use xlink:href="#SimHei-9645" x="400"/>
       <use xlink:href="#SimHei-4e2d" x="500"/>
       <use xlink:href="#SimHei-5fc3" x="600"/>
      </g>
     </g>
    </g>
    <g id="ytick_5">
     <g id="line2d_13">
      <g>
       <use xlink:href="#mdab043e431" x="108" y="464.454" style="stroke: #000000; stroke-width: 0.8"/>
      </g>
     </g>
     <g id="text_13">
      <!-- 纯水岸东湖天樾一期 -->
      <g transform="translate(11 468.477438) scale(0.1 -0.1)">
       <defs>
        <path id="SimHei-7eaf" d="M 3900 4125 
Q 3900 4575 3875 5100 
L 4375 5100 
Q 4350 4650 4350 4125 
L 5025 4125 
Q 5425 4125 5850 4150 
L 5850 3725 
Q 5450 3750 5050 3750 
L 4350 3750 
L 4350 1725 
L 5175 1725 
L 5175 2425 
Q 5175 2800 5150 3100 
L 5675 3100 
Q 5625 2825 5625 2050 
Q 5625 1300 5650 1025 
L 5175 1025 
L 5175 1325 
L 4350 1325 
L 4350 250 
Q 4350 -50 4650 -50 
L 5200 -50 
Q 5350 -50 5425 25 
Q 5500 100 5575 650 
Q 5800 525 6100 450 
Q 5975 -50 5862 -237 
Q 5750 -425 5325 -425 
L 4550 -425 
Q 3900 -425 3900 0 
L 3900 1325 
L 2625 1325 
Q 2650 1625 2650 2200 
Q 2650 2775 2625 3100 
L 3150 3100 
Q 3125 2750 3125 2500 
L 3125 1725 
L 3900 1725 
L 3900 3750 
L 3350 3750 
Q 2825 3750 2425 3725 
L 2425 4150 
Q 2825 4125 3350 4125 
L 3900 4125 
z
M 2300 1300 
Q 2200 1300 1662 1250 
Q 1125 1200 575 1075 
Q 500 1300 400 1575 
Q 600 1625 887 1962 
Q 1175 2300 1525 2800 
Q 1275 2800 962 2762 
Q 650 2725 425 2625 
Q 375 2800 225 3100 
Q 450 3150 775 3737 
Q 1100 4325 1300 5050 
Q 1550 4900 1875 4775 
Q 1650 4550 1412 4125 
Q 1175 3700 825 3125 
L 1725 3150 
Q 1900 3400 2025 3725 
Q 2250 3550 2575 3425 
Q 2325 3275 2025 2837 
Q 1725 2400 1075 1625 
Q 1975 1675 2300 1725 
L 2300 1300 
z
M 2475 250 
Q 2025 175 1450 12 
Q 875 -150 450 -300 
Q 325 25 225 200 
Q 925 325 1212 387 
Q 1500 450 2475 700 
L 2475 250 
z
" transform="scale(0.015625)"/>
        <path id="SimHei-6c34" d="M 3450 5175 
Q 3450 4800 3437 4500 
Q 3425 4200 3487 3762 
Q 3550 3325 3950 2725 
Q 4975 3575 5175 4050 
Q 5450 3800 5675 3575 
Q 5350 3350 5037 3075 
Q 4725 2800 4175 2325 
Q 4375 1900 4900 1375 
Q 5425 850 6175 625 
Q 5750 425 5675 125 
Q 4725 700 4212 1400 
Q 3700 2100 3425 2800 
L 3425 25 
Q 3450 -325 3162 -475 
Q 2875 -625 2400 -675 
Q 2375 -400 2175 -75 
Q 2575 -150 2750 -100 
Q 2925 -50 2925 225 
L 2925 4175 
Q 2925 4800 2875 5175 
L 3450 5175 
z
M 2550 3575 
Q 2425 2900 2237 2362 
Q 2050 1825 1737 1300 
Q 1425 775 750 100 
Q 575 325 225 450 
Q 925 950 1337 1600 
Q 1750 2250 1950 3125 
L 1275 3125 
Q 900 3125 425 3075 
L 425 3600 
Q 875 3575 1250 3575 
L 2550 3575 
z
" transform="scale(0.015625)"/>
        <path id="SimHei-5cb8" d="M 4425 2200 
Q 5100 2200 5525 2225 
L 5525 1800 
L 4975 1825 
L 3800 1825 
L 3800 1075 
L 5150 1075 
Q 5450 1075 5975 1100 
L 5975 675 
Q 5425 700 5125 700 
L 3800 700 
L 3800 325 
Q 3800 -125 3825 -625 
L 3300 -625 
Q 3350 -125 3350 325 
L 3350 700 
L 2450 700 
Q 1850 700 1375 675 
L 1375 1100 
Q 1850 1075 2275 1075 
L 3350 1075 
L 3350 1825 
L 2700 1825 
Q 2175 1825 1750 1800 
L 1750 2225 
Q 2100 2200 2700 2200 
L 4425 2200 
z
M 4875 3100 
Q 5250 3100 5775 3125 
L 5775 2700 
Q 5400 2725 4875 2725 
L 1350 2725 
Q 1375 1375 1250 712 
Q 1125 50 700 -675 
Q 500 -475 250 -400 
Q 600 75 775 700 
Q 875 1150 900 1675 
Q 925 2200 875 3100 
L 4875 3100 
z
M 1500 4825 
Q 1475 4275 1475 3950 
L 3075 3950 
L 3075 4600 
Q 3075 4875 3050 5150 
L 3575 5150 
Q 3550 4875 3550 4600 
L 3550 3950 
L 5125 3950 
L 5125 4300 
Q 5125 4550 5075 4850 
L 5600 4850 
Q 5575 4425 5575 4100 
L 5575 3575 
L 1000 3575 
L 1025 4200 
Q 1025 4475 1000 4825 
L 1500 4825 
z
" transform="scale(0.015625)"/>
        <path id="SimHei-4e1c" d="M 2250 4100 
Q 2650 4825 2775 5250 
L 3350 5000 
Q 3150 4750 2800 4100 
L 4550 4100 
Q 5100 4100 5625 4125 
L 5625 3650 
Q 5275 3675 4900 3675 
L 2625 3675 
Q 2275 3125 1675 2300 
L 3150 2300 
Q 3150 2800 3125 3250 
L 3700 3250 
Q 3675 2975 3675 2300 
L 4650 2300 
Q 5075 2300 5550 2325 
L 5550 1875 
Q 5150 1900 4675 1900 
L 3675 1900 
L 3675 75 
Q 3675 -325 3375 -437 
Q 3075 -550 2600 -625 
Q 2525 -300 2325 -50 
Q 2875 -50 3012 0 
Q 3150 50 3150 350 
L 3150 1900 
L 2050 1900 
Q 1450 1900 1050 1825 
Q 975 2075 850 2325 
Q 1125 2425 1400 2762 
Q 1675 3100 2025 3675 
L 1325 3675 
Q 900 3675 675 3650 
L 675 4125 
Q 875 4100 1250 4100 
L 2250 4100 
z
M 1725 425 
Q 1300 0 900 -425 
Q 750 -225 500 -50 
Q 1475 800 1850 1450 
Q 2025 1250 2350 1050 
L 1725 425 
z
M 4625 1400 
Q 4875 1175 5275 800 
Q 5675 425 5975 100 
Q 5875 25 5525 -300 
Q 5150 175 4250 1025 
Q 4525 1250 4625 1400 
z
" transform="scale(0.015625)"/>
        <path id="SimHei-6e56" d="M 5975 4900 
Q 5950 4350 5950 4000 
L 5950 50 
Q 5950 -300 5700 -400 
Q 5450 -500 5000 -575 
Q 4950 -325 4750 -50 
Q 5200 -75 5337 -37 
Q 5475 0 5500 300 
L 5500 1525 
L 4525 1525 
Q 4450 1000 4337 650 
Q 4225 300 4012 -25 
Q 3800 -350 3450 -700 
Q 3275 -525 2975 -400 
Q 3425 -75 3675 337 
Q 3925 750 4012 1200 
Q 4100 1650 4125 2300 
Q 4150 2950 4150 3675 
Q 4150 4425 4125 4900 
L 5975 4900 
z
M 3150 350 
L 3150 750 
L 2375 750 
L 2375 100 
L 1900 100 
Q 1925 425 1925 1250 
Q 1925 2075 1900 2475 
L 2575 2475 
L 2575 3475 
Q 2000 3475 1725 3450 
L 1725 3900 
Q 2000 3875 2575 3875 
L 2575 4475 
Q 2575 4775 2550 5225 
L 3050 5225 
Q 3025 4825 3025 4475 
L 3025 3875 
Q 3500 3875 3825 3900 
L 3825 3450 
Q 3475 3475 3025 3475 
L 3025 2475 
L 3625 2475 
Q 3600 2100 3600 1550 
Q 3600 1000 3625 350 
L 3150 350 
z
M 1650 1525 
Q 1375 1050 1237 712 
Q 1100 375 950 50 
Q 800 -275 700 -500 
Q 425 -300 200 -225 
Q 475 175 762 787 
Q 1050 1400 1200 1875 
Q 1375 1650 1650 1525 
z
M 5500 3375 
L 5500 4500 
L 4575 4500 
L 4575 3375 
L 5500 3375 
z
M 5500 1925 
L 5500 3000 
L 4575 3000 
Q 4550 2200 4550 1925 
L 5500 1925 
z
M 3150 1125 
L 3150 2100 
L 2375 2100 
L 2375 1125 
L 3150 1125 
z
M 500 3500 
Q 775 3325 975 3200 
L 1625 2825 
Q 1400 2600 1300 2400 
Q 1000 2625 787 2775 
Q 575 2925 250 3125 
Q 400 3300 500 3500 
z
M 800 5050 
Q 1050 4875 1275 4700 
Q 1500 4525 1800 4350 
L 1425 3975 
Q 1175 4200 975 4350 
Q 775 4500 525 4650 
Q 675 4875 800 5050 
z
" transform="scale(0.015625)"/>
        <path id="SimHei-6a3e" d="M 2800 4250 
Q 2800 4700 2775 5000 
L 3225 5000 
Q 3200 4700 3200 4250 
Q 3425 4250 3625 4275 
L 3625 3850 
Q 3425 3875 3200 3875 
L 3200 3025 
Q 3375 3025 3725 3050 
L 3725 2625 
Q 3400 2650 3200 2650 
L 3200 1900 
Q 3425 1900 3625 1925 
L 3625 1500 
Q 3425 1525 3200 1525 
L 3200 425 
Q 3625 175 4575 150 
Q 5525 125 6200 225 
Q 6075 -25 6025 -300 
Q 5050 -300 4450 -262 
Q 3850 -225 3475 -125 
Q 3100 -25 2850 175 
Q 2600 375 2325 675 
Q 2175 200 2025 -125 
Q 1850 50 1600 125 
Q 1850 475 1987 1062 
Q 2125 1650 2125 2125 
Q 2425 2050 2650 2000 
Q 2575 1775 2525 1562 
Q 2475 1350 2475 1125 
Q 2575 900 2800 700 
L 2800 2650 
Q 2425 2650 2000 2625 
L 2000 3050 
Q 2350 3025 2800 3025 
L 2800 3875 
Q 2525 3875 2200 3850 
L 2200 4275 
Q 2525 4250 2800 4250 
z
M 4575 3900 
Q 4575 4700 4550 5050 
Q 4775 5050 5050 5000 
Q 5000 4625 4987 4375 
Q 4975 4125 4975 3900 
Q 5525 3900 5975 3925 
L 5975 3500 
Q 5575 3525 4975 3525 
Q 5000 3050 5025 2675 
Q 5050 2300 5125 1900 
Q 5225 2150 5325 2487 
Q 5425 2825 5500 3275 
Q 5750 3150 6000 3050 
Q 5850 2750 5712 2400 
Q 5575 2050 5300 1450 
Q 5650 800 5825 1525 
Q 6000 1350 6175 1250 
Q 5875 500 5600 575 
Q 5325 650 5050 1075 
Q 4950 850 4700 475 
Q 4550 600 4325 725 
Q 4600 1050 4850 1475 
Q 4775 1725 4725 1987 
Q 4675 2250 4637 2662 
Q 4600 3075 4575 3525 
L 4250 3525 
L 4250 1575 
Q 4375 1700 4500 1850 
Q 4600 1625 4675 1475 
Q 4525 1350 4337 1187 
Q 4150 1025 3900 800 
Q 3800 1025 3700 1225 
Q 3850 1375 3825 1625 
L 3825 3025 
Q 3825 3500 3800 3900 
L 4575 3900 
z
M 975 4400 
Q 975 4775 950 5150 
L 1400 5150 
Q 1375 4825 1375 4375 
L 1375 3950 
Q 1600 3950 1950 3975 
L 1950 3550 
Q 1625 3575 1375 3575 
L 1375 2675 
Q 1525 2750 1725 2825 
L 2025 2025 
L 1625 1825 
Q 1475 2275 1375 2625 
L 1375 375 
Q 1375 -50 1400 -500 
L 950 -500 
Q 975 -75 975 375 
L 975 2250 
Q 875 1850 800 1650 
Q 725 1450 600 1125 
Q 400 1300 200 1425 
Q 400 1800 537 2175 
Q 675 2550 762 2887 
Q 850 3225 900 3575 
Q 550 3575 200 3550 
L 200 3975 
Q 550 3950 975 3950 
L 975 4400 
z
M 5525 4850 
Q 5750 4600 5950 4325 
Q 5775 4225 5575 4075 
Q 5400 4325 5200 4600 
Q 5325 4700 5525 4850 
z
" transform="scale(0.015625)"/>
       </defs>
       <use xlink:href="#SimHei-7eaf"/>
       <use xlink:href="#SimHei-6c34" x="100"/>
       <use xlink:href="#SimHei-5cb8" x="200"/>
       <use xlink:href="#SimHei-4e1c" x="300"/>
       <use xlink:href="#SimHei-6e56" x="400"/>
       <use xlink:href="#SimHei-5929" x="500"/>
       <use xlink:href="#SimHei-6a3e" x="600"/>
       <use xlink:href="#SimHei-4e00" x="700"/>
       <use xlink:href="#SimHei-671f" x="800"/>
      </g>
     </g>
    </g>
    <g id="ytick_6">
     <g id="line2d_14">
      <g>
       <use xlink:href="#mdab043e431" x="108" y="439.506" style="stroke: #000000; stroke-width: 0.8"/>
      </g>
     </g>
     <g id="text_14">
      <!-- 复地东湖国际六期 -->
      <g transform="translate(21 443.529437) scale(0.1 -0.1)">
       <defs>
        <path id="SimHei-590d" d="M 2125 1200 
Q 1900 975 1687 787 
Q 1475 600 1100 350 
Q 1000 475 725 675 
Q 1225 950 1587 1275 
Q 1950 1600 2125 1950 
L 1450 1950 
Q 1475 2250 1475 2575 
L 1475 3825 
Q 1175 3525 700 3150 
Q 525 3375 325 3525 
Q 925 3850 1337 4300 
Q 1750 4750 1975 5200 
Q 2225 5050 2475 4975 
Q 2350 4875 2125 4600 
L 4850 4600 
Q 5150 4600 5750 4625 
L 5750 4200 
Q 5350 4225 5000 4225 
L 1900 4225 
Q 1700 4025 1500 3850 
L 5225 3850 
Q 5200 3500 5200 2875 
Q 5200 2275 5225 1950 
L 2675 1950 
Q 2575 1800 2400 1575 
L 5125 1575 
Q 4825 1100 4512 775 
Q 4200 450 3850 200 
Q 4250 75 4837 -25 
Q 5425 -125 6125 -150 
Q 6000 -325 5875 -650 
Q 4825 -500 4237 -350 
Q 3650 -200 3375 -75 
Q 2750 -325 2162 -450 
Q 1575 -575 725 -675 
Q 600 -350 500 -200 
Q 1225 -200 1950 -75 
Q 2675 50 2950 175 
Q 2425 475 1925 900 
Q 2175 1050 2275 1200 
L 2125 1200 
z
M 4750 3075 
L 4750 3475 
L 1925 3475 
L 1925 3075 
L 4750 3075 
z
M 4750 2325 
L 4750 2700 
L 1925 2700 
L 1925 2325 
L 4750 2325 
z
M 2325 1200 
Q 2800 725 3425 400 
Q 3900 675 4300 1200 
L 2325 1200 
z
" transform="scale(0.015625)"/>
        <path id="SimHei-516d" d="M 5100 3425 
Q 5625 3425 5975 3475 
L 5975 2900 
Q 5625 2925 5125 2925 
L 1525 2925 
Q 1000 2925 475 2900 
L 475 3475 
Q 1000 3425 1500 3425 
L 5100 3425 
z
M 2800 1950 
Q 2300 1225 1812 537 
Q 1325 -150 975 -475 
Q 775 -300 450 -75 
Q 1100 525 1587 1237 
Q 2075 1950 2175 2325 
Q 2475 2100 2800 1950 
z
M 4225 2350 
Q 4675 1700 4987 1300 
Q 5300 900 5850 25 
Q 5525 -150 5325 -325 
Q 4975 300 4600 825 
Q 4225 1350 3725 1975 
Q 3975 2150 4225 2350 
z
M 2900 5075 
Q 3425 4425 3750 3875 
Q 3475 3750 3225 3575 
Q 2875 4250 2450 4750 
Q 2725 4925 2900 5075 
z
" transform="scale(0.015625)"/>
       </defs>
       <use xlink:href="#SimHei-590d"/>
       <use xlink:href="#SimHei-5730" x="100"/>
       <use xlink:href="#SimHei-4e1c" x="200"/>
       <use xlink:href="#SimHei-6e56" x="300"/>
       <use xlink:href="#SimHei-56fd" x="400"/>
       <use xlink:href="#SimHei-9645" x="500"/>
       <use xlink:href="#SimHei-516d" x="600"/>
       <use xlink:href="#SimHei-671f" x="700"/>
      </g>
     </g>
    </g>
    <g id="ytick_7">
     <g id="line2d_15">
      <g>
       <use xlink:href="#mdab043e431" x="108" y="414.558" style="stroke: #000000; stroke-width: 0.8"/>
      </g>
     </g>
     <g id="text_15">
      <!-- 华发外滩首府 -->
      <g transform="translate(41 418.600969) scale(0.1 -0.1)">
       <use xlink:href="#SimHei-534e"/>
       <use xlink:href="#SimHei-53d1" x="100"/>
       <use xlink:href="#SimHei-5916" x="200"/>
       <use xlink:href="#SimHei-6ee9" x="300"/>
       <use xlink:href="#SimHei-9996" x="400"/>
       <use xlink:href="#SimHei-5e9c" x="500"/>
      </g>
     </g>
    </g>
    <g id="ytick_8">
     <g id="line2d_16">
      <g>
       <use xlink:href="#mdab043e431" x="108" y="389.61" style="stroke: #000000; stroke-width: 0.8"/>
      </g>
     </g>
     <g id="text_16">
      <!-- 华发外滩首府 -->
      <g transform="translate(41 393.652969) scale(0.1 -0.1)">
       <use xlink:href="#SimHei-534e"/>
       <use xlink:href="#SimHei-53d1" x="100"/>
       <use xlink:href="#SimHei-5916" x="200"/>
       <use xlink:href="#SimHei-6ee9" x="300"/>
       <use xlink:href="#SimHei-9996" x="400"/>
       <use xlink:href="#SimHei-5e9c" x="500"/>
      </g>
     </g>
    </g>
    <g id="ytick_9">
     <g id="line2d_17">
      <g>
       <use xlink:href="#mdab043e431" x="108" y="364.662" style="stroke: #000000; stroke-width: 0.8"/>
      </g>
     </g>
     <g id="text_17">
      <!-- 中南汇 -->
      <g transform="translate(71 368.646375) scale(0.1 -0.1)">
       <defs>
        <path id="SimHei-5357" d="M 4550 -100 
Q 4925 -100 5100 -87 
Q 5275 -75 5225 175 
L 5225 3075 
L 1125 3075 
L 1125 -600 
L 575 -600 
Q 625 25 625 675 
L 625 2200 
Q 625 2800 575 3450 
L 2750 3450 
L 2875 4150 
L 1875 4150 
Q 1250 4150 425 4100 
L 425 4575 
Q 1000 4525 1700 4525 
L 2925 4525 
Q 3000 5000 3000 5275 
Q 3325 5200 3575 5175 
Q 3475 4900 3425 4525 
L 5100 4525 
Q 5525 4525 6025 4550 
L 6025 4125 
Q 5550 4150 5100 4150 
L 3375 4150 
L 3250 3450 
L 5775 3450 
Q 5725 2875 5725 2425 
L 5725 -75 
Q 5700 -425 5425 -487 
Q 5150 -550 4800 -625 
Q 4725 -350 4550 -100 
z
M 1625 2025 
Q 1975 1975 2500 1975 
L 3350 1975 
Q 3500 2175 3600 2375 
Q 3700 2575 3875 2900 
Q 4125 2775 4450 2650 
Q 4250 2575 4137 2375 
Q 4025 2175 3875 1975 
L 4175 1975 
Q 4425 1975 4775 2000 
L 4775 1575 
Q 4450 1600 4025 1600 
L 3450 1600 
L 3450 1100 
L 4175 1100 
Q 4700 1100 4950 1125 
L 4950 675 
Q 4700 700 4175 700 
L 3450 700 
L 3450 275 
Q 3450 -50 3475 -375 
L 2925 -375 
Q 2950 -100 2950 275 
L 2950 700 
L 2275 700 
Q 1725 700 1425 675 
L 1425 1150 
Q 1800 1100 2225 1100 
L 2950 1100 
L 2950 1600 
L 2500 1600 
Q 2000 1600 1625 1575 
L 1625 2025 
z
M 2850 2325 
Q 2650 2200 2450 2050 
Q 2350 2250 2225 2412 
Q 2100 2575 1975 2700 
Q 2125 2775 2325 2950 
Q 2475 2775 2587 2650 
Q 2700 2525 2850 2325 
z
" transform="scale(0.015625)"/>
        <path id="SimHei-6c47" d="M 4700 4675 
Q 5200 4675 5775 4700 
L 5775 4225 
Q 5200 4250 4700 4250 
L 2950 4250 
L 2950 100 
L 4850 100 
Q 5375 100 5950 125 
L 5950 -375 
Q 5375 -350 4950 -350 
L 2450 -350 
Q 2475 400 2475 825 
L 2475 3625 
Q 2475 4200 2450 4675 
L 4700 4675 
z
M 2175 1550 
Q 1525 525 1300 175 
Q 1075 -175 825 -525 
Q 600 -275 375 -175 
Q 725 225 1062 675 
Q 1400 1125 1800 1900 
Q 1925 1750 2175 1550 
z
M 625 3425 
Q 1175 3150 1800 2750 
Q 1675 2625 1500 2300 
Q 975 2700 350 3000 
Q 475 3150 625 3425 
z
M 950 5050 
Q 1450 4725 2025 4275 
Q 1800 4050 1675 3875 
Q 1175 4350 650 4675 
Q 850 4900 950 5050 
z
" transform="scale(0.015625)"/>
       </defs>
       <use xlink:href="#SimHei-4e2d"/>
       <use xlink:href="#SimHei-5357" x="100"/>
       <use xlink:href="#SimHei-6c47" x="200"/>
      </g>
     </g>
    </g>
    <g id="ytick_10">
     <g id="line2d_18">
      <g>
       <use xlink:href="#mdab043e431" x="108" y="339.714" style="stroke: #000000; stroke-width: 0.8"/>
      </g>
     </g>
     <g id="text_18">
      <!-- 复地东湖国际三期 -->
      <g transform="translate(21 343.737437) scale(0.1 -0.1)">
       <defs>
        <path id="SimHei-4e09" d="M 6000 -200 
Q 5550 -175 5200 -175 
L 1300 -175 
Q 900 -175 375 -200 
L 375 350 
Q 850 325 1300 325 
L 5200 325 
Q 5575 325 6000 375 
L 6000 -200 
z
M 900 4600 
Q 1400 4575 1825 4575 
L 4600 4575 
Q 5075 4575 5475 4600 
L 5475 4075 
Q 5100 4100 4600 4100 
L 1800 4100 
Q 1375 4100 900 4075 
L 900 4600 
z
M 2075 2100 
Q 1700 2100 1275 2075 
L 1275 2625 
Q 1675 2600 2075 2600 
L 4225 2600 
Q 4600 2600 5050 2625 
L 5050 2075 
Q 4550 2100 4225 2100 
L 2075 2100 
z
" transform="scale(0.015625)"/>
       </defs>
       <use xlink:href="#SimHei-590d"/>
       <use xlink:href="#SimHei-5730" x="100"/>
       <use xlink:href="#SimHei-4e1c" x="200"/>
       <use xlink:href="#SimHei-6e56" x="300"/>
       <use xlink:href="#SimHei-56fd" x="400"/>
       <use xlink:href="#SimHei-9645" x="500"/>
       <use xlink:href="#SimHei-4e09" x="600"/>
       <use xlink:href="#SimHei-671f" x="700"/>
      </g>
     </g>
    </g>
    <g id="ytick_11">
     <g id="line2d_19">
      <g>
       <use xlink:href="#mdab043e431" x="108" y="314.766" style="stroke: #000000; stroke-width: 0.8"/>
      </g>
     </g>
     <g id="text_19">
      <!-- 绿城武汉黄浦湾 -->
      <g transform="translate(31 318.808969) scale(0.1 -0.1)">
       <defs>
        <path id="SimHei-7eff" d="M 3750 3525 
Q 3300 3525 2900 3500 
L 2900 3950 
Q 3275 3900 3725 3900 
L 5050 3900 
L 5100 4500 
L 3525 4500 
Q 3075 4500 2700 4475 
L 2700 4900 
Q 3075 4875 3525 4875 
L 5600 4875 
Q 5500 4050 5425 2925 
Q 5700 2925 6075 2950 
L 6075 2500 
Q 5675 2525 5275 2525 
L 4425 2525 
L 4425 2075 
Q 4600 1700 4775 1500 
Q 4925 1600 5112 1775 
Q 5300 1950 5550 2175 
Q 5700 1975 5900 1725 
Q 5775 1700 5525 1562 
Q 5275 1425 4975 1200 
Q 5175 925 5437 675 
Q 5700 425 6150 300 
Q 5900 -25 5825 -275 
Q 5225 125 4975 462 
Q 4725 800 4425 1325 
L 4425 -75 
Q 4425 -475 4162 -562 
Q 3900 -650 3625 -700 
Q 3550 -400 3425 -150 
Q 3850 -150 3912 -62 
Q 3975 25 3975 225 
L 3975 1050 
Q 3675 750 3350 462 
Q 3025 175 2625 -100 
Q 2450 225 2300 400 
Q 2750 575 3137 875 
Q 3525 1175 3975 1575 
L 3975 2525 
L 3250 2525 
Q 2850 2525 2375 2500 
L 2375 2950 
Q 2875 2925 3250 2925 
L 4975 2925 
L 5025 3525 
L 3750 3525 
z
M 1800 4825 
Q 1625 4600 1400 4137 
Q 1175 3675 850 3150 
L 1675 3150 
Q 1950 3700 2050 4075 
Q 2275 3825 2550 3675 
Q 2375 3550 2137 3137 
Q 1900 2725 1175 1600 
Q 1650 1650 2350 1775 
Q 2325 1500 2300 1325 
Q 1875 1275 1475 1225 
Q 1075 1175 600 1075 
Q 550 1300 450 1525 
Q 700 1625 950 1975 
Q 1200 2325 1475 2775 
Q 1125 2750 900 2725 
Q 675 2700 450 2625 
Q 375 2875 275 3100 
Q 550 3300 825 3912 
Q 1100 4525 1250 5150 
Q 1525 4950 1800 4825 
z
M 2250 725 
Q 2250 475 2275 325 
Q 1975 250 1487 112 
Q 1000 -25 575 -200 
Q 500 50 375 300 
Q 925 375 1325 475 
Q 1725 575 2250 725 
z
M 3050 2175 
Q 3150 2025 3525 1450 
Q 3300 1325 3125 1175 
Q 2950 1525 2650 1900 
Q 2850 2050 3050 2175 
z
" transform="scale(0.015625)"/>
        <path id="SimHei-57ce" d="M 5225 3125 
Q 5450 3025 5775 2925 
Q 5650 2575 5562 2175 
Q 5475 1775 5337 1350 
Q 5200 925 5075 700 
Q 5325 250 5500 150 
Q 5675 50 5750 700 
Q 5975 475 6200 375 
Q 6100 -50 5937 -350 
Q 5775 -650 5537 -525 
Q 5300 -400 5100 -162 
Q 4900 75 4750 325 
Q 4550 75 4287 -175 
Q 4025 -425 3700 -625 
Q 3525 -375 3300 -225 
Q 3700 -25 3987 212 
Q 4275 450 4500 775 
Q 4275 1375 4175 2212 
Q 4075 3050 4050 3675 
L 2750 3675 
L 2750 2775 
L 3825 2775 
Q 3800 2425 3800 1975 
L 3775 950 
Q 3775 500 3537 362 
Q 3300 225 2925 150 
Q 2875 475 2750 725 
Q 3175 725 3262 800 
Q 3350 875 3350 1075 
L 3375 2350 
L 2750 2350 
Q 2750 1975 2712 1512 
Q 2675 1050 2462 537 
Q 2250 25 1775 -525 
Q 1600 -375 1300 -250 
Q 1800 250 2012 725 
Q 2225 1200 2262 1637 
Q 2300 2075 2300 2800 
Q 2300 3550 2275 4100 
L 4025 4100 
Q 4025 4575 3975 5225 
Q 4250 5175 4525 5175 
Q 4450 4750 4475 4100 
L 4850 4100 
Q 5400 4100 5925 4125 
L 5925 3650 
Q 5400 3675 4850 3675 
L 4500 3675 
Q 4525 3125 4587 2500 
Q 4650 1875 4825 1225 
Q 4975 1600 5075 2100 
Q 5175 2600 5225 3125 
z
M 1975 925 
Q 1575 800 1162 662 
Q 750 525 425 325 
Q 325 650 225 900 
Q 475 900 950 1050 
L 950 3075 
Q 600 3075 300 3050 
L 300 3500 
Q 600 3475 950 3475 
L 950 4375 
Q 950 4650 925 5025 
L 1425 5025 
Q 1400 4700 1400 4375 
L 1400 3475 
Q 1700 3475 2000 3500 
L 2000 3050 
Q 1700 3075 1400 3075 
L 1400 1200 
Q 1675 1250 2000 1375 
Q 1975 1125 1975 925 
z
M 5225 5200 
Q 5600 4750 5775 4450 
Q 5500 4325 5350 4175 
Q 5125 4575 4825 4950 
Q 5025 5050 5225 5200 
z
" transform="scale(0.015625)"/>
        <path id="SimHei-9ec4" d="M 2700 350 
Q 2425 225 1837 -125 
Q 1250 -475 900 -675 
L 525 -300 
Q 1100 -75 1475 162 
Q 1850 400 2200 675 
L 1100 675 
Q 1125 900 1150 1400 
L 1150 2175 
Q 1150 2450 1125 2800 
L 3000 2800 
L 3000 3250 
L 1250 3250 
Q 675 3250 275 3225 
L 275 3650 
Q 650 3625 1225 3625 
L 2125 3625 
L 2125 4300 
L 1525 4300 
Q 1050 4300 725 4275 
L 725 4700 
Q 1000 4675 1475 4675 
L 2125 4675 
Q 2125 4975 2100 5250 
L 2650 5250 
Q 2600 4975 2600 4675 
L 3975 4675 
Q 3975 4975 3950 5250 
L 4475 5250 
Q 4450 4950 4450 4675 
L 4950 4675 
Q 5425 4675 5800 4700 
L 5800 4275 
Q 5450 4300 4975 4300 
L 4450 4300 
L 4450 3625 
L 5225 3625 
Q 5750 3625 6175 3650 
L 6175 3225 
Q 5775 3250 5250 3250 
L 3475 3250 
L 3475 2800 
L 5350 2800 
Q 5325 2425 5325 2200 
L 5325 1400 
Q 5325 950 5350 675 
L 4350 675 
Q 4650 500 5125 225 
Q 5625 -50 6025 -275 
Q 5825 -475 5675 -675 
Q 5150 -325 4787 -112 
Q 4425 100 4000 300 
Q 4125 425 4275 675 
L 2300 675 
Q 2525 475 2700 350 
z
M 3975 3625 
L 3975 4300 
L 2600 4300 
L 2600 3625 
L 3975 3625 
z
M 4875 1050 
L 4875 1550 
L 3475 1550 
L 3475 1050 
L 4875 1050 
z
M 3000 1050 
L 3000 1550 
L 1625 1550 
L 1625 1050 
L 3000 1050 
z
M 4875 1925 
L 4875 2400 
L 3475 2400 
L 3475 1925 
L 4875 1925 
z
M 3000 1925 
L 3000 2400 
L 1625 2400 
L 1625 1925 
L 3000 1925 
z
" transform="scale(0.015625)"/>
        <path id="SimHei-6d66" d="M 4775 -75 
Q 5175 -100 5287 -62 
Q 5400 -25 5400 150 
L 5400 800 
L 4350 800 
Q 4350 200 4375 -425 
L 3850 -425 
Q 3875 200 3875 800 
L 2850 800 
L 2850 -625 
L 2350 -625 
Q 2400 -25 2400 450 
L 2400 2525 
Q 2400 2975 2350 3325 
L 3875 3325 
L 3875 3900 
L 3125 3900 
Q 2650 3900 2150 3875 
L 2150 4325 
Q 2650 4300 3125 4300 
L 3875 4300 
Q 3875 4750 3850 5175 
L 4375 5175 
Q 4350 4825 4350 4300 
L 5300 4300 
Q 5750 4300 6175 4325 
L 6175 3875 
Q 5725 3900 5300 3900 
L 4350 3900 
L 4350 3325 
L 5900 3325 
Q 5875 3000 5875 2550 
L 5875 -25 
Q 5875 -325 5675 -437 
Q 5475 -550 5000 -600 
Q 5000 -375 4775 -75 
z
M 1725 1600 
Q 1475 1100 1250 500 
Q 1025 -100 925 -475 
Q 625 -300 250 -150 
Q 450 75 712 575 
Q 975 1075 1275 1925 
Q 1500 1725 1725 1600 
z
M 5400 2225 
L 5400 2950 
L 4350 2950 
L 4350 2225 
L 5400 2225 
z
M 3875 2225 
L 3875 2950 
L 2850 2950 
L 2850 2225 
L 3875 2225 
z
M 5400 1175 
L 5400 1850 
L 4350 1850 
L 4350 1175 
L 5400 1175 
z
M 3875 1175 
L 3875 1850 
L 2850 1850 
L 2850 1175 
L 3875 1175 
z
M 1450 2425 
Q 1025 2750 350 3050 
Q 525 3250 650 3475 
Q 1150 3225 1750 2900 
Q 1575 2675 1450 2425 
z
M 1475 3875 
Q 1100 4300 600 4700 
Q 800 4850 975 5025 
Q 1325 4750 1900 4250 
Q 1625 4075 1475 3875 
z
M 5400 4350 
Q 5100 4700 4825 4950 
Q 4975 5075 5175 5250 
Q 5475 4975 5775 4675 
Q 5575 4525 5400 4350 
z
" transform="scale(0.015625)"/>
        <path id="SimHei-6e7e" d="M 5300 2650 
Q 5275 2275 5275 1975 
Q 5275 1700 5300 1425 
L 2750 1425 
L 2700 1000 
L 5625 1000 
Q 5500 225 5450 -75 
Q 5400 -375 5137 -512 
Q 4875 -650 4050 -700 
Q 4025 -400 3875 -150 
Q 4575 -200 4812 -100 
Q 5050 0 5075 600 
L 2175 600 
Q 2300 1350 2325 1825 
L 4875 1825 
L 4875 2275 
L 3025 2275 
Q 2700 2275 2300 2250 
L 2300 2675 
Q 2700 2650 3075 2650 
L 5300 2650 
z
M 3825 5275 
Q 3975 4975 4100 4575 
L 5300 4575 
Q 5600 4575 6000 4600 
L 6000 4175 
Q 5600 4200 5325 4200 
L 4600 4200 
L 4600 2950 
L 4175 2950 
L 4175 4200 
L 3475 4200 
L 3475 2900 
L 3050 2900 
L 3050 4200 
L 2675 4200 
Q 2275 4200 1875 4175 
L 1875 4600 
Q 2275 4575 2625 4575 
L 3575 4575 
Q 3475 4850 3325 5150 
Q 3575 5200 3825 5275 
z
M 1875 1475 
Q 1775 1375 1512 837 
Q 1250 300 1125 12 
Q 1000 -275 825 -625 
Q 625 -425 350 -250 
Q 600 -75 987 700 
Q 1375 1475 1500 1825 
Q 1650 1625 1875 1475 
z
M 500 3400 
Q 1075 3050 1625 2675 
Q 1450 2450 1325 2250 
Q 1100 2475 225 3025 
Q 375 3225 500 3400 
z
M 750 4900 
Q 1325 4500 1750 4175 
Q 1575 3975 1450 3775 
Q 1025 4150 450 4575 
Q 600 4700 750 4900 
z
M 5200 3850 
Q 5350 3725 5662 3512 
Q 5975 3300 6200 3125 
Q 6025 2975 5850 2750 
Q 5725 2900 5462 3112 
Q 5200 3325 4900 3525 
Q 5050 3675 5200 3850 
z
M 2825 3625 
Q 2700 3550 2400 3237 
Q 2100 2925 1975 2725 
Q 1800 2900 1600 3025 
Q 1725 3125 1937 3362 
Q 2150 3600 2375 3950 
Q 2525 3775 2825 3625 
z
" transform="scale(0.015625)"/>
       </defs>
       <use xlink:href="#SimHei-7eff"/>
       <use xlink:href="#SimHei-57ce" x="100"/>
       <use xlink:href="#SimHei-6b66" x="200"/>
       <use xlink:href="#SimHei-6c49" x="300"/>
       <use xlink:href="#SimHei-9ec4" x="400"/>
       <use xlink:href="#SimHei-6d66" x="500"/>
       <use xlink:href="#SimHei-6e7e" x="600"/>
      </g>
     </g>
    </g>
    <g id="ytick_12">
     <g id="line2d_20">
      <g>
       <use xlink:href="#mdab043e431" x="108" y="289.818" style="stroke: #000000; stroke-width: 0.8"/>
      </g>
     </g>
     <g id="text_20">
      <!-- 复地东湖国际二期 -->
      <g transform="translate(21 293.841437) scale(0.1 -0.1)">
       <defs>
        <path id="SimHei-4e8c" d="M 5050 625 
Q 5650 625 6025 675 
L 6025 50 
Q 5625 75 5050 75 
L 1425 75 
Q 775 75 350 50 
L 350 650 
Q 800 625 1400 625 
L 5050 625 
z
M 4350 4150 
Q 4900 4175 5350 4200 
L 5350 3575 
Q 4900 3600 4375 3600 
L 2050 3600 
Q 1450 3600 1000 3575 
L 1000 4175 
Q 1450 4150 2025 4150 
L 4350 4150 
z
" transform="scale(0.015625)"/>
       </defs>
       <use xlink:href="#SimHei-590d"/>
       <use xlink:href="#SimHei-5730" x="100"/>
       <use xlink:href="#SimHei-4e1c" x="200"/>
       <use xlink:href="#SimHei-6e56" x="300"/>
       <use xlink:href="#SimHei-56fd" x="400"/>
       <use xlink:href="#SimHei-9645" x="500"/>
       <use xlink:href="#SimHei-4e8c" x="600"/>
       <use xlink:href="#SimHei-671f" x="700"/>
      </g>
     </g>
    </g>
    <g id="ytick_13">
     <g id="line2d_21">
      <g>
       <use xlink:href="#mdab043e431" x="108" y="264.87" style="stroke: #000000; stroke-width: 0.8"/>
      </g>
     </g>
     <g id="text_21">
      <!-- 武汉天地二期A6 -->
      <g transform="translate(31 268.873906) scale(0.1 -0.1)">
       <use xlink:href="#SimHei-6b66"/>
       <use xlink:href="#SimHei-6c49" x="100"/>
       <use xlink:href="#SimHei-5929" x="200"/>
       <use xlink:href="#SimHei-5730" x="300"/>
       <use xlink:href="#SimHei-4e8c" x="400"/>
       <use xlink:href="#SimHei-671f" x="500"/>
       <use xlink:href="#SimHei-41" x="600"/>
       <use xlink:href="#SimHei-36" x="650"/>
      </g>
     </g>
    </g>
    <g id="ytick_14">
     <g id="line2d_22">
      <g>
       <use xlink:href="#mdab043e431" x="108" y="239.922" style="stroke: #000000; stroke-width: 0.8"/>
      </g>
     </g>
     <g id="text_22">
      <!-- 武汉天地四期B9 -->
      <g transform="translate(31 243.925906) scale(0.1 -0.1)">
       <defs>
        <path id="SimHei-39" d="M 800 75 
Q 1350 1000 1700 1750 
Q 1075 1650 662 1912 
Q 250 2175 162 2625 
Q 75 3075 175 3437 
Q 275 3800 487 4037 
Q 700 4275 1000 4375 
Q 1300 4475 1537 4475 
Q 1775 4475 2025 4375 
Q 2275 4275 2475 4075 
Q 2675 3875 2750 3662 
Q 2825 3450 2825 3112 
Q 2825 2775 2575 2250 
Q 2325 1725 1350 75 
L 800 75 
z
M 662 2875 
Q 700 2550 937 2337 
Q 1175 2125 1450 2150 
Q 1725 2175 1887 2300 
Q 2050 2425 2200 2725 
Q 2300 3100 2250 3362 
Q 2200 3625 1987 3800 
Q 1775 3975 1525 3975 
Q 1375 4000 1137 3900 
Q 900 3800 762 3500 
Q 625 3200 662 2875 
z
" transform="scale(0.015625)"/>
       </defs>
       <use xlink:href="#SimHei-6b66"/>
       <use xlink:href="#SimHei-6c49" x="100"/>
       <use xlink:href="#SimHei-5929" x="200"/>
       <use xlink:href="#SimHei-5730" x="300"/>
       <use xlink:href="#SimHei-56db" x="400"/>
       <use xlink:href="#SimHei-671f" x="500"/>
       <use xlink:href="#SimHei-42" x="600"/>
       <use xlink:href="#SimHei-39" x="650"/>
      </g>
     </g>
    </g>
    <g id="ytick_15">
     <g id="line2d_23">
      <g>
       <use xlink:href="#mdab043e431" x="108" y="214.974" style="stroke: #000000; stroke-width: 0.8"/>
      </g>
     </g>
     <g id="text_23">
      <!-- 武汉天地三期 -->
      <g transform="translate(41 218.977906) scale(0.1 -0.1)">
       <use xlink:href="#SimHei-6b66"/>
       <use xlink:href="#SimHei-6c49" x="100"/>
       <use xlink:href="#SimHei-5929" x="200"/>
       <use xlink:href="#SimHei-5730" x="300"/>
       <use xlink:href="#SimHei-4e09" x="400"/>
       <use xlink:href="#SimHei-671f" x="500"/>
      </g>
     </g>
    </g>
    <g id="ytick_16">
     <g id="line2d_24">
      <g>
       <use xlink:href="#mdab043e431" x="108" y="190.026" style="stroke: #000000; stroke-width: 0.8"/>
      </g>
     </g>
     <g id="text_24">
      <!-- 武汉天地云廷二期 -->
      <g transform="translate(21 194.029906) scale(0.1 -0.1)">
       <defs>
        <path id="SimHei-4e91" d="M 4925 50 
Q 2750 -125 2012 -212 
Q 1275 -300 1125 -350 
Q 1025 -75 900 200 
Q 1075 250 1375 600 
Q 1675 950 2087 1612 
Q 2500 2275 2550 2600 
L 1250 2600 
Q 950 2600 425 2575 
L 425 3050 
Q 950 3025 1325 3025 
L 5225 3025 
Q 5550 3025 5975 3050 
L 5975 2575 
Q 5575 2600 5200 2600 
L 2675 2600 
Q 2825 2500 3175 2275 
Q 3000 2100 2862 1900 
Q 2725 1700 2437 1275 
Q 2150 850 1600 200 
Q 2425 275 4650 425 
Q 4200 1025 3825 1425 
Q 4025 1575 4200 1750 
Q 5375 375 5700 -100 
Q 5525 -225 5275 -425 
Q 5100 -150 4925 50 
z
M 4525 4725 
Q 4900 4725 5300 4750 
L 5300 4250 
Q 4925 4275 4525 4275 
L 1900 4275 
Q 1600 4275 1225 4250 
L 1225 4750 
Q 1600 4725 1875 4725 
L 4525 4725 
z
" transform="scale(0.015625)"/>
        <path id="SimHei-5ef7" d="M 2375 4775 
Q 1950 3850 1425 2950 
L 2350 2950 
Q 2250 1625 1825 750 
Q 2125 475 2650 300 
Q 3175 125 3825 87 
Q 4475 50 5062 87 
Q 5650 125 6100 175 
Q 5925 -125 5900 -450 
Q 4875 -450 4150 -412 
Q 3425 -375 2750 -212 
Q 2075 -50 1550 375 
Q 1175 -75 750 -475 
Q 575 -275 325 -150 
Q 750 100 1200 700 
Q 850 1200 625 1925 
Q 850 1975 1100 2075 
Q 1225 1525 1500 1150 
Q 1775 1800 1850 2600 
Q 1175 2625 925 2500 
L 725 2925 
Q 975 3075 1225 3475 
Q 1475 3875 1700 4350 
Q 1050 4350 600 4325 
L 600 4800 
Q 1075 4775 1625 4775 
L 2375 4775 
z
M 5600 4525 
Q 4700 4450 4375 4400 
L 4375 3075 
L 4625 3075 
Q 5150 3075 5625 3100 
L 5625 2600 
Q 5150 2625 4625 2625 
L 4375 2625 
L 4375 1200 
Q 5300 1200 5800 1225 
L 5800 725 
Q 5450 750 4600 750 
L 3525 750 
Q 2925 750 2500 725 
L 2500 1225 
Q 2975 1200 3900 1200 
L 3900 2625 
L 3600 2625 
Q 3175 2625 2725 2600 
L 2725 3100 
Q 3275 3075 3600 3075 
L 3900 3075 
L 3900 4325 
Q 3125 4250 2825 4200 
Q 2700 4575 2600 4675 
Q 3275 4675 4087 4775 
Q 4900 4875 5350 5050 
Q 5475 4725 5600 4525 
z
" transform="scale(0.015625)"/>
       </defs>
       <use xlink:href="#SimHei-6b66"/>
       <use xlink:href="#SimHei-6c49" x="100"/>
       <use xlink:href="#SimHei-5929" x="200"/>
       <use xlink:href="#SimHei-5730" x="300"/>
       <use xlink:href="#SimHei-4e91" x="400"/>
       <use xlink:href="#SimHei-5ef7" x="500"/>
       <use xlink:href="#SimHei-4e8c" x="600"/>
       <use xlink:href="#SimHei-671f" x="700"/>
      </g>
     </g>
    </g>
    <g id="ytick_17">
     <g id="line2d_25">
      <g>
       <use xlink:href="#mdab043e431" x="108" y="165.078" style="stroke: #000000; stroke-width: 0.8"/>
      </g>
     </g>
     <g id="text_25">
      <!-- 武汉天地四期B9 -->
      <g transform="translate(31 169.081906) scale(0.1 -0.1)">
       <use xlink:href="#SimHei-6b66"/>
       <use xlink:href="#SimHei-6c49" x="100"/>
       <use xlink:href="#SimHei-5929" x="200"/>
       <use xlink:href="#SimHei-5730" x="300"/>
       <use xlink:href="#SimHei-56db" x="400"/>
       <use xlink:href="#SimHei-671f" x="500"/>
       <use xlink:href="#SimHei-42" x="600"/>
       <use xlink:href="#SimHei-39" x="650"/>
      </g>
     </g>
    </g>
    <g id="ytick_18">
     <g id="line2d_26">
      <g>
       <use xlink:href="#mdab043e431" x="108" y="140.13" style="stroke: #000000; stroke-width: 0.8"/>
      </g>
     </g>
     <g id="text_26">
      <!-- 金秋千秋 -->
      <g transform="translate(61 144.153437) scale(0.1 -0.1)">
       <defs>
        <path id="SimHei-91d1" d="M 1800 1250 
Q 2200 700 2500 225 
Q 2325 125 2150 -50 
L 2925 -50 
L 2925 1400 
L 2075 1400 
Q 1725 1400 1100 1375 
L 1100 1850 
Q 1725 1825 2050 1825 
L 2925 1825 
L 2925 2600 
Q 2100 2600 1625 2575 
L 1625 2975 
Q 1225 2675 650 2350 
Q 500 2575 275 2775 
Q 750 2950 1250 3300 
Q 1750 3650 2225 4162 
Q 2700 4675 3000 5250 
Q 3050 5200 3525 4975 
L 3375 4825 
Q 3650 4525 4050 4150 
Q 4450 3775 5000 3487 
Q 5550 3200 6150 3025 
Q 5950 2825 5825 2550 
Q 5325 2725 4800 3000 
L 4800 2575 
Q 4300 2600 4000 2600 
L 3400 2600 
L 3400 1825 
L 4275 1825 
Q 4700 1825 5325 1850 
L 5325 1375 
Q 4725 1400 4275 1400 
L 3400 1400 
L 3400 -50 
L 3875 -50 
Q 4450 950 4500 1300 
Q 4725 1150 5050 1000 
Q 4875 775 4375 -50 
Q 5150 -50 5875 -25 
L 5875 -500 
Q 5150 -475 4700 -475 
L 1725 -475 
Q 1200 -475 700 -500 
L 700 -25 
Q 1225 -50 1725 -50 
L 2025 -50 
Q 1850 350 1400 950 
Q 1625 1100 1800 1250 
z
M 1700 3050 
Q 2075 3025 2400 3025 
L 3900 3025 
Q 4275 3050 4700 3050 
Q 4275 3350 3837 3762 
Q 3400 4175 3125 4525 
Q 2850 4150 2462 3762 
Q 2075 3375 1700 3050 
z
" transform="scale(0.015625)"/>
        <path id="SimHei-79cb" d="M 1475 -650 
L 1475 1900 
Q 1125 1100 525 425 
Q 425 650 225 875 
Q 625 1275 912 1762 
Q 1200 2250 1350 2850 
Q 650 2850 325 2825 
L 325 3275 
Q 625 3250 1475 3250 
L 1475 4375 
Q 875 4275 575 4200 
Q 475 4450 350 4625 
Q 750 4650 1487 4812 
Q 2225 4975 2675 5200 
Q 2800 4925 3025 4750 
Q 2650 4675 1950 4500 
L 1950 3250 
Q 2325 3250 2825 3275 
L 2825 2825 
Q 2450 2850 1950 2850 
L 1950 175 
Q 1950 -300 1975 -650 
L 1475 -650 
z
M 5725 -675 
Q 5150 -150 4850 400 
Q 4550 950 4300 1725 
Q 4075 875 3675 300 
Q 3275 -275 2775 -700 
Q 2600 -475 2275 -350 
Q 3075 175 3462 912 
Q 3850 1650 3950 2400 
Q 4050 3150 4050 3900 
Q 4050 4675 4025 5250 
Q 4225 5250 4625 5200 
Q 4550 4950 4525 4450 
Q 4500 3950 4512 3362 
Q 4525 2775 4637 2162 
Q 4750 1550 5112 900 
Q 5475 250 6200 -300 
Q 5875 -400 5725 -675 
z
M 4850 2250 
Q 5150 3075 5250 3825 
Q 5450 3775 5825 3700 
Q 5750 3525 5625 3075 
L 5350 2125 
Q 5075 2225 4850 2250 
z
M 2900 2150 
Q 3050 2975 3075 3800 
Q 3300 3750 3600 3750 
Q 3575 3550 3512 3062 
Q 3450 2575 3375 2125 
Q 3100 2150 2900 2150 
z
M 2350 2300 
Q 2750 1875 3125 1425 
Q 2875 1225 2750 1100 
Q 2375 1650 2025 1975 
Q 2175 2100 2350 2300 
z
" transform="scale(0.015625)"/>
        <path id="SimHei-5343" d="M 750 4525 
Q 2150 4600 3187 4750 
Q 4225 4900 4875 5225 
Q 5025 4875 5250 4625 
Q 4950 4625 4425 4537 
Q 3900 4450 3425 4375 
L 3425 2575 
L 5100 2575 
Q 5525 2575 6000 2600 
L 6000 2125 
Q 5500 2150 5100 2150 
L 3425 2150 
L 3425 425 
Q 3425 -75 3450 -625 
L 2900 -625 
Q 2925 -75 2925 400 
L 2925 2150 
L 1275 2150 
Q 825 2150 375 2125 
L 375 2600 
Q 875 2575 1275 2575 
L 2925 2575 
L 2925 4275 
Q 2575 4225 2087 4175 
Q 1600 4125 1025 4050 
Q 950 4350 750 4525 
z
" transform="scale(0.015625)"/>
       </defs>
       <use xlink:href="#SimHei-91d1"/>
       <use xlink:href="#SimHei-79cb" x="100"/>
       <use xlink:href="#SimHei-5343" x="200"/>
       <use xlink:href="#SimHei-79cb" x="300"/>
      </g>
     </g>
    </g>
    <g id="ytick_19">
     <g id="line2d_27">
      <g>
       <use xlink:href="#mdab043e431" x="108" y="115.182" style="stroke: #000000; stroke-width: 0.8"/>
      </g>
     </g>
     <g id="text_27">
      <!-- 武汉天地三期 -->
      <g transform="translate(41 119.185906) scale(0.1 -0.1)">
       <use xlink:href="#SimHei-6b66"/>
       <use xlink:href="#SimHei-6c49" x="100"/>
       <use xlink:href="#SimHei-5929" x="200"/>
       <use xlink:href="#SimHei-5730" x="300"/>
       <use xlink:href="#SimHei-4e09" x="400"/>
       <use xlink:href="#SimHei-671f" x="500"/>
      </g>
     </g>
    </g>
    <g id="ytick_20">
     <g id="line2d_28">
      <g>
       <use xlink:href="#mdab043e431" x="108" y="90.234" style="stroke: #000000; stroke-width: 0.8"/>
      </g>
     </g>
     <g id="text_28">
      <!-- 绿城武汉黄浦湾 -->
      <g transform="translate(31 94.276969) scale(0.1 -0.1)">
       <use xlink:href="#SimHei-7eff"/>
       <use xlink:href="#SimHei-57ce" x="100"/>
       <use xlink:href="#SimHei-6b66" x="200"/>
       <use xlink:href="#SimHei-6c49" x="300"/>
       <use xlink:href="#SimHei-9ec4" x="400"/>
       <use xlink:href="#SimHei-6d66" x="500"/>
       <use xlink:href="#SimHei-6e7e" x="600"/>
      </g>
     </g>
    </g>
   </g>
   <g id="patch_23">
    <path d="M 108 576.72 
L 108 77.76 
" style="fill: none; stroke: #000000; stroke-width: 0.8; stroke-linejoin: miter; stroke-linecap: square"/>
   </g>
   <g id="patch_24">
    <path d="M 777.6 576.72 
L 777.6 77.76 
" style="fill: none; stroke: #000000; stroke-width: 0.8; stroke-linejoin: miter; stroke-linecap: square"/>
   </g>
   <g id="patch_25">
    <path d="M 108 576.72 
L 777.6 576.72 
" style="fill: none; stroke: #000000; stroke-width: 0.8; stroke-linejoin: miter; stroke-linecap: square"/>
   </g>
   <g id="patch_26">
    <path d="M 108 77.76 
L 777.6 77.76 
" style="fill: none; stroke: #000000; stroke-width: 0.8; stroke-linejoin: miter; stroke-linecap: square"/>
   </g>
   <g id="text_29">
    <!-- 武汉二手房单价最高Top20 -->
    <g transform="translate(339.3 71.76) scale(0.18 -0.18)">
     <defs>
      <path id="SimHei-624b" d="M 5525 4425 
Q 5175 4400 3550 4250 
L 3550 3250 
L 4675 3250 
Q 5100 3250 5525 3275 
L 5525 2800 
Q 5100 2800 4675 2825 
L 3550 2825 
L 3550 1900 
L 5325 1900 
Q 5700 1900 6100 1925 
L 6100 1450 
Q 5700 1475 5325 1475 
L 3550 1475 
L 3550 125 
Q 3575 -250 3312 -400 
Q 3050 -550 2425 -600 
Q 2400 -300 2175 -25 
Q 2650 -25 2850 37 
Q 3050 100 3025 350 
L 3025 1475 
L 1225 1475 
Q 775 1450 375 1450 
L 375 1925 
Q 800 1900 1225 1900 
L 3025 1900 
L 3025 2825 
L 1925 2825 
Q 1475 2825 1000 2800 
L 1000 3275 
Q 1450 3250 1925 3250 
L 3025 3250 
L 3025 4200 
Q 1725 4125 1050 4100 
Q 975 4375 825 4575 
Q 1725 4550 3162 4662 
Q 4600 4775 5200 5000 
Q 5350 4650 5525 4425 
z
" transform="scale(0.015625)"/>
      <path id="SimHei-623f" d="M 3175 2800 
Q 3500 2850 3700 2975 
Q 3925 2475 3975 2300 
L 5100 2300 
Q 5525 2300 6025 2325 
L 6025 1875 
Q 5525 1900 5100 1900 
L 3225 1900 
Q 3200 1550 3175 1325 
L 5525 1325 
Q 5475 950 5412 537 
Q 5350 125 5287 -112 
Q 5225 -350 5050 -437 
Q 4875 -525 4000 -600 
Q 3925 -275 3800 -50 
Q 4550 -100 4687 -25 
Q 4825 50 4875 250 
Q 4925 500 4975 900 
L 3100 900 
Q 2975 425 2612 0 
Q 2250 -425 1750 -725 
Q 1625 -500 1350 -325 
Q 1675 -200 1925 0 
Q 2175 200 2375 487 
Q 2575 775 2650 1137 
Q 2725 1500 2725 1900 
L 1500 1900 
Q 1475 1250 1262 562 
Q 1050 -125 750 -600 
Q 550 -375 275 -275 
Q 475 -50 687 387 
Q 900 825 975 1400 
Q 1050 1975 1050 2850 
Q 1050 3750 1025 4500 
L 3100 4500 
Q 3025 4750 2875 5100 
Q 3150 5175 3400 5275 
Q 3625 4700 3650 4500 
L 5575 4500 
Q 5550 4100 5550 3700 
Q 5550 3300 5575 3000 
L 1525 3000 
L 1525 2300 
L 3425 2300 
Q 3350 2600 3175 2800 
z
M 5100 3375 
L 5100 4100 
L 1525 4100 
L 1525 3375 
L 5100 3375 
z
" transform="scale(0.015625)"/>
      <path id="SimHei-5355" d="M 5275 4075 
L 5275 1525 
L 3400 1525 
L 3400 925 
L 5050 925 
Q 5600 925 6000 950 
L 6000 450 
Q 5575 475 5050 475 
L 3400 475 
Q 3400 -300 3425 -625 
L 2875 -625 
Q 2925 -300 2925 475 
L 1300 475 
Q 700 475 425 450 
L 425 950 
Q 675 925 1250 925 
L 2925 925 
L 2925 1525 
L 1125 1525 
Q 1150 1950 1150 2750 
Q 1150 3550 1125 4075 
L 3600 4075 
Q 3875 4650 4075 5250 
Q 4325 5125 4650 4975 
Q 4550 4850 4400 4587 
Q 4250 4325 4100 4075 
L 5275 4075 
z
M 4775 1925 
L 4775 2600 
L 3400 2600 
L 3400 1925 
L 4775 1925 
z
M 4775 3000 
L 4775 3650 
L 3400 3650 
L 3400 3000 
L 4775 3000 
z
M 2925 1925 
L 2925 2600 
L 1625 2600 
L 1625 1925 
L 2925 1925 
z
M 2925 3000 
L 2925 3650 
L 1625 3650 
L 1625 3000 
L 2925 3000 
z
M 2100 5225 
Q 2350 4950 2675 4350 
Q 2400 4225 2225 4125 
Q 1975 4675 1725 4975 
Q 1900 5075 2100 5225 
z
" transform="scale(0.015625)"/>
      <path id="SimHei-4ef7" d="M 2200 4975 
Q 2050 4725 1650 3775 
L 1650 450 
Q 1650 -225 1675 -650 
L 1175 -650 
Q 1175 -225 1200 450 
L 1200 2975 
Q 900 2425 650 2100 
Q 525 2275 225 2450 
Q 750 3025 1125 3800 
Q 1500 4575 1625 5175 
Q 1950 5025 2200 4975 
z
M 4175 4700 
Q 4850 3525 6150 2950 
Q 5925 2750 5775 2500 
Q 4725 3100 3950 4300 
Q 3300 3125 2250 2350 
Q 2125 2525 1900 2725 
Q 2825 3325 3250 4050 
Q 3675 4775 3750 5150 
Q 4150 4950 4325 4900 
L 4175 4700 
z
M 3475 2650 
Q 3400 2075 3325 1087 
Q 3250 100 2325 -675 
Q 2175 -450 1925 -300 
Q 2850 350 2912 1262 
Q 2975 2175 2950 2700 
Q 3275 2650 3475 2650 
z
M 5075 2700 
Q 5050 2150 5050 1725 
L 5050 150 
Q 5050 -225 5075 -650 
L 4550 -650 
Q 4575 -225 4575 175 
L 4575 1875 
Q 4575 2150 4550 2700 
L 5075 2700 
z
" transform="scale(0.015625)"/>
      <path id="SimHei-6700" d="M 475 275 
Q 675 300 1100 350 
L 1100 2450 
Q 775 2450 425 2425 
L 425 2850 
Q 775 2825 1125 2825 
L 5025 2825 
Q 5475 2825 5900 2850 
L 5900 2425 
Q 5475 2450 5025 2450 
L 3050 2450 
L 3050 675 
L 3400 775 
Q 3400 550 3425 400 
Q 3225 350 3050 325 
Q 3050 -125 3075 -550 
L 2600 -550 
Q 2625 -125 2625 250 
Q 2350 200 1812 87 
Q 1275 -25 650 -175 
Q 575 100 475 275 
z
M 5100 4925 
Q 5075 4600 5075 4325 
L 5075 3875 
Q 5075 3600 5100 3250 
L 1275 3250 
Q 1300 3600 1300 3875 
L 1300 4325 
Q 1300 4600 1275 4925 
L 5100 4925 
z
M 3300 2050 
Q 3750 2025 4125 2025 
L 5375 2025 
Q 5100 975 4725 400 
Q 5350 0 5925 -100 
Q 5700 -275 5650 -500 
Q 5025 -300 4475 150 
Q 4150 -200 3600 -575 
Q 3500 -425 3250 -275 
Q 3775 -100 4150 350 
Q 3725 775 3500 1675 
L 3300 1675 
L 3300 2050 
z
M 4600 4250 
L 4600 4600 
L 1750 4600 
L 1750 4250 
L 4600 4250 
z
M 4600 3575 
L 4600 3900 
L 1750 3900 
L 1750 3575 
L 4600 3575 
z
M 3900 1675 
Q 4000 1075 4400 625 
Q 4700 1050 4850 1675 
L 3900 1675 
z
M 2625 1250 
L 2625 1675 
L 1525 1675 
L 1525 1250 
L 2625 1250 
z
M 2625 575 
L 2625 925 
L 1525 925 
L 1525 425 
L 2625 575 
z
M 2625 2025 
L 2625 2450 
L 1525 2450 
L 1525 2025 
L 2625 2025 
z
" transform="scale(0.015625)"/>
      <path id="SimHei-9ad8" d="M 5825 -25 
Q 5850 -400 5550 -500 
Q 5250 -600 4975 -625 
Q 4875 -325 4725 -100 
Q 4975 -100 5175 -87 
Q 5375 -75 5350 250 
L 5350 1825 
L 1100 1825 
L 1100 -575 
L 600 -575 
Q 625 -225 625 850 
Q 625 1950 600 2200 
L 5850 2200 
Q 5825 1850 5825 1425 
L 5825 -25 
z
M 4925 3800 
Q 4900 3475 4900 3175 
Q 4900 2900 4925 2600 
L 1400 2600 
Q 1425 2825 1425 3175 
Q 1425 3525 1400 3800 
L 4925 3800 
z
M 4500 1400 
Q 4475 1125 4475 800 
Q 4475 500 4500 200 
L 1950 200 
Q 2000 500 2000 800 
Q 2000 1125 1950 1400 
L 4500 1400 
z
M 425 4600 
Q 750 4575 1125 4575 
L 2925 4575 
Q 2850 4875 2750 5100 
Q 3050 5125 3350 5200 
Q 3400 4950 3525 4575 
L 5250 4575 
Q 5600 4575 5975 4600 
L 5975 4150 
Q 5600 4175 5050 4175 
L 1150 4175 
Q 750 4175 425 4150 
L 425 4600 
z
M 4450 2975 
L 4450 3425 
L 1900 3425 
L 1900 2975 
L 4450 2975 
z
M 4025 550 
L 4025 1050 
L 2400 1050 
L 2400 550 
L 4025 550 
z
" transform="scale(0.015625)"/>
      <path id="SimHei-54" d="M 2850 3925 
L 1850 3925 
L 1850 125 
L 1275 125 
L 1275 3925 
L 275 3925 
L 275 4400 
L 2850 4400 
L 2850 3925 
z
" transform="scale(0.015625)"/>
      <path id="SimHei-6f" d="M 2925 1525 
Q 2925 875 2525 475 
Q 2125 75 1575 75 
Q 1025 75 625 475 
Q 225 875 225 1525 
Q 225 2175 625 2575 
Q 1025 2975 1575 2975 
Q 2125 2975 2525 2575 
Q 2925 2175 2925 1525 
z
M 2375 1525 
Q 2375 2025 2125 2275 
Q 1875 2525 1575 2525 
Q 1275 2525 1025 2275 
Q 775 2025 775 1525 
Q 775 1025 1025 775 
Q 1275 525 1575 525 
Q 1875 525 2125 775 
Q 2375 1025 2375 1525 
z
" transform="scale(0.015625)"/>
      <path id="SimHei-70" d="M 2825 1525 
Q 2825 800 2475 425 
Q 2125 50 1625 50 
Q 1350 50 1150 162 
Q 950 275 800 500 
L 800 -800 
L 300 -800 
L 300 2925 
L 800 2925 
L 800 2550 
Q 950 2775 1150 2875 
Q 1350 2975 1625 2975 
Q 2125 2975 2475 2612 
Q 2825 2250 2825 1525 
z
M 2275 1525 
Q 2275 2000 2087 2262 
Q 1900 2525 1525 2525 
Q 1225 2525 1012 2262 
Q 800 2000 800 1525 
Q 800 1050 1012 775 
Q 1225 500 1525 500 
Q 1900 500 2087 775 
Q 2275 1050 2275 1525 
z
" transform="scale(0.015625)"/>
     </defs>
     <use xlink:href="#SimHei-6b66"/>
     <use xlink:href="#SimHei-6c49" x="100"/>
     <use xlink:href="#SimHei-4e8c" x="200"/>
     <use xlink:href="#SimHei-624b" x="300"/>
     <use xlink:href="#SimHei-623f" x="400"/>
     <use xlink:href="#SimHei-5355" x="500"/>
     <use xlink:href="#SimHei-4ef7" x="600"/>
     <use xlink:href="#SimHei-6700" x="700"/>
     <use xlink:href="#SimHei-9ad8" x="800"/>
     <use xlink:href="#SimHei-54" x="900"/>
     <use xlink:href="#SimHei-6f" x="950"/>
     <use xlink:href="#SimHei-70" x="1000"/>
     <use xlink:href="#SimHei-32" x="1050"/>
     <use xlink:href="#SimHei-30" x="1100"/>
    </g>
   </g>
  </g>
 </g>
 <defs>
  <clipPath id="pdc3780a2af">
   <rect x="108" y="77.76" width="669.6" height="498.96"/>
  </clipPath>
 </defs>
</svg>
