<?xml version="1.0" encoding="utf-8" standalone="no"?>
<!DOCTYPE svg PUBLIC "-//W3C//DTD SVG 1.1//EN"
  "http://www.w3.org/Graphics/SVG/1.1/DTD/svg11.dtd">
<svg xmlns:xlink="http://www.w3.org/1999/xlink" width="864pt" height="504pt" viewBox="0 0 864 504" xmlns="http://www.w3.org/2000/svg" version="1.1">
 <metadata>
  <rdf:RDF xmlns:dc="http://purl.org/dc/elements/1.1/" xmlns:cc="http://creativecommons.org/ns#" xmlns:rdf="http://www.w3.org/1999/02/22-rdf-syntax-ns#">
   <cc:Work>
    <dc:type rdf:resource="http://purl.org/dc/dcmitype/StillImage"/>
    <dc:date>2023-05-03T23:36:42.958833</dc:date>
    <dc:format>image/svg+xml</dc:format>
    <dc:creator>
     <cc:Agent>
      <dc:title>Matplotlib v3.7.1, https://matplotlib.org/</dc:title>
     </cc:Agent>
    </dc:creator>
   </cc:Work>
  </rdf:RDF>
 </metadata>
 <defs>
  <style type="text/css">*{stroke-linejoin: round; stroke-linecap: butt}</style>
 </defs>
 <g id="figure_1">
  <g id="patch_1">
   <path d="M 0 504 
L 864 504 
L 864 0 
L 0 0 
z
" style="fill: #ffffff"/>
  </g>
  <g id="axes_1">
   <g id="patch_2">
    <path d="M 108 448.56 
L 777.6 448.56 
L 777.6 60.48 
L 108 60.48 
z
" style="fill: #ffffff"/>
   </g>
   <g id="patch_3">
    <path d="M 118.4625 448.56 
L 139.3875 448.56 
L 139.3875 78.96 
L 118.4625 78.96 
z
" clip-path="url(#pb3d1db7b0e)" style="fill: #1f77b4"/>
   </g>
   <g id="patch_4">
    <path d="M 160.3125 448.56 
L 181.2375 448.56 
L 181.2375 79.904578 
L 160.3125 79.904578 
z
" clip-path="url(#pb3d1db7b0e)" style="fill: #1f77b4"/>
   </g>
   <g id="patch_5">
    <path d="M 202.1625 448.56 
L 223.0875 448.56 
L 223.0875 356.396145 
L 202.1625 356.396145 
z
" clip-path="url(#pb3d1db7b0e)" style="fill: #1f77b4"/>
   </g>
   <g id="patch_6">
    <path d="M 244.0125 448.56 
L 264.9375 448.56 
L 264.9375 432.906988 
L 244.0125 432.906988 
z
" clip-path="url(#pb3d1db7b0e)" style="fill: #1f77b4"/>
   </g>
   <g id="patch_7">
    <path d="M 285.8625 448.56 
L 306.7875 448.56 
L 306.7875 437.49494 
L 285.8625 437.49494 
z
" clip-path="url(#pb3d1db7b0e)" style="fill: #1f77b4"/>
   </g>
   <g id="patch_8">
    <path d="M 327.7125 448.56 
L 348.6375 448.56 
L 348.6375 438.844337 
L 327.7125 438.844337 
z
" clip-path="url(#pb3d1db7b0e)" style="fill: #1f77b4"/>
   </g>
   <g id="patch_9">
    <path d="M 369.5625 448.56 
L 390.4875 448.56 
L 390.4875 441.273253 
L 369.5625 441.273253 
z
" clip-path="url(#pb3d1db7b0e)" style="fill: #1f77b4"/>
   </g>
   <g id="patch_10">
    <path d="M 411.4125 448.56 
L 432.3375 448.56 
L 432.3375 441.813012 
L 411.4125 441.813012 
z
" clip-path="url(#pb3d1db7b0e)" style="fill: #1f77b4"/>
   </g>
   <g id="patch_11">
    <path d="M 453.2625 448.56 
L 474.1875 448.56 
L 474.1875 442.487711 
L 453.2625 442.487711 
z
" clip-path="url(#pb3d1db7b0e)" style="fill: #1f77b4"/>
   </g>
   <g id="patch_12">
    <path d="M 495.1125 448.56 
L 516.0375 448.56 
L 516.0375 443.02747 
L 495.1125 443.02747 
z
" clip-path="url(#pb3d1db7b0e)" style="fill: #1f77b4"/>
   </g>
   <g id="patch_13">
    <path d="M 536.9625 448.56 
L 557.8875 448.56 
L 557.8875 443.16241 
L 536.9625 443.16241 
z
" clip-path="url(#pb3d1db7b0e)" style="fill: #1f77b4"/>
   </g>
   <g id="patch_14">
    <path d="M 578.8125 448.56 
L 599.7375 448.56 
L 599.7375 445.051566 
L 578.8125 445.051566 
z
" clip-path="url(#pb3d1db7b0e)" style="fill: #1f77b4"/>
   </g>
   <g id="patch_15">
    <path d="M 620.6625 448.56 
L 641.5875 448.56 
L 641.5875 445.456386 
L 620.6625 445.456386 
z
" clip-path="url(#pb3d1db7b0e)" style="fill: #1f77b4"/>
   </g>
   <g id="patch_16">
    <path d="M 662.5125 448.56 
L 683.4375 448.56 
L 683.4375 445.996145 
L 662.5125 445.996145 
z
" clip-path="url(#pb3d1db7b0e)" style="fill: #1f77b4"/>
   </g>
   <g id="patch_17">
    <path d="M 704.3625 448.56 
L 725.2875 448.56 
L 725.2875 446.131084 
L 704.3625 446.131084 
z
" clip-path="url(#pb3d1db7b0e)" style="fill: #1f77b4"/>
   </g>
   <g id="patch_18">
    <path d="M 746.2125 448.56 
L 767.1375 448.56 
L 767.1375 441.678072 
L 746.2125 441.678072 
z
" clip-path="url(#pb3d1db7b0e)" style="fill: #1f77b4"/>
   </g>
   <g id="matplotlib.axis_1">
    <g id="xtick_1">
     <g id="line2d_1">
      <defs>
       <path id="mca1cb86bf7" d="M 0 0 
L 0 3.5 
" style="stroke: #000000; stroke-width: 0.8"/>
      </defs>
      <g>
       <use xlink:href="#mca1cb86bf7" x="128.925" y="448.56" style="stroke: #000000; stroke-width: 0.8"/>
      </g>
     </g>
     <g id="text_1">
      <!-- 南 北 -->
      <g transform="translate(132.95625 485.56) rotate(-90) scale(0.12 -0.12)">
       <defs>
        <path id="SimHei-5357" d="M 4550 -100 
Q 4925 -100 5100 -87 
Q 5275 -75 5225 175 
L 5225 3075 
L 1125 3075 
L 1125 -600 
L 575 -600 
Q 625 25 625 675 
L 625 2200 
Q 625 2800 575 3450 
L 2750 3450 
L 2875 4150 
L 1875 4150 
Q 1250 4150 425 4100 
L 425 4575 
Q 1000 4525 1700 4525 
L 2925 4525 
Q 3000 5000 3000 5275 
Q 3325 5200 3575 5175 
Q 3475 4900 3425 4525 
L 5100 4525 
Q 5525 4525 6025 4550 
L 6025 4125 
Q 5550 4150 5100 4150 
L 3375 4150 
L 3250 3450 
L 5775 3450 
Q 5725 2875 5725 2425 
L 5725 -75 
Q 5700 -425 5425 -487 
Q 5150 -550 4800 -625 
Q 4725 -350 4550 -100 
z
M 1625 2025 
Q 1975 1975 2500 1975 
L 3350 1975 
Q 3500 2175 3600 2375 
Q 3700 2575 3875 2900 
Q 4125 2775 4450 2650 
Q 4250 2575 4137 2375 
Q 4025 2175 3875 1975 
L 4175 1975 
Q 4425 1975 4775 2000 
L 4775 1575 
Q 4450 1600 4025 1600 
L 3450 1600 
L 3450 1100 
L 4175 1100 
Q 4700 1100 4950 1125 
L 4950 675 
Q 4700 700 4175 700 
L 3450 700 
L 3450 275 
Q 3450 -50 3475 -375 
L 2925 -375 
Q 2950 -100 2950 275 
L 2950 700 
L 2275 700 
Q 1725 700 1425 675 
L 1425 1150 
Q 1800 1100 2225 1100 
L 2950 1100 
L 2950 1600 
L 2500 1600 
Q 2000 1600 1625 1575 
L 1625 2025 
z
M 2850 2325 
Q 2650 2200 2450 2050 
Q 2350 2250 2225 2412 
Q 2100 2575 1975 2700 
Q 2125 2775 2325 2950 
Q 2475 2775 2587 2650 
Q 2700 2525 2850 2325 
z
" transform="scale(0.015625)"/>
        <path id="SimHei-20" transform="scale(0.015625)"/>
        <path id="SimHei-5317" d="M 4100 5025 
Q 4075 4775 4075 4525 
L 4075 2825 
Q 4950 3225 5600 3800 
Q 5750 3550 6000 3325 
Q 5725 3200 5125 2887 
Q 4525 2575 4075 2375 
L 4075 500 
Q 4075 100 4450 75 
L 5075 75 
Q 5325 50 5425 162 
Q 5525 275 5625 800 
Q 5825 600 6200 550 
Q 6000 25 5837 -162 
Q 5675 -350 5375 -350 
L 4275 -350 
Q 3575 -350 3600 400 
L 3600 4525 
Q 3600 4775 3575 5025 
L 4100 5025 
z
M 2175 3225 
L 2175 4500 
Q 2175 4700 2150 5025 
L 2675 5025 
Q 2650 4700 2650 4475 
L 2650 300 
Q 2650 25 2675 -475 
L 2150 -475 
Q 2175 25 2175 475 
Q 1650 350 1225 212 
Q 800 75 600 -50 
Q 475 225 300 500 
Q 575 525 1200 675 
Q 1825 825 2175 925 
L 2175 2800 
L 1275 2800 
Q 975 2800 600 2775 
L 600 3250 
Q 975 3225 1275 3225 
L 2175 3225 
z
" transform="scale(0.015625)"/>
       </defs>
       <use xlink:href="#SimHei-5357"/>
       <use xlink:href="#SimHei-20" x="100"/>
       <use xlink:href="#SimHei-5317" x="150"/>
      </g>
     </g>
    </g>
    <g id="xtick_2">
     <g id="line2d_2">
      <g>
       <use xlink:href="#mca1cb86bf7" x="170.775" y="448.56" style="stroke: #000000; stroke-width: 0.8"/>
      </g>
     </g>
     <g id="text_2">
      <!-- 南 -->
      <g transform="translate(174.80625 467.56) rotate(-90) scale(0.12 -0.12)">
       <use xlink:href="#SimHei-5357"/>
      </g>
     </g>
    </g>
    <g id="xtick_3">
     <g id="line2d_3">
      <g>
       <use xlink:href="#mca1cb86bf7" x="212.625" y="448.56" style="stroke: #000000; stroke-width: 0.8"/>
      </g>
     </g>
     <g id="text_3">
      <!-- 东南 -->
      <g transform="translate(216.65625 479.56) rotate(-90) scale(0.12 -0.12)">
       <defs>
        <path id="SimHei-4e1c" d="M 2250 4100 
Q 2650 4825 2775 5250 
L 3350 5000 
Q 3150 4750 2800 4100 
L 4550 4100 
Q 5100 4100 5625 4125 
L 5625 3650 
Q 5275 3675 4900 3675 
L 2625 3675 
Q 2275 3125 1675 2300 
L 3150 2300 
Q 3150 2800 3125 3250 
L 3700 3250 
Q 3675 2975 3675 2300 
L 4650 2300 
Q 5075 2300 5550 2325 
L 5550 1875 
Q 5150 1900 4675 1900 
L 3675 1900 
L 3675 75 
Q 3675 -325 3375 -437 
Q 3075 -550 2600 -625 
Q 2525 -300 2325 -50 
Q 2875 -50 3012 0 
Q 3150 50 3150 350 
L 3150 1900 
L 2050 1900 
Q 1450 1900 1050 1825 
Q 975 2075 850 2325 
Q 1125 2425 1400 2762 
Q 1675 3100 2025 3675 
L 1325 3675 
Q 900 3675 675 3650 
L 675 4125 
Q 875 4100 1250 4100 
L 2250 4100 
z
M 1725 425 
Q 1300 0 900 -425 
Q 750 -225 500 -50 
Q 1475 800 1850 1450 
Q 2025 1250 2350 1050 
L 1725 425 
z
M 4625 1400 
Q 4875 1175 5275 800 
Q 5675 425 5975 100 
Q 5875 25 5525 -300 
Q 5150 175 4250 1025 
Q 4525 1250 4625 1400 
z
" transform="scale(0.015625)"/>
       </defs>
       <use xlink:href="#SimHei-4e1c"/>
       <use xlink:href="#SimHei-5357" x="100"/>
      </g>
     </g>
    </g>
    <g id="xtick_4">
     <g id="line2d_4">
      <g>
       <use xlink:href="#mca1cb86bf7" x="254.475" y="448.56" style="stroke: #000000; stroke-width: 0.8"/>
      </g>
     </g>
     <g id="text_4">
      <!-- 西南 -->
      <g transform="translate(258.50625 479.56) rotate(-90) scale(0.12 -0.12)">
       <defs>
        <path id="SimHei-897f" d="M 5150 4750 
Q 5525 4750 5950 4775 
L 5950 4350 
Q 5675 4375 5150 4375 
L 4025 4375 
L 4025 3350 
L 5450 3350 
Q 5425 2950 5425 2375 
L 5425 425 
Q 5425 0 5450 -550 
L 5000 -550 
L 5000 -50 
L 1450 -50 
L 1450 -575 
L 975 -575 
Q 1000 175 1000 550 
L 1000 2375 
Q 1000 2875 975 3350 
L 2375 3350 
L 2375 4375 
L 1425 4375 
Q 975 4375 450 4350 
L 450 4775 
Q 975 4750 1400 4750 
L 5150 4750 
z
M 5000 325 
L 5000 2950 
L 4025 2950 
L 4025 1975 
Q 4000 1675 4100 1625 
Q 4200 1575 4875 1650 
Q 4825 1375 4800 1125 
Q 3975 1075 3775 1187 
Q 3575 1300 3600 1700 
L 3600 2950 
L 2800 2950 
Q 2750 2125 2525 1650 
Q 2300 1175 2000 875 
Q 1850 1050 1575 1175 
Q 1950 1475 2150 1912 
Q 2350 2350 2375 2950 
L 1450 2950 
L 1450 325 
L 5000 325 
z
M 3600 3350 
L 3600 4375 
L 2800 4375 
L 2800 3350 
L 3600 3350 
z
" transform="scale(0.015625)"/>
       </defs>
       <use xlink:href="#SimHei-897f"/>
       <use xlink:href="#SimHei-5357" x="100"/>
      </g>
     </g>
    </g>
    <g id="xtick_5">
     <g id="line2d_5">
      <g>
       <use xlink:href="#mca1cb86bf7" x="296.325" y="448.56" style="stroke: #000000; stroke-width: 0.8"/>
      </g>
     </g>
     <g id="text_5">
      <!-- 北 -->
      <g transform="translate(299.98125 467.56) rotate(-90) scale(0.12 -0.12)">
       <use xlink:href="#SimHei-5317"/>
      </g>
     </g>
    </g>
    <g id="xtick_6">
     <g id="line2d_6">
      <g>
       <use xlink:href="#mca1cb86bf7" x="338.175" y="448.56" style="stroke: #000000; stroke-width: 0.8"/>
      </g>
     </g>
     <g id="text_6">
      <!-- 东 -->
      <g transform="translate(342.182813 467.56) rotate(-90) scale(0.12 -0.12)">
       <use xlink:href="#SimHei-4e1c"/>
      </g>
     </g>
    </g>
    <g id="xtick_7">
     <g id="line2d_7">
      <g>
       <use xlink:href="#mca1cb86bf7" x="380.025" y="448.56" style="stroke: #000000; stroke-width: 0.8"/>
      </g>
     </g>
     <g id="text_7">
      <!-- 北 南 -->
      <g transform="translate(384.05625 485.56) rotate(-90) scale(0.12 -0.12)">
       <use xlink:href="#SimHei-5317"/>
       <use xlink:href="#SimHei-20" x="100"/>
       <use xlink:href="#SimHei-5357" x="150"/>
      </g>
     </g>
    </g>
    <g id="xtick_8">
     <g id="line2d_8">
      <g>
       <use xlink:href="#mca1cb86bf7" x="421.875" y="448.56" style="stroke: #000000; stroke-width: 0.8"/>
      </g>
     </g>
     <g id="text_8">
      <!-- 东 西 -->
      <g transform="translate(425.882812 485.56) rotate(-90) scale(0.12 -0.12)">
       <use xlink:href="#SimHei-4e1c"/>
       <use xlink:href="#SimHei-20" x="100"/>
       <use xlink:href="#SimHei-897f" x="150"/>
      </g>
     </g>
    </g>
    <g id="xtick_9">
     <g id="line2d_9">
      <g>
       <use xlink:href="#mca1cb86bf7" x="463.725" y="448.56" style="stroke: #000000; stroke-width: 0.8"/>
      </g>
     </g>
     <g id="text_9">
      <!-- 东南 南 -->
      <g transform="translate(467.75625 497.56) rotate(-90) scale(0.12 -0.12)">
       <use xlink:href="#SimHei-4e1c"/>
       <use xlink:href="#SimHei-5357" x="100"/>
       <use xlink:href="#SimHei-20" x="200"/>
       <use xlink:href="#SimHei-5357" x="250"/>
      </g>
     </g>
    </g>
    <g id="xtick_10">
     <g id="line2d_10">
      <g>
       <use xlink:href="#mca1cb86bf7" x="505.575" y="448.56" style="stroke: #000000; stroke-width: 0.8"/>
      </g>
     </g>
     <g id="text_10">
      <!-- 西 -->
      <g transform="translate(509.090625 467.56) rotate(-90) scale(0.12 -0.12)">
       <use xlink:href="#SimHei-897f"/>
      </g>
     </g>
    </g>
    <g id="xtick_11">
     <g id="line2d_11">
      <g>
       <use xlink:href="#mca1cb86bf7" x="547.425" y="448.56" style="stroke: #000000; stroke-width: 0.8"/>
      </g>
     </g>
     <g id="text_11">
      <!-- 东 南 -->
      <g transform="translate(551.45625 485.56) rotate(-90) scale(0.12 -0.12)">
       <use xlink:href="#SimHei-4e1c"/>
       <use xlink:href="#SimHei-20" x="100"/>
       <use xlink:href="#SimHei-5357" x="150"/>
      </g>
     </g>
    </g>
    <g id="xtick_12">
     <g id="line2d_12">
      <g>
       <use xlink:href="#mca1cb86bf7" x="589.275" y="448.56" style="stroke: #000000; stroke-width: 0.8"/>
      </g>
     </g>
     <g id="text_12">
      <!-- 西北 -->
      <g transform="translate(593.025 479.56) rotate(-90) scale(0.12 -0.12)">
       <use xlink:href="#SimHei-897f"/>
       <use xlink:href="#SimHei-5317" x="100"/>
      </g>
     </g>
    </g>
    <g id="xtick_13">
     <g id="line2d_13">
      <g>
       <use xlink:href="#mca1cb86bf7" x="631.125" y="448.56" style="stroke: #000000; stroke-width: 0.8"/>
      </g>
     </g>
     <g id="text_13">
      <!-- 东北 -->
      <g transform="translate(635.132812 479.56) rotate(-90) scale(0.12 -0.12)">
       <use xlink:href="#SimHei-4e1c"/>
       <use xlink:href="#SimHei-5317" x="100"/>
      </g>
     </g>
    </g>
    <g id="xtick_14">
     <g id="line2d_14">
      <g>
       <use xlink:href="#mca1cb86bf7" x="672.975" y="448.56" style="stroke: #000000; stroke-width: 0.8"/>
      </g>
     </g>
     <g id="text_14">
      <!-- 南 西 -->
      <g transform="translate(677.00625 485.56) rotate(-90) scale(0.12 -0.12)">
       <use xlink:href="#SimHei-5357"/>
       <use xlink:href="#SimHei-20" x="100"/>
       <use xlink:href="#SimHei-897f" x="150"/>
      </g>
     </g>
    </g>
    <g id="xtick_15">
     <g id="line2d_15">
      <g>
       <use xlink:href="#mca1cb86bf7" x="714.825" y="448.56" style="stroke: #000000; stroke-width: 0.8"/>
      </g>
     </g>
     <g id="text_15">
      <!-- 南 西南 -->
      <g transform="translate(718.85625 497.56) rotate(-90) scale(0.12 -0.12)">
       <use xlink:href="#SimHei-5357"/>
       <use xlink:href="#SimHei-20" x="100"/>
       <use xlink:href="#SimHei-897f" x="150"/>
       <use xlink:href="#SimHei-5357" x="250"/>
      </g>
     </g>
    </g>
    <g id="xtick_16">
     <g id="line2d_16">
      <g>
       <use xlink:href="#mca1cb86bf7" x="756.675" y="448.56" style="stroke: #000000; stroke-width: 0.8"/>
      </g>
     </g>
     <g id="text_16">
      <!-- 其他 -->
      <g transform="translate(760.635937 479.56) rotate(-90) scale(0.12 -0.12)">
       <defs>
        <path id="SimHei-5176" d="M 4725 1375 
Q 5550 1375 6025 1400 
L 6025 1000 
Q 5575 1025 5250 1025 
L 1225 1025 
Q 675 1025 325 1000 
L 325 1400 
Q 525 1375 1650 1375 
L 1650 3950 
Q 1050 3950 675 3925 
L 675 4350 
Q 875 4325 1650 4325 
Q 1650 4875 1625 5125 
L 2225 5125 
Q 2175 4850 2175 4325 
L 4200 4325 
Q 4200 4775 4175 5100 
L 4750 5100 
Q 4725 4775 4725 4325 
Q 5275 4325 5675 4350 
L 5675 3925 
Q 5250 3950 4725 3950 
L 4725 1375 
z
M 4200 1375 
L 4200 2000 
L 2175 2000 
L 2175 1375 
L 4200 1375 
z
M 4200 2375 
L 4200 3000 
L 2175 3000 
L 2175 2375 
L 4200 2375 
z
M 4200 3350 
L 4200 3950 
L 2175 3950 
L 2175 3350 
L 4200 3350 
z
M 4175 875 
Q 5200 225 5750 -225 
Q 5500 -400 5325 -625 
Q 5025 -250 3825 500 
Q 4075 700 4175 875 
z
M 525 -275 
Q 800 -125 1275 212 
Q 1750 550 2075 875 
Q 2275 675 2475 500 
Q 2200 300 900 -650 
Q 750 -425 525 -275 
z
" transform="scale(0.015625)"/>
        <path id="SimHei-4ed6" d="M 2500 2875 
Q 2500 3850 2475 4225 
L 3000 4225 
Q 2975 3900 2975 3025 
L 3775 3275 
L 3775 4300 
Q 3775 4800 3725 5150 
L 4250 5150 
Q 4225 4800 4225 4275 
L 4225 3450 
L 5575 3925 
Q 5550 2600 5550 2075 
Q 5550 1550 5275 1425 
Q 5000 1300 4575 1225 
Q 4525 1475 4375 1750 
Q 4850 1750 4950 1787 
Q 5050 1825 5050 2025 
L 5075 3275 
L 4225 2975 
L 4225 1375 
Q 4225 950 4250 650 
L 3750 650 
Q 3775 950 3775 1375 
L 3775 2850 
L 2975 2575 
L 2975 425 
Q 2975 75 3325 100 
L 5100 100 
Q 5300 100 5400 212 
Q 5500 325 5550 925 
Q 5850 700 6125 650 
Q 5950 0 5750 -175 
Q 5550 -350 5175 -325 
L 3225 -325 
Q 2550 -350 2500 275 
L 2500 2425 
Q 2125 2300 1900 2175 
L 1700 2650 
Q 2025 2700 2500 2875 
z
M 2250 4925 
Q 2025 4625 1650 3775 
L 1650 475 
Q 1650 -150 1700 -575 
L 1175 -575 
Q 1200 -150 1200 475 
L 1200 2925 
Q 875 2325 700 2050 
Q 525 2275 300 2400 
Q 625 2750 1062 3637 
Q 1500 4525 1650 5175 
Q 2050 5000 2250 4925 
z
" transform="scale(0.015625)"/>
       </defs>
       <use xlink:href="#SimHei-5176"/>
       <use xlink:href="#SimHei-4ed6" x="100"/>
      </g>
     </g>
    </g>
   </g>
   <g id="matplotlib.axis_2">
    <g id="ytick_1">
     <g id="line2d_17">
      <defs>
       <path id="m62c418cfdc" d="M 0 0 
L -3.5 0 
" style="stroke: #000000; stroke-width: 0.8"/>
      </defs>
      <g>
       <use xlink:href="#m62c418cfdc" x="108" y="448.56" style="stroke: #000000; stroke-width: 0.8"/>
      </g>
     </g>
     <g id="text_17">
      <!-- 0 -->
      <g transform="translate(95 452.685) scale(0.12 -0.12)">
       <defs>
        <path id="SimHei-30" d="M 225 2537 
Q 250 3200 412 3587 
Q 575 3975 875 4225 
Q 1175 4475 1612 4475 
Q 2050 4475 2375 4112 
Q 2700 3750 2800 3200 
Q 2900 2650 2862 1937 
Q 2825 1225 2612 775 
Q 2400 325 1975 150 
Q 1550 -25 1125 187 
Q 700 400 525 750 
Q 350 1100 275 1487 
Q 200 1875 225 2537 
z
M 750 2687 
Q 675 2000 800 1462 
Q 925 925 1212 700 
Q 1500 475 1800 612 
Q 2100 750 2237 1162 
Q 2375 1575 2375 2062 
Q 2375 2550 2337 2950 
Q 2300 3350 2112 3675 
Q 1925 4000 1612 4012 
Q 1300 4025 1062 3700 
Q 825 3375 750 2687 
z
" transform="scale(0.015625)"/>
       </defs>
       <use xlink:href="#SimHei-30"/>
      </g>
     </g>
    </g>
    <g id="ytick_2">
     <g id="line2d_18">
      <g>
       <use xlink:href="#m62c418cfdc" x="108" y="381.09012" style="stroke: #000000; stroke-width: 0.8"/>
      </g>
     </g>
     <g id="text_18">
      <!-- 500 -->
      <g transform="translate(83 385.21512) scale(0.12 -0.12)">
       <defs>
        <path id="SimHei-35" d="M 550 1325 
Q 725 650 1150 575 
Q 1575 500 1837 662 
Q 2100 825 2212 1087 
Q 2325 1350 2312 1675 
Q 2300 2000 2137 2225 
Q 1975 2450 1725 2525 
Q 1475 2600 1162 2525 
Q 850 2450 650 2175 
L 225 2225 
Q 275 2375 700 4375 
L 2675 4375 
L 2675 3925 
L 1075 3925 
Q 950 3250 825 2850 
Q 1200 3025 1525 3012 
Q 1850 3000 2150 2862 
Q 2450 2725 2587 2487 
Q 2725 2250 2787 2012 
Q 2850 1775 2837 1500 
Q 2825 1225 2725 937 
Q 2625 650 2425 462 
Q 2225 275 1937 162 
Q 1650 50 1275 75 
Q 900 100 562 350 
Q 225 600 100 1200 
L 550 1325 
z
" transform="scale(0.015625)"/>
       </defs>
       <use xlink:href="#SimHei-35"/>
       <use xlink:href="#SimHei-30" x="50"/>
       <use xlink:href="#SimHei-30" x="100"/>
      </g>
     </g>
    </g>
    <g id="ytick_3">
     <g id="line2d_19">
      <g>
       <use xlink:href="#m62c418cfdc" x="108" y="313.620241" style="stroke: #000000; stroke-width: 0.8"/>
      </g>
     </g>
     <g id="text_19">
      <!-- 1000 -->
      <g transform="translate(77 317.745241) scale(0.12 -0.12)">
       <defs>
        <path id="SimHei-31" d="M 1400 3600 
Q 1075 3275 575 2975 
L 575 3450 
Q 1200 3875 1600 4450 
L 1900 4450 
L 1900 150 
L 1400 150 
L 1400 3600 
z
" transform="scale(0.015625)"/>
       </defs>
       <use xlink:href="#SimHei-31"/>
       <use xlink:href="#SimHei-30" x="50"/>
       <use xlink:href="#SimHei-30" x="100"/>
       <use xlink:href="#SimHei-30" x="150"/>
      </g>
     </g>
    </g>
    <g id="ytick_4">
     <g id="line2d_20">
      <g>
       <use xlink:href="#m62c418cfdc" x="108" y="246.150361" style="stroke: #000000; stroke-width: 0.8"/>
      </g>
     </g>
     <g id="text_20">
      <!-- 1500 -->
      <g transform="translate(77 250.275361) scale(0.12 -0.12)">
       <use xlink:href="#SimHei-31"/>
       <use xlink:href="#SimHei-35" x="50"/>
       <use xlink:href="#SimHei-30" x="100"/>
       <use xlink:href="#SimHei-30" x="150"/>
      </g>
     </g>
    </g>
    <g id="ytick_5">
     <g id="line2d_21">
      <g>
       <use xlink:href="#m62c418cfdc" x="108" y="178.680482" style="stroke: #000000; stroke-width: 0.8"/>
      </g>
     </g>
     <g id="text_21">
      <!-- 2000 -->
      <g transform="translate(77 182.805482) scale(0.12 -0.12)">
       <defs>
        <path id="SimHei-32" d="M 300 250 
Q 325 625 650 925 
Q 975 1225 1475 1862 
Q 1975 2500 2125 2850 
Q 2275 3200 2237 3450 
Q 2200 3700 2000 3862 
Q 1800 4025 1537 4000 
Q 1275 3975 1037 3800 
Q 800 3625 675 3275 
L 200 3350 
Q 400 3925 712 4187 
Q 1025 4450 1450 4475 
Q 1700 4500 1900 4462 
Q 2100 4425 2312 4287 
Q 2525 4150 2662 3875 
Q 2800 3600 2762 3212 
Q 2725 2825 2375 2287 
Q 2025 1750 1025 600 
L 2825 600 
L 2825 150 
L 300 150 
L 300 250 
z
" transform="scale(0.015625)"/>
       </defs>
       <use xlink:href="#SimHei-32"/>
       <use xlink:href="#SimHei-30" x="50"/>
       <use xlink:href="#SimHei-30" x="100"/>
       <use xlink:href="#SimHei-30" x="150"/>
      </g>
     </g>
    </g>
    <g id="ytick_6">
     <g id="line2d_22">
      <g>
       <use xlink:href="#m62c418cfdc" x="108" y="111.210602" style="stroke: #000000; stroke-width: 0.8"/>
      </g>
     </g>
     <g id="text_22">
      <!-- 2500 -->
      <g transform="translate(77 115.335602) scale(0.12 -0.12)">
       <use xlink:href="#SimHei-32"/>
       <use xlink:href="#SimHei-35" x="50"/>
       <use xlink:href="#SimHei-30" x="100"/>
       <use xlink:href="#SimHei-30" x="150"/>
      </g>
     </g>
    </g>
   </g>
   <g id="patch_19">
    <path d="M 108 448.56 
L 108 60.48 
" style="fill: none; stroke: #000000; stroke-width: 0.8; stroke-linejoin: miter; stroke-linecap: square"/>
   </g>
   <g id="patch_20">
    <path d="M 777.6 448.56 
L 777.6 60.48 
" style="fill: none; stroke: #000000; stroke-width: 0.8; stroke-linejoin: miter; stroke-linecap: square"/>
   </g>
   <g id="patch_21">
    <path d="M 108 448.56 
L 777.6 448.56 
" style="fill: none; stroke: #000000; stroke-width: 0.8; stroke-linejoin: miter; stroke-linecap: square"/>
   </g>
   <g id="patch_22">
    <path d="M 108 60.48 
L 777.6 60.48 
" style="fill: none; stroke: #000000; stroke-width: 0.8; stroke-linejoin: miter; stroke-linecap: square"/>
   </g>
   <g id="text_23">
    <!-- 武汉二手房房源朝向分布情况 -->
    <g transform="translate(325.8 54.48) scale(0.18 -0.18)">
     <defs>
      <path id="SimHei-6b66" d="M 3700 3375 
Q 3675 3825 3662 4187 
Q 3650 4550 3625 5125 
L 4225 5125 
Q 4150 4725 4150 4275 
Q 4150 3825 4175 3375 
L 4925 3375 
Q 5400 3375 5875 3400 
L 5875 2950 
Q 5400 2975 4925 2975 
L 4175 2975 
Q 4250 1975 4500 1362 
Q 4750 750 5037 375 
Q 5325 0 5462 162 
Q 5600 325 5625 775 
Q 5850 525 6125 400 
Q 5900 -375 5700 -537 
Q 5500 -700 5137 -412 
Q 4775 -125 4525 237 
Q 4275 600 4125 962 
Q 3975 1325 3875 1787 
Q 3775 2250 3725 2975 
L 2550 2975 
L 2550 2025 
Q 3075 2025 3475 2050 
L 3475 1575 
Q 3025 1600 2550 1600 
L 2550 475 
Q 3300 600 3700 650 
Q 3675 475 3675 175 
Q 2825 75 1887 -100 
Q 950 -275 475 -425 
Q 450 -150 325 200 
Q 600 200 925 250 
L 925 1575 
Q 925 1975 900 2350 
L 1450 2350 
Q 1425 1975 1425 1600 
L 1425 300 
L 2075 400 
L 2075 2975 
L 1425 2975 
Q 900 2975 375 2950 
L 375 3400 
Q 900 3375 1425 3375 
L 3700 3375 
z
M 3125 4100 
Q 2575 4125 2000 4125 
Q 1450 4125 875 4100 
L 875 4575 
Q 1475 4550 2025 4550 
Q 2600 4550 3125 4575 
L 3125 4100 
z
M 4900 4700 
Q 5375 4300 5650 4025 
Q 5425 3850 5250 3675 
Q 5075 3900 4575 4350 
Q 4750 4475 4900 4700 
z
" transform="scale(0.015625)"/>
      <path id="SimHei-6c49" d="M 2650 4300 
Q 2400 4275 2175 4275 
L 2175 4750 
Q 2775 4725 3225 4725 
L 5625 4725 
Q 5400 3700 5087 2800 
Q 4775 1900 4325 1225 
Q 4675 825 5162 462 
Q 5650 100 6150 -150 
Q 5925 -275 5725 -600 
Q 5375 -375 4875 50 
Q 4375 475 4025 900 
Q 3625 450 3100 62 
Q 2575 -325 1975 -675 
Q 1900 -475 1625 -225 
Q 2075 -75 2662 300 
Q 3250 675 3750 1250 
Q 3350 1850 3100 2587 
Q 2850 3325 2650 4300 
z
M 3125 4300 
Q 3225 3600 3500 2812 
Q 3775 2025 4050 1650 
Q 4300 2025 4562 2712 
Q 4825 3400 5025 4300 
L 3325 4300 
L 3125 4300 
z
M 1925 1600 
Q 1325 475 875 -425 
Q 700 -250 400 -100 
Q 750 375 1050 937 
Q 1350 1500 1525 1950 
Q 1725 1725 1925 1600 
z
M 625 3600 
Q 1075 3350 1825 2850 
Q 1650 2650 1500 2400 
Q 950 2850 350 3175 
Q 525 3400 625 3600 
z
M 925 5125 
Q 1475 4750 2000 4350 
Q 1800 4125 1675 3925 
Q 1175 4400 625 4750 
Q 850 4975 925 5125 
z
" transform="scale(0.015625)"/>
      <path id="SimHei-4e8c" d="M 5050 625 
Q 5650 625 6025 675 
L 6025 50 
Q 5625 75 5050 75 
L 1425 75 
Q 775 75 350 50 
L 350 650 
Q 800 625 1400 625 
L 5050 625 
z
M 4350 4150 
Q 4900 4175 5350 4200 
L 5350 3575 
Q 4900 3600 4375 3600 
L 2050 3600 
Q 1450 3600 1000 3575 
L 1000 4175 
Q 1450 4150 2025 4150 
L 4350 4150 
z
" transform="scale(0.015625)"/>
      <path id="SimHei-624b" d="M 5525 4425 
Q 5175 4400 3550 4250 
L 3550 3250 
L 4675 3250 
Q 5100 3250 5525 3275 
L 5525 2800 
Q 5100 2800 4675 2825 
L 3550 2825 
L 3550 1900 
L 5325 1900 
Q 5700 1900 6100 1925 
L 6100 1450 
Q 5700 1475 5325 1475 
L 3550 1475 
L 3550 125 
Q 3575 -250 3312 -400 
Q 3050 -550 2425 -600 
Q 2400 -300 2175 -25 
Q 2650 -25 2850 37 
Q 3050 100 3025 350 
L 3025 1475 
L 1225 1475 
Q 775 1450 375 1450 
L 375 1925 
Q 800 1900 1225 1900 
L 3025 1900 
L 3025 2825 
L 1925 2825 
Q 1475 2825 1000 2800 
L 1000 3275 
Q 1450 3250 1925 3250 
L 3025 3250 
L 3025 4200 
Q 1725 4125 1050 4100 
Q 975 4375 825 4575 
Q 1725 4550 3162 4662 
Q 4600 4775 5200 5000 
Q 5350 4650 5525 4425 
z
" transform="scale(0.015625)"/>
      <path id="SimHei-623f" d="M 3175 2800 
Q 3500 2850 3700 2975 
Q 3925 2475 3975 2300 
L 5100 2300 
Q 5525 2300 6025 2325 
L 6025 1875 
Q 5525 1900 5100 1900 
L 3225 1900 
Q 3200 1550 3175 1325 
L 5525 1325 
Q 5475 950 5412 537 
Q 5350 125 5287 -112 
Q 5225 -350 5050 -437 
Q 4875 -525 4000 -600 
Q 3925 -275 3800 -50 
Q 4550 -100 4687 -25 
Q 4825 50 4875 250 
Q 4925 500 4975 900 
L 3100 900 
Q 2975 425 2612 0 
Q 2250 -425 1750 -725 
Q 1625 -500 1350 -325 
Q 1675 -200 1925 0 
Q 2175 200 2375 487 
Q 2575 775 2650 1137 
Q 2725 1500 2725 1900 
L 1500 1900 
Q 1475 1250 1262 562 
Q 1050 -125 750 -600 
Q 550 -375 275 -275 
Q 475 -50 687 387 
Q 900 825 975 1400 
Q 1050 1975 1050 2850 
Q 1050 3750 1025 4500 
L 3100 4500 
Q 3025 4750 2875 5100 
Q 3150 5175 3400 5275 
Q 3625 4700 3650 4500 
L 5575 4500 
Q 5550 4100 5550 3700 
Q 5550 3300 5575 3000 
L 1525 3000 
L 1525 2300 
L 3425 2300 
Q 3350 2600 3175 2800 
z
M 5100 3375 
L 5100 4100 
L 1525 4100 
L 1525 3375 
L 5100 3375 
z
" transform="scale(0.015625)"/>
      <path id="SimHei-6e90" d="M 4475 4300 
Q 4350 4100 4225 3800 
L 5650 3800 
Q 5625 3425 5625 3050 
L 5625 2425 
Q 5625 2150 5650 1650 
L 4575 1650 
L 4575 -25 
Q 4575 -325 4387 -487 
Q 4200 -650 3800 -700 
Q 3725 -425 3575 -150 
Q 4100 -225 4100 100 
L 4100 1650 
L 3050 1650 
Q 3075 2050 3075 2400 
L 3075 3075 
Q 3075 3400 3050 3800 
L 3725 3800 
Q 3825 4025 3925 4425 
Q 4175 4350 4475 4300 
z
M 1200 -175 
Q 1550 150 1725 537 
Q 1900 925 1987 1450 
Q 2075 1975 2087 2537 
Q 2100 3100 2100 3750 
Q 2100 4425 2075 4975 
L 4925 4975 
Q 5500 4975 6025 5000 
L 6025 4525 
Q 5500 4550 4925 4550 
L 2575 4550 
L 2575 2875 
Q 2575 2275 2537 1787 
Q 2500 1300 2362 837 
Q 2225 375 2050 37 
Q 1875 -300 1625 -625 
Q 1500 -375 1200 -175 
z
M 1550 1775 
Q 1375 1275 1150 575 
Q 925 -125 825 -450 
Q 600 -275 250 -125 
Q 400 75 650 687 
Q 900 1300 1075 2100 
Q 1325 1900 1550 1775 
z
M 5150 2900 
L 5150 3400 
L 3550 3400 
L 3550 2900 
L 5150 2900 
z
M 2275 -100 
Q 2475 100 2700 412 
Q 2925 725 3150 1150 
Q 3325 975 3650 825 
Q 3400 600 3200 287 
Q 3000 -25 2700 -400 
Q 2475 -225 2275 -100 
z
M 5150 2050 
L 5150 2500 
L 3550 2500 
L 3550 2050 
L 5150 2050 
z
M 5300 1125 
Q 6000 350 6175 100 
Q 5950 -75 5775 -250 
Q 5575 25 5400 262 
Q 5225 500 4925 825 
Q 5100 950 5300 1125 
z
M 1325 2575 
Q 1125 2775 850 2925 
L 300 3225 
Q 400 3400 525 3625 
Q 750 3500 1062 3337 
Q 1375 3175 1625 3025 
L 1325 2575 
z
M 1425 3975 
Q 975 4475 550 4775 
Q 700 4950 875 5125 
Q 1550 4600 1775 4350 
Q 1600 4175 1425 3975 
z
" transform="scale(0.015625)"/>
      <path id="SimHei-671d" d="M 5825 4875 
Q 5800 4325 5800 3600 
L 5800 125 
Q 5825 -325 5637 -437 
Q 5450 -550 4925 -650 
Q 4850 -350 4700 -100 
Q 5125 -100 5237 -75 
Q 5350 -50 5350 200 
L 5350 1450 
L 4125 1450 
Q 4075 975 3887 450 
Q 3700 -75 3325 -625 
Q 3050 -425 2850 -375 
Q 3225 75 3425 575 
Q 3625 1075 3675 1800 
Q 3725 2525 3725 3375 
Q 3725 4225 3700 4875 
L 5825 4875 
z
M 1750 4475 
Q 1750 4750 1725 5175 
L 2225 5175 
Q 2200 4825 2200 4475 
L 2750 4475 
Q 2975 4475 3375 4500 
L 3375 4075 
Q 3175 4100 2725 4100 
L 2200 4100 
L 2200 3550 
L 3175 3550 
Q 3150 3325 3150 2525 
Q 3150 1725 3175 1450 
L 2200 1450 
L 2200 925 
L 2525 925 
Q 3075 925 3350 950 
L 3350 525 
Q 3075 550 2500 550 
L 2200 550 
L 2200 150 
Q 2200 -175 2225 -575 
L 1700 -575 
Q 1725 -200 1750 150 
L 1750 550 
L 1250 550 
Q 550 550 325 525 
L 325 950 
Q 700 925 1125 925 
L 1750 925 
L 1750 1450 
L 725 1450 
Q 750 1775 750 2525 
Q 750 3275 725 3550 
L 1750 3550 
L 1750 4100 
L 1075 4100 
Q 800 4100 500 4075 
L 500 4500 
Q 825 4475 1150 4475 
L 1750 4475 
z
M 5350 1825 
L 5350 3000 
L 4175 3000 
Q 4175 2475 4150 1825 
L 5350 1825 
z
M 5350 3375 
L 5350 4475 
L 4175 4475 
L 4175 3375 
L 5350 3375 
z
M 2700 1825 
L 2700 2325 
L 1200 2325 
L 1200 1825 
L 2700 1825 
z
M 2700 2700 
L 2700 3175 
L 1200 3175 
L 1200 2700 
L 2700 2700 
z
" transform="scale(0.015625)"/>
      <path id="SimHei-5411" d="M 2025 4150 
Q 2125 4400 2187 4637 
Q 2250 4875 2300 5175 
Q 2750 5025 2925 5000 
Q 2650 4400 2550 4150 
L 5850 4150 
Q 5825 3700 5825 3275 
L 5825 225 
Q 5825 -325 5487 -412 
Q 5150 -500 4700 -525 
Q 4625 -175 4450 50 
Q 5075 25 5212 50 
Q 5350 75 5325 325 
L 5325 3700 
L 1250 3700 
L 1250 -500 
L 725 -500 
Q 725 150 750 550 
L 750 3250 
Q 725 3700 725 4150 
L 2025 4150 
z
M 4450 2825 
Q 4425 2500 4425 2175 
L 4425 1600 
Q 4425 1275 4450 900 
L 2025 900 
Q 2050 1250 2050 1600 
L 2050 2225 
Q 2050 2525 2025 2825 
L 4450 2825 
z
M 3900 1300 
L 3900 2425 
L 2550 2425 
L 2550 1300 
L 3900 1300 
z
" transform="scale(0.015625)"/>
      <path id="SimHei-5206" d="M 1000 -650 
Q 825 -375 575 -225 
Q 975 -75 1300 137 
Q 1625 350 1875 662 
Q 2125 975 2250 1350 
Q 2375 1725 2425 2275 
Q 1850 2275 1500 2250 
L 1500 2775 
Q 1900 2750 2525 2750 
L 5025 2750 
Q 4975 2375 4950 2100 
L 4750 250 
Q 4700 -200 4350 -350 
Q 4000 -500 3575 -525 
Q 3550 -275 3325 50 
Q 3850 25 4037 87 
Q 4225 150 4275 525 
L 4450 2275 
L 2950 2275 
Q 2875 1625 2737 1187 
Q 2600 750 2350 425 
Q 2100 100 1750 -175 
Q 1400 -450 1000 -650 
z
M 3950 5175 
Q 4125 4650 4662 3975 
Q 5200 3300 6175 2800 
Q 5975 2625 5775 2275 
Q 5325 2600 4987 2887 
Q 4650 3175 4425 3425 
Q 4200 3675 3925 4137 
Q 3650 4600 3475 5000 
Q 3750 5075 3950 5175 
z
M 2700 4825 
Q 2475 4425 2325 4125 
Q 2175 3825 2025 3587 
Q 1875 3350 1575 2950 
Q 1275 2550 850 2125 
Q 625 2350 400 2475 
Q 900 2925 1187 3300 
Q 1475 3675 1737 4112 
Q 2000 4550 2200 5075 
Q 2400 4925 2700 4825 
z
" transform="scale(0.015625)"/>
      <path id="SimHei-5e03" d="M 2375 4225 
Q 2650 4775 2775 5300 
Q 3125 5175 3400 5075 
Q 3275 4975 2950 4225 
L 4800 4225 
Q 5550 4225 6025 4250 
L 6025 3800 
L 2725 3800 
Q 2325 3100 1975 2675 
L 3275 2675 
Q 3275 3225 3250 3575 
L 3775 3575 
Q 3750 3225 3750 2675 
L 5500 2675 
Q 5475 2225 5475 1775 
L 5475 750 
Q 5475 275 5212 150 
Q 4950 25 4450 -25 
Q 4400 325 4225 550 
Q 4800 550 4912 625 
Q 5025 700 5000 1025 
L 5000 2250 
L 3750 2250 
L 3750 550 
Q 3750 25 3775 -600 
L 3250 -600 
Q 3275 25 3275 550 
L 3275 2250 
L 2100 2250 
L 2100 0 
L 1600 0 
Q 1625 525 1625 1025 
L 1625 2225 
Q 1300 1850 650 1275 
Q 475 1475 200 1650 
Q 750 2025 1262 2562 
Q 1775 3100 2150 3800 
L 1550 3800 
Q 925 3800 400 3775 
L 400 4250 
Q 925 4225 1550 4225 
L 2375 4225 
z
" transform="scale(0.015625)"/>
      <path id="SimHei-60c5" d="M 2775 1475 
Q 2775 2050 2750 2525 
L 5600 2525 
Q 5575 2100 5575 1725 
L 5575 -150 
Q 5575 -425 5375 -500 
Q 5175 -575 4875 -625 
Q 4850 -400 4700 -150 
Q 5050 -150 5100 -75 
Q 5150 0 5150 475 
L 3225 475 
L 3225 -625 
L 2750 -625 
Q 2775 -50 2775 375 
L 2775 1475 
z
M 2375 3250 
Q 2975 3225 3475 3225 
L 3975 3225 
L 3975 3625 
L 3500 3625 
Q 3075 3625 2625 3600 
L 2625 4025 
Q 3075 4000 3500 4000 
L 3975 4000 
L 3975 4350 
L 3450 4350 
Q 3050 4350 2475 4325 
L 2475 4750 
Q 3075 4725 3450 4725 
L 3975 4725 
Q 3975 4975 3950 5225 
L 4475 5225 
Q 4450 4975 4450 4725 
L 5125 4725 
Q 5550 4725 5925 4750 
L 5925 4325 
Q 5550 4350 5125 4350 
L 4450 4350 
L 4450 4000 
L 4925 4000 
Q 5325 4000 5750 4025 
L 5750 3600 
Q 5300 3625 4925 3625 
L 4450 3625 
L 4450 3225 
L 5175 3225 
Q 5775 3225 6150 3250 
L 6150 2825 
Q 5775 2850 5150 2850 
L 3500 2850 
Q 2850 2850 2375 2825 
L 2375 3250 
z
M 1675 5225 
Q 1650 4800 1650 4400 
L 1650 425 
Q 1650 -100 1675 -600 
L 1150 -600 
Q 1200 -100 1200 425 
L 1200 4325 
Q 1200 4825 1150 5225 
L 1675 5225 
z
M 5125 850 
L 5125 1325 
L 3225 1325 
L 3225 850 
L 5125 850 
z
M 5125 1700 
L 5125 2150 
L 3225 2150 
L 3225 1700 
L 5125 1700 
z
M 1050 3900 
Q 1000 3675 725 2275 
Q 500 2350 250 2375 
Q 425 2750 575 3975 
Q 800 3925 1050 3900 
z
M 1975 3125 
Q 1925 3425 1775 3975 
Q 1950 4000 2200 4075 
Q 2350 3550 2450 3275 
Q 2175 3200 1975 3125 
z
" transform="scale(0.015625)"/>
      <path id="SimHei-51b5" d="M 5450 4875 
Q 5425 4500 5425 3675 
Q 5425 2850 5450 2375 
L 4575 2375 
L 4575 400 
Q 4575 50 4762 25 
Q 4950 0 5200 12 
Q 5450 25 5500 187 
Q 5550 350 5575 825 
Q 5850 675 6150 600 
Q 5975 -175 5775 -287 
Q 5575 -400 5175 -412 
Q 4775 -425 4437 -362 
Q 4100 -300 4100 200 
L 4100 2375 
L 3475 2375 
Q 3500 150 1600 -625 
Q 1525 -375 1275 -150 
Q 3000 375 3000 2375 
L 2325 2375 
Q 2350 2850 2350 3675 
Q 2350 4525 2325 4875 
L 5450 4875 
z
M 4900 2775 
L 4900 4475 
L 2850 4475 
L 2850 2775 
L 4900 2775 
z
M 2025 2200 
Q 1750 1725 1350 1000 
Q 950 275 775 0 
Q 525 175 300 300 
Q 800 975 1600 2500 
Q 1850 2300 2025 2200 
z
M 950 4950 
Q 1100 4775 1350 4462 
Q 1600 4150 1850 3800 
Q 1575 3625 1375 3450 
Q 1075 4025 525 4600 
Q 775 4825 950 4950 
z
" transform="scale(0.015625)"/>
     </defs>
     <use xlink:href="#SimHei-6b66"/>
     <use xlink:href="#SimHei-6c49" x="100"/>
     <use xlink:href="#SimHei-4e8c" x="200"/>
     <use xlink:href="#SimHei-624b" x="300"/>
     <use xlink:href="#SimHei-623f" x="400"/>
     <use xlink:href="#SimHei-623f" x="500"/>
     <use xlink:href="#SimHei-6e90" x="600"/>
     <use xlink:href="#SimHei-671d" x="700"/>
     <use xlink:href="#SimHei-5411" x="800"/>
     <use xlink:href="#SimHei-5206" x="900"/>
     <use xlink:href="#SimHei-5e03" x="1000"/>
     <use xlink:href="#SimHei-60c5" x="1100"/>
     <use xlink:href="#SimHei-51b5" x="1200"/>
    </g>
   </g>
  </g>
 </g>
 <defs>
  <clipPath id="pb3d1db7b0e">
   <rect x="108" y="60.48" width="669.6" height="388.08"/>
  </clipPath>
 </defs>
</svg>
