<?xml version="1.0" encoding="utf-8" standalone="no"?>
<!DOCTYPE svg PUBLIC "-//W3C//DTD SVG 1.1//EN"
  "http://www.w3.org/Graphics/SVG/1.1/DTD/svg11.dtd">
<svg xmlns:xlink="http://www.w3.org/1999/xlink" width="648pt" height="648pt" viewBox="0 0 648 648" xmlns="http://www.w3.org/2000/svg" version="1.1">
 <metadata>
  <rdf:RDF xmlns:dc="http://purl.org/dc/elements/1.1/" xmlns:cc="http://creativecommons.org/ns#" xmlns:rdf="http://www.w3.org/1999/02/22-rdf-syntax-ns#">
   <cc:Work>
    <dc:type rdf:resource="http://purl.org/dc/dcmitype/StillImage"/>
    <dc:date>2023-05-03T23:36:42.845690</dc:date>
    <dc:format>image/svg+xml</dc:format>
    <dc:creator>
     <cc:Agent>
      <dc:title>Matplotlib v3.7.1, https://matplotlib.org/</dc:title>
     </cc:Agent>
    </dc:creator>
   </cc:Work>
  </rdf:RDF>
 </metadata>
 <defs>
  <style type="text/css">*{stroke-linejoin: round; stroke-linecap: butt}</style>
 </defs>
 <g id="figure_1">
  <g id="patch_1">
   <path d="M 0 648 
L 648 648 
L 648 0 
L 0 0 
z
" style="fill: #ffffff"/>
  </g>
  <g id="axes_1">
   <g id="patch_2">
    <path d="M 531.684 327.24 
C 531.684 276.56932 512.38748 227.752737 477.742033 190.776923 
C 443.096586 153.80111 395.637644 131.372038 345.074139 128.078144 
C 294.510634 124.784251 244.542916 140.86659 205.393152 173.035111 
C 166.243388 205.203633 140.776644 251.104171 134.202791 301.346606 
L 332.1 327.24 
z
" style="fill: #8000ff"/>
   </g>
   <g id="patch_3">
    <path d="M 134.202791 301.346606 
C 127.896705 349.542561 139.409283 398.420596 166.562947 438.735547 
C 193.716611 479.050498 234.68414 508.089495 281.716622 520.359881 
L 332.1 327.24 
z
" style="fill: #2adddd"/>
   </g>
   <g id="patch_4">
    <path d="M 281.716622 520.359881 
C 313.412256 528.629009 346.661553 528.969338 378.519809 521.350727 
C 410.378064 513.732116 439.876167 498.386319 464.401635 476.672427 
L 332.1 327.24 
z
" style="fill: #d4dd80"/>
   </g>
   <g id="patch_5">
    <path d="M 464.401635 476.672427 
C 485.553067 457.945776 502.489453 434.939943 514.087727 409.180468 
C 525.686001 383.420993 531.684003 355.490123 531.684 327.239981 
L 332.1 327.24 
z
" style="fill: #ff0000"/>
   </g>
   <g id="matplotlib.axis_1"/>
   <g id="matplotlib.axis_2"/>
   <g id="text_1">
    <!-- 精装 -->
    <g transform="translate(346.371553 112.122896) scale(0.12 -0.12)">
     <defs>
      <path id="SimHei-7cbe" d="M 5600 2300 
Q 5575 1825 5575 1400 
L 5575 -100 
Q 5575 -475 5337 -550 
Q 5100 -625 4775 -675 
Q 4700 -375 4550 -175 
Q 4900 -175 5012 -137 
Q 5125 -100 5125 75 
L 5125 325 
L 3425 325 
L 3425 -625 
L 2975 -625 
Q 3000 75 3000 925 
Q 3000 1775 2975 2300 
L 5600 2300 
z
M 1275 4450 
Q 1275 4875 1250 5125 
L 1750 5125 
Q 1725 4675 1725 4425 
L 1725 3175 
Q 2125 3175 2450 3200 
L 2450 2750 
Q 2125 2775 1725 2775 
L 1725 325 
Q 1725 -75 1750 -650 
L 1250 -650 
Q 1275 -75 1275 325 
L 1275 1925 
Q 1050 1350 575 675 
Q 400 825 200 1000 
Q 450 1275 712 1737 
Q 975 2200 1150 2775 
Q 700 2775 350 2750 
L 350 3200 
Q 700 3175 1275 3175 
L 1275 4450 
z
M 4050 4550 
Q 4050 4850 4025 5125 
L 4525 5125 
Q 4500 4800 4500 4550 
L 5050 4550 
Q 5475 4550 5800 4575 
L 5800 4175 
Q 5450 4200 5050 4200 
L 4500 4200 
L 4500 3725 
L 4850 3725 
Q 5250 3725 5625 3750 
L 5625 3350 
Q 5250 3375 4825 3375 
L 4500 3375 
L 4500 2950 
L 5100 2950 
Q 5550 2950 6075 2975 
L 6075 2575 
Q 5575 2600 5100 2600 
L 3600 2600 
Q 3200 2600 2625 2575 
L 2625 2975 
Q 3150 2950 3575 2950 
L 4050 2950 
L 4050 3375 
L 3675 3375 
Q 3300 3375 2975 3350 
L 2975 3750 
Q 3325 3725 3575 3725 
L 4050 3725 
L 4050 4200 
L 3650 4200 
Q 3250 4200 2800 4175 
L 2800 4575 
Q 3250 4550 3650 4550 
L 4050 4550 
z
M 5125 675 
L 5125 1175 
L 3425 1175 
L 3425 675 
L 5125 675 
z
M 5125 1525 
L 5125 1950 
L 3425 1950 
L 3425 1525 
L 5125 1525 
z
M 2650 4375 
Q 2300 3650 2175 3375 
Q 1975 3475 1775 3525 
Q 2025 4050 2200 4550 
Q 2475 4450 2650 4375 
z
M 2125 2350 
Q 2475 1900 2775 1475 
Q 2600 1350 2400 1200 
Q 2125 1700 1775 2075 
Q 1975 2200 2125 2350 
z
M 650 4525 
Q 900 4150 1175 3625 
Q 1025 3550 800 3400 
Q 600 3800 275 4300 
Q 500 4425 650 4525 
z
" transform="scale(0.015625)"/>
      <path id="SimHei-88c5" d="M 1900 -175 
Q 2050 -50 2075 175 
L 2075 600 
Q 1450 225 825 -50 
Q 700 150 450 350 
Q 825 425 1300 637 
Q 1775 850 2125 1087 
Q 2475 1325 2675 1550 
L 1450 1550 
Q 1050 1550 625 1525 
L 625 1975 
Q 1050 1925 1450 1925 
L 3150 1925 
Q 3000 2275 2775 2525 
Q 2975 2625 3150 2750 
Q 3400 2425 3575 2125 
Q 3350 2025 3250 1925 
L 5100 1925 
Q 5475 1925 5950 1950 
L 5950 1525 
Q 5500 1550 5100 1550 
L 3450 1550 
Q 3900 875 4250 625 
Q 4500 800 4712 987 
Q 4925 1175 5075 1375 
Q 5250 1125 5475 950 
Q 5225 875 4500 350 
Q 4700 225 5037 112 
Q 5375 0 5975 -50 
Q 5750 -300 5700 -525 
Q 5125 -400 4712 -225 
Q 4300 -50 3937 300 
Q 3575 650 3100 1400 
Q 2875 1175 2500 875 
L 2500 75 
Q 2900 225 3275 450 
Q 3300 250 3400 50 
Q 2950 -175 2712 -287 
Q 2475 -400 2175 -575 
Q 2025 -350 1900 -175 
z
M 4075 4400 
Q 4075 4825 4050 5150 
L 4550 5150 
Q 4525 5000 4525 4400 
L 5175 4400 
Q 5400 4400 5775 4425 
L 5775 4000 
Q 5400 4025 5175 4025 
L 4525 4025 
L 4525 3250 
L 5000 3250 
Q 5175 3250 5550 3275 
L 5550 2850 
Q 5175 2875 5000 2875 
L 3850 2875 
Q 3550 2875 3225 2850 
L 3225 3275 
Q 3475 3250 3800 3250 
L 4075 3250 
L 4075 4025 
L 3725 4025 
Q 3400 4025 2975 4000 
L 2975 4425 
Q 3400 4400 3725 4400 
L 4075 4400 
z
M 525 2950 
Q 1000 3125 1450 3312 
Q 1900 3500 2200 3650 
L 2200 4375 
Q 2200 4750 2175 5075 
L 2650 5075 
Q 2625 4800 2625 4375 
L 2625 3200 
Q 2625 2875 2650 2475 
L 2175 2475 
Q 2200 2900 2200 3225 
Q 1875 3100 1487 2900 
Q 1100 2700 800 2550 
Q 700 2775 525 2950 
z
M 1475 3725 
Q 1150 4100 750 4375 
Q 950 4550 1025 4700 
Q 1400 4450 1800 4075 
Q 1625 3900 1475 3725 
z
" transform="scale(0.015625)"/>
     </defs>
     <use xlink:href="#SimHei-7cbe"/>
     <use xlink:href="#SimHei-88c5" x="100"/>
    </g>
   </g>
   <g id="text_2">
    <!-- 47.9% -->
    <g transform="translate(324.884483 211.117887) scale(0.12 -0.12)">
     <defs>
      <path id="SimHei-34" d="M 2000 1100 
L 75 1100 
L 75 1525 
L 2100 4450 
L 2475 4450 
L 2475 1525 
L 3075 1525 
L 3075 1100 
L 2475 1100 
L 2475 150 
L 2000 150 
L 2000 1100 
z
M 2000 1525 
L 2000 3500 
L 600 1525 
L 2000 1525 
z
" transform="scale(0.015625)"/>
      <path id="SimHei-37" d="M 850 150 
Q 1300 2050 2425 3925 
L 275 3925 
L 275 4375 
L 2950 4375 
L 2950 3950 
Q 1775 2050 1400 150 
L 850 150 
z
" transform="scale(0.015625)"/>
      <path id="SimHei-2e" d="M 1075 125 
L 500 125 
L 500 675 
L 1075 675 
L 1075 125 
z
" transform="scale(0.015625)"/>
      <path id="SimHei-39" d="M 800 75 
Q 1350 1000 1700 1750 
Q 1075 1650 662 1912 
Q 250 2175 162 2625 
Q 75 3075 175 3437 
Q 275 3800 487 4037 
Q 700 4275 1000 4375 
Q 1300 4475 1537 4475 
Q 1775 4475 2025 4375 
Q 2275 4275 2475 4075 
Q 2675 3875 2750 3662 
Q 2825 3450 2825 3112 
Q 2825 2775 2575 2250 
Q 2325 1725 1350 75 
L 800 75 
z
M 662 2875 
Q 700 2550 937 2337 
Q 1175 2125 1450 2150 
Q 1725 2175 1887 2300 
Q 2050 2425 2200 2725 
Q 2300 3100 2250 3362 
Q 2200 3625 1987 3800 
Q 1775 3975 1525 3975 
Q 1375 4000 1137 3900 
Q 900 3800 762 3500 
Q 625 3200 662 2875 
z
" transform="scale(0.015625)"/>
      <path id="SimHei-25" d="M 1400 3325 
Q 1400 2600 1187 2400 
Q 975 2200 775 2200 
Q 575 2200 362 2400 
Q 150 2600 150 3325 
Q 150 4050 362 4250 
Q 575 4450 775 4450 
Q 975 4450 1187 4250 
Q 1400 4050 1400 3325 
z
M 2625 4375 
L 700 75 
L 500 150 
L 2425 4450 
L 2625 4375 
z
M 2975 1200 
Q 2975 475 2762 275 
Q 2550 75 2350 75 
Q 2150 75 1937 275 
Q 1725 475 1725 1200 
Q 1725 1925 1937 2125 
Q 2150 2325 2350 2325 
Q 2550 2325 2762 2125 
Q 2975 1925 2975 1200 
z
M 1000 3325 
Q 1000 3775 950 3925 
Q 900 4075 775 4075 
Q 650 4075 600 3925 
Q 550 3775 550 3325 
Q 550 2875 600 2725 
Q 650 2575 775 2575 
Q 900 2575 950 2725 
Q 1000 2875 1000 3325 
z
M 2575 1200 
Q 2575 1650 2525 1800 
Q 2475 1950 2350 1950 
Q 2225 1950 2175 1800 
Q 2125 1650 2125 1200 
Q 2125 750 2175 600 
Q 2225 450 2350 450 
Q 2475 450 2525 600 
Q 2575 750 2575 1200 
z
" transform="scale(0.015625)"/>
     </defs>
     <use xlink:href="#SimHei-34"/>
     <use xlink:href="#SimHei-37" x="50"/>
     <use xlink:href="#SimHei-2e" x="100"/>
     <use xlink:href="#SimHei-39" x="150"/>
     <use xlink:href="#SimHei-25" x="200"/>
    </g>
   </g>
   <g id="text_3">
    <!-- 简装 -->
    <g transform="translate(126.009241 453.939789) scale(0.12 -0.12)">
     <defs>
      <path id="SimHei-7b80" d="M 4275 725 
Q 4275 500 4300 200 
L 2100 200 
Q 2125 525 2125 800 
L 2125 1850 
Q 2125 2150 2100 2375 
L 4300 2375 
Q 4275 2125 4275 1825 
L 4275 725 
z
M 5575 3200 
Q 5550 2850 5550 2350 
L 5550 25 
Q 5550 -450 5262 -537 
Q 4975 -625 4600 -675 
Q 4525 -400 4425 -125 
Q 4950 -150 5037 -100 
Q 5125 -50 5125 175 
L 5125 2825 
L 3325 2825 
Q 3200 2825 2525 2800 
L 2525 3225 
Q 2925 3200 3250 3200 
L 5575 3200 
z
M 5275 3625 
Q 5000 3550 4825 3450 
Q 4725 3800 4550 4225 
L 4100 4225 
Q 3825 3825 3425 3375 
Q 3150 3575 3025 3625 
Q 3550 4150 3712 4450 
Q 3875 4750 4025 5225 
Q 4300 5100 4550 5025 
Q 4425 4875 4275 4600 
L 5275 4600 
Q 5400 4600 5950 4625 
L 5950 4200 
Q 5275 4225 5000 4225 
Q 5100 4000 5275 3625 
z
M 3250 4250 
Q 2750 4275 2325 4275 
Q 2450 4075 2700 3650 
Q 2450 3550 2300 3450 
Q 2100 3900 1875 4275 
L 1625 4275 
Q 1150 3725 775 3400 
Q 625 3575 400 3725 
Q 950 4075 1237 4525 
Q 1525 4975 1625 5250 
Q 1875 5100 2125 5025 
Q 1975 4875 1825 4650 
L 2650 4650 
Q 2950 4650 3250 4675 
L 3250 4250 
z
M 900 -650 
Q 925 -25 925 325 
L 925 1875 
Q 925 2225 900 2775 
L 1375 2775 
Q 1350 2200 1350 1850 
L 1350 200 
Q 1350 25 1375 -650 
L 900 -650 
z
M 3850 575 
L 3850 1150 
L 2550 1150 
L 2550 575 
L 3850 575 
z
M 3850 1525 
L 3850 2025 
L 2550 2025 
L 2550 1525 
L 3850 1525 
z
M 2325 2850 
Q 2125 2725 1925 2525 
Q 1700 2900 1350 3300 
Q 1475 3400 1675 3600 
L 2325 2850 
z
" transform="scale(0.015625)"/>
     </defs>
     <use xlink:href="#SimHei-7b80"/>
     <use xlink:href="#SimHei-88c5" x="100"/>
    </g>
   </g>
   <g id="text_4">
    <!-- 23.0% -->
    <g transform="translate(217.777768 397.512328) scale(0.12 -0.12)">
     <defs>
      <path id="SimHei-32" d="M 300 250 
Q 325 625 650 925 
Q 975 1225 1475 1862 
Q 1975 2500 2125 2850 
Q 2275 3200 2237 3450 
Q 2200 3700 2000 3862 
Q 1800 4025 1537 4000 
Q 1275 3975 1037 3800 
Q 800 3625 675 3275 
L 200 3350 
Q 400 3925 712 4187 
Q 1025 4450 1450 4475 
Q 1700 4500 1900 4462 
Q 2100 4425 2312 4287 
Q 2525 4150 2662 3875 
Q 2800 3600 2762 3212 
Q 2725 2825 2375 2287 
Q 2025 1750 1025 600 
L 2825 600 
L 2825 150 
L 300 150 
L 300 250 
z
" transform="scale(0.015625)"/>
      <path id="SimHei-33" d="M 250 1225 
L 700 1300 
Q 800 975 1025 762 
Q 1250 550 1587 562 
Q 1925 575 2125 837 
Q 2325 1100 2300 1437 
Q 2275 1775 2037 1962 
Q 1800 2150 1275 2225 
L 1275 2550 
Q 1800 2600 2037 2825 
Q 2275 3050 2250 3412 
Q 2225 3775 1925 3937 
Q 1625 4100 1287 3975 
Q 950 3850 750 3275 
L 300 3350 
Q 450 3800 712 4100 
Q 975 4400 1425 4450 
Q 1875 4500 2212 4337 
Q 2550 4175 2687 3837 
Q 2825 3500 2725 3100 
Q 2625 2700 2150 2400 
Q 2500 2250 2687 1950 
Q 2875 1650 2812 1162 
Q 2750 675 2375 375 
Q 2000 75 1525 87 
Q 1050 100 700 387 
Q 350 675 250 1225 
z
" transform="scale(0.015625)"/>
      <path id="SimHei-30" d="M 225 2537 
Q 250 3200 412 3587 
Q 575 3975 875 4225 
Q 1175 4475 1612 4475 
Q 2050 4475 2375 4112 
Q 2700 3750 2800 3200 
Q 2900 2650 2862 1937 
Q 2825 1225 2612 775 
Q 2400 325 1975 150 
Q 1550 -25 1125 187 
Q 700 400 525 750 
Q 350 1100 275 1487 
Q 200 1875 225 2537 
z
M 750 2687 
Q 675 2000 800 1462 
Q 925 925 1212 700 
Q 1500 475 1800 612 
Q 2100 750 2237 1162 
Q 2375 1575 2375 2062 
Q 2375 2550 2337 2950 
Q 2300 3350 2112 3675 
Q 1925 4000 1612 4012 
Q 1300 4025 1062 3700 
Q 825 3375 750 2687 
z
" transform="scale(0.015625)"/>
     </defs>
     <use xlink:href="#SimHei-32"/>
     <use xlink:href="#SimHei-33" x="50"/>
     <use xlink:href="#SimHei-2e" x="100"/>
     <use xlink:href="#SimHei-30" x="150"/>
     <use xlink:href="#SimHei-25" x="200"/>
    </g>
   </g>
   <g id="text_5">
    <!-- 其他 -->
    <g transform="translate(383.161789 544.722737) scale(0.12 -0.12)">
     <defs>
      <path id="SimHei-5176" d="M 4725 1375 
Q 5550 1375 6025 1400 
L 6025 1000 
Q 5575 1025 5250 1025 
L 1225 1025 
Q 675 1025 325 1000 
L 325 1400 
Q 525 1375 1650 1375 
L 1650 3950 
Q 1050 3950 675 3925 
L 675 4350 
Q 875 4325 1650 4325 
Q 1650 4875 1625 5125 
L 2225 5125 
Q 2175 4850 2175 4325 
L 4200 4325 
Q 4200 4775 4175 5100 
L 4750 5100 
Q 4725 4775 4725 4325 
Q 5275 4325 5675 4350 
L 5675 3925 
Q 5250 3950 4725 3950 
L 4725 1375 
z
M 4200 1375 
L 4200 2000 
L 2175 2000 
L 2175 1375 
L 4200 1375 
z
M 4200 2375 
L 4200 3000 
L 2175 3000 
L 2175 2375 
L 4200 2375 
z
M 4200 3350 
L 4200 3950 
L 2175 3950 
L 2175 3350 
L 4200 3350 
z
M 4175 875 
Q 5200 225 5750 -225 
Q 5500 -400 5325 -625 
Q 5025 -250 3825 500 
Q 4075 700 4175 875 
z
M 525 -275 
Q 800 -125 1275 212 
Q 1750 550 2075 875 
Q 2275 675 2475 500 
Q 2200 300 900 -650 
Q 750 -425 525 -275 
z
" transform="scale(0.015625)"/>
      <path id="SimHei-4ed6" d="M 2500 2875 
Q 2500 3850 2475 4225 
L 3000 4225 
Q 2975 3900 2975 3025 
L 3775 3275 
L 3775 4300 
Q 3775 4800 3725 5150 
L 4250 5150 
Q 4225 4800 4225 4275 
L 4225 3450 
L 5575 3925 
Q 5550 2600 5550 2075 
Q 5550 1550 5275 1425 
Q 5000 1300 4575 1225 
Q 4525 1475 4375 1750 
Q 4850 1750 4950 1787 
Q 5050 1825 5050 2025 
L 5075 3275 
L 4225 2975 
L 4225 1375 
Q 4225 950 4250 650 
L 3750 650 
Q 3775 950 3775 1375 
L 3775 2850 
L 2975 2575 
L 2975 425 
Q 2975 75 3325 100 
L 5100 100 
Q 5300 100 5400 212 
Q 5500 325 5550 925 
Q 5850 700 6125 650 
Q 5950 0 5750 -175 
Q 5550 -350 5175 -325 
L 3225 -325 
Q 2550 -350 2500 275 
L 2500 2425 
Q 2125 2300 1900 2175 
L 1700 2650 
Q 2025 2700 2500 2875 
z
M 2250 4925 
Q 2025 4625 1650 3775 
L 1650 475 
Q 1650 -150 1700 -575 
L 1175 -575 
Q 1200 -150 1200 475 
L 1200 2925 
Q 875 2325 700 2050 
Q 525 2275 300 2400 
Q 625 2750 1062 3637 
Q 1500 4525 1650 5175 
Q 2050 5000 2250 4925 
z
" transform="scale(0.015625)"/>
     </defs>
     <use xlink:href="#SimHei-5176"/>
     <use xlink:href="#SimHei-4ed6" x="100"/>
    </g>
   </g>
   <g id="text_6">
    <!-- 15.6% -->
    <g transform="translate(344.951885 447.081436) scale(0.12 -0.12)">
     <defs>
      <path id="SimHei-31" d="M 1400 3600 
Q 1075 3275 575 2975 
L 575 3450 
Q 1200 3875 1600 4450 
L 1900 4450 
L 1900 150 
L 1400 150 
L 1400 3600 
z
" transform="scale(0.015625)"/>
      <path id="SimHei-35" d="M 550 1325 
Q 725 650 1150 575 
Q 1575 500 1837 662 
Q 2100 825 2212 1087 
Q 2325 1350 2312 1675 
Q 2300 2000 2137 2225 
Q 1975 2450 1725 2525 
Q 1475 2600 1162 2525 
Q 850 2450 650 2175 
L 225 2225 
Q 275 2375 700 4375 
L 2675 4375 
L 2675 3925 
L 1075 3925 
Q 950 3250 825 2850 
Q 1200 3025 1525 3012 
Q 1850 3000 2150 2862 
Q 2450 2725 2587 2487 
Q 2725 2250 2787 2012 
Q 2850 1775 2837 1500 
Q 2825 1225 2725 937 
Q 2625 650 2425 462 
Q 2225 275 1937 162 
Q 1650 50 1275 75 
Q 900 100 562 350 
Q 225 600 100 1200 
L 550 1325 
z
" transform="scale(0.015625)"/>
      <path id="SimHei-36" d="M 250 1612 
Q 275 1975 387 2225 
Q 500 2475 725 2850 
L 1750 4450 
L 2325 4450 
L 1275 2800 
Q 1950 2975 2350 2750 
Q 2750 2525 2887 2237 
Q 3025 1950 3037 1612 
Q 3050 1275 2937 950 
Q 2825 625 2537 362 
Q 2250 100 1737 75 
Q 1225 50 862 262 
Q 500 475 362 862 
Q 225 1250 250 1612 
z
M 1025 787 
Q 1250 550 1625 525 
Q 2000 500 2250 775 
Q 2500 1050 2500 1575 
Q 2500 2100 2187 2300 
Q 1875 2500 1487 2450 
Q 1100 2400 925 2075 
Q 750 1750 775 1387 
Q 800 1025 1025 787 
z
" transform="scale(0.015625)"/>
     </defs>
     <use xlink:href="#SimHei-31"/>
     <use xlink:href="#SimHei-35" x="50"/>
     <use xlink:href="#SimHei-2e" x="100"/>
     <use xlink:href="#SimHei-36" x="150"/>
     <use xlink:href="#SimHei-25" x="200"/>
    </g>
   </g>
   <g id="text_7">
    <!-- 毛坯 -->
    <g transform="translate(532.2865 421.241703) scale(0.12 -0.12)">
     <defs>
      <path id="SimHei-6bdb" d="M 5200 4550 
Q 4775 4500 4425 4425 
Q 4075 4350 3075 4175 
L 3075 3175 
Q 3500 3250 5000 3525 
L 5075 3050 
Q 3650 2850 3100 2725 
L 3100 1900 
Q 4425 2075 5625 2300 
L 5675 1775 
Q 4425 1625 3100 1400 
L 3100 325 
Q 3100 -75 3475 -75 
L 4825 -75 
Q 5075 -75 5237 112 
Q 5400 300 5450 800 
Q 5700 625 6025 500 
Q 5850 -50 5675 -250 
Q 5500 -450 5050 -500 
L 3300 -500 
Q 2600 -500 2600 175 
L 2600 1350 
Q 1325 1150 1012 1100 
Q 700 1050 400 1000 
L 325 1525 
Q 1100 1600 1687 1687 
Q 2275 1775 2600 1825 
L 2600 2675 
Q 1450 2500 850 2400 
L 750 2900 
Q 1200 2925 1587 2975 
Q 1975 3025 2575 3125 
L 2575 4100 
Q 1450 3950 875 3900 
Q 825 4100 700 4350 
Q 1050 4350 1575 4400 
Q 2100 4450 2662 4550 
Q 3225 4650 3875 4787 
Q 4525 4925 4850 5075 
Q 4975 4800 5200 4550 
z
" transform="scale(0.015625)"/>
      <path id="SimHei-576f" d="M 6075 -275 
Q 5575 -250 5025 -250 
L 2975 -250 
Q 2725 -250 2075 -275 
L 2075 175 
Q 2625 150 2800 150 
L 3775 150 
L 3775 2825 
Q 3550 2500 3225 2125 
Q 2900 1750 2475 1400 
Q 2300 1650 2050 1775 
Q 2450 2000 2800 2350 
Q 3150 2700 3462 3212 
Q 3775 3725 4000 4375 
L 3325 4375 
Q 2675 4375 2300 4325 
L 2300 4800 
Q 2850 4775 3300 4775 
L 5050 4775 
Q 5425 4775 5950 4800 
L 5950 4350 
Q 5450 4375 5075 4375 
L 4575 4375 
Q 4375 3950 4250 3625 
L 4250 150 
L 5025 150 
Q 5525 150 6075 175 
L 6075 -275 
z
M 200 475 
Q 500 525 712 600 
Q 925 675 1100 725 
L 1100 2925 
Q 700 2925 300 2900 
L 300 3350 
Q 700 3325 1100 3325 
L 1100 4375 
Q 1100 4850 1075 5225 
L 1600 5225 
Q 1575 4850 1575 4375 
L 1575 3325 
Q 2050 3325 2400 3350 
L 2400 2900 
Q 2050 2925 1750 2925 
L 1575 2925 
L 1575 875 
Q 2125 1050 2450 1200 
Q 2425 1000 2425 700 
Q 2075 600 1512 387 
Q 950 175 450 -75 
Q 350 225 200 475 
z
M 5625 1425 
Q 5425 1725 5150 2125 
Q 4875 2525 4575 2875 
Q 4750 3025 4950 3250 
Q 5150 2975 5475 2575 
Q 5800 2175 6100 1750 
Q 5800 1600 5625 1425 
z
" transform="scale(0.015625)"/>
     </defs>
     <use xlink:href="#SimHei-6bdb"/>
     <use xlink:href="#SimHei-576f" x="100"/>
    </g>
   </g>
   <g id="text_8">
    <!-- 13.5% -->
    <g transform="translate(426.292636 379.779281) scale(0.12 -0.12)">
     <use xlink:href="#SimHei-31"/>
     <use xlink:href="#SimHei-33" x="50"/>
     <use xlink:href="#SimHei-2e" x="100"/>
     <use xlink:href="#SimHei-35" x="150"/>
     <use xlink:href="#SimHei-25" x="200"/>
    </g>
   </g>
   <g id="text_9">
    <!-- 武汉二手房装修占比情况 -->
    <g transform="translate(233.1 71.76) scale(0.18 -0.18)">
     <defs>
      <path id="SimHei-6b66" d="M 3700 3375 
Q 3675 3825 3662 4187 
Q 3650 4550 3625 5125 
L 4225 5125 
Q 4150 4725 4150 4275 
Q 4150 3825 4175 3375 
L 4925 3375 
Q 5400 3375 5875 3400 
L 5875 2950 
Q 5400 2975 4925 2975 
L 4175 2975 
Q 4250 1975 4500 1362 
Q 4750 750 5037 375 
Q 5325 0 5462 162 
Q 5600 325 5625 775 
Q 5850 525 6125 400 
Q 5900 -375 5700 -537 
Q 5500 -700 5137 -412 
Q 4775 -125 4525 237 
Q 4275 600 4125 962 
Q 3975 1325 3875 1787 
Q 3775 2250 3725 2975 
L 2550 2975 
L 2550 2025 
Q 3075 2025 3475 2050 
L 3475 1575 
Q 3025 1600 2550 1600 
L 2550 475 
Q 3300 600 3700 650 
Q 3675 475 3675 175 
Q 2825 75 1887 -100 
Q 950 -275 475 -425 
Q 450 -150 325 200 
Q 600 200 925 250 
L 925 1575 
Q 925 1975 900 2350 
L 1450 2350 
Q 1425 1975 1425 1600 
L 1425 300 
L 2075 400 
L 2075 2975 
L 1425 2975 
Q 900 2975 375 2950 
L 375 3400 
Q 900 3375 1425 3375 
L 3700 3375 
z
M 3125 4100 
Q 2575 4125 2000 4125 
Q 1450 4125 875 4100 
L 875 4575 
Q 1475 4550 2025 4550 
Q 2600 4550 3125 4575 
L 3125 4100 
z
M 4900 4700 
Q 5375 4300 5650 4025 
Q 5425 3850 5250 3675 
Q 5075 3900 4575 4350 
Q 4750 4475 4900 4700 
z
" transform="scale(0.015625)"/>
      <path id="SimHei-6c49" d="M 2650 4300 
Q 2400 4275 2175 4275 
L 2175 4750 
Q 2775 4725 3225 4725 
L 5625 4725 
Q 5400 3700 5087 2800 
Q 4775 1900 4325 1225 
Q 4675 825 5162 462 
Q 5650 100 6150 -150 
Q 5925 -275 5725 -600 
Q 5375 -375 4875 50 
Q 4375 475 4025 900 
Q 3625 450 3100 62 
Q 2575 -325 1975 -675 
Q 1900 -475 1625 -225 
Q 2075 -75 2662 300 
Q 3250 675 3750 1250 
Q 3350 1850 3100 2587 
Q 2850 3325 2650 4300 
z
M 3125 4300 
Q 3225 3600 3500 2812 
Q 3775 2025 4050 1650 
Q 4300 2025 4562 2712 
Q 4825 3400 5025 4300 
L 3325 4300 
L 3125 4300 
z
M 1925 1600 
Q 1325 475 875 -425 
Q 700 -250 400 -100 
Q 750 375 1050 937 
Q 1350 1500 1525 1950 
Q 1725 1725 1925 1600 
z
M 625 3600 
Q 1075 3350 1825 2850 
Q 1650 2650 1500 2400 
Q 950 2850 350 3175 
Q 525 3400 625 3600 
z
M 925 5125 
Q 1475 4750 2000 4350 
Q 1800 4125 1675 3925 
Q 1175 4400 625 4750 
Q 850 4975 925 5125 
z
" transform="scale(0.015625)"/>
      <path id="SimHei-4e8c" d="M 5050 625 
Q 5650 625 6025 675 
L 6025 50 
Q 5625 75 5050 75 
L 1425 75 
Q 775 75 350 50 
L 350 650 
Q 800 625 1400 625 
L 5050 625 
z
M 4350 4150 
Q 4900 4175 5350 4200 
L 5350 3575 
Q 4900 3600 4375 3600 
L 2050 3600 
Q 1450 3600 1000 3575 
L 1000 4175 
Q 1450 4150 2025 4150 
L 4350 4150 
z
" transform="scale(0.015625)"/>
      <path id="SimHei-624b" d="M 5525 4425 
Q 5175 4400 3550 4250 
L 3550 3250 
L 4675 3250 
Q 5100 3250 5525 3275 
L 5525 2800 
Q 5100 2800 4675 2825 
L 3550 2825 
L 3550 1900 
L 5325 1900 
Q 5700 1900 6100 1925 
L 6100 1450 
Q 5700 1475 5325 1475 
L 3550 1475 
L 3550 125 
Q 3575 -250 3312 -400 
Q 3050 -550 2425 -600 
Q 2400 -300 2175 -25 
Q 2650 -25 2850 37 
Q 3050 100 3025 350 
L 3025 1475 
L 1225 1475 
Q 775 1450 375 1450 
L 375 1925 
Q 800 1900 1225 1900 
L 3025 1900 
L 3025 2825 
L 1925 2825 
Q 1475 2825 1000 2800 
L 1000 3275 
Q 1450 3250 1925 3250 
L 3025 3250 
L 3025 4200 
Q 1725 4125 1050 4100 
Q 975 4375 825 4575 
Q 1725 4550 3162 4662 
Q 4600 4775 5200 5000 
Q 5350 4650 5525 4425 
z
" transform="scale(0.015625)"/>
      <path id="SimHei-623f" d="M 3175 2800 
Q 3500 2850 3700 2975 
Q 3925 2475 3975 2300 
L 5100 2300 
Q 5525 2300 6025 2325 
L 6025 1875 
Q 5525 1900 5100 1900 
L 3225 1900 
Q 3200 1550 3175 1325 
L 5525 1325 
Q 5475 950 5412 537 
Q 5350 125 5287 -112 
Q 5225 -350 5050 -437 
Q 4875 -525 4000 -600 
Q 3925 -275 3800 -50 
Q 4550 -100 4687 -25 
Q 4825 50 4875 250 
Q 4925 500 4975 900 
L 3100 900 
Q 2975 425 2612 0 
Q 2250 -425 1750 -725 
Q 1625 -500 1350 -325 
Q 1675 -200 1925 0 
Q 2175 200 2375 487 
Q 2575 775 2650 1137 
Q 2725 1500 2725 1900 
L 1500 1900 
Q 1475 1250 1262 562 
Q 1050 -125 750 -600 
Q 550 -375 275 -275 
Q 475 -50 687 387 
Q 900 825 975 1400 
Q 1050 1975 1050 2850 
Q 1050 3750 1025 4500 
L 3100 4500 
Q 3025 4750 2875 5100 
Q 3150 5175 3400 5275 
Q 3625 4700 3650 4500 
L 5575 4500 
Q 5550 4100 5550 3700 
Q 5550 3300 5575 3000 
L 1525 3000 
L 1525 2300 
L 3425 2300 
Q 3350 2600 3175 2800 
z
M 5100 3375 
L 5100 4100 
L 1525 4100 
L 1525 3375 
L 5100 3375 
z
" transform="scale(0.015625)"/>
      <path id="SimHei-4fee" d="M 4150 5075 
Q 3925 4850 3825 4575 
L 5600 4575 
Q 5425 4225 5225 3887 
Q 5025 3550 4725 3250 
Q 5475 2775 6200 2800 
Q 6000 2625 5925 2300 
Q 5050 2450 4400 2950 
Q 3450 2350 2750 2150 
Q 2650 2375 2375 2600 
Q 3150 2725 4050 3250 
Q 3725 3500 3450 3900 
Q 3225 3525 2925 3125 
Q 2750 3275 2525 3375 
Q 2900 3775 3200 4375 
Q 3500 4975 3550 5300 
Q 3800 5175 4150 5075 
z
M 2000 5000 
Q 1825 4875 1475 3825 
L 1475 600 
Q 1475 -200 1500 -550 
L 1025 -550 
Q 1050 -50 1050 525 
L 1050 3125 
Q 925 2800 600 2300 
Q 500 2425 225 2650 
Q 450 2875 862 3700 
Q 1275 4525 1425 5225 
Q 1600 5125 2000 5000 
z
M 6100 700 
Q 5800 575 4950 125 
Q 4100 -325 2775 -675 
Q 2700 -425 2425 -225 
Q 3550 50 4387 400 
Q 5225 750 5675 1125 
Q 5925 825 6100 700 
z
M 2325 3950 
Q 2300 3675 2300 3325 
L 2300 1200 
Q 2300 875 2325 625 
L 1850 625 
Q 1875 900 1875 1200 
L 1875 3325 
Q 1875 3650 1850 3950 
L 2325 3950 
z
M 5425 1525 
Q 4775 1100 4175 775 
Q 3575 450 3250 275 
Q 3000 600 2825 700 
Q 3250 800 3875 1112 
Q 4500 1425 4975 1900 
Q 5275 1625 5425 1525 
z
M 4825 2200 
Q 4400 1975 3250 1325 
Q 3125 1525 2900 1725 
Q 4100 2175 4425 2575 
Q 4650 2325 4825 2200 
z
M 4400 3500 
Q 4675 3825 4900 4200 
L 3725 4200 
Q 4100 3700 4400 3500 
z
" transform="scale(0.015625)"/>
      <path id="SimHei-5360" d="M 2725 4400 
Q 2725 4800 2700 5075 
L 3375 5075 
Q 3350 4775 3350 4400 
L 3350 4000 
L 5250 4000 
Q 5900 4000 6150 4025 
L 6150 3525 
Q 5900 3550 5300 3550 
L 3350 3550 
L 3350 2325 
L 5450 2325 
Q 5400 2000 5400 1525 
L 5400 325 
Q 5400 -250 5450 -550 
L 4850 -550 
L 4850 -25 
L 1475 -25 
L 1475 -550 
L 875 -550 
Q 900 -150 900 175 
L 900 1550 
Q 900 2000 875 2325 
L 2725 2325 
L 2725 4400 
z
M 4850 425 
L 4850 1875 
L 1475 1875 
L 1475 425 
L 4850 425 
z
" transform="scale(0.015625)"/>
      <path id="SimHei-6bd4" d="M 3775 5100 
Q 3750 4575 3750 4100 
L 3750 3050 
Q 4925 3600 5475 4175 
Q 5675 3900 5900 3675 
Q 5600 3500 5037 3187 
Q 4475 2875 3750 2550 
L 3750 450 
Q 3750 100 4050 100 
L 5000 100 
Q 5175 100 5262 250 
Q 5350 400 5450 900 
Q 5650 775 6025 675 
Q 5850 0 5650 -175 
Q 5450 -350 5225 -350 
L 3900 -350 
Q 3250 -350 3250 275 
L 3250 4000 
Q 3250 4550 3225 5100 
L 3775 5100 
z
M 1275 4975 
Q 1250 4575 1250 4000 
L 1250 3150 
L 1850 3150 
Q 2325 3150 2875 3175 
L 2875 2650 
Q 2325 2675 1850 2675 
L 1250 2675 
L 1250 475 
Q 1650 650 1962 812 
Q 2275 975 2850 1275 
Q 2900 950 2950 750 
Q 2375 475 1762 175 
Q 1150 -125 925 -325 
Q 750 -100 575 200 
Q 700 300 750 600 
L 750 3950 
Q 750 4550 725 4975 
L 1275 4975 
z
" transform="scale(0.015625)"/>
      <path id="SimHei-60c5" d="M 2775 1475 
Q 2775 2050 2750 2525 
L 5600 2525 
Q 5575 2100 5575 1725 
L 5575 -150 
Q 5575 -425 5375 -500 
Q 5175 -575 4875 -625 
Q 4850 -400 4700 -150 
Q 5050 -150 5100 -75 
Q 5150 0 5150 475 
L 3225 475 
L 3225 -625 
L 2750 -625 
Q 2775 -50 2775 375 
L 2775 1475 
z
M 2375 3250 
Q 2975 3225 3475 3225 
L 3975 3225 
L 3975 3625 
L 3500 3625 
Q 3075 3625 2625 3600 
L 2625 4025 
Q 3075 4000 3500 4000 
L 3975 4000 
L 3975 4350 
L 3450 4350 
Q 3050 4350 2475 4325 
L 2475 4750 
Q 3075 4725 3450 4725 
L 3975 4725 
Q 3975 4975 3950 5225 
L 4475 5225 
Q 4450 4975 4450 4725 
L 5125 4725 
Q 5550 4725 5925 4750 
L 5925 4325 
Q 5550 4350 5125 4350 
L 4450 4350 
L 4450 4000 
L 4925 4000 
Q 5325 4000 5750 4025 
L 5750 3600 
Q 5300 3625 4925 3625 
L 4450 3625 
L 4450 3225 
L 5175 3225 
Q 5775 3225 6150 3250 
L 6150 2825 
Q 5775 2850 5150 2850 
L 3500 2850 
Q 2850 2850 2375 2825 
L 2375 3250 
z
M 1675 5225 
Q 1650 4800 1650 4400 
L 1650 425 
Q 1650 -100 1675 -600 
L 1150 -600 
Q 1200 -100 1200 425 
L 1200 4325 
Q 1200 4825 1150 5225 
L 1675 5225 
z
M 5125 850 
L 5125 1325 
L 3225 1325 
L 3225 850 
L 5125 850 
z
M 5125 1700 
L 5125 2150 
L 3225 2150 
L 3225 1700 
L 5125 1700 
z
M 1050 3900 
Q 1000 3675 725 2275 
Q 500 2350 250 2375 
Q 425 2750 575 3975 
Q 800 3925 1050 3900 
z
M 1975 3125 
Q 1925 3425 1775 3975 
Q 1950 4000 2200 4075 
Q 2350 3550 2450 3275 
Q 2175 3200 1975 3125 
z
" transform="scale(0.015625)"/>
      <path id="SimHei-51b5" d="M 5450 4875 
Q 5425 4500 5425 3675 
Q 5425 2850 5450 2375 
L 4575 2375 
L 4575 400 
Q 4575 50 4762 25 
Q 4950 0 5200 12 
Q 5450 25 5500 187 
Q 5550 350 5575 825 
Q 5850 675 6150 600 
Q 5975 -175 5775 -287 
Q 5575 -400 5175 -412 
Q 4775 -425 4437 -362 
Q 4100 -300 4100 200 
L 4100 2375 
L 3475 2375 
Q 3500 150 1600 -625 
Q 1525 -375 1275 -150 
Q 3000 375 3000 2375 
L 2325 2375 
Q 2350 2850 2350 3675 
Q 2350 4525 2325 4875 
L 5450 4875 
z
M 4900 2775 
L 4900 4475 
L 2850 4475 
L 2850 2775 
L 4900 2775 
z
M 2025 2200 
Q 1750 1725 1350 1000 
Q 950 275 775 0 
Q 525 175 300 300 
Q 800 975 1600 2500 
Q 1850 2300 2025 2200 
z
M 950 4950 
Q 1100 4775 1350 4462 
Q 1600 4150 1850 3800 
Q 1575 3625 1375 3450 
Q 1075 4025 525 4600 
Q 775 4825 950 4950 
z
" transform="scale(0.015625)"/>
     </defs>
     <use xlink:href="#SimHei-6b66"/>
     <use xlink:href="#SimHei-6c49" x="100"/>
     <use xlink:href="#SimHei-4e8c" x="200"/>
     <use xlink:href="#SimHei-624b" x="300"/>
     <use xlink:href="#SimHei-623f" x="400"/>
     <use xlink:href="#SimHei-88c5" x="500"/>
     <use xlink:href="#SimHei-4fee" x="600"/>
     <use xlink:href="#SimHei-5360" x="700"/>
     <use xlink:href="#SimHei-6bd4" x="800"/>
     <use xlink:href="#SimHei-60c5" x="900"/>
     <use xlink:href="#SimHei-51b5" x="1000"/>
    </g>
   </g>
  </g>
 </g>
</svg>
