<?xml version="1.0" encoding="utf-8" standalone="no"?>
<!DOCTYPE svg PUBLIC "-//W3C//DTD SVG 1.1//EN"
  "http://www.w3.org/Graphics/SVG/1.1/DTD/svg11.dtd">
<svg xmlns:xlink="http://www.w3.org/1999/xlink" width="648pt" height="648pt" viewBox="0 0 648 648" xmlns="http://www.w3.org/2000/svg" version="1.1">
 <metadata>
  <rdf:RDF xmlns:dc="http://purl.org/dc/elements/1.1/" xmlns:cc="http://creativecommons.org/ns#" xmlns:rdf="http://www.w3.org/1999/02/22-rdf-syntax-ns#">
   <cc:Work>
    <dc:type rdf:resource="http://purl.org/dc/dcmitype/StillImage"/>
    <dc:date>2023-05-03T23:36:42.890287</dc:date>
    <dc:format>image/svg+xml</dc:format>
    <dc:creator>
     <cc:Agent>
      <dc:title>Matplotlib v3.7.1, https://matplotlib.org/</dc:title>
     </cc:Agent>
    </dc:creator>
   </cc:Work>
  </rdf:RDF>
 </metadata>
 <defs>
  <style type="text/css">*{stroke-linejoin: round; stroke-linecap: butt}</style>
 </defs>
 <g id="figure_1">
  <g id="patch_1">
   <path d="M 0 648 
L 648 648 
L 648 0 
L 0 0 
z
" style="fill: #ffffff"/>
  </g>
  <g id="axes_1">
   <g id="patch_2">
    <path d="M 531.684 327.24 
C 531.684 295.146276 523.942845 263.521062 509.119342 235.055805 
C 494.295838 206.590548 472.822779 182.11633 446.527617 163.716015 
C 420.232455 145.315701 389.882914 133.526513 358.061874 129.351763 
C 326.240834 125.177014 293.877354 128.738591 263.725712 139.733387 
C 233.574069 150.728184 206.514582 168.835193 184.850132 192.513427 
C 163.185683 216.191661 147.548795 244.749801 139.270238 275.757422 
C 130.99168 306.765044 130.313157 339.316837 137.292413 370.642499 
C 144.271668 401.968161 158.704935 431.153096 179.363877 455.713537 
L 332.1 327.24 
z
" style="fill: #8000ff"/>
   </g>
   <g id="patch_3">
    <path d="M 179.363877 455.713537 
C 205.691793 487.013553 241.015465 509.476744 280.52686 520.045561 
C 320.038255 530.614378 361.859489 528.786511 400.298122 514.810758 
L 332.1 327.24 
z
" style="fill: #2adddd"/>
   </g>
   <g id="patch_4">
    <path d="M 400.298122 514.810758 
C 438.37637 500.966036 471.35085 475.848893 494.813792 442.816793 
C 518.276733 409.784693 531.133933 370.3781 531.666742 329.864579 
L 332.1 327.24 
z
" style="fill: #d4dd80"/>
   </g>
   <g id="patch_5">
    <path d="M 531.666742 329.864579 
C 531.672495 329.427174 531.676809 328.989751 531.679686 328.552317 
C 531.682562 328.114884 531.684 327.677442 531.684 327.239999 
L 332.1 327.24 
z
" style="fill: #ff0000"/>
   </g>
   <g id="matplotlib.axis_1"/>
   <g id="matplotlib.axis_2"/>
   <g id="text_1">
    <!-- 板楼 -->
    <g transform="translate(232.888283 125.013976) scale(0.12 -0.12)">
     <defs>
      <path id="SimHei-677f" d="M 3350 3025 
Q 3325 2125 3250 1550 
Q 3175 1000 3012 537 
Q 2850 75 2400 -550 
Q 2225 -350 1925 -250 
Q 2450 325 2625 850 
Q 2800 1375 2850 1925 
Q 2900 2525 2900 3350 
Q 2900 4175 2850 4600 
Q 3600 4625 4362 4737 
Q 5125 4850 5550 5050 
Q 5700 4700 5875 4525 
Q 5150 4425 4512 4350 
Q 3875 4275 3350 4250 
L 3350 3425 
L 5700 3425 
Q 5575 2725 5387 2037 
Q 5200 1350 4825 750 
Q 5400 125 6125 -200 
Q 5950 -300 5750 -625 
Q 5125 -200 4550 375 
Q 4425 225 4112 -62 
Q 3800 -350 3275 -700 
Q 3150 -500 2850 -325 
Q 3375 -75 3712 187 
Q 4050 450 4275 750 
Q 4025 1200 3850 1625 
Q 3675 2050 3475 3025 
L 3350 3025 
z
M 2150 2675 
Q 2250 2475 2600 1850 
Q 2400 1725 2175 1550 
Q 2100 1775 1750 2400 
L 1750 425 
Q 1750 -75 1775 -625 
L 1275 -625 
Q 1275 -50 1300 425 
L 1300 2200 
Q 1025 1525 550 825 
Q 425 1050 225 1250 
Q 475 1500 800 2137 
Q 1125 2775 1225 3375 
Q 775 3375 425 3350 
L 425 3800 
Q 800 3775 1300 3775 
L 1300 4425 
Q 1300 4775 1275 5100 
L 1775 5100 
Q 1750 4775 1750 4400 
L 1750 3775 
Q 2150 3775 2550 3800 
L 2550 3350 
Q 2125 3375 1750 3375 
L 1750 2450 
Q 1900 2525 2150 2675 
z
M 3900 3025 
Q 4000 2500 4200 1937 
Q 4400 1375 4550 1125 
Q 4950 1850 5125 3025 
L 3900 3025 
z
" transform="scale(0.015625)"/>
      <path id="SimHei-697c" d="M 3425 1625 
Q 3575 1950 3650 2250 
Q 3900 2125 4150 2025 
Q 4050 1900 3900 1625 
L 5250 1625 
Q 5700 1625 6175 1650 
L 6175 1225 
Q 5700 1250 5400 1250 
L 5300 1250 
Q 5075 775 4700 300 
Q 5100 150 5900 -225 
Q 5800 -275 5625 -625 
Q 5175 -350 4425 0 
Q 4050 -275 3575 -425 
Q 3100 -575 2375 -675 
Q 2350 -450 2175 -200 
Q 2800 -200 3250 -100 
Q 3700 0 4000 200 
Q 3700 300 2875 600 
Q 3025 825 3250 1250 
L 2925 1250 
Q 2500 1250 2225 1225 
L 2225 1650 
Q 2500 1625 2925 1625 
L 3425 1625 
z
M 1175 4550 
Q 1175 4875 1150 5175 
L 1650 5175 
Q 1625 4875 1625 4550 
L 1625 3850 
L 1850 3850 
Q 1975 3850 2275 3875 
L 2275 3450 
Q 2025 3475 1900 3475 
L 1625 3475 
L 1625 2875 
L 1825 3050 
Q 2275 2575 2425 2375 
Q 2225 2225 2075 2075 
Q 1875 2375 1625 2625 
L 1625 275 
Q 1625 -125 1650 -625 
L 1150 -625 
Q 1175 -225 1175 275 
L 1175 2250 
Q 1100 2050 975 1725 
Q 825 1375 625 975 
Q 500 1125 225 1275 
Q 550 1775 800 2400 
Q 1050 3025 1125 3475 
L 825 3475 
Q 725 3475 350 3450 
L 350 3875 
Q 650 3850 800 3850 
L 1175 3850 
L 1175 4550 
z
M 3875 3875 
L 3875 4550 
Q 3875 4825 3850 5200 
L 4350 5200 
Q 4325 4850 4325 4550 
L 4325 3875 
L 5250 3875 
Q 5650 3875 5975 3900 
L 5975 3475 
Q 5625 3500 5225 3500 
L 4700 3500 
Q 5025 3125 5325 2900 
Q 5625 2675 6100 2450 
Q 5825 2300 5700 2050 
Q 5025 2550 4712 2900 
Q 4400 3250 4325 3350 
L 4325 2800 
Q 4325 2575 4350 2300 
L 3875 2300 
Q 3900 2525 3900 2725 
L 3900 3350 
Q 3725 3050 3500 2750 
Q 3275 2450 2775 1950 
Q 2650 2100 2400 2275 
Q 2850 2600 3100 2900 
Q 3350 3200 3525 3500 
L 3100 3500 
Q 2675 3500 2425 3475 
L 2425 3900 
Q 2700 3875 3125 3875 
L 3875 3875 
z
M 3450 750 
Q 3650 700 3862 625 
Q 4075 550 4300 475 
Q 4650 875 4825 1250 
L 3725 1250 
Q 3575 1025 3450 750 
z
M 5675 4725 
Q 5150 4175 4975 3950 
Q 4800 4100 4650 4200 
Q 5050 4625 5275 5025 
Q 5475 4850 5675 4725 
z
M 2850 5025 
Q 3150 4700 3525 4300 
Q 3350 4150 3150 4000 
Q 2850 4450 2550 4750 
Q 2700 4875 2850 5025 
z
" transform="scale(0.015625)"/>
     </defs>
     <use xlink:href="#SimHei-677f"/>
     <use xlink:href="#SimHei-697c" x="100"/>
    </g>
   </g>
   <g id="text_2">
    <!-- 61.1% -->
    <g transform="translate(276.075427 218.111032) scale(0.12 -0.12)">
     <defs>
      <path id="SimHei-36" d="M 250 1612 
Q 275 1975 387 2225 
Q 500 2475 725 2850 
L 1750 4450 
L 2325 4450 
L 1275 2800 
Q 1950 2975 2350 2750 
Q 2750 2525 2887 2237 
Q 3025 1950 3037 1612 
Q 3050 1275 2937 950 
Q 2825 625 2537 362 
Q 2250 100 1737 75 
Q 1225 50 862 262 
Q 500 475 362 862 
Q 225 1250 250 1612 
z
M 1025 787 
Q 1250 550 1625 525 
Q 2000 500 2250 775 
Q 2500 1050 2500 1575 
Q 2500 2100 2187 2300 
Q 1875 2500 1487 2450 
Q 1100 2400 925 2075 
Q 750 1750 775 1387 
Q 800 1025 1025 787 
z
" transform="scale(0.015625)"/>
      <path id="SimHei-31" d="M 1400 3600 
Q 1075 3275 575 2975 
L 575 3450 
Q 1200 3875 1600 4450 
L 1900 4450 
L 1900 150 
L 1400 150 
L 1400 3600 
z
" transform="scale(0.015625)"/>
      <path id="SimHei-2e" d="M 1075 125 
L 500 125 
L 500 675 
L 1075 675 
L 1075 125 
z
" transform="scale(0.015625)"/>
      <path id="SimHei-25" d="M 1400 3325 
Q 1400 2600 1187 2400 
Q 975 2200 775 2200 
Q 575 2200 362 2400 
Q 150 2600 150 3325 
Q 150 4050 362 4250 
Q 575 4450 775 4450 
Q 975 4450 1187 4250 
Q 1400 4050 1400 3325 
z
M 2625 4375 
L 700 75 
L 500 150 
L 2425 4450 
L 2625 4375 
z
M 2975 1200 
Q 2975 475 2762 275 
Q 2550 75 2350 75 
Q 2150 75 1937 275 
Q 1725 475 1725 1200 
Q 1725 1925 1937 2125 
Q 2150 2325 2350 2325 
Q 2550 2325 2762 2125 
Q 2975 1925 2975 1200 
z
M 1000 3325 
Q 1000 3775 950 3925 
Q 900 4075 775 4075 
Q 650 4075 600 3925 
Q 550 3775 550 3325 
Q 550 2875 600 2725 
Q 650 2575 775 2575 
Q 900 2575 950 2725 
Q 1000 2875 1000 3325 
z
M 2575 1200 
Q 2575 1650 2525 1800 
Q 2475 1950 2350 1950 
Q 2225 1950 2175 1800 
Q 2125 1650 2125 1200 
Q 2125 750 2175 600 
Q 2225 450 2350 450 
Q 2475 450 2525 600 
Q 2575 750 2575 1200 
z
" transform="scale(0.015625)"/>
     </defs>
     <use xlink:href="#SimHei-36"/>
     <use xlink:href="#SimHei-31" x="50"/>
     <use xlink:href="#SimHei-2e" x="100"/>
     <use xlink:href="#SimHei-31" x="150"/>
     <use xlink:href="#SimHei-25" x="200"/>
    </g>
   </g>
   <g id="text_3">
    <!-- 板塔结合 -->
    <g transform="translate(227.369546 543.380804) scale(0.12 -0.12)">
     <defs>
      <path id="SimHei-5854" d="M 5425 1325 
Q 5400 1050 5400 375 
Q 5400 -275 5425 -625 
L 4950 -625 
L 4950 -225 
L 3075 -225 
L 3075 -600 
L 2575 -600 
Q 2600 -250 2600 350 
Q 2600 950 2575 1325 
L 5425 1325 
z
M 3050 2200 
Q 2675 1800 2325 1575 
Q 2175 1750 1900 1925 
Q 2500 2225 3000 2775 
Q 3500 3325 3725 3925 
Q 4025 3775 4250 3675 
L 4175 3550 
Q 4575 2950 5062 2612 
Q 5550 2275 6200 2150 
Q 5975 1925 5825 1650 
Q 5325 1825 4875 2175 
L 4875 1800 
Q 4425 1825 3950 1825 
Q 3475 1825 3050 1800 
L 3050 2200 
z
M 1025 4400 
Q 1025 4800 1000 5125 
L 1500 5125 
Q 1475 4800 1475 4425 
L 1475 3550 
Q 1900 3550 2225 3575 
L 2225 3125 
Q 1900 3150 1475 3150 
L 1475 1200 
Q 1925 1350 2200 1475 
Q 2200 1275 2250 1025 
Q 1850 875 1312 662 
Q 775 450 500 275 
Q 375 575 225 800 
Q 575 875 1025 1050 
L 1025 3150 
Q 675 3150 350 3125 
L 350 3575 
Q 675 3550 1025 3550 
L 1025 4400 
z
M 2900 4500 
Q 2900 5000 2875 5200 
L 3375 5200 
Q 3350 4975 3350 4500 
L 4600 4500 
Q 4600 4975 4575 5200 
L 5100 5200 
Q 5075 4975 5075 4500 
Q 5700 4500 6050 4525 
L 6050 4100 
Q 5700 4125 5075 4125 
Q 5075 3875 5100 3500 
L 4575 3500 
Q 4600 3875 4600 4125 
L 3350 4125 
Q 3350 3875 3375 3500 
L 2875 3500 
Q 2900 3875 2900 4125 
Q 2400 4125 2075 4100 
L 2075 4525 
Q 2400 4500 2900 4500 
z
M 4950 150 
L 4950 950 
L 3075 950 
L 3075 150 
L 4950 150 
z
M 4775 2225 
Q 4300 2600 3900 3200 
Q 3450 2575 3075 2225 
L 4775 2225 
z
" transform="scale(0.015625)"/>
      <path id="SimHei-7ed3" d="M 5725 1925 
Q 5700 1600 5700 1200 
L 5700 350 
Q 5700 -125 5725 -475 
L 5225 -475 
L 5225 0 
L 3525 0 
L 3525 -525 
L 3025 -525 
Q 3050 125 3050 325 
L 3050 1250 
Q 3050 1550 3025 1925 
L 5725 1925 
z
M 1900 4850 
Q 1700 4600 1475 4200 
Q 1250 3800 925 3200 
Q 1475 3225 1725 3225 
Q 1950 3625 2100 4000 
Q 2350 3825 2650 3675 
Q 2525 3575 2212 3125 
Q 1900 2675 1225 1650 
Q 2050 1775 2525 1850 
Q 2450 1575 2450 1375 
Q 2225 1350 1650 1275 
Q 1075 1200 525 1050 
Q 425 1300 350 1550 
Q 650 1625 950 2012 
Q 1250 2400 1475 2825 
Q 1300 2825 962 2787 
Q 625 2750 375 2675 
Q 300 2925 225 3150 
Q 500 3375 812 3925 
Q 1125 4475 1300 5125 
Q 1600 4975 1900 4850 
z
M 4075 4175 
Q 4075 4600 4050 5175 
L 4575 5175 
Q 4550 4725 4550 4175 
L 5275 4175 
Q 5750 4175 6150 4200 
L 6150 3750 
Q 5750 3775 5300 3775 
L 4550 3775 
L 4550 2950 
L 5125 2950 
Q 5475 2950 5825 2975 
L 5825 2525 
Q 5525 2550 5100 2550 
L 3650 2550 
Q 3225 2550 2900 2525 
L 2900 2975 
Q 3225 2950 3600 2950 
L 4075 2950 
L 4075 3775 
L 3525 3775 
Q 3075 3775 2675 3750 
L 2675 4200 
Q 3000 4175 3475 4175 
L 4075 4175 
z
M 5225 400 
L 5225 1525 
L 3525 1525 
L 3525 400 
L 5225 400 
z
M 2575 650 
Q 2500 425 2525 175 
Q 2050 100 1450 0 
Q 850 -100 425 -225 
Q 325 100 225 350 
Q 750 375 1175 437 
Q 1600 500 2575 650 
z
" transform="scale(0.015625)"/>
      <path id="SimHei-5408" d="M 5050 1800 
Q 5025 1550 5025 650 
Q 5025 -250 5050 -525 
L 4525 -525 
L 4525 -50 
L 1750 -50 
L 1750 -600 
L 1250 -600 
Q 1275 -300 1275 550 
Q 1275 1425 1250 1800 
L 5050 1800 
z
M 3375 4800 
Q 4100 3925 4550 3600 
Q 5000 3275 5375 3100 
Q 5750 2925 6100 2825 
Q 5850 2550 5775 2300 
Q 5275 2525 4875 2775 
Q 4475 3025 4062 3412 
Q 3650 3800 3125 4475 
Q 2650 3800 2187 3362 
Q 1725 2925 1400 2675 
Q 1075 2425 675 2175 
Q 625 2275 275 2575 
Q 800 2825 1275 3175 
Q 1750 3525 2225 4062 
Q 2700 4600 3000 5225 
Q 3275 5050 3500 4950 
L 3375 4800 
z
M 4525 350 
L 4525 1400 
L 1750 1400 
L 1750 350 
L 4525 350 
z
M 3925 2825 
Q 4325 2825 4625 2850 
L 4625 2375 
Q 4300 2400 3950 2400 
L 2550 2400 
Q 2025 2400 1700 2375 
L 1700 2850 
Q 2175 2825 2550 2825 
L 3925 2825 
z
" transform="scale(0.015625)"/>
     </defs>
     <use xlink:href="#SimHei-677f"/>
     <use xlink:href="#SimHei-5854" x="100"/>
     <use xlink:href="#SimHei-7ed3" x="200"/>
     <use xlink:href="#SimHei-5408" x="300"/>
    </g>
   </g>
   <g id="text_4">
    <!-- 19.4% -->
    <g transform="translate(286.156116 446.298336) scale(0.12 -0.12)">
     <defs>
      <path id="SimHei-39" d="M 800 75 
Q 1350 1000 1700 1750 
Q 1075 1650 662 1912 
Q 250 2175 162 2625 
Q 75 3075 175 3437 
Q 275 3800 487 4037 
Q 700 4275 1000 4375 
Q 1300 4475 1537 4475 
Q 1775 4475 2025 4375 
Q 2275 4275 2475 4075 
Q 2675 3875 2750 3662 
Q 2825 3450 2825 3112 
Q 2825 2775 2575 2250 
Q 2325 1725 1350 75 
L 800 75 
z
M 662 2875 
Q 700 2550 937 2337 
Q 1175 2125 1450 2150 
Q 1725 2175 1887 2300 
Q 2050 2425 2200 2725 
Q 2300 3100 2250 3362 
Q 2200 3625 1987 3800 
Q 1775 3975 1525 3975 
Q 1375 4000 1137 3900 
Q 900 3800 762 3500 
Q 625 3200 662 2875 
z
" transform="scale(0.015625)"/>
      <path id="SimHei-34" d="M 2000 1100 
L 75 1100 
L 75 1525 
L 2100 4450 
L 2475 4450 
L 2475 1525 
L 3075 1525 
L 3075 1100 
L 2475 1100 
L 2475 150 
L 2000 150 
L 2000 1100 
z
M 2000 1525 
L 2000 3500 
L 600 1525 
L 2000 1525 
z
" transform="scale(0.015625)"/>
     </defs>
     <use xlink:href="#SimHei-31"/>
     <use xlink:href="#SimHei-39" x="50"/>
     <use xlink:href="#SimHei-2e" x="100"/>
     <use xlink:href="#SimHei-34" x="150"/>
     <use xlink:href="#SimHei-25" x="200"/>
    </g>
   </g>
   <g id="text_5">
    <!-- 塔楼 -->
    <g transform="translate(511.085171 458.382285) scale(0.12 -0.12)">
     <use xlink:href="#SimHei-5854"/>
     <use xlink:href="#SimHei-697c" x="100"/>
    </g>
   </g>
   <g id="text_6">
    <!-- 19.2% -->
    <g transform="translate(414.728275 399.961076) scale(0.12 -0.12)">
     <defs>
      <path id="SimHei-32" d="M 300 250 
Q 325 625 650 925 
Q 975 1225 1475 1862 
Q 1975 2500 2125 2850 
Q 2275 3200 2237 3450 
Q 2200 3700 2000 3862 
Q 1800 4025 1537 4000 
Q 1275 3975 1037 3800 
Q 800 3625 675 3275 
L 200 3350 
Q 400 3925 712 4187 
Q 1025 4450 1450 4475 
Q 1700 4500 1900 4462 
Q 2100 4425 2312 4287 
Q 2525 4150 2662 3875 
Q 2800 3600 2762 3212 
Q 2725 2825 2375 2287 
Q 2025 1750 1025 600 
L 2825 600 
L 2825 150 
L 300 150 
L 300 250 
z
" transform="scale(0.015625)"/>
     </defs>
     <use xlink:href="#SimHei-31"/>
     <use xlink:href="#SimHei-39" x="50"/>
     <use xlink:href="#SimHei-2e" x="100"/>
     <use xlink:href="#SimHei-32" x="150"/>
     <use xlink:href="#SimHei-25" x="200"/>
    </g>
   </g>
   <g id="text_7">
    <!-- 平房 -->
    <g transform="translate(551.637654 332.808549) scale(0.12 -0.12)">
     <defs>
      <path id="SimHei-5e73" d="M 4525 4825 
Q 4900 4825 5450 4850 
L 5450 4375 
Q 4925 4400 4525 4400 
L 3475 4400 
L 3475 2025 
L 5000 2025 
Q 5550 2025 6025 2050 
L 6025 1575 
Q 5550 1600 5000 1600 
L 3475 1600 
L 3475 450 
Q 3475 -100 3500 -600 
L 2925 -600 
Q 2950 -100 2950 450 
L 2950 1600 
L 1125 1600 
Q 775 1600 375 1575 
L 375 2050 
Q 775 2025 1175 2025 
L 2950 2025 
L 2950 4400 
L 1775 4400 
Q 1400 4400 875 4375 
L 875 4850 
Q 1400 4825 1750 4825 
L 4525 4825 
z
M 3925 2600 
Q 4500 3300 4900 4125 
Q 5150 3950 5400 3825 
Q 4775 2850 4350 2300 
Q 4150 2475 3925 2600 
z
M 1975 2350 
Q 1600 3100 1050 3725 
Q 1250 3875 1450 4050 
Q 2075 3300 2450 2725 
Q 2150 2500 1975 2350 
z
" transform="scale(0.015625)"/>
      <path id="SimHei-623f" d="M 3175 2800 
Q 3500 2850 3700 2975 
Q 3925 2475 3975 2300 
L 5100 2300 
Q 5525 2300 6025 2325 
L 6025 1875 
Q 5525 1900 5100 1900 
L 3225 1900 
Q 3200 1550 3175 1325 
L 5525 1325 
Q 5475 950 5412 537 
Q 5350 125 5287 -112 
Q 5225 -350 5050 -437 
Q 4875 -525 4000 -600 
Q 3925 -275 3800 -50 
Q 4550 -100 4687 -25 
Q 4825 50 4875 250 
Q 4925 500 4975 900 
L 3100 900 
Q 2975 425 2612 0 
Q 2250 -425 1750 -725 
Q 1625 -500 1350 -325 
Q 1675 -200 1925 0 
Q 2175 200 2375 487 
Q 2575 775 2650 1137 
Q 2725 1500 2725 1900 
L 1500 1900 
Q 1475 1250 1262 562 
Q 1050 -125 750 -600 
Q 550 -375 275 -275 
Q 475 -50 687 387 
Q 900 825 975 1400 
Q 1050 1975 1050 2850 
Q 1050 3750 1025 4500 
L 3100 4500 
Q 3025 4750 2875 5100 
Q 3150 5175 3400 5275 
Q 3625 4700 3650 4500 
L 5575 4500 
Q 5550 4100 5550 3700 
Q 5550 3300 5575 3000 
L 1525 3000 
L 1525 2300 
L 3425 2300 
Q 3350 2600 3175 2800 
z
M 5100 3375 
L 5100 4100 
L 1525 4100 
L 1525 3375 
L 5100 3375 
z
" transform="scale(0.015625)"/>
     </defs>
     <use xlink:href="#SimHei-5e73"/>
     <use xlink:href="#SimHei-623f" x="100"/>
    </g>
   </g>
   <g id="text_8">
    <!-- 0.2% -->
    <g transform="translate(439.847811 331.40239) scale(0.12 -0.12)">
     <defs>
      <path id="SimHei-30" d="M 225 2537 
Q 250 3200 412 3587 
Q 575 3975 875 4225 
Q 1175 4475 1612 4475 
Q 2050 4475 2375 4112 
Q 2700 3750 2800 3200 
Q 2900 2650 2862 1937 
Q 2825 1225 2612 775 
Q 2400 325 1975 150 
Q 1550 -25 1125 187 
Q 700 400 525 750 
Q 350 1100 275 1487 
Q 200 1875 225 2537 
z
M 750 2687 
Q 675 2000 800 1462 
Q 925 925 1212 700 
Q 1500 475 1800 612 
Q 2100 750 2237 1162 
Q 2375 1575 2375 2062 
Q 2375 2550 2337 2950 
Q 2300 3350 2112 3675 
Q 1925 4000 1612 4012 
Q 1300 4025 1062 3700 
Q 825 3375 750 2687 
z
" transform="scale(0.015625)"/>
     </defs>
     <use xlink:href="#SimHei-30"/>
     <use xlink:href="#SimHei-2e" x="50"/>
     <use xlink:href="#SimHei-32" x="100"/>
     <use xlink:href="#SimHei-25" x="150"/>
    </g>
   </g>
   <g id="text_9">
    <!-- 武汉二手房建筑类型占比情况 -->
    <g transform="translate(215.1 71.76) scale(0.18 -0.18)">
     <defs>
      <path id="SimHei-6b66" d="M 3700 3375 
Q 3675 3825 3662 4187 
Q 3650 4550 3625 5125 
L 4225 5125 
Q 4150 4725 4150 4275 
Q 4150 3825 4175 3375 
L 4925 3375 
Q 5400 3375 5875 3400 
L 5875 2950 
Q 5400 2975 4925 2975 
L 4175 2975 
Q 4250 1975 4500 1362 
Q 4750 750 5037 375 
Q 5325 0 5462 162 
Q 5600 325 5625 775 
Q 5850 525 6125 400 
Q 5900 -375 5700 -537 
Q 5500 -700 5137 -412 
Q 4775 -125 4525 237 
Q 4275 600 4125 962 
Q 3975 1325 3875 1787 
Q 3775 2250 3725 2975 
L 2550 2975 
L 2550 2025 
Q 3075 2025 3475 2050 
L 3475 1575 
Q 3025 1600 2550 1600 
L 2550 475 
Q 3300 600 3700 650 
Q 3675 475 3675 175 
Q 2825 75 1887 -100 
Q 950 -275 475 -425 
Q 450 -150 325 200 
Q 600 200 925 250 
L 925 1575 
Q 925 1975 900 2350 
L 1450 2350 
Q 1425 1975 1425 1600 
L 1425 300 
L 2075 400 
L 2075 2975 
L 1425 2975 
Q 900 2975 375 2950 
L 375 3400 
Q 900 3375 1425 3375 
L 3700 3375 
z
M 3125 4100 
Q 2575 4125 2000 4125 
Q 1450 4125 875 4100 
L 875 4575 
Q 1475 4550 2025 4550 
Q 2600 4550 3125 4575 
L 3125 4100 
z
M 4900 4700 
Q 5375 4300 5650 4025 
Q 5425 3850 5250 3675 
Q 5075 3900 4575 4350 
Q 4750 4475 4900 4700 
z
" transform="scale(0.015625)"/>
      <path id="SimHei-6c49" d="M 2650 4300 
Q 2400 4275 2175 4275 
L 2175 4750 
Q 2775 4725 3225 4725 
L 5625 4725 
Q 5400 3700 5087 2800 
Q 4775 1900 4325 1225 
Q 4675 825 5162 462 
Q 5650 100 6150 -150 
Q 5925 -275 5725 -600 
Q 5375 -375 4875 50 
Q 4375 475 4025 900 
Q 3625 450 3100 62 
Q 2575 -325 1975 -675 
Q 1900 -475 1625 -225 
Q 2075 -75 2662 300 
Q 3250 675 3750 1250 
Q 3350 1850 3100 2587 
Q 2850 3325 2650 4300 
z
M 3125 4300 
Q 3225 3600 3500 2812 
Q 3775 2025 4050 1650 
Q 4300 2025 4562 2712 
Q 4825 3400 5025 4300 
L 3325 4300 
L 3125 4300 
z
M 1925 1600 
Q 1325 475 875 -425 
Q 700 -250 400 -100 
Q 750 375 1050 937 
Q 1350 1500 1525 1950 
Q 1725 1725 1925 1600 
z
M 625 3600 
Q 1075 3350 1825 2850 
Q 1650 2650 1500 2400 
Q 950 2850 350 3175 
Q 525 3400 625 3600 
z
M 925 5125 
Q 1475 4750 2000 4350 
Q 1800 4125 1675 3925 
Q 1175 4400 625 4750 
Q 850 4975 925 5125 
z
" transform="scale(0.015625)"/>
      <path id="SimHei-4e8c" d="M 5050 625 
Q 5650 625 6025 675 
L 6025 50 
Q 5625 75 5050 75 
L 1425 75 
Q 775 75 350 50 
L 350 650 
Q 800 625 1400 625 
L 5050 625 
z
M 4350 4150 
Q 4900 4175 5350 4200 
L 5350 3575 
Q 4900 3600 4375 3600 
L 2050 3600 
Q 1450 3600 1000 3575 
L 1000 4175 
Q 1450 4150 2025 4150 
L 4350 4150 
z
" transform="scale(0.015625)"/>
      <path id="SimHei-624b" d="M 5525 4425 
Q 5175 4400 3550 4250 
L 3550 3250 
L 4675 3250 
Q 5100 3250 5525 3275 
L 5525 2800 
Q 5100 2800 4675 2825 
L 3550 2825 
L 3550 1900 
L 5325 1900 
Q 5700 1900 6100 1925 
L 6100 1450 
Q 5700 1475 5325 1475 
L 3550 1475 
L 3550 125 
Q 3575 -250 3312 -400 
Q 3050 -550 2425 -600 
Q 2400 -300 2175 -25 
Q 2650 -25 2850 37 
Q 3050 100 3025 350 
L 3025 1475 
L 1225 1475 
Q 775 1450 375 1450 
L 375 1925 
Q 800 1900 1225 1900 
L 3025 1900 
L 3025 2825 
L 1925 2825 
Q 1475 2825 1000 2800 
L 1000 3275 
Q 1450 3250 1925 3250 
L 3025 3250 
L 3025 4200 
Q 1725 4125 1050 4100 
Q 975 4375 825 4575 
Q 1725 4550 3162 4662 
Q 4600 4775 5200 5000 
Q 5350 4650 5525 4425 
z
" transform="scale(0.015625)"/>
      <path id="SimHei-5efa" d="M 3650 4700 
Q 3650 5025 3625 5250 
L 4125 5250 
Q 4100 5025 4100 4700 
L 5450 4700 
Q 5425 4400 5425 3850 
Q 5775 3850 6050 3875 
L 6050 3450 
Q 5800 3475 5425 3475 
Q 5425 2925 5450 2625 
L 4100 2625 
L 4100 2125 
Q 5075 2125 5400 2150 
L 5400 1725 
Q 5100 1750 4100 1750 
L 4100 1250 
L 4850 1250 
Q 5325 1250 5725 1275 
L 5725 825 
Q 5325 850 4850 850 
L 4100 850 
Q 4100 425 4125 125 
L 3625 125 
Q 3650 425 3650 850 
L 3075 850 
Q 2700 850 2250 825 
L 2250 1275 
Q 2675 1250 3100 1250 
L 3650 1250 
L 3650 1750 
Q 2950 1750 2425 1725 
L 2425 2150 
Q 2975 2125 3650 2125 
L 3650 2625 
Q 3000 2625 2550 2600 
L 2550 3025 
Q 3000 3000 3650 3000 
L 3650 3475 
L 3200 3475 
Q 2750 3475 2200 3450 
L 2200 3875 
Q 2750 3850 3200 3850 
L 3650 3850 
L 3650 4325 
Q 2975 4325 2525 4300 
L 2525 4725 
Q 2975 4700 3650 4700 
z
M 2050 4625 
Q 1975 4425 1300 2850 
L 2125 2850 
Q 2000 1875 1887 1475 
Q 1775 1075 1650 750 
Q 2000 425 2450 262 
Q 2900 100 3500 37 
Q 4100 -25 4775 -12 
Q 5450 0 6125 75 
Q 5950 -175 5925 -475 
Q 4775 -500 4037 -462 
Q 3300 -425 2812 -312 
Q 2325 -200 2012 -25 
Q 1700 150 1425 375 
Q 1125 -75 650 -550 
Q 475 -350 250 -200 
Q 750 150 1100 700 
Q 875 1000 737 1250 
Q 600 1500 475 1825 
Q 600 1850 900 2000 
Q 975 1700 1325 1125 
Q 1500 1650 1600 2450 
Q 1050 2450 725 2325 
L 600 2775 
Q 900 2875 1100 3362 
Q 1300 3850 1450 4250 
Q 950 4250 525 4225 
L 525 4650 
Q 1025 4625 2050 4625 
z
M 4975 3000 
L 4975 3475 
L 4100 3475 
L 4100 3000 
L 4975 3000 
z
M 4975 3850 
L 4975 4325 
L 4100 4325 
L 4100 3850 
L 4975 3850 
z
" transform="scale(0.015625)"/>
      <path id="SimHei-7b51" d="M 5200 3125 
Q 5175 2675 5175 2250 
L 5175 500 
Q 5150 -50 5400 -50 
L 5500 -50 
Q 5675 -50 5700 600 
Q 5950 450 6200 425 
Q 6100 -225 5987 -350 
Q 5875 -475 5650 -475 
L 5125 -475 
Q 4725 -475 4725 0 
L 4725 2725 
L 3425 2725 
Q 3425 2100 3387 1600 
Q 3350 1100 3262 700 
Q 3175 300 3025 -25 
Q 2875 -350 2625 -675 
Q 2400 -525 2125 -450 
Q 2425 -175 2650 350 
Q 2875 875 2912 1425 
Q 2950 1975 2962 2362 
Q 2975 2750 2950 3125 
L 5200 3125 
z
M 1900 2950 
Q 2250 2950 2625 2975 
L 2625 2525 
Q 2200 2550 1850 2550 
L 1850 900 
L 2600 1050 
Q 2575 750 2600 600 
Q 2250 525 1662 400 
Q 1075 275 550 100 
Q 475 350 300 625 
Q 725 675 1375 800 
L 1375 2550 
Q 900 2550 500 2525 
L 500 2975 
Q 900 2950 1275 2950 
L 1900 2950 
z
M 1750 5025 
Q 1625 4850 1475 4625 
L 2350 4625 
Q 2875 4625 3175 4650 
L 3175 4225 
Q 2925 4250 2500 4250 
L 2200 4250 
Q 2450 3700 2550 3475 
Q 2275 3375 2050 3275 
Q 2000 3500 1725 4250 
L 1325 4250 
Q 1175 3975 1037 3762 
Q 900 3550 725 3325 
Q 500 3475 250 3625 
Q 600 3925 837 4387 
Q 1075 4850 1250 5275 
Q 1575 5100 1750 5025 
z
M 3500 3350 
Q 3275 3475 3075 3550 
Q 3325 3925 3550 4387 
Q 3775 4850 3900 5250 
Q 4150 5125 4475 5025 
Q 4350 4950 4175 4625 
L 5075 4625 
Q 5500 4625 5950 4650 
L 5950 4225 
Q 5575 4250 5100 4250 
Q 5350 3725 5450 3475 
Q 5175 3375 4950 3275 
Q 4900 3575 4650 4250 
L 4025 4250 
Q 3800 3800 3500 3350 
z
M 4500 800 
Q 4225 725 4025 625 
Q 3975 975 3650 1850 
Q 3850 1925 4100 2000 
L 4500 800 
z
" transform="scale(0.015625)"/>
      <path id="SimHei-7c7b" d="M 2125 3875 
Q 1750 4375 1325 4725 
Q 1525 4875 1675 5050 
L 2525 4225 
Q 2400 4125 2200 3875 
L 3025 3875 
L 3025 4550 
Q 3025 4900 3000 5125 
L 3525 5125 
Q 3500 4850 3500 4550 
L 3500 3875 
L 4325 3875 
Q 4125 4050 4000 4150 
Q 4450 4575 4800 5175 
Q 5000 5000 5275 4825 
Q 5100 4675 4912 4475 
Q 4725 4275 4400 3875 
L 5025 3875 
Q 5425 3875 5900 3900 
L 5900 3450 
Q 5425 3475 5025 3475 
L 3500 3475 
L 3500 3050 
Q 3500 2650 3525 2175 
L 3175 2175 
Q 3475 2075 3675 2000 
Q 3575 1875 3525 1575 
L 5025 1575 
Q 5525 1575 6025 1600 
L 6025 1150 
Q 5550 1175 5050 1175 
L 3675 1175 
Q 4050 600 4712 275 
Q 5375 -50 6050 -175 
Q 5850 -350 5725 -675 
Q 4975 -450 4350 -37 
Q 3725 375 3300 950 
Q 3050 350 2425 -50 
Q 1800 -450 775 -700 
Q 650 -425 475 -225 
Q 1375 -100 2012 225 
Q 2650 550 2900 1175 
L 1625 1175 
Q 1025 1175 525 1150 
L 525 1600 
Q 950 1575 1600 1575 
L 3025 1575 
Q 3075 1825 3100 2175 
L 3000 2175 
Q 3025 2675 3025 3050 
L 3025 3325 
Q 2725 2900 2237 2550 
Q 1750 2200 925 1825 
Q 850 2025 625 2275 
Q 1175 2400 1725 2737 
Q 2275 3075 2600 3475 
L 1550 3475 
Q 1050 3475 600 3425 
L 600 3900 
Q 1075 3875 1550 3875 
L 2125 3875 
z
M 4100 3450 
Q 4850 3000 5800 2350 
Q 5575 2125 5425 1925 
Q 4700 2550 3825 3075 
Q 3975 3250 4100 3450 
z
" transform="scale(0.015625)"/>
      <path id="SimHei-578b" d="M 2625 1775 
Q 2650 2325 2650 2700 
L 2650 3000 
L 1825 3000 
Q 1725 2375 1425 2000 
Q 1125 1625 775 1425 
Q 650 1650 375 1900 
Q 850 2075 1062 2362 
Q 1275 2650 1350 3000 
Q 900 3000 375 2975 
L 375 3450 
Q 925 3425 1400 3425 
Q 1425 3950 1425 4475 
Q 1075 4475 700 4450 
L 700 4900 
Q 1050 4875 1525 4875 
L 3000 4875 
Q 3275 4875 3650 4900 
L 3650 4450 
Q 3325 4475 3125 4475 
L 3125 3425 
Q 3450 3425 3825 3450 
L 3825 2975 
Q 3450 3000 3125 3000 
L 3125 2675 
Q 3125 2225 3150 1775 
L 2625 1775 
z
M 3000 1175 
Q 3000 1375 2975 1725 
L 3500 1725 
Q 3475 1375 3475 1175 
L 4550 1175 
Q 5050 1175 5450 1200 
L 5450 725 
Q 4975 750 4550 750 
L 3475 750 
L 3475 -50 
L 5275 -50 
Q 5700 -50 6100 -25 
L 6100 -500 
Q 5725 -475 5300 -475 
L 1250 -475 
Q 775 -475 400 -500 
L 400 -25 
Q 775 -50 1250 -50 
L 3000 -50 
L 3000 750 
L 2025 750 
Q 1500 750 975 725 
L 1050 1200 
Q 1500 1175 2025 1175 
L 3000 1175 
z
M 5775 5200 
Q 5750 4775 5750 4325 
L 5750 2400 
Q 5775 1950 5612 1775 
Q 5450 1600 4900 1525 
Q 4825 1775 4675 2100 
Q 5175 2075 5237 2150 
Q 5300 2225 5300 2525 
L 5300 4325 
Q 5300 4775 5275 5200 
L 5775 5200 
z
M 4600 4750 
Q 4575 4450 4575 3975 
L 4575 3200 
Q 4575 2825 4600 2425 
L 4100 2425 
Q 4125 2825 4125 3200 
L 4125 3975 
Q 4125 4450 4100 4750 
L 4600 4750 
z
M 2650 3425 
L 2650 4475 
L 1875 4475 
Q 1850 3750 1850 3425 
L 2650 3425 
z
" transform="scale(0.015625)"/>
      <path id="SimHei-5360" d="M 2725 4400 
Q 2725 4800 2700 5075 
L 3375 5075 
Q 3350 4775 3350 4400 
L 3350 4000 
L 5250 4000 
Q 5900 4000 6150 4025 
L 6150 3525 
Q 5900 3550 5300 3550 
L 3350 3550 
L 3350 2325 
L 5450 2325 
Q 5400 2000 5400 1525 
L 5400 325 
Q 5400 -250 5450 -550 
L 4850 -550 
L 4850 -25 
L 1475 -25 
L 1475 -550 
L 875 -550 
Q 900 -150 900 175 
L 900 1550 
Q 900 2000 875 2325 
L 2725 2325 
L 2725 4400 
z
M 4850 425 
L 4850 1875 
L 1475 1875 
L 1475 425 
L 4850 425 
z
" transform="scale(0.015625)"/>
      <path id="SimHei-6bd4" d="M 3775 5100 
Q 3750 4575 3750 4100 
L 3750 3050 
Q 4925 3600 5475 4175 
Q 5675 3900 5900 3675 
Q 5600 3500 5037 3187 
Q 4475 2875 3750 2550 
L 3750 450 
Q 3750 100 4050 100 
L 5000 100 
Q 5175 100 5262 250 
Q 5350 400 5450 900 
Q 5650 775 6025 675 
Q 5850 0 5650 -175 
Q 5450 -350 5225 -350 
L 3900 -350 
Q 3250 -350 3250 275 
L 3250 4000 
Q 3250 4550 3225 5100 
L 3775 5100 
z
M 1275 4975 
Q 1250 4575 1250 4000 
L 1250 3150 
L 1850 3150 
Q 2325 3150 2875 3175 
L 2875 2650 
Q 2325 2675 1850 2675 
L 1250 2675 
L 1250 475 
Q 1650 650 1962 812 
Q 2275 975 2850 1275 
Q 2900 950 2950 750 
Q 2375 475 1762 175 
Q 1150 -125 925 -325 
Q 750 -100 575 200 
Q 700 300 750 600 
L 750 3950 
Q 750 4550 725 4975 
L 1275 4975 
z
" transform="scale(0.015625)"/>
      <path id="SimHei-60c5" d="M 2775 1475 
Q 2775 2050 2750 2525 
L 5600 2525 
Q 5575 2100 5575 1725 
L 5575 -150 
Q 5575 -425 5375 -500 
Q 5175 -575 4875 -625 
Q 4850 -400 4700 -150 
Q 5050 -150 5100 -75 
Q 5150 0 5150 475 
L 3225 475 
L 3225 -625 
L 2750 -625 
Q 2775 -50 2775 375 
L 2775 1475 
z
M 2375 3250 
Q 2975 3225 3475 3225 
L 3975 3225 
L 3975 3625 
L 3500 3625 
Q 3075 3625 2625 3600 
L 2625 4025 
Q 3075 4000 3500 4000 
L 3975 4000 
L 3975 4350 
L 3450 4350 
Q 3050 4350 2475 4325 
L 2475 4750 
Q 3075 4725 3450 4725 
L 3975 4725 
Q 3975 4975 3950 5225 
L 4475 5225 
Q 4450 4975 4450 4725 
L 5125 4725 
Q 5550 4725 5925 4750 
L 5925 4325 
Q 5550 4350 5125 4350 
L 4450 4350 
L 4450 4000 
L 4925 4000 
Q 5325 4000 5750 4025 
L 5750 3600 
Q 5300 3625 4925 3625 
L 4450 3625 
L 4450 3225 
L 5175 3225 
Q 5775 3225 6150 3250 
L 6150 2825 
Q 5775 2850 5150 2850 
L 3500 2850 
Q 2850 2850 2375 2825 
L 2375 3250 
z
M 1675 5225 
Q 1650 4800 1650 4400 
L 1650 425 
Q 1650 -100 1675 -600 
L 1150 -600 
Q 1200 -100 1200 425 
L 1200 4325 
Q 1200 4825 1150 5225 
L 1675 5225 
z
M 5125 850 
L 5125 1325 
L 3225 1325 
L 3225 850 
L 5125 850 
z
M 5125 1700 
L 5125 2150 
L 3225 2150 
L 3225 1700 
L 5125 1700 
z
M 1050 3900 
Q 1000 3675 725 2275 
Q 500 2350 250 2375 
Q 425 2750 575 3975 
Q 800 3925 1050 3900 
z
M 1975 3125 
Q 1925 3425 1775 3975 
Q 1950 4000 2200 4075 
Q 2350 3550 2450 3275 
Q 2175 3200 1975 3125 
z
" transform="scale(0.015625)"/>
      <path id="SimHei-51b5" d="M 5450 4875 
Q 5425 4500 5425 3675 
Q 5425 2850 5450 2375 
L 4575 2375 
L 4575 400 
Q 4575 50 4762 25 
Q 4950 0 5200 12 
Q 5450 25 5500 187 
Q 5550 350 5575 825 
Q 5850 675 6150 600 
Q 5975 -175 5775 -287 
Q 5575 -400 5175 -412 
Q 4775 -425 4437 -362 
Q 4100 -300 4100 200 
L 4100 2375 
L 3475 2375 
Q 3500 150 1600 -625 
Q 1525 -375 1275 -150 
Q 3000 375 3000 2375 
L 2325 2375 
Q 2350 2850 2350 3675 
Q 2350 4525 2325 4875 
L 5450 4875 
z
M 4900 2775 
L 4900 4475 
L 2850 4475 
L 2850 2775 
L 4900 2775 
z
M 2025 2200 
Q 1750 1725 1350 1000 
Q 950 275 775 0 
Q 525 175 300 300 
Q 800 975 1600 2500 
Q 1850 2300 2025 2200 
z
M 950 4950 
Q 1100 4775 1350 4462 
Q 1600 4150 1850 3800 
Q 1575 3625 1375 3450 
Q 1075 4025 525 4600 
Q 775 4825 950 4950 
z
" transform="scale(0.015625)"/>
     </defs>
     <use xlink:href="#SimHei-6b66"/>
     <use xlink:href="#SimHei-6c49" x="100"/>
     <use xlink:href="#SimHei-4e8c" x="200"/>
     <use xlink:href="#SimHei-624b" x="300"/>
     <use xlink:href="#SimHei-623f" x="400"/>
     <use xlink:href="#SimHei-5efa" x="500"/>
     <use xlink:href="#SimHei-7b51" x="600"/>
     <use xlink:href="#SimHei-7c7b" x="700"/>
     <use xlink:href="#SimHei-578b" x="800"/>
     <use xlink:href="#SimHei-5360" x="900"/>
     <use xlink:href="#SimHei-6bd4" x="1000"/>
     <use xlink:href="#SimHei-60c5" x="1100"/>
     <use xlink:href="#SimHei-51b5" x="1200"/>
    </g>
   </g>
  </g>
 </g>
</svg>
